<svg xmlns="http://www.w3.org/2000/svg" width="30" height="30" viewBox="0 0 30 30"><defs><style>.a{fill:#ffc400;}.b{fill:#fff;}</style></defs><g transform="translate(0 1)"><circle class="a" cx="15" cy="15" r="15" transform="translate(0 -1)"/><g transform="translate(4.828 3.109)"><path class="b" d="M223.474,346.129a1.438,1.438,0,1,1-1.438-1.438A1.438,1.438,0,0,1,223.474,346.129Zm0,0" transform="translate(-211.678 -327.363)"/><path class="b" d="M222.035,68.035a1.438,1.438,0,0,1,1.438,1.438V80.292a1.438,1.438,0,0,1-2.876,0V69.473A1.438,1.438,0,0,1,222.035,68.035Zm0,0" transform="translate(-211.678 -66.809)"/></g></g></svg>