<svg xmlns="http://www.w3.org/2000/svg" width="12" height="12" viewBox="0 0 12 12"><g transform="translate(-3992.25 -1128.25)"><g transform="translate(3992.25 1128.25)"><path d="M4004.125,1139.113a.428.428,0,0,1,0,.605l-.407.407a.428.428,0,0,1-.605,0l-4.862-4.863-4.863,4.863a.428.428,0,0,1-.6,0l-.407-.407a.428.428,0,0,1,0-.605l4.863-4.863-4.863-4.873a.416.416,0,0,1,0-.595l.407-.407a.428.428,0,0,1,.6,0l4.863,4.863,4.862-4.863a.428.428,0,0,1,.605,0l.407.407a.428.428,0,0,1,0,.605l-4.862,4.863Z" transform="translate(-3992.25 -1128.25)"/></g></g></svg>