<svg xmlns="http://www.w3.org/2000/svg" width="87" height="87" viewBox="0 0 87 87"><defs><style>.a{fill:#ffdc00;}</style></defs><path class="a" d="M65.412,43.5,85.85,23.063a3.924,3.924,0,0,0,0-5.55L69.488,1.15a3.924,3.924,0,0,0-5.55,0L43.5,21.588,23.061,1.15a3.924,3.924,0,0,0-5.55,0L1.149,17.513a3.924,3.924,0,0,0,0,5.55L21.587,43.5,1.149,63.939a3.924,3.924,0,0,0,0,5.55L17.512,85.851a3.924,3.924,0,0,0,5.55,0L43.5,65.413,63.938,85.851a3.924,3.924,0,0,0,5.55,0L85.85,69.489a3.924,3.924,0,0,0,0-5.55Z" transform="translate(0 -0.001)"/></svg>