<svg xmlns="http://www.w3.org/2000/svg" width="85.599" height="54" viewBox="0 0 85.599 54">
    <g id="fedex-truck" transform="translate(-0.5 -0.5)">
        <path id="Path_10365" data-name="Path 10365" d="M28.926,93.39A8.814,8.814,0,1,1,20.11,102.2,8.822,8.822,0,0,1,28.926,93.39Zm0,15.627A6.814,6.814,0,1,0,22.11,102.2,6.821,6.821,0,0,0,28.926,109.017Zm0-10.878A4.064,4.064,0,1,1,24.86,102.2,4.067,4.067,0,0,1,28.926,98.14Zm0,6.128A2.064,2.064,0,1,0,26.86,102.2,2.066,2.066,0,0,0,28.926,104.268Z" transform="translate(-11.931 -56.517)" fill="#ffdc00"/>
        <path id="Path_10366" data-name="Path 10366" d="M1.5.5H49.706a1,1,0,0,1,1,1V45.684a1,1,0,0,1-1,1h-24.9a1,1,0,0,1-1-1,6.814,6.814,0,0,0-13.627,0,1,1,0,0,1-1,1H1.5a1,1,0,0,1-1-1V1.5A1,1,0,0,1,1.5.5Zm47.206,2H2.5V44.684H8.235a8.815,8.815,0,0,1,17.515,0H48.706Z" fill="#ffdc00"/>
        <path id="Path_10367" data-name="Path 10367" d="M160,62.844h-8.861a1,1,0,0,1-1-1,6.814,6.814,0,0,0-13.627,0,1,1,0,0,1-1,1H124.61a1,1,0,0,1-1-1V28.06a1,1,0,0,1,1-1h21.45a1,1,0,0,1,.91.585l6.965,15.286,6.46,2.749a1,1,0,0,1,.608.92V61.844A1,1,0,0,1,160,62.844Zm-7.918-2H159V47.262l-6.209-2.643a1,1,0,0,1-.518-.505l-6.86-15.054H125.61V60.844h8.962a8.815,8.815,0,0,1,17.515,0Z" transform="translate(-74.904 -16.16)" fill="#ffdc00"/>
        <path id="Path_10368" data-name="Path 10368" d="M147.7,27.061h12.411a1,1,0,0,1,.91.585l6.946,15.246a1,1,0,0,1-.91,1.415H147.7a1,1,0,0,1-1-1V28.061A1,1,0,0,1,147.7,27.061Zm11.768,2H148.7V42.306h16.8Z" transform="translate(-88.952 -16.161)" fill="#ffdc00"/>
        <path id="Path_10369" data-name="Path 10369" d="M36.306,105.52a4.064,4.064,0,1,1-4.066,4.062A4.067,4.067,0,0,1,36.306,105.52Zm0,6.128a2.064,2.064,0,1,0-2.066-2.066A2.066,2.066,0,0,0,36.306,111.648Z" transform="translate(-19.312 -63.898)" fill="#ffdc00"/>
        <path id="Path_10370" data-name="Path 10370" d="M167.656,105.52a4.064,4.064,0,1,1-4.066,4.062A4.067,4.067,0,0,1,167.656,105.52Zm0,6.128a2.064,2.064,0,1,0-2.066-2.066A2.066,2.066,0,0,0,167.656,111.648Z" transform="translate(-99.229 -63.898)" fill="#ffdc00"/>
        <path id="Path_10371" data-name="Path 10371" d="M160.276,93.39a8.814,8.814,0,1,1-8.816,8.812A8.822,8.822,0,0,1,160.276,93.39Zm0,15.627a6.814,6.814,0,1,0-6.816-6.816A6.821,6.821,0,0,0,160.276,109.017Zm0-10.878a4.064,4.064,0,1,1-4.066,4.062A4.067,4.067,0,0,1,160.276,98.14Zm0,6.128a2.064,2.064,0,1,0-2.066-2.066A2.066,2.066,0,0,0,160.276,104.268Z" transform="translate(-91.849 -56.517)" fill="#ffdc00"/>
        <g id="Group_11138" data-name="Group 11138" transform="translate(5.393 5.718)">
            <path id="Path_10372" data-name="Path 10372" d="M42.231,18.782l2.8-3.146H41.753l-1.143,1.3-1.181-1.3h-6.24V14.8h2.944V12.273H28.2v3.968h-.03a2.312,2.312,0,0,0-1.861-.777A3.137,3.137,0,0,0,23.3,17.825c-.949-3.124-5.119-3.026-6.4-.732V15.823H14.021V14.448h3.153v-2.16H11.443V21.98h2.578V17.885h2.571a3.605,3.605,0,0,0-.12.956c0,3.841,5.388,4.805,6.838,1.248h-2.2a1.326,1.326,0,0,1-2.406-.77h4.491a3.27,3.27,0,0,0,3.161,2.989,2.2,2.2,0,0,0,1.831-.979h.03v.628h11.15l1.158-1.315,1.173,1.315h3.378Zm-23.472-.874a1.241,1.241,0,0,1,2.444,0Zm8.064,2.571c-1.816,0-1.786-3.3,0-3.3C28.534,17.175,28.638,20.478,26.823,20.478Zm8.818,1H30.678V12.729H35.67v1.584H32.726v1.778h2.914v1.48H32.7v2.347h2.945V21.48Zm-2.414-2.092V18.109h2.952V15.793l2.66,3-2.66,3v-2.4Zm7.286.545L39.138,21.48h-2l2.4-2.69-2.4-2.69H39.22l1.4,1.54,1.345-1.54h2.025L41.6,18.782l2.414,2.7h-2.13l-1.375-1.547Z" transform="translate(-11.443 -12.273)" fill="#ffdc00"/>
        </g>
        <path id="Path_10373" data-name="Path 10373" d="M102.471,32.617a.966.966,0,1,0-.966.991A.948.948,0,0,0,102.471,32.617Zm-1.22.051v.648h-.209v-1.43h.52c.3,0,.445.134.445.393a.3.3,0,0,1-.247.3v.006c.121.019.165.127.19.324a1.316,1.316,0,0,0,.09.4h-.247a4.436,4.436,0,0,1-.1-.484.209.209,0,0,0-.24-.165h-.2Zm.26-.185c.2,0,.262-.108.262-.2,0-.113-.058-.2-.262-.2h-.26v.406h.26Zm-1.2.134A1.2,1.2,0,1,1,101.5,33.8,1.172,1.172,0,0,1,100.31,32.617Z" transform="translate(-60.119 -18.213)" fill="#ffdc00"/>
    </g>
</svg>
