<svg xmlns="http://www.w3.org/2000/svg" width="24" height="24" viewBox="0 0 24 24"><defs><style>.a{fill:#1d1d1b;}.b{fill:none;}</style></defs><path class="a" d="M18.578,0H1.31A.814.814,0,0,0,.586.43a.786.786,0,0,0,.064.835L6.977,9.96l.007.009a1.735,1.735,0,0,1,.355,1.046V18.1a.778.778,0,0,0,.235.561.818.818,0,0,0,.573.233.85.85,0,0,0,.319-.062l3.555-1.323a.753.753,0,0,0,.53-.741V11.015A1.735,1.735,0,0,1,12.9,9.968l.007-.009,6.326-8.7A.785.785,0,0,0,19.3.43.814.814,0,0,0,18.578,0ZM12.112,9.4a2.687,2.687,0,0,0-.546,1.615v5.639L8.322,17.861V11.015A2.685,2.685,0,0,0,7.776,9.4L1.634.959h16.62Zm0,0" transform="translate(2.504 3)"/><rect class="b" width="24" height="24"/></svg>