<svg xmlns="http://www.w3.org/2000/svg" xmlns:xlink="http://www.w3.org/1999/xlink" width="65.569" height="76.049" viewBox="0 0 65.569 76.049">
  <defs>
    <clipPath id="clip-path">
      <path id="Path_10116" data-name="Path 10116" d="M34.034-24.593c18.225,0,32.221,29.383,32.221,44.735S51.743,51.456,33.518,51.456.686,36.918.686,21.566,15.809-24.593,34.034-24.593Z" transform="translate(-8409 842.593)" fill="#ffdc00"/>
    </clipPath>
  </defs>
  <g id="girl" transform="translate(8408.314 -818)" clip-path="url(#clip-path)">
    <g id="support" transform="translate(-8403.042 818.629)">
      <g id="Group_5573" data-name="Group 5573" transform="translate(18.611 22.684)">
        <rect id="Rectangle_2529" data-name="Rectangle 2529" width="23.416" height="28.183" transform="translate(0)" fill="#4a342a"/>
      </g>
      <g id="Group_5576" data-name="Group 5576" transform="translate(21.295 39.057)">
        <rect id="Rectangle_2530" data-name="Rectangle 2530" width="11.467" height="8.503" fill="#ffd9ba"/>
      </g>
      <g id="Group_5577" data-name="Group 5577" transform="translate(21.295 39.04)" style="isolation: isolate">
        <path id="Path_7481" data-name="Path 7481" d="M599.86,204.057v0c.127.152.254.3.39.446a12.75,12.75,0,0,0,1.131,1.07c.014.01.024.019.036.03.129.1.26.19.393.282.2.14.407.278.618.405.305.184.615.365.934.524.1.04.4.167.5.2.308.106.617.212.933.3s.648.172.978.237a5.659,5.659,0,0,1,.639.125,17.591,17.591,0,0,0,2.327.131c.333-.006.667-.012,1-.04.106-.008.6-.084.654-.084a9.685,9.685,0,0,0,.941-.262v-5.788H599.86v2.4C599.894,204.083,599.9,204.1,599.86,204.057Z" transform="translate(-599.86 -201.633)" fill="#f5bf91"/>
      </g>
      <g id="Group_5574" data-name="Group 5574" transform="translate(0 45.578)">
        <path id="Path_7479" data-name="Path 7479" d="M569.993,224.986c-6.257-.726-9.338-2.626-9.865-2.979H548.986c-.527.353-3.608,2.253-9.866,2.979l-4.028,6.92s-7.714,5.712-7.563,15.753c0,0,8.974,4.16,27.026,4.125,18.053.035,27.027-4.125,27.027-4.125.116-7.731-4.9-13.81-4.9-13.81Z" transform="translate(-527.528 -222.007)" fill="#ffd9ba"/>
      </g>
      <g id="Group_5575" data-name="Group 5575" transform="translate(0 48.557)">
        <path id="Path_7480" data-name="Path 7480" d="M539.121,231.079s-.653,2.776-4.179,8.148c-2.03,3.086-7.542,5.84-7.412,14.526,0,0,8.974,4.16,27.026,4.125,18.053.035,27.027-4.125,27.027-4.125.114-7.553-3.254-10.065-5.148-13.656-3.312-6.292-6.443-9.017-6.443-9.017S557.189,244.654,539.121,231.079Z" transform="translate(-527.528 -231.079)" fill="#ffdc00"/>
      </g>
      <g id="Group_5579" data-name="Group 5579" transform="translate(13.983 6.794)">
        <path id="Path_7482" data-name="Path 7482" d="M601.367,113.31c0,10.069-5.841,18.231-13.046,18.231s-13.046-8.162-13.046-18.231,5.841-16.377,13.046-16.377S601.367,103.242,601.367,113.31Z" transform="translate(-575.275 -96.933)" fill="#ffd9ba"/>
      </g>
      <g id="Group_5580" data-name="Group 5580" transform="translate(0.06 45.907)">
        <path id="Path_7483" data-name="Path 7483" d="M548.448,223.094a25.237,25.237,0,0,1-9.321,2.649s-11.86,4.589-11.526,26.8c0,0,10.715.026,26.962,0,18.053.035,27.049,0,27.049,0,.334-22.215-11.612-26.8-11.612-26.8a25.222,25.222,0,0,1-9.321-2.65s9.377,15.348-6.115,28.443C554.563,251.536,538.826,236.642,548.448,223.094Z" transform="translate(-527.594 -223.093)" fill="#1d1d1b"/>
      </g>
      <g id="Group_5581" data-name="Group 5581" transform="translate(17.11 56.268)">
        <path id="Path_7484" data-name="Path 7484" d="M585.525,257.935c.005.029.01.057.016.086.046.226.093.454.143.679l.1-.044C585.693,258.42,585.608,258.178,585.525,257.935Z" transform="translate(-585.525 -257.935)" fill="#00a4b7"/>
      </g>
      <g id="Group_5582" data-name="Group 5582" transform="translate(10.998 45.907)">
        <path id="Path_7485" data-name="Path 7485" d="M596.832,225.743a25.573,25.573,0,0,1-9.4-2.65s6.409,14.56-6.164,27.662c0,0-12.152-12.766-6.164-27.662a25.584,25.584,0,0,1-9.4,2.649,10.307,10.307,0,0,0,2.214,10.017s1.821-1,2.8-.713l-3.482,2.606a19.142,19.142,0,0,0,11.608,14.889h5.464A22.484,22.484,0,0,0,595.3,235.617a8.24,8.24,0,0,0-3.556-1.856,8.294,8.294,0,0,1,3.556-.286S598.838,231.579,596.832,225.743Z" transform="translate(-565.243 -223.093)" fill="#747474"/>
      </g>
      <g id="Group_5583" data-name="Group 5583" transform="translate(27.029 75.355)">
        <path id="Path_7486" data-name="Path 7486" d="M619.136,320.216" transform="translate(-619.136 -320.216)" fill="#00a4b7"/>
      </g>
      <g id="Group_5586" data-name="Group 5586" transform="translate(11.113 0.334)">
        <path id="Path_7489" data-name="Path 7489" d="M599.846,120.008s-.252-17.134-1.095-27.131c0,0,0-.106,0-.3a18.355,18.355,0,0,0-2.636-9.21,22.519,22.519,0,0,0-3.623-4.474c-4.9-4.557-16.078-4.829-19.245,2.236-2.981,2.145-14.836,13.815-.8,41.5l3.435-1.4.2-6.261s-13.531-14.491-1.115-27.84L575,87.1a.247.247,0,0,1-.041.031A12.623,12.623,0,0,1,582.4,86.1c6.656,1.028,8.1,8.469,10.968,13.489a13.8,13.8,0,0,0,1.535,2.371,116.09,116.09,0,0,1,.512,16.12,23.413,23.413,0,0,1-5.63,14.679S602.712,137.141,599.846,120.008Z" transform="translate(-565.728 -75.626)" fill="#6a4b3d"/>
      </g>
      <g id="Group_5590" data-name="Group 5590" transform="translate(40.674 17.925)">
        <g id="Group_5588" data-name="Group 5588">
          <path id="Path_7491" data-name="Path 7491" d="M665.739,135.669a2.9,2.9,0,0,1,2.878-2.918h0a2.9,2.9,0,0,1,2.879,2.918v6.566a2.9,2.9,0,0,1-2.879,2.918h0a2.9,2.9,0,0,1-2.878-2.918Z" transform="translate(-665.739 -132.751)" fill="#1d1d1b"/>
        </g>
      </g>
      <g id="Group_5591" data-name="Group 5591" transform="translate(46.043 19.662)">
        <path id="Path_7493" data-name="Path 7493" d="M683.788,138.454V147.4c1.221-.542,2.117-2.338,2.117-4.471S685.009,139,683.788,138.454Z" transform="translate(-683.788 -138.454)" fill="#979797"/>
      </g>
      <g id="Group_5592" data-name="Group 5592" transform="translate(32.256 25.143)">
        <path id="Path_7494" data-name="Path 7494" d="M640.328,175.477q-.332,0-.67-.009a.544.544,0,0,1-.523-.563.533.533,0,0,1,.552-.534c4.62.128,8.151-1.113,10.481-3.689a11.387,11.387,0,0,0,3.142-8.659.539.539,0,1,1,1.07-.119,12.277,12.277,0,0,1-3.415,9.516C648.532,174.114,644.956,175.477,640.328,175.477Z" transform="translate(-639.134 -161.416)" fill="#1d1d1b"/>
      </g>
      <g id="Group_5593" data-name="Group 5593" transform="translate(29.635 37.453)">
        <path id="Path_7495" data-name="Path 7495" d="M632.449,207.479a1.329,1.329,0,0,1-1.319,1.338h-1.771a1.328,1.328,0,0,1-1.319-1.338h0a1.328,1.328,0,0,1,1.319-1.337h1.771a1.329,1.329,0,0,1,1.319,1.337Z" transform="translate(-628.04 -206.142)" fill="#1d1d1b"/>
      </g>
      <g id="Group_5595" data-name="Group 5595" transform="translate(10.207 17.925)">
        <path id="Path_7497" data-name="Path 7497" d="M567.918,135.669a2.9,2.9,0,0,0-2.878-2.918h0a2.9,2.9,0,0,0-2.878,2.918v6.566a2.9,2.9,0,0,0,2.878,2.918h0a2.9,2.9,0,0,0,2.878-2.918Z" transform="translate(-562.161 -132.751)" fill="#1d1d1b"/>
      </g>
      <g id="Group_5598" data-name="Group 5598" transform="translate(8.34 19.662)">
        <g id="Group_5597" data-name="Group 5597" transform="translate(0 0)">
          <path id="Path_7499" data-name="Path 7499" d="M554.54,138.454V147.4c-1.353-.542-2.347-2.338-2.347-4.471S553.187,139,554.54,138.454Z" transform="translate(-552.193 -138.454)" fill="#979797"/>
        </g>
      </g>
      <path id="Path_7500" data-name="Path 7500" d="M566.191,99.006a1.949,1.949,0,0,1-.214-.336,17.476,17.476,0,0,1,.214-2.469c0-9.01,6.656-15.208,15.369-15.208s15.363,6.2,15.363,15.208a17.133,17.133,0,0,1,.219,2.487,2.072,2.072,0,0,1-.219.318h2.111a19.062,19.062,0,0,0,.213-2.8c0-10.1-7.918-18.292-17.688-18.292S563.872,86.1,563.872,96.2a18.6,18.6,0,0,0,.221,2.8Z" transform="translate(-553.205 -77.909)" fill="#1d1d1b"/>
    </g>
  </g>
</svg>
