<svg xmlns="http://www.w3.org/2000/svg" width="25" height="25" viewBox="0 0 25 25"><defs><style>.a{fill:#1d1d1b;}</style></defs><g transform="translate(-134.708 -100.208)"><path class="a" d="M149.511,121.127a1.178,1.178,0,1,0,1.174,1.183A1.18,1.18,0,0,0,149.511,121.127Z" transform="translate(-2.303 -3.535)"/><path class="a" d="M147.208,100.208a12.5,12.5,0,1,0,12.5,12.5A12.514,12.514,0,0,0,147.208,100.208Zm0,23.368a10.868,10.868,0,1,1,10.868-10.868A10.88,10.88,0,0,1,147.208,123.576Z"/><path class="a" d="M148.957,106.727a3.9,3.9,0,0,0-3.9,3.9.929.929,0,1,0,1.858,0,2.042,2.042,0,1,1,2.042,2.042.93.93,0,0,0-.933.925v2.476a.933.933,0,1,0,1.866,0v-1.656l.039-.011a3.9,3.9,0,0,0-.972-7.676Z" transform="translate(-1.749 -1.271)"/></g></svg>