<svg xmlns="http://www.w3.org/2000/svg" width="59" height="18" viewBox="0 0 59 18">
  <g id="same-day" transform="translate(-2889 -612)">
    <rect id="Rectangle_2377" data-name="Rectangle 2377" width="59" height="18" rx="2" transform="translate(2889 612)" fill="#ffdc00"/>
    <path id="_Time" data-name="↳ Time" d="M4.289-2.238a1.069,1.069,0,0,0-.267-.788,3.07,3.07,0,0,0-.97-.554A4.519,4.519,0,0,1,1.207-4.72,2.29,2.29,0,0,1,.645-6.264,2.164,2.164,0,0,1,1.409-8a2.885,2.885,0,0,1,1.942-.653,2.908,2.908,0,0,1,1.4.331,2.3,2.3,0,0,1,.946.935,2.8,2.8,0,0,1,.331,1.371H4.313a1.415,1.415,0,0,0-.255-.911.893.893,0,0,0-.735-.313.921.921,0,0,0-.7.267,1,1,0,0,0-.252.718.884.884,0,0,0,.281.636,3.234,3.234,0,0,0,1,.589A4.268,4.268,0,0,1,5.458-3.92a2.467,2.467,0,0,1,.565,1.67A2.2,2.2,0,0,1,5.314-.51,2.807,2.807,0,0,1,3.387.117a3.32,3.32,0,0,1-1.506-.34A2.549,2.549,0,0,1,.817-1.2,2.825,2.825,0,0,1,.434-2.689H2.162a1.63,1.63,0,0,0,.287,1.072,1.175,1.175,0,0,0,.938.334Q4.289-1.283,4.289-2.238ZM10.1,0a2.317,2.317,0,0,1-.141-.492A1.417,1.417,0,0,1,8.751.117,1.786,1.786,0,0,1,7.43-.41a1.853,1.853,0,0,1-.524-1.365,1.919,1.919,0,0,1,.636-1.541,2.78,2.78,0,0,1,1.831-.557h.5v-.51a.955.955,0,0,0-.146-.6A.525.525,0,0,0,9.3-5.162q-.621,0-.621.727H7.023a1.835,1.835,0,0,1,.659-1.45,2.454,2.454,0,0,1,1.667-.571,2.253,2.253,0,0,1,1.614.542,2.034,2.034,0,0,1,.571,1.55v2.982A3.121,3.121,0,0,0,11.769-.1V0ZM9.121-1.184a.925.925,0,0,0,.469-.111.788.788,0,0,0,.287-.264V-2.877h-.4a.851.851,0,0,0-.665.27,1.035,1.035,0,0,0-.243.721Q8.57-1.184,9.121-1.184ZM14.3-6.34l.047.586a1.784,1.784,0,0,1,1.471-.7,1.368,1.368,0,0,1,1.342.855,1.737,1.737,0,0,1,1.553-.855q1.664,0,1.705,2.3V0H18.757V-4.049a1.5,1.5,0,0,0-.152-.785.568.568,0,0,0-.516-.234q-.463,0-.691.568l.012.2V0H15.751V-4.037a1.594,1.594,0,0,0-.146-.788.558.558,0,0,0-.521-.243.759.759,0,0,0-.68.463V0H12.745V-6.34ZM24.2.117a2.6,2.6,0,0,1-1.992-.762,3.066,3.066,0,0,1-.715-2.18v-.5a3.6,3.6,0,0,1,.656-2.314,2.275,2.275,0,0,1,1.881-.814,2.154,2.154,0,0,1,1.8.764,3.643,3.643,0,0,1,.615,2.261v.813h-3.3a1.726,1.726,0,0,0,.311,1.033,1.05,1.05,0,0,0,.85.327A1.864,1.864,0,0,0,25.7-1.828l.65,1a2.142,2.142,0,0,1-.885.683A3.037,3.037,0,0,1,24.2.117ZM23.16-3.773h1.658v-.152a1.772,1.772,0,0,0-.187-.861.652.652,0,0,0-.609-.293.689.689,0,0,0-.63.311A2.138,2.138,0,0,0,23.16-3.773Zm6.774.41a4.139,4.139,0,0,1,.527-2.326A1.746,1.746,0,0,1,32-6.457a1.48,1.48,0,0,1,1.219.633V-9h1.67V0H33.38L33.3-.645a1.527,1.527,0,0,1-1.313.762,1.731,1.731,0,0,1-1.521-.762,4.006,4.006,0,0,1-.536-2.238Zm1.664.416a3.025,3.025,0,0,0,.2,1.31.7.7,0,0,0,.674.372.809.809,0,0,0,.744-.439V-4.6a.79.79,0,0,0-.738-.469.714.714,0,0,0-.668.369A2.873,2.873,0,0,0,31.6-3.387ZM39.12,0a2.317,2.317,0,0,1-.141-.492,1.417,1.417,0,0,1-1.207.609A1.786,1.786,0,0,1,36.451-.41a1.853,1.853,0,0,1-.524-1.365,1.919,1.919,0,0,1,.636-1.541,2.78,2.78,0,0,1,1.831-.557h.5v-.51a.955.955,0,0,0-.146-.6.525.525,0,0,0-.428-.176q-.621,0-.621.727H36.044a1.835,1.835,0,0,1,.659-1.45,2.454,2.454,0,0,1,1.667-.571,2.253,2.253,0,0,1,1.614.542,2.034,2.034,0,0,1,.571,1.55v2.982A3.121,3.121,0,0,0,40.79-.1V0Zm-.979-1.184a.925.925,0,0,0,.469-.111.788.788,0,0,0,.287-.264V-2.877h-.4a.851.851,0,0,0-.665.27,1.035,1.035,0,0,0-.243.721Q37.59-1.184,38.141-1.184ZM43.793-2.76l.844-3.58h1.77L44.32.949q-.469,1.611-1.764,1.611a2.455,2.455,0,0,1-.68-.111V1.154l.193.006a.954.954,0,0,0,.583-.149.936.936,0,0,0,.3-.519l.129-.428L41.25-6.34h1.781Z" transform="translate(2895 625)" fill="#1d1d1b"/>
  </g>
</svg>
