<svg xmlns="http://www.w3.org/2000/svg" width="60" height="36" viewBox="0 0 60 36"><defs><style>.a{fill:#fa8d00;}.b{fill:#f90100;}.c{fill:#fff;}</style></defs><g transform="translate(0 -100.8)"><path class="a" d="M237.6,118.8a18,18,0,1,1-36,0h0a18,18,0,1,1,36,0Z" transform="translate(-177.6 0)"/><path class="b" d="M17.809,100.8a18,18,0,0,0,.19,36,18.209,18.209,0,0,0,12.1-4.667h0a17.114,17.114,0,0,0,1.81-1.9H28.19a21.974,21.974,0,0,1-1.333-1.81h6.381a12.2,12.2,0,0,0,1.048-1.9H25.809a11.351,11.351,0,0,1-.762-1.9h9.9A18.911,18.911,0,0,0,35.9,118.9a24.583,24.583,0,0,0-.381-3.809H24.476a13.923,13.923,0,0,1,.476-1.9h9.9a11.351,11.351,0,0,0-.762-1.9H25.714a18.886,18.886,0,0,1,1.048-1.9h6.381a9.056,9.056,0,0,0-1.429-1.9H28.19a16.232,16.232,0,0,1,1.81-1.81,17.574,17.574,0,0,0-12.1-4.667C17.9,100.8,17.9,100.8,17.809,100.8Z"/><g transform="translate(1.714 114.133)"><path class="c" d="M184.362,228.381l.286-1.619a4.125,4.125,0,0,1-.476.1c-.667,0-.762-.381-.667-.571l.571-3.333h1.048l.286-1.81h-.952l.19-1.143h-1.9s-1.143,6.286-1.143,7.048a1.43,1.43,0,0,0,1.524,1.619A2.923,2.923,0,0,0,184.362,228.381Z" transform="translate(-161.695 -219.143)"/><path class="c" d="M210.4,233a3.029,3.029,0,0,0,3.333,3.333,4.945,4.945,0,0,0,2-.286l.381-1.81a5.709,5.709,0,0,1-2,.476c-2.1,0-1.714-1.524-1.714-1.524h3.9a12.348,12.348,0,0,0,.286-1.714,2.58,2.58,0,0,0-2.762-2.762C211.829,228.52,210.4,230.616,210.4,233Zm3.333-2.762c1.048,0,.857,1.238.857,1.333h-2.1C212.5,231.473,212.686,230.235,213.733,230.235Z" transform="translate(-187.067 -226.806)"/><path class="c" d="M301.238,222.038l.381-2.1a4.68,4.68,0,0,1-1.619.476c-1.333,0-1.9-1.048-1.9-2.19,0-2.286,1.143-3.524,2.476-3.524a3.18,3.18,0,0,1,1.714.571l.286-2a6.7,6.7,0,0,0-2.19-.476c-2.19,0-4.381,1.9-4.381,5.524,0,2.381,1.143,4,3.429,4A8.547,8.547,0,0,0,301.238,222.038Z" transform="translate(-262.476 -212.8)"/><path class="c" d="M90.019,227.2a6.745,6.745,0,0,0-2.286.381l-.286,1.619a5.629,5.629,0,0,1,2.1-.381c.667,0,1.238.1,1.238.667,0,.381-.1.476-.1.476h-.857c-1.619,0-3.429.667-3.429,2.857,0,1.714,1.143,2.1,1.81,2.1a2.862,2.862,0,0,0,2-.857l-.1.762h1.714l.762-5.238A2.257,2.257,0,0,0,90.019,227.2Zm.381,4.286c0,.286-.19,1.81-1.333,1.81a.743.743,0,0,1-.762-.762c0-.476.286-1.143,1.714-1.143A1.5,1.5,0,0,0,90.4,231.486Z" transform="translate(-77.829 -225.486)"/><path class="c" d="M137.39,234.209c.476,0,2.857.1,2.857-2.476,0-2.381-2.286-1.9-2.286-2.857,0-.476.381-.667,1.048-.667.286,0,1.333.1,1.333.1l.286-1.714a7.234,7.234,0,0,0-1.81-.19c-1.429,0-2.857.571-2.857,2.476,0,2.19,2.381,2,2.381,2.857,0,.571-.667.667-1.143.667a6.228,6.228,0,0,1-1.714-.286l-.286,1.714C135.3,234.019,135.771,234.209,137.39,234.209Z" transform="translate(-120.819 -224.781)"/><path class="c" d="M432.628,214.4l-.381,2.571a2.641,2.641,0,0,0-1.81-.952c-1.714,0-3.238,2.1-3.238,4.571,0,1.524.762,3.143,2.381,3.143a2.542,2.542,0,0,0,1.81-.762l-.1.667h1.9l1.429-9.143Zm-.857,5.048c0,1.048-.476,2.381-1.524,2.381-.667,0-1.048-.571-1.048-1.524,0-1.524.667-2.476,1.524-2.476C431.39,217.829,431.771,218.3,431.771,219.448Z" transform="translate(-378.057 -214.21)"/><path class="c" d="M16.21,223.543l1.143-6.857.19,6.857h1.333l2.476-6.857L20.3,223.543h2l1.524-9.143H20.686l-1.9,5.619-.1-5.619H15.924L14.4,223.543Z" transform="translate(-14.4 -214.21)"/><path class="c" d="M262.1,236.229c.571-3.143.667-5.714,2-5.238a7.475,7.475,0,0,1,.667-2.19h-.381c-.857,0-1.524,1.143-1.524,1.143l.19-1.048h-1.81L260,236.324h2.1Z" transform="translate(-230.762 -226.895)"/><path class="c" d="M350.019,227.2a6.745,6.745,0,0,0-2.286.381l-.286,1.619a5.63,5.63,0,0,1,2.1-.381c.667,0,1.238.1,1.238.667,0,.381-.1.476-.1.476h-.857c-1.619,0-3.429.667-3.429,2.857,0,1.714,1.143,2.1,1.81,2.1a2.862,2.862,0,0,0,2-.857l-.1.762h1.714l.762-5.238A2.224,2.224,0,0,0,350.019,227.2Zm.476,4.286c0,.286-.19,1.81-1.333,1.81a.743.743,0,0,1-.762-.762c0-.476.286-1.143,1.714-1.143C350.4,231.486,350.4,231.486,350.5,231.486Z" transform="translate(-306.876 -225.486)"/><path class="c" d="M396.5,236.229c.571-3.143.667-5.714,2-5.238a7.474,7.474,0,0,1,.667-2.19h-.381c-.857,0-1.524,1.143-1.524,1.143l.19-1.048h-1.81l-1.238,7.429h2.1Z" transform="translate(-349.162 -226.895)"/></g></g></svg>