<svg xmlns="http://www.w3.org/2000/svg" width="45" height="29" viewBox="0 0 45 29"><defs><style>.a{fill:#373435;}</style></defs><g transform="translate(0 -9.939)"><g transform="translate(0 9.939)"><path class="a" d="M43.842,9.939H1.158A1.155,1.155,0,0,0,0,11.091v26.7a1.155,1.155,0,0,0,1.158,1.152H43.842A1.155,1.155,0,0,0,45,37.787v-26.7A1.155,1.155,0,0,0,43.842,9.939ZM3.484,18.7h4.8a1.246,1.246,0,0,1,1.35.918l1.045,5C9.655,22,7.182,19.829,3.444,18.929ZM9.3,30.1,6.521,20.671a12.121,12.121,0,0,1,4.291,4.685l.323,1.164,3.034-7.708h3.283L12.574,30.093Zm10.57.008h-3.1L18.7,18.8h3.1Zm5.391.17a9.855,9.855,0,0,1-3.451-.6l.436-2.53.4.18a6.523,6.523,0,0,0,2.917.593c.89,0,1.844-.346,1.852-1.1.006-.5-.4-.849-1.605-1.4-1.176-.54-2.733-1.447-2.714-3.07.017-2.2,2.174-3.73,5.236-3.73a8.036,8.036,0,0,1,2.775.475l-.418,2.451L30.4,21.4a5.744,5.744,0,0,0-2.319-.433c-1.213,0-1.775.5-1.775.972-.006.529.657.878,1.74,1.4,1.787.807,2.613,1.785,2.6,3.071C30.628,28.758,28.514,30.273,25.256,30.273Zm13.425-.165s-.283-1.3-.377-1.694l-3.968,0c-.12.305-.651,1.7-.651,1.7H30.432l4.6-10.359a1.544,1.544,0,0,1,1.623-.938h2.393l2.507,11.3Z" transform="translate(0 -9.939)"/></g><g transform="translate(35.203 21.826)"><path class="a" d="M46.089,25.976l-.211-.991c-.16.433-.434,1.128-.416,1.1,0,0-.99,2.551-1.248,3.213h2.6C46.69,28.719,46.089,25.976,46.089,25.976Z" transform="translate(-44.214 -24.985)"/></g></g></svg>