<svg xmlns="http://www.w3.org/2000/svg" width="56" height="36" viewBox="0 0 56 36"><defs><style>.a{fill:#1666bf;}.b{fill:#ffc009;}</style></defs><g transform="translate(0 -9.939)"><g transform="translate(0 9.939)"><path class="a" d="M54.558,9.939H1.442A1.435,1.435,0,0,0,0,11.369v33.14a1.435,1.435,0,0,0,1.442,1.43H54.558A1.435,1.435,0,0,0,56,44.509V11.369A1.435,1.435,0,0,0,54.558,9.939ZM4.336,20.818h5.977a1.551,1.551,0,0,1,1.68,1.14l1.3,6.2c-1.277-3.244-4.355-5.942-9.006-7.06Zm7.232,14.143-3.452-11.7a15.059,15.059,0,0,1,5.34,5.816l.4,1.445,3.776-9.569h4.085L15.648,34.958Zm13.153.01H20.866l2.41-14.033h3.857Zm6.708.21a12.291,12.291,0,0,1-4.3-.749l.542-3.14.5.223a8.135,8.135,0,0,0,3.63.737c1.108,0,2.294-.43,2.305-1.37.007-.615-.5-1.053-2-1.742-1.463-.671-3.4-1.8-3.377-3.811.021-2.727,2.706-4.63,6.516-4.63a10.023,10.023,0,0,1,3.453.589l-.521,3.042-.348-.162a7.163,7.163,0,0,0-2.885-.537c-1.509,0-2.209.624-2.209,1.207-.008.657.817,1.09,2.165,1.741,2.224,1,3.252,2.216,3.238,3.812C38.114,33.3,35.484,35.181,31.43,35.181Zm16.707-.2s-.352-1.613-.469-2.1l-4.938-.006c-.15.379-.81,2.109-.81,2.109H37.871L43.6,22.117a1.922,1.922,0,0,1,2.02-1.164h2.978l3.12,14.023Z" transform="translate(0 -9.939)"/><path class="b" d="M4.336,20.818h5.977a1.551,1.551,0,0,1,1.68,1.14l1.3,6.2c-1.277-3.244-4.355-5.942-9.006-7.06Z" transform="translate(0 -9.939)"/></g><g transform="translate(43.815 24.695)"><path class="a" d="M46.542,26.215l-.262-1.23c-.2.537-.539,1.4-.517,1.362,0,0-1.229,3.167-1.549,3.988h3.229C47.287,29.62,46.542,26.215,46.542,26.215Z" transform="translate(-44.214 -24.985)"/></g></g></svg>