<svg xmlns="http://www.w3.org/2000/svg" xmlns:xlink="http://www.w3.org/1999/xlink" width="103" height="106.467" viewBox="0 0 103 106.467"><defs><style>.a{fill:#ffdc00;}.b{clip-path:url(#e);}.c{fill:#4a342a;}.d{fill:#ffd9ba;}.e{isolation:isolate;}.f{fill:#f5bf91;}.g{fill:#1d1d1b;}.h{fill:#00a4b7;}.i{fill:#747474;}.j{fill:#6a4b3d;}.k{fill:#979797;}.l{filter:url(#c);}.m{filter:url(#a);}</style><filter id="a" x="0" y="-12" width="103" height="118.467" filterUnits="userSpaceOnUse"><feOffset dy="6" input="SourceAlpha"/><feGaussianBlur stdDeviation="6" result="b"/><feFlood flood-color="#ffdc00" flood-opacity="0.2"/><feComposite operator="in" in2="b"/><feComposite in="SourceGraphic"/></filter><filter id="c" x="0" y="3.467" width="103" height="103" filterUnits="userSpaceOnUse"><feOffset dy="6" input="SourceAlpha"/><feGaussianBlur stdDeviation="6" result="d"/><feFlood flood-color="#ffdc00" flood-opacity="0.2"/><feComposite operator="in" in2="d"/><feComposite in="SourceGraphic"/></filter><clipPath id="e"><g class="m" transform="matrix(1, 0, 0, 1, 0, 0)"><path class="a" d="M34.55-24.593c18.5,0,32.45,35.647,32.45,52.3S52,57.874,33.5,57.874,0,44.37,0,27.712,16.048-24.593,34.55-24.593Z" transform="translate(1799 882.13)"/></g></clipPath></defs><g transform="translate(-1780 -857.533)"><g class="l" transform="matrix(1, 0, 0, 1, 1780, 857.53)"><circle class="a" cx="33.5" cy="33.5" r="33.5" transform="translate(18 15.47)"/></g><g class="b" transform="translate(-1)"><g transform="translate(1805.043 864.943)"><g transform="translate(18.898 22.59)"><rect class="c" width="23.771" height="28.066" transform="translate(0)"/></g><g transform="translate(21.623 38.894)"><rect class="d" width="11.641" height="8.467"/></g><g class="e" transform="translate(21.623 38.877)"><path class="f" d="M599.86,204.047v0c.129.151.258.3.4.444a12.84,12.84,0,0,0,1.148,1.066c.014.01.024.019.036.03.131.1.264.189.4.28.206.139.413.277.627.4.31.183.624.363.948.522.1.04.409.167.5.2.313.106.627.212.947.3s.658.171.992.236a5.845,5.845,0,0,1,.649.125,18.2,18.2,0,0,0,2.363.131c.338-.006.677-.012,1.015-.04.108-.008.613-.084.664-.084.323-.069.641-.16.955-.261v-5.763H599.86v2.389C599.894,204.073,599.9,204.091,599.86,204.047Z" transform="translate(-599.86 -201.633)"/></g><g transform="translate(0.005 45.388)"><path class="d" d="M570.636,224.974c-6.351-.723-9.48-2.615-10.014-2.967H549.311c-.535.352-3.663,2.244-10.015,2.967l-4.089,6.891s-7.831,5.689-7.678,15.688c0,0,9.11,4.142,27.436,4.108,18.326.034,27.437-4.108,27.437-4.108.118-7.7-4.972-13.752-4.972-13.752Z" transform="translate(-527.528 -222.007)"/></g><g transform="translate(0.005 48.354)"><path class="a" d="M539.3,231.079s-.663,2.765-4.242,8.114c-2.06,3.073-7.657,5.815-7.524,14.465,0,0,9.11,4.142,27.436,4.108,18.326.035,27.437-4.108,27.437-4.108.115-7.522-3.3-10.023-5.226-13.6-3.363-6.266-6.541-8.98-6.541-8.98S557.639,244.6,539.3,231.079Z" transform="translate(-527.528 -231.079)"/></g><g transform="translate(14.2 6.766)"><path class="d" d="M601.763,113.242c0,10.027-5.929,18.155-13.244,18.155s-13.244-8.128-13.244-18.155,5.929-16.309,13.244-16.309S601.763,103.216,601.763,113.242Z" transform="translate(-575.275 -96.933)"/></g><g transform="translate(0.066 45.716)"><path class="g" d="M548.764,223.094a25.983,25.983,0,0,1-9.462,2.638s-12.04,4.57-11.7,26.692c0,0,10.877.026,27.371,0,18.326.034,27.458,0,27.458,0,.34-22.122-11.788-26.687-11.788-26.687a25.968,25.968,0,0,1-9.462-2.639s9.52,15.284-6.208,28.324C554.971,251.417,539,236.586,548.764,223.094Z" transform="translate(-527.594 -223.093)"/></g><g transform="translate(17.374 56.033)"><path class="h" d="M585.525,257.935c.005.029.01.056.016.085.046.225.095.452.145.677l.1-.043C585.7,258.418,585.609,258.177,585.525,257.935Z" transform="translate(-585.525 -257.935)"/></g><g transform="translate(11.169 45.716)"><path class="i" d="M597.311,225.732a26.331,26.331,0,0,1-9.538-2.639s6.506,14.5-6.257,27.547c0,0-12.336-12.712-6.257-27.546a26.343,26.343,0,0,1-9.538,2.638,10.108,10.108,0,0,0,2.248,9.975s1.848-.995,2.844-.71l-3.535,2.6s.833,10.063,11.784,14.827h5.547a22.435,22.435,0,0,0,11.147-16.854,8.4,8.4,0,0,0-3.61-1.848,8.573,8.573,0,0,1,3.61-.285S599.347,231.544,597.311,225.732Z" transform="translate(-565.243 -223.093)"/></g><g transform="translate(27.443 75.041)"><path class="h" d="M619.136,320.216" transform="translate(-619.136 -320.216)"/></g><g transform="translate(11.287 0.333)"><path class="j" d="M600.363,119.823s-.256-17.062-1.112-27.018c0,0,0-.106,0-.294a18.023,18.023,0,0,0-2.676-9.171,22.515,22.515,0,0,0-3.678-4.455c-4.975-4.538-16.322-4.809-19.537,2.227-3.026,2.136-15.061,13.758-.809,41.326l3.487-1.392.2-6.235S562.5,100.379,575.1,87.086l.042-.03a.253.253,0,0,1-.041.03,13.038,13.038,0,0,1,7.551-1.026c6.757,1.024,8.224,8.434,11.134,13.433a13.715,13.715,0,0,0,1.558,2.361,113.419,113.419,0,0,1,.519,16.053,23.029,23.029,0,0,1-5.716,14.618S603.273,136.885,600.363,119.823Z" transform="translate(-565.728 -75.626)"/></g><g transform="translate(41.295 17.85)"><path class="g" d="M665.739,135.657a2.913,2.913,0,0,1,2.921-2.906h0a2.914,2.914,0,0,1,2.922,2.906V142.2a2.914,2.914,0,0,1-2.922,2.906h0a2.913,2.913,0,0,1-2.921-2.906Z" transform="translate(-665.739 -132.751)"/></g><g transform="translate(46.745 19.58)"><path class="k" d="M683.788,138.454v8.906c1.239-.54,2.149-2.328,2.149-4.452S685.027,139,683.788,138.454Z" transform="translate(-683.788 -138.454)"/></g><g transform="translate(32.749 25.039)"><path class="g" d="M640.346,175.418q-.337,0-.68-.009a.546.546,0,0,1-.531-.561.536.536,0,0,1,.561-.531c4.69.128,8.275-1.109,10.64-3.673a11.2,11.2,0,0,0,3.19-8.623.547.547,0,0,1,1.087-.119,12.07,12.07,0,0,1-3.467,9.476C648.674,174.061,645.044,175.418,640.346,175.418Z" transform="translate(-639.134 -161.416)"/></g><g transform="translate(30.089 37.297)"><path class="g" d="M632.516,207.474a1.336,1.336,0,0,1-1.339,1.332h-1.8a1.335,1.335,0,0,1-1.339-1.332h0a1.336,1.336,0,0,1,1.339-1.332h1.8a1.336,1.336,0,0,1,1.339,1.332Z" transform="translate(-628.04 -206.142)"/></g><g transform="translate(10.367 17.85)"><path class="g" d="M568,135.657a2.914,2.914,0,0,0-2.922-2.906h0a2.914,2.914,0,0,0-2.922,2.906V142.2a2.913,2.913,0,0,0,2.922,2.906h0A2.913,2.913,0,0,0,568,142.2Z" transform="translate(-562.161 -132.751)"/></g><g transform="translate(8.471 19.58)"><g transform="translate(0 0)"><path class="k" d="M554.576,138.454v8.906c-1.374-.54-2.383-2.328-2.383-4.452S553.2,139,554.576,138.454Z" transform="translate(-552.193 -138.454)"/></g></g><path class="g" d="M566.227,98.918a1.94,1.94,0,0,1-.217-.335,17.08,17.08,0,0,1,.217-2.458c0-8.973,6.757-15.144,15.6-15.144s15.6,6.172,15.6,15.144a16.746,16.746,0,0,1,.222,2.476,2.063,2.063,0,0,1-.222.317h2.143a18.634,18.634,0,0,0,.217-2.793A17.956,17.956,0,1,0,564.1,98.918Z" transform="translate(-553.039 -77.909)"/></g></g></g></svg>