<svg xmlns="http://www.w3.org/2000/svg" xmlns:xlink="http://www.w3.org/1999/xlink" width="140" height="70" viewBox="0 0 140 70"><defs><style>.a{fill:#e2e2e2;}.b{clip-path:url(#a);}.c{fill:#e51636;}.d{fill:#be0c27;}.e{fill:#474747;}.f{fill:#7a7a7a;}.g{fill:#6a7073;}</style><clipPath id="a"><rect class="a" width="140" height="70"/></clipPath></defs><g class="b"><g transform="translate(34.359 5.714)"><path class="c" d="M-47.738,6.878s-11.816-.89-13.988,5.238-4.461,18.7-.794,25.149S-47.309,42.349-45,42.53s3.1-27.349.522-31.5S-47.738,6.878-47.738,6.878Z" transform="translate(64.454 5.655)"/><path class="d" d="M-44.866,42.5a.176.176,0,0,1-.13.033c-2.314-.179-13.853,1.173-17.52-5.264-3.667-6.454-1.385-19.02.782-25.148,2.184-6.128,14-5.248,14-5.248s.065,0,.261.147c-3.5.407-7.807,1.646-9.029,5.1-2.168,6.128-.828,16.541,2.839,23C-51.284,39.308-49.2,42.339-44.866,42.5Z" transform="translate(64.454 5.654)"/><path class="e" d="M-24.2,11.245H-39.3c-2.78,0-5.034,2.8-5.034,6.245V25.5h25.177V17.49C-19.162,14.042-21.418,11.245-24.2,11.245Z" transform="translate(77.121 8.434)"/><path class="f" d="M-33.4,11.244c-2.771,0-5.036,2.787-5.036,6.242V25.5h-5.9V17.486c0-3.455,2.249-6.242,5.036-6.242Z" transform="translate(77.121 8.433)"/><path class="e" d="M-43.2,51.468a1.563,1.563,0,0,0,1.744-1.359,1.585,1.585,0,0,0,0-.4l-6.6-48.028A1.563,1.563,0,0,0-49.412.341l-9.3-1.159A1.561,1.561,0,0,0-60.45.539a1.56,1.56,0,0,0,1.356,1.742l8.1,1.012,6.436,46.838A1.563,1.563,0,0,0-43.2,51.468Z" transform="translate(66.967 0.829)"/><path class="g" d="M-51.255,28.741v6.245H-1.433L-4.1,28.741Z" transform="translate(72.766 19.452)"/><path class="c" d="M-49.448,23.9c3.537-7.269,4.99-8.579,8.625-8.677s23.083,2.751,29.662,7.466S-7.45,32.642-8.333,35.4A43.072,43.072,0,0,0-9.688,41.41L-41.152,41.1s-4.228.393-4.487.311C-49.762,40.124-52.98,31.16-49.448,23.9Z" transform="translate(72.95 10.936)"/><circle class="e" cx="8.964" cy="8.964" r="8.964" transform="translate(59.587 42.096)"/><circle class="g" cx="3.26" cy="3.26" r="3.26" transform="translate(65.292 47.8)"/><circle class="e" cx="12.223" cy="12.223" r="12.223" transform="translate(9.064 35.577)"/><circle class="g" cx="6.519" cy="6.519" r="6.519" transform="translate(14.768 41.281)"/><g transform="translate(33.944 32.558)"><path class="d" d="M-42.065,21.777h7.944a1.325,1.325,0,0,0,1.54-1.068,1.326,1.326,0,0,0-1.068-1.54,1.354,1.354,0,0,0-.473,0h-7.944a1.325,1.325,0,0,0-1.54,1.068,1.326,1.326,0,0,0,1.068,1.54A1.354,1.354,0,0,0-42.065,21.777Z" transform="translate(43.626 -19.148)"/></g><g transform="translate(33.944 37.448)"><path class="d" d="M-42.065,24.777h7.944a1.325,1.325,0,0,0,1.54-1.068,1.326,1.326,0,0,0-1.068-1.54,1.354,1.354,0,0,0-.473,0h-7.944a1.325,1.325,0,0,0-1.54,1.068,1.326,1.326,0,0,0,1.068,1.54A1.354,1.354,0,0,0-42.065,24.777Z" transform="translate(43.626 -22.148)"/></g></g></g></svg>