<svg xmlns="http://www.w3.org/2000/svg" xmlns:xlink="http://www.w3.org/1999/xlink" width="140" height="70" viewBox="0 0 140 70"><defs><style>.a{fill:#e2e2e2;}.b{clip-path:url(#a);}.c{fill:#e51636;}.d{fill:#ffb300;}.e{fill:#be0c27;}.e,.f,.g{mix-blend-mode:multiply;isolation:isolate;}.f{fill:url(#b);}.g{fill:#ec0000;}.h{fill:#474747;}.i{fill:#6a7073;}.j{fill:#37474f;}</style><clipPath id="a"><rect class="a" width="140" height="70" transform="translate(0.284)"/></clipPath><linearGradient id="b" x1="1.523" y1="-1.664" x2="0.017" y2="1.706" gradientUnits="objectBoundingBox"><stop offset="0.001" stop-color="#fff" stop-opacity="0"/><stop offset="1" stop-color="#ffa726"/><stop offset="1"/></linearGradient></defs><g class="b" transform="translate(-0.284)"><g transform="translate(14.889 5.269)"><path class="c" d="M35.024,316.93H102.49l5.044-1.8a.533.533,0,0,0-.18-1.035H35.024a1.42,1.42,0,0,0-1.42,1.42h0A1.42,1.42,0,0,0,35.024,316.93Z" transform="translate(-6.387 -302.924)"/><path class="d" d="M61.669,343.422h22.1a10.676,10.676,0,0,0,7.124-2.724l22.173-19.866H46.421l5.125,15.3A10.676,10.676,0,0,0,61.669,343.422Z" transform="translate(-16.964 -306.826)"/><path class="e" d="M61.669,343.422h22.1a10.676,10.676,0,0,0,7.124-2.724l22.173-19.866H46.421l5.125,15.3A10.676,10.676,0,0,0,61.669,343.422Z" transform="translate(-16.964 -306.826)"/><path class="f" d="M191.223,314.09H198.3a1.42,1.42,0,0,0,0,2.84h-7.074a1.42,1.42,0,1,1,0-2.84Z" transform="translate(-162.586 -302.924)"/><path class="g" d="M134.087,320.832s5.9,18.539,26.1,22.59H143.081a10.676,10.676,0,0,1-10.124-7.286l-5.125-15.3Z" transform="translate(-98.376 -306.826)"/><ellipse class="h" cx="10.176" cy="10.176" rx="10.176" ry="10.176" transform="matrix(-0.915, -0.403, 0.403, -0.915, 84.082, 61.029)"/><ellipse class="i" cx="5.257" cy="5.257" rx="5.257" ry="5.257" transform="translate(74.027 53.254) rotate(-94.34)"/><g transform="translate(3.302 0.677)"><path class="h" d="M85.888,289.186h8.977a4.627,4.627,0,0,1,3.917,2.191l13.063,21.263A27.389,27.389,0,0,0,129.69,325.1c.077.016.153.036.231.051l25.734,4.985a1.048,1.048,0,0,1,.543.289l3.158,3.158V318.894l2.1-1.882v19.112a1.05,1.05,0,0,1-1.793.743l-4.724-4.724-25.419-4.924a29.486,29.486,0,0,1-19.467-13.479L96.992,292.476a2.511,2.511,0,0,0-2.126-1.189H85.888a1.051,1.051,0,0,1,0-2.1Z" transform="translate(-84.838 -289.186)"/></g><path class="i" d="M1.727,0h9.111a0,0,0,0,1,0,0V3.455a0,0,0,0,1,0,0H1.727A1.727,1.727,0,0,1,0,1.727v0A1.727,1.727,0,0,1,1.727,0Z"/><path class="j" d="M162.93,384.481a3.891,3.891,0,0,0,3.335-1.881l10.775-17.969a1.051,1.051,0,0,0-1.8-1.08L164.463,381.52a1.782,1.782,0,0,1-2.222.719l-1.373-.589a1.781,1.781,0,0,1-1.072-1.732l1.377-24.135a1.051,1.051,0,1,0-2.1-.12L157.7,379.8a3.888,3.888,0,0,0,2.341,3.784l1.372.588A3.837,3.837,0,0,0,162.93,384.481Z" transform="translate(-127.954 -326.412)"/><path class="c" d="M83.305,398.206a1.893,1.893,0,1,0,1.893-1.893A1.893,1.893,0,0,0,83.305,398.206Z" transform="translate(-6.524 -350.515)"/></g></g></svg>