<?xml version="1.0" encoding="UTF-8" standalone="no"?>
<!DOCTYPE svg PUBLIC "-//W3C//DTD SVG 1.1//EN" "http://www.w3.org/Graphics/SVG/1.1/DTD/svg11.dtd">
<svg xmlns="http://www.w3.org/2000/svg" xmlns:xlink="http://www.w3.org/1999/xlink" version="1.1" width="80pt" height="40pt" viewBox="0 0 80 40">
<g enable-background="new">
<g>
<clipPath id="cp0">
<path transform="matrix(.25,0,0,.25,0,0)" d="M 0 0 L 320 0 L 320 160 L 0 160 Z " fill-rule="evenodd"/>
</clipPath>
<g clip-path="url(#cp0)">
<g>
<clipPath id="cp1">
<path transform="matrix(.25,0,0,.25,0,0)" d="M 0 0 L 320 0 L 320 160 L 0 160 Z " fill-rule="evenodd"/>
</clipPath>
<g clip-path="url(#cp1)">
<path transform="matrix(-1,0,0,-1,377.8944,473.58119)" d="M 351.84468 469.58119 L 343.5799 469.58119 C 343.28776 469.58119 343.051 469.34437 343.051 469.0523 L 343.051 466.672 L 352.37373 466.672 L 352.37373 469.0523 C 352.37367 469.34437 352.13685 469.58119 351.84468 469.58119 Z " fill="#8dbcd9"/>
<path transform="matrix(-1,0,0,-1,474.30055,473.58119)" d="M 446.59794 466.672 L 446.59794 469.0523 C 446.59794 469.34443 446.36109 469.58119 446.069 469.58119 L 448.25093 469.58119 C 448.5431 469.58119 448.77986 469.34437 448.77986 469.0523 L 448.77986 466.672 L 446.59794 466.672 Z " fill="#438ab7"/>
<path transform="matrix(-1,0,0,-1,171.58472,59.134248)" d="M 122.59199 23.801089 L 122.59199 33.05764 L 132.55818 33.05764 C 134.88208 33.05764 136.76599 34.94155 136.76599 37.265436 L 136.76599 47.256284 L 146.02254 47.256284 L 146.02254 33.974985 C 146.02254 28.356104 141.46753 23.801026 135.84857 23.801026 L 122.59199 23.801026 L 122.59199 23.801089 Z " fill="#8dbcd9"/>
<path transform="matrix(-1,0,0,-1,333.063,59.135164)" d="M 297.3269 23.802 L 295.145 23.802 C 300.7639 23.802 305.31895 28.357014 305.31895 33.975965 L 305.31895 47.257265 L 307.50083 47.257265 L 307.50083 33.975904 C 307.50083 28.357014 302.94584 23.802 297.3269 23.802 Z " fill="#438ab7"/>
<path transform="matrix(-1,0,0,-1,56.86084,58.552156)" d="M 0 31.978898 L 0 23.701819 C 0 23.413067 .23406935 23.178997 .5228212 23.178997 L 2.9092117 23.178997 L 2.9092117 32.50172 L .5228212 32.50172 C .23406933 32.50172 0 32.267656 0 31.978898 Z " fill="#8dbcd9"/>
<path transform="matrix(-1,0,0,-1,356.68403,401.131)" d="M 320.386 393.45454 L 320.386 390.03025 C 320.386 389.60646 320.7295 389.26295 321.15327 389.26295 L 331.91676 389.253 C 332.3405 389.253 332.68403 389.60646 332.68403 390.03025 L 332.68403 393.45454 C 332.68403 393.87837 332.3405 394.22184 331.91676 394.22184 L 321.15327 394.22184 C 320.72956 394.22184 320.386 393.87837 320.386 393.45454 Z " fill="#474747"/>
<path transform="matrix(-1,0,0,-1,99.27966,36.86081)" d="M 49.519624 12.298044 L 46.09529 12.298044 C 45.671506 12.298044 45.328004 11.954546 45.328004 11.530757 L 45.328004 .7672898 C 45.328004 .3435004 45.671506 .0000019073485 46.09529 .0000019073485 L 49.519624 .0000019073485 C 49.943414 .0000019073485 50.28691 .34350048 50.28691 .7672898 L 50.28691 11.530757 C 50.28691 11.954483 49.943349 12.298044 49.519624 12.298044 Z " fill="#474747"/>
<path transform="matrix(-1,0,0,-1,99.27966,93.762317)" d="M 45.328 60.804 L 50.286909 60.804 L 50.286909 65.29702 L 45.328 65.29702 Z " fill="#7a7a7a"/>
<path transform="matrix(-1,0,0,-1,413.58656,401.132)" d="M 381.19105 389.25404 L 385.68403 389.25404 L 385.68403 394.22279 L 381.19105 394.22279 Z " fill="#7a7a7a"/>
</g>
</g>
</g>
</g>
</g>
</svg>
