<?xml version="1.0" encoding="UTF-8" standalone="no"?>
<!DOCTYPE svg PUBLIC "-//W3C//DTD SVG 1.1//EN" "http://www.w3.org/Graphics/SVG/1.1/DTD/svg11.dtd">
<svg xmlns="http://www.w3.org/2000/svg" xmlns:xlink="http://www.w3.org/1999/xlink" version="1.1" width="80pt" height="40pt" viewBox="0 0 80 40">
<g enable-background="new">
<g>
<clipPath id="cp0">
<path transform="matrix(.25,0,0,.25,0,0)" d="M 0 0 L 320 0 L 320 160 L 0 160 Z " fill-rule="evenodd"/>
</clipPath>
<g clip-path="url(#cp0)">
<g>
<clipPath id="cp1">
<path transform="matrix(.25,0,0,.25,0,0)" d="M 0 0 L 320 0 L 320 160 L 0 160 Z " fill-rule="evenodd"/>
</clipPath>
<g clip-path="url(#cp1)">
<path transform="matrix(1,0,0,1,46.134767,9.62941)" d="M 0 0 L 4.355817 0 L 4.355817 2.9038776 L 0 2.9038776 Z " fill="#7a7a7a"/>
<path transform="matrix(1,0,0,1,46.134767,9.62941)" d="M 0 0 L 2.1779085 0 L 2.1779085 2.9038776 L 0 2.9038776 Z " fill="#474747"/>
<path transform="matrix(1,0,0,1,-216.83216,-102.26297)" d="M 263.10929 110.324237 L 260.06306 109.715007 L 260.06306 116.9747 L 263.10929 116.36548 C 263.44868 116.297588 263.69294 115.99968 263.69294 115.65364 L 263.69294 111.03616 C 263.69294 110.68994 263.44868 110.39204 263.10929 110.324237 Z " fill="#fe5b5b"/>
<path transform="matrix(1,0,0,1,-76.21338,-191.0904)" d="M 111.821689 207.238 L 105.651 207.238 L 105.651 211.59381 L 109.38734 211.59381 C 109.6938 211.59381 109.934719 211.32547 109.891048 211.02217 C 109.74544 210.01085 109.72937 207.94675 111.821689 207.238 Z " fill="#7a7a7a"/>
<path transform="matrix(1,0,0,1,-76.214359,-191.08869)" d="M 110.14896 208.68996 C 110.42866 208.08472 110.93442 207.53888 111.82269 207.238 L 105.65201 207.238 L 105.65201 208.68996 L 110.14896 208.68996 Z " fill="#474747"/>
<path transform="matrix(1,0,0,1,20,-94.86102)" d="M 0 103.50326 L 0 108.38237 C 0 109.07447 .48853535 109.67039 1.1671609 109.80607 L 3.6298474 110.29863 L 3.6298474 101.587 L 1.1671611 102.07956 C .48853535 102.215328 0 102.81114 0 103.50326 Z " fill="#474747"/>
<path transform="matrix(1,0,0,1,-9.604126,-87.45999)" d="M 52.109178 93.46001 L 33.959947 93.46001 C 33.158048 93.46001 32.508005 94.110057 32.508005 94.911937 L 32.508005 102.17164 C 32.508005 102.97355 33.158048 103.62358 33.959947 103.62358 L 52.10918 103.62358 C 52.510175 103.62358 52.835157 103.29851 52.835157 102.897609 L 52.835157 94.18598 C 52.835149 93.78508 52.510087 93.46001 52.109178 93.46001 Z " fill="#fe5b5b"/>
<path transform="matrix(1,0,0,1,-9.604126,-87.46002)" d="M 39.7677 102.17164 C 37.36209 102.17164 35.41188 100.22151 35.41188 97.8158 L 35.41188 93.46001 L 33.959947 93.46001 C 33.158048 93.46001 32.508005 94.110057 32.508005 94.911937 L 32.508005 102.17164 C 32.508005 102.97355 33.158048 103.62358 33.959947 103.62358 L 52.10918 103.62358 C 52.510087 103.62358 52.835157 103.29851 52.835157 102.897609 L 52.835157 102.17164 L 39.7677 102.17164 Z " fill="#e93d3d"/>
<path transform="matrix(1,0,0,1,5.197876,-191.07444)" d="M 24.321492 214.78382 L 26.417572 207.238 L 19.883845 207.238 L 16.254002 220.30545 L 28.518395 220.30545 C 25.637829 220.30545 23.550503 217.55934 24.321492 214.78382 Z " fill="#fe5b5b"/>
<path transform="matrix(1,0,0,1,5.197998,-191.09906)" d="M 26.417572 207.238 L 19.883845 207.238 L 16.254002 220.30545 L 19.23497 220.30545 L 22.01843 210.285 C 22.280253 209.34233 23.138516 208.68996 24.116837 208.68996 L 26.014256 208.68996 L 26.417572 207.238 Z " fill="#e93d3d"/>
<path transform="matrix(1,0,0,1,20,-324.33174)" d="M 13.793419 359.33174 L .72596946 359.33174 C .325065 359.33174 .000000018794549 359.00666 .000000018794549 358.60578 L .000000018794549 354.24998 C .000000018794549 353.84904 .325065 353.52403 .72596946 353.52403 L 13.793419 353.52403 C 14.194323 353.52403 14.519387 353.84904 14.519387 354.24998 L 14.519387 358.60578 C 14.519387 359.00666 14.194323 359.33174 13.793419 359.33174 Z " fill="#7a7a7a"/>
<path transform="matrix(1,0,0,1,-31.807251,-117.06412)" d="M 61.244817 127.419948 L 57.61497 127.419948 C 57.21371 127.419948 56.889 127.09524 56.889 126.69398 C 56.889 126.29272 57.21371 125.968 57.61497 125.968 L 61.244817 125.968 C 61.646078 125.968 61.97078 126.29272 61.97078 126.69398 C 61.97078 127.09524 61.646078 127.419948 61.244817 127.419948 Z " fill="#e93d3d"/>
<path transform="matrix(1,0,0,1,-172.42676,-117.06409)" d="M 212.75397 127.419948 L 212.02799 127.419948 C 211.62673 127.419948 211.30204 127.09524 211.30204 126.69398 C 211.30204 126.29272 211.62673 125.968 212.02799 125.968 L 212.75397 125.968 C 213.15523 125.968 213.47992 126.29272 213.47992 126.69398 C 213.47992 127.09524 213.15523 127.419948 212.75397 127.419948 Z " fill="#e93d3d"/>
<path transform="matrix(1,0,0,1,-172.42676,-146.66822)" d="M 212.75397 159.92795 L 212.02799 159.92795 C 211.62673 159.92795 211.30204 159.60323 211.30204 159.20195 C 211.30204 158.8007 211.62673 158.476 212.02799 158.476 L 212.75397 158.476 C 213.15523 158.476 213.47992 158.8007 213.47992 159.20195 C 213.47992 159.60323 213.15523 159.92795 212.75397 159.92795 Z " fill="#e93d3d"/>
<path transform="matrix(1,0,0,1,-31.807251,-146.67639)" d="M 61.244817 159.92795 L 57.61497 159.92795 C 57.21371 159.92795 56.889 159.60323 56.889 159.20195 C 56.889 158.8007 57.21371 158.476 57.61497 158.476 L 61.244817 158.476 C 61.646078 158.476 61.97078 158.8007 61.97078 159.20195 C 61.97078 159.60323 61.646078 159.92795 61.244817 159.92795 Z " fill="#e93d3d"/>
<path transform="matrix(1,0,0,1,-327.84754,-131.87229)" d="M 392.8575 142.222 L 381.968 142.222 L 381.968 143.67397 L 392.8575 143.67397 C 393.25886 143.67397 393.58348 143.34925 393.58348 142.94799 C 393.58348 142.54673 393.25886 142.222 392.8575 142.222 Z " fill="#474747"/>
<path transform="matrix(1,0,0,1,20,-324.33174)" d="M 5.0817868 357.87977 C 3.8789833 357.87977 2.9038778 356.90467 2.9038778 355.70188 L 2.9038778 353.52403 L .72596946 353.52403 C .325065 353.52403 .000000018794549 353.84904 .000000018794549 354.24998 L .000000018794549 358.60578 C .000000018794549 359.00666 .325065 359.33174 .72596946 359.33174 L 13.793419 359.33174 C 14.194323 359.33174 14.519387 359.00666 14.519387 358.60578 L 14.519387 357.87977 L 5.0817868 357.87977 Z " fill="#474747"/>
<path transform="matrix(1,0,0,1,-216.83216,-140.64014)" d="M 263.10929 152.52588 L 260.06306 153.13507 L 260.06306 155.31302 L 263.10929 154.70378 C 263.44868 154.6359 263.69294 154.33798 263.69294 153.99193 L 263.69294 151.81404 C 263.69294 152.1601 263.44868 152.458 263.10929 152.52588 Z " fill="#e93d3d"/>
<path transform="matrix(1,0,0,1,-283.4414,-117.06412)" d="M 337.79139 129.7633 L 336.55665 130.17485 C 336.26063 130.27355 335.95054 130.32386 335.63844 130.32386 L 333.93205 130.32386 C 333.53105 130.32386 333.20603 129.99878 333.20603 129.59789 L 333.20603 126.69398 C 333.20603 126.293079 333.53105 125.968 333.93205 125.968 L 335.63844 125.968 C 335.95054 125.968 336.26054 126.018299 336.55665 126.11702 L 337.79139 126.52854 C 338.08787 126.62734 338.28779 126.90479 338.28779 127.21728 L 338.28779 129.0746 C 338.28779 129.38713 338.08787 129.66452 337.79139 129.7633 Z " fill="#7a7a7a"/>
<path transform="matrix(1,0,0,1,-283.44239,-133.93921)" d="M 337.79234 145.17975 L 336.55757 145.59127 C 336.26155 145.68999 335.95155 145.74028 335.6394 145.74028 L 333.93305 145.74028 C 333.53199 145.74028 333.20704 145.4152 333.20704 145.01432 L 333.20704 146.46625 C 333.20704 146.86717 333.53199 147.19222 333.93305 147.19222 L 335.6394 147.19222 C 335.95155 147.19222 336.26148 147.14194 336.55757 147.04325 L 337.79234 146.63172 C 338.0888 146.53289 338.2888 146.25545 338.2888 145.943 L 338.2888 144.49102 C 338.28868 144.80358 338.0888 145.08095 337.79234 145.17975 Z " fill="#474747"/>
<path transform="matrix(1,0,0,1,-350.05067,-131.87232)" d="M 409.9789 142.222 L 407.80097 142.222 L 406.349 143.67397 L 408.52696 143.67397 L 409.9789 142.222 Z " fill="#7a7a7a"/>
<path transform="matrix(1,0,0,1,-394.4569,-131.87232)" d="M 458.74085 142.222 L 456.56297 142.222 L 455.11106 143.67397 L 457.28898 143.67397 L 458.74085 142.222 Z " fill="#7a7a7a"/>
</g>
</g>
</g>
</g>
</g>
</svg>
