<?xml version="1.0" encoding="UTF-8" standalone="no"?>
<!DOCTYPE svg PUBLIC "-//W3C//DTD SVG 1.1//EN" "http://www.w3.org/Graphics/SVG/1.1/DTD/svg11.dtd">
<svg xmlns="http://www.w3.org/2000/svg" xmlns:xlink="http://www.w3.org/1999/xlink" version="1.1" width="80pt" height="40pt" viewBox="0 0 80 40">
<g enable-background="new">
<g>
<clipPath id="cp0">
<path transform="matrix(.25,0,0,.25,0,0)" d="M 0 0 L 320 0 L 320 160 L 0 160 Z " fill-rule="evenodd"/>
</clipPath>
<g clip-path="url(#cp0)">
<g>
<clipPath id="cp1">
<path transform="matrix(.25,0,0,.25,0,0)" d="M 0 0 L 320 0 L 320 160 L 0 160 Z " fill-rule="evenodd"/>
</clipPath>
<g clip-path="url(#cp1)">
<path transform="matrix(1,0,0,1,-6940.283,2424.9498)" d="M 6952.2907 -2400.483 L 6952.2907 -2398.2198 L 6957.6359 -2395.0838 L 6957.6359 -2397.3824 L 6952.2907 -2400.483 Z " fill="#dc9c3b"/>
<path transform="matrix(1,0,0,1,-6953.2814,2430.971)" d="M 6970.635 -2403.3443 L 7007.9938 -2424.8555 L 7002.5915 -2428.0938 L 6965.2814 -2406.4644 L 6970.635 -2403.3443 Z " fill="#fcc571"/>
<path transform="matrix(1,0,0,1,-6954.0305,2430.5206)" d="M 6971.384 -2400.6544 L 6971.384 -2402.8924 L 7008.727 -2424.422 L 7008.727 -2422.0509 L 6971.384 -2400.6544 Z " fill="#efb04f"/>
<clipPath id="cp2">
<path transform="matrix(.25,0,0,.25,0,0)" d="M 69.41478 110.51071 L 73.815837 107.97341 L 69.41478 110.50756 L 48 98.02692 L 197.2403 11.508789 L 218.75923 24.410086 L 218.78772 24.393662 L 218.78772 24.427166 L 218.84774 24.463139 L 218.78772 24.497689 L 218.78772 33.877305 L 69.41478 119.463809 L 69.41478 110.51071 Z "/>
</clipPath>
<g clip-path="url(#cp2)">
<g>
<clipPath id="cp3">
<path transform="matrix(.25,0,0,.25,12,2.75)" d="M 0 0 L 171 0 L 171 109 L 0 109 Z "/>
</clipPath>
<g clip-path="url(#cp3)">
<path transform="matrix(.98293188,-.18397016,.18397016,.98293188,14.639648,25.731476)" d="M .00000000000000006938894 .6927997 L 9.042174 0 L 7.963695 .39777557 L .00000000000000011205502 1.1422987 L .00000000000000006938894 .6927997 Z " fill="#eca73e"/>
<path transform="matrix(1,0,0,1,384.1339,1235.1437)" d="M -372.8376 -1210.4851 L -372.9211 -1210.9265 L -353.9226 -1215.0139 L -353.88316 -1215.0071 C -353.86589 -1215.0046 -350.59226 -1214.8255 -348.48823 -1215.5171 L -349.5873 -1214.9656 C -351.6464 -1214.2886 -354.32734 -1214.5576 -354.32734 -1214.5576 L -372.8376 -1210.4851 Z " fill="#eca73e"/>
<path transform="matrix(1,0,0,1,331.23524,1363.4314)" d="M -312.873 -1342.8379 L -312.92686 -1343.2839 C -312.81779 -1343.2971 -299.41633 -1345.1594 -297.37126 -1345.7769 C -296.97755 -1345.9292 -283.17646 -1351.294 -276.24589 -1356.353 L -275.98078 -1355.99 C -283.0249 -1350.8482 -297.07624 -1345.4087 -297.21736 -1345.3545 L -297.23268 -1345.3494 C -299.29545 -1344.7214 -312.4257 -1342.8916 -312.873 -1342.8379 Z " fill="#eca73e"/>
<path transform="matrix(1,0,0,1,268.14735,1389.2009)" d="M -243.51993 -1372.1432 L -243.59185 -1372.5869 C -243.54708 -1372.594 -236.47544 -1373.9794 -231.10587 -1375.7556 C -226.16355 -1377.3905 -219.44434 -1380.264 -215.50064 -1384.668 L -215.16588 -1384.3682 C -219.1769 -1379.8888 -225.97487 -1376.9791 -230.97148 -1375.3265 C -236.37384 -1373.5402 -243.47489 -1372.1505 -243.51993 -1372.1432 Z " fill="#eca73e"/>
<path transform="matrix(1,0,0,1,155.80371,1387.0518)" d="M -120.50451 -1376.1193 L -120.58983 -1376.5606 C -120.53022 -1376.572 -110.58289 -1380.1316 -108.08891 -1383.7854 L -107.71774 -1383.5321 C -110.316989 -1379.7239 -120.253719 -1376.1675 -120.50451 -1376.1193 Z " fill="#eca73e"/>
</g>
</g>
</g>
<path transform="matrix(1,0,0,1,-6927.247,2433.7222)" d="M 6952.2907 -2400.483 L 6952.2907 -2398.2198 L 6957.6359 -2395.0838 L 6957.6359 -2397.3824 L 6952.2907 -2400.483 Z " fill="#dc9c3b"/>
<path transform="matrix(1,0,0,1,-6940.246,2439.7435)" d="M 6970.635 -2403.3443 L 7007.9938 -2424.8555 L 7002.5915 -2428.0938 L 6965.2814 -2406.4644 L 6970.635 -2403.3443 Z " fill="#fcc571"/>
<path transform="matrix(1,0,0,1,-6940.994,2439.293)" d="M 6971.384 -2400.6544 L 6971.384 -2402.8924 L 7008.727 -2424.422 L 7008.727 -2422.0509 L 6971.384 -2400.6544 Z " fill="#efb04f"/>
<clipPath id="cp4">
<path transform="matrix(.25,0,0,.25,0,0)" d="M 121.55736 145.60056 L 125.95841 143.06327 L 121.55736 145.59741 L 100.14258 133.11676 L 249.38288 46.598634 L 270.9018 59.49993 L 270.9303 59.483507 L 270.9303 59.51701 L 270.9903 59.552984 L 270.9303 59.587533 L 270.9303 68.96715 L 121.55736 154.55365 L 121.55736 145.60056 Z "/>
</clipPath>
<g clip-path="url(#cp4)">
<g>
<clipPath id="cp5">
<path transform="matrix(.25,0,0,.25,25,11.5)" d="M 0 0 L 171 0 L 171 109 L 0 109 Z "/>
</clipPath>
<g clip-path="url(#cp5)">
<path transform="matrix(.98293188,-.18397016,.18397016,.98293188,27.675293,34.503938)" d="M .00000000000000006938894 .6927997 L 9.042174 0 L 7.963695 .39777557 L .00000000000000011205502 1.1422987 L .00000000000000006938894 .6927997 Z " fill="#eca73e"/>
<path transform="matrix(1,0,0,1,397.16957,1243.9161)" d="M -372.8376 -1210.4851 L -372.9211 -1210.9265 L -353.9226 -1215.0139 L -353.88316 -1215.0071 C -353.86589 -1215.0046 -350.59226 -1214.8255 -348.48823 -1215.5171 L -349.5873 -1214.9656 C -351.6464 -1214.2886 -354.32734 -1214.5576 -354.32734 -1214.5576 L -372.8376 -1210.4851 Z " fill="#eca73e"/>
<path transform="matrix(1,0,0,1,344.27088,1372.2039)" d="M -312.873 -1342.8379 L -312.92686 -1343.2839 C -312.81779 -1343.2971 -299.41633 -1345.1594 -297.37126 -1345.7769 C -296.97755 -1345.9292 -283.17646 -1351.294 -276.24589 -1356.353 L -275.98078 -1355.99 C -283.0249 -1350.8482 -297.07624 -1345.4087 -297.21736 -1345.3545 L -297.23268 -1345.3494 C -299.29545 -1344.7214 -312.4257 -1342.8916 -312.873 -1342.8379 Z " fill="#eca73e"/>
<path transform="matrix(1,0,0,1,281.18299,1397.9734)" d="M -243.51993 -1372.1432 L -243.59185 -1372.5869 C -243.54708 -1372.594 -236.47544 -1373.9794 -231.10587 -1375.7556 C -226.16355 -1377.3905 -219.44434 -1380.264 -215.50064 -1384.668 L -215.16588 -1384.3682 C -219.1769 -1379.8888 -225.97487 -1376.9791 -230.97148 -1375.3265 C -236.37384 -1373.5402 -243.47489 -1372.1505 -243.51993 -1372.1432 Z " fill="#eca73e"/>
<path transform="matrix(1,0,0,1,168.83936,1395.8242)" d="M -120.50451 -1376.1193 L -120.58983 -1376.5606 C -120.53022 -1376.572 -110.58289 -1380.1316 -108.08891 -1383.7854 L -107.71774 -1383.5321 C -110.316989 -1379.7239 -120.253719 -1376.1675 -120.50451 -1376.1193 Z " fill="#eca73e"/>
</g>
</g>
</g>
<path transform="matrix(1,0,0,1,-6934.2648,2429.336)" d="M 6952.2907 -2400.483 L 6952.2907 -2398.2198 L 6957.6359 -2395.0838 L 6957.6359 -2397.3824 L 6952.2907 -2400.483 Z " fill="#dc9c3b"/>
<path transform="matrix(1,0,0,1,-6947.2639,2435.3572)" d="M 6970.635 -2403.3443 L 7007.9938 -2424.8555 L 7002.5915 -2428.0938 L 6965.2814 -2406.4644 L 6970.635 -2403.3443 Z " fill="#fcc571"/>
<path transform="matrix(1,0,0,1,-6948.0119,2434.9068)" d="M 6971.384 -2400.6544 L 6971.384 -2402.8924 L 7008.727 -2424.422 L 7008.727 -2422.0509 L 6971.384 -2400.6544 Z " fill="#efb04f"/>
<clipPath id="cp6">
<path transform="matrix(.25,0,0,.25,0,0)" d="M 93.487049 128.05564 L 97.8881 125.51833 L 93.487049 128.05249 L 72.072269 115.57184 L 221.31256 29.05371 L 242.8315 41.95501 L 242.85999 41.938585 L 242.85999 41.972089 L 242.92 42.00806 L 242.85999 42.04261 L 242.85999 51.422227 L 93.487049 137.00873 L 93.487049 128.05564 Z "/>
</clipPath>
<g clip-path="url(#cp6)">
<g>
<clipPath id="cp7">
<path transform="matrix(.25,0,0,.25,18,7.25)" d="M 0 0 L 171 0 L 171 109 L 0 109 Z "/>
</clipPath>
<g clip-path="url(#cp7)">
<path transform="matrix(.98293188,-.18397016,.18397016,.98293188,20.657715,30.117707)" d="M .00000000000000006938894 .6927997 L 9.042174 0 L 7.963695 .39777557 L .00000000000000011205502 1.1422987 L .00000000000000006938894 .6927997 Z " fill="#eca73e"/>
<path transform="matrix(1,0,0,1,390.15199,1239.5299)" d="M -372.8376 -1210.4851 L -372.9211 -1210.9265 L -353.9226 -1215.0139 L -353.88316 -1215.0071 C -353.86589 -1215.0046 -350.59226 -1214.8255 -348.48823 -1215.5171 L -349.5873 -1214.9656 C -351.6464 -1214.2886 -354.32734 -1214.5576 -354.32734 -1214.5576 L -372.8376 -1210.4851 Z " fill="#eca73e"/>
<path transform="matrix(1,0,0,1,337.2533,1367.8176)" d="M -312.873 -1342.8379 L -312.92686 -1343.2839 C -312.81779 -1343.2971 -299.41633 -1345.1594 -297.37126 -1345.7769 C -296.97755 -1345.9292 -283.17646 -1351.294 -276.24589 -1356.353 L -275.98078 -1355.99 C -283.0249 -1350.8482 -297.07624 -1345.4087 -297.21736 -1345.3545 L -297.23268 -1345.3494 C -299.29545 -1344.7214 -312.4257 -1342.8916 -312.873 -1342.8379 Z " fill="#eca73e"/>
<path transform="matrix(1,0,0,1,274.1654,1393.5872)" d="M -243.51993 -1372.1432 L -243.59185 -1372.5869 C -243.54708 -1372.594 -236.47544 -1373.9794 -231.10587 -1375.7556 C -226.16355 -1377.3905 -219.44434 -1380.264 -215.50064 -1384.668 L -215.16588 -1384.3682 C -219.1769 -1379.8888 -225.97487 -1376.9791 -230.97148 -1375.3265 C -236.37384 -1373.5402 -243.47489 -1372.1505 -243.51993 -1372.1432 Z " fill="#eca73e"/>
<path transform="matrix(1,0,0,1,161.82178,1391.438)" d="M -120.50451 -1376.1193 L -120.58983 -1376.5606 C -120.53022 -1376.572 -110.58289 -1380.1316 -108.08891 -1383.7854 L -107.71774 -1383.5321 C -110.316989 -1379.7239 -120.253719 -1376.1675 -120.50451 -1376.1193 Z " fill="#eca73e"/>
</g>
</g>
</g>
<path transform="matrix(1,0,0,1,-6926.124,2429.336)" d="M 6952.2907 -2400.483 L 6952.2907 -2398.2198 L 6957.6359 -2395.0838 L 6957.6359 -2397.3824 L 6952.2907 -2400.483 Z " fill="#dc9c3b"/>
<path transform="matrix(1,0,0,1,-6939.123,2435.3572)" d="M 6970.635 -2403.3443 L 7007.9938 -2424.8555 L 7002.5915 -2428.0938 L 6965.2814 -2406.4644 L 6970.635 -2403.3443 Z " fill="#fcc571"/>
<path transform="matrix(1,0,0,1,-6939.871,2434.9068)" d="M 6971.384 -2400.6544 L 6971.384 -2402.8924 L 7008.727 -2424.422 L 7008.727 -2422.0509 L 6971.384 -2400.6544 Z " fill="#efb04f"/>
<clipPath id="cp8">
<path transform="matrix(.25,0,0,.25,0,0)" d="M 126.049549 128.05564 L 130.45059 125.51833 L 126.049549 128.05249 L 104.634769 115.57184 L 253.87506 29.05371 L 275.39399 41.95501 L 275.4225 41.938585 L 275.4225 41.972089 L 275.48249 42.00806 L 275.4225 42.04261 L 275.4225 51.422227 L 126.049549 137.00873 L 126.049549 128.05564 Z "/>
</clipPath>
<g clip-path="url(#cp8)">
<g>
<clipPath id="cp9">
<path transform="matrix(.25,0,0,.25,26,7.25)" d="M 0 0 L 172 0 L 172 109 L 0 109 Z "/>
</clipPath>
<g clip-path="url(#cp9)">
<path transform="matrix(.98293188,-.18397016,.18397016,.98293188,28.79834,30.117707)" d="M .00000000000000006938894 .6927997 L 9.042174 0 L 7.963695 .39777557 L .00000000000000011205502 1.1422987 L .00000000000000006938894 .6927997 Z " fill="#eca73e"/>
<path transform="matrix(1,0,0,1,398.2926,1239.5299)" d="M -372.8376 -1210.4851 L -372.9211 -1210.9265 L -353.9226 -1215.0139 L -353.88316 -1215.0071 C -353.86589 -1215.0046 -350.59226 -1214.8255 -348.48823 -1215.5171 L -349.5873 -1214.9656 C -351.6464 -1214.2886 -354.32734 -1214.5576 -354.32734 -1214.5576 L -372.8376 -1210.4851 Z " fill="#eca73e"/>
<path transform="matrix(1,0,0,1,345.39393,1367.8176)" d="M -312.873 -1342.8379 L -312.92686 -1343.2839 C -312.81779 -1343.2971 -299.41633 -1345.1594 -297.37126 -1345.7769 C -296.97755 -1345.9292 -283.17646 -1351.294 -276.24589 -1356.353 L -275.98078 -1355.99 C -283.0249 -1350.8482 -297.07624 -1345.4087 -297.21736 -1345.3545 L -297.23268 -1345.3494 C -299.29545 -1344.7214 -312.4257 -1342.8916 -312.873 -1342.8379 Z " fill="#eca73e"/>
<path transform="matrix(1,0,0,1,282.30604,1393.5872)" d="M -243.51993 -1372.1432 L -243.59185 -1372.5869 C -243.54708 -1372.594 -236.47544 -1373.9794 -231.10587 -1375.7556 C -226.16355 -1377.3905 -219.44434 -1380.264 -215.50064 -1384.668 L -215.16588 -1384.3682 C -219.1769 -1379.8888 -225.97487 -1376.9791 -230.97148 -1375.3265 C -236.37384 -1373.5402 -243.47489 -1372.1505 -243.51993 -1372.1432 Z " fill="#eca73e"/>
<path transform="matrix(1,0,0,1,169.9624,1391.438)" d="M -120.50451 -1376.1193 L -120.58983 -1376.5606 C -120.53022 -1376.572 -110.58289 -1380.1316 -108.08891 -1383.7854 L -107.71774 -1383.5321 C -110.316989 -1379.7239 -120.253719 -1376.1675 -120.50451 -1376.1193 Z " fill="#eca73e"/>
</g>
</g>
</g>
<path transform="matrix(1,0,0,1,-6935.0197,2423.0726)" d="M 6952.2907 -2400.483 L 6952.2907 -2398.2198 L 6957.6359 -2395.0838 L 6957.6359 -2397.3824 L 6952.2907 -2400.483 Z " fill="#dc9c3b"/>
<path transform="matrix(1,0,0,1,-6948.0178,2429.0938)" d="M 6970.635 -2403.3443 L 7007.9938 -2424.8555 L 7002.5915 -2428.0938 L 6965.2814 -2406.4644 L 6970.635 -2403.3443 Z " fill="#fcc571"/>
<path transform="matrix(1,0,0,1,-6948.7668,2428.6434)" d="M 6971.384 -2400.6544 L 6971.384 -2402.8924 L 7008.727 -2424.422 L 7008.727 -2422.0509 L 6971.384 -2400.6544 Z " fill="#efb04f"/>
<clipPath id="cp10">
<path transform="matrix(.25,0,0,.25,0,0)" d="M 90.46947 103.00192 L 94.87052 100.46462 L 90.46947 102.99877 L 69.05469 90.51813 L 218.29499 4 L 239.81392 16.901297 L 239.8424 16.884873 L 239.8424 16.918377 L 239.90242 16.95435 L 239.8424 16.9889 L 239.8424 26.368517 L 90.46947 111.95502 L 90.46947 103.00192 Z "/>
</clipPath>
<g clip-path="url(#cp10)">
<g>
<clipPath id="cp11">
<path transform="matrix(.25,0,0,.25,17.25,1)" d="M 0 0 L 171 0 L 171 108 L 0 108 Z "/>
</clipPath>
<g clip-path="url(#cp11)">
<path transform="matrix(.98293188,-.18397016,.18397016,.98293188,19.90332,23.854279)" d="M .00000000000000006938894 .6927997 L 9.042174 0 L 7.963695 .39777557 L .00000000000000011205502 1.1422987 L .00000000000000006938894 .6927997 Z " fill="#eca73e"/>
<path transform="matrix(1,0,0,1,389.39759,1233.2665)" d="M -372.8376 -1210.4851 L -372.9211 -1210.9265 L -353.9226 -1215.0139 L -353.88316 -1215.0071 C -353.86589 -1215.0046 -350.59226 -1214.8255 -348.48823 -1215.5171 L -349.5873 -1214.9656 C -351.6464 -1214.2886 -354.32734 -1214.5576 -354.32734 -1214.5576 L -372.8376 -1210.4851 Z " fill="#eca73e"/>
<path transform="matrix(1,0,0,1,336.4989,1361.5542)" d="M -312.873 -1342.8379 L -312.92686 -1343.2839 C -312.81779 -1343.2971 -299.41633 -1345.1594 -297.37126 -1345.7769 C -296.97755 -1345.9292 -283.17646 -1351.294 -276.24589 -1356.353 L -275.98078 -1355.99 C -283.0249 -1350.8482 -297.07624 -1345.4087 -297.21736 -1345.3545 L -297.23268 -1345.3494 C -299.29545 -1344.7214 -312.4257 -1342.8916 -312.873 -1342.8379 Z " fill="#eca73e"/>
<path transform="matrix(1,0,0,1,273.411,1387.3237)" d="M -243.51993 -1372.1432 L -243.59185 -1372.5869 C -243.54708 -1372.594 -236.47544 -1373.9794 -231.10587 -1375.7556 C -226.16355 -1377.3905 -219.44434 -1380.264 -215.50064 -1384.668 L -215.16588 -1384.3682 C -219.1769 -1379.8888 -225.97487 -1376.9791 -230.97148 -1375.3265 C -236.37384 -1373.5402 -243.47489 -1372.1505 -243.51993 -1372.1432 Z " fill="#eca73e"/>
<path transform="matrix(1,0,0,1,161.06739,1385.1746)" d="M -120.50451 -1376.1193 L -120.58983 -1376.5606 C -120.53022 -1376.572 -110.58289 -1380.1316 -108.08891 -1383.7854 L -107.71774 -1383.5321 C -110.316989 -1379.7239 -120.253719 -1376.1675 -120.50451 -1376.1193 Z " fill="#eca73e"/>
</g>
</g>
</g>
<path transform="matrix(1,0,0,1,-6928.756,2424.0726)" d="M 6952.2907 -2400.483 L 6952.2907 -2398.2198 L 6957.6359 -2395.0838 L 6957.6359 -2397.3824 L 6952.2907 -2400.483 Z " fill="#dc9c3b"/>
<path transform="matrix(1,0,0,1,-6941.754,2430.0938)" d="M 6970.635 -2403.3443 L 7007.9938 -2424.8555 L 7002.5915 -2428.0938 L 6965.2814 -2406.4644 L 6970.635 -2403.3443 Z " fill="#ffcb7d"/>
<path transform="matrix(1,0,0,1,-6942.504,2429.6434)" d="M 6971.384 -2400.6544 L 6971.384 -2402.8924 L 7008.727 -2424.422 L 7008.727 -2422.0509 L 6971.384 -2400.6544 Z " fill="#efb04f"/>
<clipPath id="cp12">
<path transform="matrix(.25,0,0,.25,0,0)" d="M 115.5222 107.00192 L 119.923259 104.46462 L 115.5222 106.99877 L 94.10742 94.51813 L 243.34772 8 L 264.86665 20.901297 L 264.89515 20.884873 L 264.89515 20.918377 L 264.95515 20.95435 L 264.89515 20.9889 L 264.89515 30.368517 L 115.5222 115.95502 L 115.5222 107.00192 Z "/>
</clipPath>
<g clip-path="url(#cp12)">
<g>
<clipPath id="cp13">
<path transform="matrix(.25,0,0,.25,23.5,2)" d="M 0 0 L 171 0 L 171 108 L 0 108 Z "/>
</clipPath>
<g clip-path="url(#cp13)">
<path transform="matrix(.98293188,-.18397016,.18397016,.98293188,26.166504,24.854279)" d="M .00000000000000006938894 .6927997 L 9.042174 0 L 7.963695 .39777557 L .00000000000000011205502 1.1422987 L .00000000000000006938894 .6927997 Z " fill="#f9b651"/>
<path transform="matrix(1,0,0,1,395.66078,1234.2665)" d="M -372.8376 -1210.4851 L -372.9211 -1210.9265 L -353.9226 -1215.0139 L -353.88316 -1215.0071 C -353.86589 -1215.0046 -350.59226 -1214.8255 -348.48823 -1215.5171 L -349.5873 -1214.9656 C -351.6464 -1214.2886 -354.32734 -1214.5576 -354.32734 -1214.5576 L -372.8376 -1210.4851 Z " fill="#f9b651"/>
<path transform="matrix(1,0,0,1,342.7621,1362.5542)" d="M -312.873 -1342.8379 L -312.92686 -1343.2839 C -312.81779 -1343.2971 -299.41633 -1345.1594 -297.37126 -1345.7769 C -296.97755 -1345.9292 -283.17646 -1351.294 -276.24589 -1356.353 L -275.98078 -1355.99 C -283.0249 -1350.8482 -297.07624 -1345.4087 -297.21736 -1345.3545 L -297.23268 -1345.3494 C -299.29545 -1344.7214 -312.4257 -1342.8916 -312.873 -1342.8379 Z " fill="#f9b651"/>
<path transform="matrix(1,0,0,1,279.6742,1388.3237)" d="M -243.51993 -1372.1432 L -243.59185 -1372.5869 C -243.54708 -1372.594 -236.47544 -1373.9794 -231.10587 -1375.7556 C -226.16355 -1377.3905 -219.44434 -1380.264 -215.50064 -1384.668 L -215.16588 -1384.3682 C -219.1769 -1379.8888 -225.97487 -1376.9791 -230.97148 -1375.3265 C -236.37384 -1373.5402 -243.47489 -1372.1505 -243.51993 -1372.1432 Z " fill="#f9b651"/>
<path transform="matrix(1,0,0,1,167.33057,1386.1746)" d="M -120.50451 -1376.1193 L -120.58983 -1376.5606 C -120.53022 -1376.572 -110.58289 -1380.1316 -108.08891 -1383.7854 L -107.71774 -1383.5321 C -110.316989 -1379.7239 -120.253719 -1376.1675 -120.50451 -1376.1193 Z " fill="#f9b651"/>
</g>
</g>
</g>
</g>
</g>
</g>
</g>
</g>
</svg>
