<?xml version="1.0" encoding="UTF-8" standalone="no"?>
<!DOCTYPE svg PUBLIC "-//W3C//DTD SVG 1.1//EN" "http://www.w3.org/Graphics/SVG/1.1/DTD/svg11.dtd">
<svg xmlns="http://www.w3.org/2000/svg" xmlns:xlink="http://www.w3.org/1999/xlink" version="1.1" width="80pt" height="40pt" viewBox="0 0 80 40">
<g enable-background="new">
<g>
<clipPath id="cp0">
<path transform="matrix(.25,0,0,.25,0,0)" d="M 0 0 L 320 0 L 320 160 L 0 160 Z " fill-rule="evenodd"/>
</clipPath>
<g clip-path="url(#cp0)">
<g>
<clipPath id="cp1">
<path transform="matrix(.25,0,0,.25,0,0)" d="M 0 0 L 320 0 L 320 160 L 0 160 Z " fill-rule="evenodd"/>
</clipPath>
<g clip-path="url(#cp1)">
<path transform="matrix(1,0,0,1,-158.82447,-405.46815)" d="M 195.79099 440.003 C 195.79099 441.32038 197.28302 442.3883 199.12342 442.3883 C 200.96384 442.3883 202.45575 441.32038 202.45575 440.003 L 195.79099 440.003 Z " fill="#474747"/>
<path transform="matrix(1,0,0,1,-70.144168,-58.63803)" d="M 109.595829 62.371618 C 104.2058 62.71597 99.31259 67.61029 98.96866 73.00038 C 98.73906 76.598819 100.18131 79.86555 102.592899 82.1025 C 103.91719 83.33102 104.71256 85.024608 104.71256 86.830959 L 115.97674 86.832057 C 115.97674 85.08389 116.67354 83.385738 117.972469 82.215908 C 120.28801 80.130229 121.74451 77.1097 121.74451 73.747608 C 121.7446 67.2037 116.23096 61.94758 109.595829 62.371618 Z " fill="#b9f06e"/>
<path transform="matrix(1,0,0,1,31.590455,5.566635)" d="M 8.609948 0 C 9.175285 0 9.73519 .055145906 10.289664 .16543772 C 10.844138 .27572955 11.382527 .439048 11.904831 .6553932 C 12.4271349 .8717384 12.923316 1.1369531 13.393377 1.4510377 C 13.863439 1.7651223 14.298346 2.1220415 14.6981 2.5217953 C 15.097854 2.921549 15.454772 3.3564563 15.768856 3.826517 C 16.082942 4.2965776 16.348156 4.7927596 16.5645 5.315063 C 16.780846 5.8373668 16.944165 6.375756 17.054457 6.9302308 C 17.16475 7.484705 17.219897 8.044611 17.219897 8.609948 C 17.219897 9.175285 17.16475 9.73519 17.054457 10.289664 C 16.944165 10.844138 16.780846 11.382527 16.5645 11.904831 C 16.348156 12.4271349 16.082942 12.923316 15.768856 13.393377 C 15.454772 13.863439 15.097853 14.298346 14.698099 14.6981 C 14.298345 15.097854 13.863438 15.454772 13.393376 15.768856 C 12.923316 16.082942 12.427134 16.348156 11.90483 16.5645 C 11.382526 16.780846 10.844138 16.944165 10.289663 17.054457 C 9.73519 17.16475 9.175285 17.219897 8.609948 17.219897 C 8.044611 17.219897 7.484705 17.16475 6.9302308 17.054457 C 6.375756 16.944165 5.8373668 16.780846 5.315063 16.5645 C 4.7927596 16.348156 4.2965776 16.082942 3.8265169 15.768856 C 3.3564563 15.454772 2.921549 15.097853 2.5217953 14.698099 C 2.1220415 14.298345 1.7651223 13.863438 1.4510378 13.393376 C 1.1369532 12.923316 .8717384 12.427134 .6553932 11.90483 C .439048 11.382526 .27572955 10.844138 .16543772 10.289663 C .055145906 9.73519 0 9.175285 0 8.609948 C 0 8.044611 .055145906 7.484705 .16543772 6.9302308 C .27572955 6.375756 .439048 5.8373668 .6553932 5.315063 C .8717384 4.7927596 1.1369531 4.2965776 1.4510377 3.8265169 C 1.7651223 3.3564563 2.1220415 2.921549 2.5217953 2.5217953 C 2.921549 2.1220415 3.3564563 1.7651223 3.826517 1.4510378 C 4.2965776 1.1369532 4.7927596 .8717384 5.315063 .6553932 C 5.8373668 .439048 6.375756 .27572955 6.9302308 .16543772 C 7.484705 .055145906 8.044611 0 8.609948 0 Z " fill="#a8da64"/>
<path transform="matrix(1,0,0,1,-158.38782,-189.10974)" d="M 199.6191 217.14037 L 197.55742 217.14037 C 197.36823 217.14037 197.20575 217.00621 197.16973 216.82054 L 195.32117 207.28435 C 195.31626 207.25966 195.314 207.23451 195.314 207.20932 L 195.314 204.11679 C 195.314 203.95691 195.41011 203.81291 195.55767 203.75179 C 195.70497 203.69168 195.8751 203.72505 195.98802 203.83762 C 196.68389 204.53377 197.6075 204.9168 198.58823 204.9168 C 199.56891 204.9168 200.49253 204.53377 201.18842 203.83762 C 201.30149 203.72454 201.47148 203.69106 201.61875 203.75179 C 201.76631 203.813 201.86243 203.95691 201.86243 204.11679 L 201.86243 207.20932 C 201.86243 207.23451 201.86017 207.25975 201.85527 207.28435 L 200.00669 216.82054 C 199.97069 217.00621 199.80829 217.14037 199.6191 217.14037 Z M 197.88306 216.35063 L 199.29337 216.35063 L 201.0728 207.1713 L 201.0728 204.95178 C 200.34294 205.44278 199.48543 205.70653 198.58832 205.70653 C 197.69115 205.70653 196.83354 205.44278 196.10379 204.95178 L 196.10379 207.1713 L 197.88306 216.35063 Z " fill="#288248"/>
<path transform="matrix(1,0,0,1,-120.78259,-325.55287)" d="M 167.91678 353.99589 C 167.91678 353.2962 167.34958 352.729 166.6499 352.729 L 155.31615 352.729 C 154.86414 352.729 154.47019 352.96748 154.246 353.32368 L 167.18314 355.14149 C 167.61533 354.93974 167.91678 354.5043 167.91678 353.99589 Z " fill="#474747"/>
<path transform="matrix(1,0,0,1,-118.64624,-332.01118)" d="M 152.1097 359.78199 C 151.98685 359.97718 151.91301 360.2065 151.91301 360.45423 C 151.91301 361.1539 152.48021 361.72114 153.17986 361.72114 L 164.51355 361.72114 C 164.70479 361.72114 164.8843 361.6757 165.04688 361.5998 L 152.1097 359.78199 Z " fill="#7a7a7a"/>
<path transform="matrix(1,0,0,1,-120.78259,-351.75233)" d="M 167.91678 382.60786 C 167.91678 381.90824 167.34958 381.341 166.6499 381.341 L 155.31615 381.341 C 154.86414 381.341 154.47019 381.57945 154.246 381.9357 L 167.18314 383.75349 C 167.61533 383.55174 167.91678 383.11625 167.91678 382.60786 Z " fill="#474747"/>
<path transform="matrix(1,0,0,1,-118.64624,-358.20979)" d="M 152.1097 388.39305 C 151.98685 388.58824 151.91301 388.81755 151.91301 389.0653 C 151.91301 389.76496 152.48021 390.33216 153.17986 390.33216 L 164.51355 390.33216 C 164.70479 390.33216 164.8843 390.2867 165.04688 390.21083 L 152.1097 388.39305 Z " fill="#7a7a7a"/>
<path transform="matrix(1,0,0,1,-120.78259,-377.95094)" d="M 167.91678 411.2189 C 167.91678 410.5192 167.34958 409.952 166.6499 409.952 L 155.31615 409.952 C 154.86414 409.952 154.47019 410.19047 154.246 410.54673 L 167.18314 412.3645 C 167.61533 412.16276 167.91678 411.72734 167.91678 411.2189 Z " fill="#474747"/>
<path transform="matrix(1,0,0,1,-118.64624,-384.4093)" d="M 152.1097 417.00505 C 151.98685 417.20024 151.91301 417.42958 151.91301 417.67735 C 151.91301 418.37696 152.48021 418.94416 153.17986 418.94416 L 164.51355 418.94416 C 164.70479 418.94416 164.8843 418.89878 165.04688 418.82289 L 152.1097 417.00505 Z " fill="#7a7a7a"/>
</g>
</g>
</g>
</g>
</g>
</svg>
