<svg xmlns="http://www.w3.org/2000/svg" xmlns:xlink="http://www.w3.org/1999/xlink" width="140" height="70" viewBox="0 0 140 70"><defs><style>.a{fill:#0080df;}.b{clip-path:url(#a);}.c{fill:#0073dc;}.d{fill:#e2f4ff;}.e{fill:#d1ecf9;}.f{fill:#0361a7;}.g{fill:#fff;}</style><clipPath id="a"><rect class="a" width="140" height="70" transform="translate(237 619)"/></clipPath></defs><g class="b" transform="translate(-237 -619)"><g transform="translate(277 624)"><path class="c" d="M45.443,59.457a6.816,6.816,0,0,0,6.816-6.816V6.816A6.816,6.816,0,0,0,45.443,0H8.643A8.652,8.652,0,0,0,0,8.643V50.814a8.652,8.652,0,0,0,8.643,8.643h36.8Z" transform="translate(0 0)"/><path class="d" d="M84.231,87.507a6.8,6.8,0,0,0,.452-2.442V39.24a6.8,6.8,0,0,0-.452-2.442,4.394,4.394,0,0,0-.992-.114H41.067a4.383,4.383,0,0,0-4.383,4.383V83.238a4.383,4.383,0,0,0,4.383,4.383H83.238A4.394,4.394,0,0,0,84.231,87.507Z" transform="translate(-32.424 -32.424)"/><path class="c" d="M391.989,0H386a6.816,6.816,0,0,1,6.816,6.816V52.641A6.816,6.816,0,0,1,386,59.457h5.99a8.653,8.653,0,0,0,8.642-8.643V8.643A8.652,8.652,0,0,0,391.989,0Z" transform="translate(-341.174 0)"/><path class="e" d="M440.459,36.8a7.229,7.229,0,0,1,0,2.609V85.239a6.513,6.513,0,0,1,0,2.475,4.382,4.382,0,0,0,4.048-4.369V41.174A4.382,4.382,0,0,0,440.459,36.8Z" transform="translate(-389.31 -32.531)"/><g transform="translate(8.555 8.793)"><circle class="f" cx="21.182" cy="21.182" r="21.182"/><g transform="translate(4.732 3.549)"><path class="g" d="M265.951,253.021a5.778,5.778,0,0,1-3.4-1.059c-.971-.685-.82-1.654-.646-2.775.609-3.916-.293-5.789-2.36-7.859-.936-.938-1.293-1.352-.7-2.192,2.494-3.534,9.947-3.191,13.326-.806,3.286,2.319,3.227,7.251.76,10.747a9,9,0,0,1-6.981,3.944Z" transform="translate(-241.817 -221.387)"/><path class="g" d="M115.314,243.288c-1.736-3.775-1.022-8.712,2.709-10.428,1.089-.5,1.845.122,2.725.833,3.167,2.558,5.259,2.623,7.983,1.9a5.416,5.416,0,0,1,1.259-.242,1.024,1.024,0,0,1,.988.735c1.867,4.059-2.4,10.286-5.985,11.934S117.137,247.251,115.314,243.288Z" transform="translate(-114.416 -218)"/><g transform="translate(8.139)"><path class="g" d="M192.848,123.52c-1.19,0-3.534-.49-5.872-3.768a12.644,12.644,0,0,1-2.47-6.655c0-3.759,3.742-6.817,8.342-6.817,4.012,0,8.342,2.607,8.342,6.817,0,1.188-.878,1.624-1.895,2.128-3.553,1.761-4.562,3.58-5.061,6.46C194.009,122.991,193.877,123.52,192.848,123.52Z" transform="translate(-184.506 -106.28)"/></g><circle class="e" cx="4.253" cy="4.253" r="4.253" transform="translate(12.196 13.09)"/></g></g><circle class="c" cx="2.632" cy="2.632" r="2.632" transform="translate(46.377 47.135)"/></g></g></svg>