<svg xmlns="http://www.w3.org/2000/svg" xmlns:xlink="http://www.w3.org/1999/xlink" width="140" height="70" viewBox="0 0 140 70"><defs><style>.a{fill:#e2e2e2;}.b{fill:#ffdc00;}.c{clip-path:url(#a);}.d{fill:#2b7dce;}.e{fill:#004890;}.f{fill:#529ae2;}.g{fill:#0053a6;}.h{fill:#7ebdfc;}.i{fill:#166cc2;}.j{clip-path:url(#b);}.k{fill:#428edb;}</style><clipPath id="a"><rect class="a" width="140" height="70" transform="translate(-0.431)"/></clipPath><clipPath id="b"><path class="b" d="M5895.758-2074.629l33.061-18.877,32.677,18.877-32.677,18.782Z" transform="translate(-5895.758 2093.507)"/></clipPath></defs><g class="c" transform="translate(0.431)"><g transform="translate(37.881 8.249)"><g transform="translate(0 0)"><g transform="translate(0 12.319)"><path class="d" d="M5895.758-2074.629l33.061-18.877,32.677,18.877-32.677,18.782Z" transform="translate(-5895.758 2093.507)"/><path class="e" d="M5992.373-2019.523v3.2l32.387-18.745.2-3.221Z" transform="translate(-5959.311 2057.183)"/><path class="e" d="M6024.869-2019.562v3.2l-32.883-18.757-.2-3.221Z" transform="translate(-5991.775 2057.216)"/></g><g transform="translate(0 6.16)"><path class="f" d="M5895.758-2074.629l33.061-18.877,32.677,18.877-32.677,18.782Z" transform="translate(-5895.758 2093.507)"/><path class="g" d="M5992.373-2019.523v3.2l32.387-18.745.2-3.221Z" transform="translate(-5959.311 2057.183)"/><path class="g" d="M6024.869-2019.562v3.2l-32.883-18.757-.2-3.221Z" transform="translate(-5991.775 2057.216)"/></g><path class="h" d="M5895.758-2074.629l33.061-18.877,32.677,18.877-32.677,18.782Z" transform="translate(-5895.758 2093.507)"/><path class="i" d="M5992.373-2019.523v3.2l32.387-18.745.2-3.221Z" transform="translate(-5959.311 2057.183)"/><path class="i" d="M6024.869-2019.562v3.2l-32.883-18.757-.2-3.221Z" transform="translate(-5991.775 2057.216)"/></g><g class="j"><g transform="translate(-1.872 0.259)"><path class="k" d="M57.826,96.383l-1.587-1.164a83.407,83.407,0,0,1-5.857,6.008,27.16,27.16,0,0,1-15.162,6.343c-4.211.4-8.325-.113-13.266-.82l-.362-.052a64.291,64.291,0,0,0-13.336-.962A28.58,28.58,0,0,0,0,107.837v2.153a27.531,27.531,0,0,1,8.387-2.278,62.7,62.7,0,0,1,12.923.947l.361.052c3.989.571,8.953,1.281,13.732.831a29.155,29.155,0,0,0,16.273-6.818c.74-.641,5.175-5.3,6.148-6.34Zm.208-.208" transform="translate(5.35 -80.734)"/><path class="k" d="M0,4.824c4.029.456,7.995,2.558,11.836,4.595,1.417.751,2.755,1.461,4.1,2.1a24.974,24.974,0,0,0,8.536,2.376q.514.044,1.011.043A8.127,8.127,0,0,0,30.9,12.139a4.788,4.788,0,0,0,1.64-3.5c.072-1.417-2.134-6.653-3-8.393A17.6,17.6,0,0,0,28.183-2h-2.5c1.644,1.942,4.992,8.345,4.88,10.539a2.84,2.84,0,0,1-.965,2.108,6.835,6.835,0,0,1-4.956,1.269,22.994,22.994,0,0,1-7.859-2.194c-1.306-.615-2.624-1.314-4.019-2.054C8.822,5.579,4.754,3.422.436,2.881.41,2.869.383,2.858.356,2.849A2.572,2.572,0,0,0,0,4.154Zm0,0" transform="translate(10.701 2)"/><path class="k" d="M43.776,5.04c.806,3.551-.068,7.094-2.226,9.028a9.491,9.491,0,0,1-5.4,2.107,30.864,30.864,0,0,1-5.98-.228l-.337-.035c-6.926-.708-25.061-1.218-32.5-.166-1.065.15-2.44.422-3.329.606v2.023c1.142-.243,2.6-.528,3.605-.669,7.232-1.021,25.223-.52,32.024.175l.335.035a32.341,32.341,0,0,0,6.369.23,11.264,11.264,0,0,0,6.537-2.6,9.587,9.587,0,0,0,2.875-5.094A13.321,13.321,0,0,0,45.707,4.6,27.566,27.566,0,0,0,43.969,0H41.781a29.629,29.629,0,0,1,2,5.04Zm0,0" transform="translate(5.999 3.567)"/></g></g></g></g></svg>