<svg xmlns="http://www.w3.org/2000/svg" xmlns:xlink="http://www.w3.org/1999/xlink" width="160.001" height="80" viewBox="0 0 160.001 80"><defs><style>.a{fill:#6b4c4c;}.b{clip-path:url(#a);}.c{fill:#ffdc00;}.d{fill:#ffc400;}.e{fill:#e2e2e2;}.f{fill:#aeaeae;}</style><clipPath id="a"><rect class="a" width="160.001" height="80" transform="translate(-10663 4748)"/></clipPath></defs><g class="b" transform="translate(10663 -4748)"><g transform="translate(-10621.001 4758)"><path class="c" d="M34.16,35.473H0a34.146,34.146,0,0,1,23.648-32.5V2.627A2.627,2.627,0,0,1,26.275,0H42.042a2.627,2.627,0,0,1,2.627,2.627v.343a34.149,34.149,0,0,1,23.649,32.5Zm0-34.158a1.313,1.313,0,0,0-1.314,1.312V28.9a1.313,1.313,0,0,0,2.627,0V2.627A1.313,1.313,0,0,0,34.16,1.314Zm5.253,1.312V24.964a1.314,1.314,0,0,0,2.629,0V2.627a1.314,1.314,0,0,0-2.629,0Zm-13.138,0V24.964a1.314,1.314,0,0,0,2.629,0V2.627a1.314,1.314,0,0,0-2.629,0Z" transform="translate(3.942 -8)"/><path class="d" d="M38.1,7.882H2.627A2.628,2.628,0,0,1,0,5.256V2.627A2.628,2.628,0,0,1,2.627,0H73.573A2.628,2.628,0,0,1,76.2,2.627V5.256a2.628,2.628,0,0,1-2.628,2.627Z" transform="translate(0.001 27.473)"/><path class="e" d="M47.3,23.649a15.753,15.753,0,0,1-13.545-7.692,2.6,2.6,0,0,0-4.443,0,15.753,15.753,0,0,1-13.545,7.692H7.882A7.883,7.883,0,0,1,0,15.765V10.51H.724c-.244-.257-.479-.3-.724,0V5.255A5.256,5.256,0,0,1,5.255,0H57.808a5.256,5.256,0,0,1,5.256,5.255v10.51a7.885,7.885,0,0,1-7.883,7.885Z" transform="translate(6.57 44.553)"/><path class="f" d="M69.633,10.511V0H76.2V10.511ZM0,10.511V0H6.569V10.511Z" transform="translate(0.001 49.808)"/><path class="d" d="M0,27.591V1.314a1.314,1.314,0,1,1,2.628,0V27.591a1.314,1.314,0,0,1-2.628,0Z" transform="translate(36.788 -6.685)"/><path class="d" d="M265.314,24.963a1.314,1.314,0,0,0,1.314-1.314V1.314a1.314,1.314,0,1,0-2.628,0V23.649A1.314,1.314,0,0,0,265.314,24.963Zm0,0" transform="translate(-220.643 -6.686)"/><path class="d" d="M185.314,0A1.314,1.314,0,0,0,184,1.314V23.649a1.314,1.314,0,1,0,2.628,0V1.314A1.314,1.314,0,0,0,185.314,0Zm0,0" transform="translate(-153.782 -6.686)"/></g></g></svg>