<svg xmlns="http://www.w3.org/2000/svg" width="126" height="126" viewBox="0 0 126 126"><defs><style>.a{fill:#ee7125;}.b{fill:#fff;}</style></defs><g transform="translate(-389 -1336)"><rect class="a" width="126" height="126" transform="translate(389 1336)"/><g transform="translate(398.813 1344.404)"><path class="b" d="M2371.058,1169.96l-2.542,2.542-1.663-1.663,2.487-2.487c-.126-.175-.26-.343-.4-.505q-3.284-3.294-6.579-6.579c-.792-.792-1.026-.814-2.032-.343-.853.393-1.361.343-1.747-.174a1.375,1.375,0,0,1,.344-1.873c1.86-1.879,3.739-3.739,5.61-5.61.833-.833,1.654-1.677,2.5-2.5a1.842,1.842,0,0,1,.875-.591,1.7,1.7,0,0,1,1.225.274,1.215,1.215,0,0,1,.238,1.148c-.819,1.3-.227,2.112.71,3.038,5.133,5.066,10.211,10.179,15.317,15.283,1.073,1.072,1.1,1.082,2.495.456a1.159,1.159,0,0,1,1.523,1.684,4.268,4.268,0,0,1-.581.726q-3.87,3.884-7.752,7.752a2.531,2.531,0,0,1-1.121.726,1.436,1.436,0,0,1-1.141-.328,1.158,1.158,0,0,1-.2-1.088c.858-1.334.228-2.177-.733-3.095-2.121-2.025-4.165-4.131-6.239-6.2Z" transform="translate(-2347.227 -1089.751)"/><path class="b" d="M2355.108,1162.675c1.309-1.309,2.611-2.623,3.931-3.921a1.929,1.929,0,0,1,.866-.606,1.647,1.647,0,0,1,1.234.206,1.28,1.28,0,0,1,.262,1.194c-.794,1.281-.229,2.073.688,2.98,5.164,5.1,10.281,10.249,15.414,15.382,1.005,1,1.071,1.017,2.376.423a1.168,1.168,0,0,1,1.528,1.733,5.354,5.354,0,0,1-.643.771l-7.7,7.7a3.423,3.423,0,0,1-.487.426,1.253,1.253,0,0,1-1.655.042c-.529-.461-.431-1-.157-1.573.537-1.133.507-1.344-.361-2.212l-15.96-15.959c-.829-.828-1.063-.866-2.089-.381-.826.389-1.368.329-1.746-.193a1.375,1.375,0,0,1,.326-1.818c1.382-1.406,2.787-2.787,4.182-4.181Z" transform="translate(-2350.401 -1086.573)"/><path class="b" d="M2389.544,1128.011c.2-.22.329-.384.479-.534l7.037-7.037a3.285,3.285,0,0,1,.485-.43,1.251,1.251,0,0,1,1.6-.061,1.189,1.189,0,0,1,.213,1.569c-.564,1.245-.547,1.356.418,2.322l15.809,15.808c.927.927,1.093.957,2.263.4a1.186,1.186,0,0,1,1.573.176,1.2,1.2,0,0,1-.025,1.593,4.422,4.422,0,0,1-.511.6q-3.876,3.874-7.752,7.751a2.211,2.211,0,0,1-.987.679,1.594,1.594,0,0,1-1.223-.255,1.205,1.205,0,0,1-.242-1.144c.811-1.3.229-2.11-.71-3.039-5.946-5.883-11.845-11.817-17.759-17.732C2390.01,1128.477,2389.807,1128.274,2389.544,1128.011Z" transform="translate(-2334.753 -1101.933)"/><path class="b" d="M2404.9,1112.655l21.874,21.874-.633.633c-2.261,2.26-4.517,4.527-6.79,6.776a2.39,2.39,0,0,1-1.045.719,1.548,1.548,0,0,1-1.212-.279,1.207,1.207,0,0,1-.22-1.139c.817-1.308.224-2.116-.717-3.044-5.116-5.049-10.182-10.15-15.265-15.232-1.113-1.113-1.116-1.116-2.549-.5a1.139,1.139,0,0,1-1.446-.213,1.161,1.161,0,0,1-.084-1.47,2.382,2.382,0,0,1,.391-.514q3.666-3.679,7.345-7.344A3.978,3.978,0,0,1,2404.9,1112.655Z" transform="translate(-2331.935 -1104.744)"/><path class="b" d="M2399.773,1135.553l-3.3-5.786.1-.067a69.733,69.733,0,0,1,5.034,5.121,28.546,28.546,0,0,1,2.562,4.579q2.937,5.455,5.866,10.915c.2.367.378.652-.019,1.068s-.711.3-1.127.091q-11.817-5.85-23.643-11.678c-.494-.245-1.008-.451-1.524-.652a2.083,2.083,0,0,0-2.459.33.957.957,0,0,1-1.352.077.788.788,0,0,1-.076-.074,1.12,1.12,0,0,1-.135-1.563,3.508,3.508,0,0,1,.471-.542q3.493-3.494,6.972-7a.811.811,0,0,1,1.114-.182c3.581,1.752,7.177,3.476,10.767,5.206.21.1.428.186.643.277Z" transform="translate(-2338.794 -1097.93)"/><path class="b" d="M2395.309,1165.612c-.479-.48-.959-.917-1.379-1.407a.745.745,0,0,1-.062-.628,2.855,2.855,0,0,0-.826-3.271q-7.531-7.515-15.045-15.045a2.94,2.94,0,0,0-3.393-.86.663.663,0,0,1-.564-.078c-.48-.426-.923-.9-1.461-1.438.543-.4,1-.781,1.494-1.1a12.758,12.758,0,0,1,13.236-.783,20.636,20.636,0,0,1,10.063,10.221,12.893,12.893,0,0,1-1.666,14.033,2.426,2.426,0,0,1-.193.214C2395.446,1165.523,2395.379,1165.569,2395.309,1165.612Z" transform="translate(-2341.536 -1094.004)"/><path class="b" d="M2372.614,1142.922c.5.5.97.928,1.387,1.415a.764.764,0,0,1,.054.631,2.817,2.817,0,0,0,.762,3.164l15.3,15.3a2.825,2.825,0,0,0,3.106.75.99.99,0,0,1,.793.171,17.514,17.514,0,0,1,1.315,1.285,13.268,13.268,0,0,1-16.32,1.02,20.274,20.274,0,0,1-9.143-11.207,12.736,12.736,0,0,1,2.261-12.038A5.747,5.747,0,0,1,2372.614,1142.922Z" transform="translate(-2342.87 -1092.644)"/><path class="b" d="M2408.057,1144.78c.634.518,1.233.9.923,1.9a1.758,1.758,0,0,0,.5,1.4q5.073,5.173,10.248,10.247a1.749,1.749,0,0,0,1.41.483c1-.307,1.369.312,1.883.928a8.475,8.475,0,0,1-7.331,1.985,12.823,12.823,0,0,1-6.714-4.108c.754,3.39-.971,5.549-3.085,7.637-.192-.172-.365-.321-.533-.477s-.339-.339-.567-.567c.9-1.3.175-2.247-.721-3.144-1.019-1.019-2.028-2.051-3.067-3.05-.759-.731-1.589-1.278-2.708-.677-.11.06-.364-.033-.481-.126a8.432,8.432,0,0,1-.717-.7c2.406-3.106,6.158-4.8,9.823-1.858A8.773,8.773,0,0,1,2408.057,1144.78Z" transform="translate(-2331.734 -1091.901)"/><path class="b" d="M2362.186,1133.925l3.3,3.3c.376.377.726.753.3,1.3-.454.579-.945.41-1.452.066a10.624,10.624,0,0,0-1.573-1,5.892,5.892,0,0,0-2.236-.7,2.415,2.415,0,0,1-1.959-1.142,19.8,19.8,0,0,1,2.57-2.476,6.88,6.88,0,0,0,.945-1.05c1.769-1.734,3.509-3.5,5.263-5.244.358-.358.761-.645,1.269-.3s.347.785.116,1.215a.938.938,0,0,0,.234,1.225q5.338,5.32,10.659,10.659a.937.937,0,0,0,1.232.2c.437-.238.881-.339,1.207.161s.025.868-.31,1.2l-5.3,5.3c-.339.34-.721.617-1.207.307-.507-.328-.379-.775-.147-1.209a.939.939,0,0,0-.208-1.23c-3.551-3.553-7.117-7.094-10.651-10.665C2363.524,1133.134,2362.967,1133.7,2362.186,1133.925Z" transform="translate(-2347.139 -1099.198)"/><path class="b" d="M2374.327,1134.379l-1.662,1.663-1.088-1.089,1.668-1.668-.844-.843c-1.257-1.258-2.528-2.5-3.773-3.774a.993.993,0,0,0-1.344-.252c-.418.238-.83.309-1.148-.14a.843.843,0,0,1,.2-1.167q2.715-2.742,5.458-5.458a.851.851,0,0,1,1.166-.209c.436.305.378.732.142,1.151a.969.969,0,0,0,.2,1.3q5.337,5.321,10.658,10.659a.97.97,0,0,0,1.3.179c.411-.23.839-.3,1.149.158s.08.833-.242,1.157q-2.693,2.713-5.4,5.413c-.34.341-.739.584-1.214.238-.448-.329-.259-.729-.141-1.166a1.392,1.392,0,0,0-.079-1.1C2377.727,1137.742,2376.06,1136.112,2374.327,1134.379Z" transform="translate(-2344.175 -1101.292)"/><path class="b" d="M2412.24,1139.25l4.7-4.7.594.593q5.841,5.841,11.672,11.688a1.271,1.271,0,0,0,1.708.357.96.96,0,0,1,.915.2,1.169,1.169,0,0,1-.028.962,3.217,3.217,0,0,1-.724.793l-4.538,4.54a1.738,1.738,0,0,1-.6.5,1.179,1.179,0,0,1-.908-.032.909.909,0,0,1-.2-.859c.473-.813.118-1.306-.45-1.871q-5.837-5.791-11.635-11.624C2412.575,1139.635,2412.424,1139.453,2412.24,1139.25Z" transform="translate(-2325.68 -1095.99)"/><path class="b" d="M2376.471,1116.708l14.369,14.369c-.2.218-.361.416-.542.6l-4.181,4.181a1.736,1.736,0,0,1-.6.5,1.156,1.156,0,0,1-.906-.04.908.908,0,0,1-.189-.859c.462-.812.115-1.3-.458-1.869q-5.05-4.993-10.043-10.043c-.535-.535-1-.834-1.754-.4a.9.9,0,0,1-.868-.14c-.169-.228-.084-.638-.082-.97,0-.078.094-.165.162-.234C2373.058,1120.121,2374.739,1118.441,2376.471,1116.708Z" transform="translate(-2342.087 -1103.123)"/><path class="b" d="M2397.91,1153.742l.711.711q5.713,5.711,11.416,11.433c.577.577,1.107.958,1.943.462a.863.863,0,0,1,.813.176,1.112,1.112,0,0,1,.1.843,1.365,1.365,0,0,1-.424.566q-2.541,2.557-5.1,5.106c-.136.135-.277.332-.437.354-.3.051-.717.111-.912-.048a.906.906,0,0,1-.194-.862c.431-.774.156-1.267-.409-1.822q-5.1-5.045-10.15-10.148c-.5-.5-.956-.76-1.633-.346-.368.225-.826.221-.99-.2a1.173,1.173,0,0,1,.108-1.025C2394.405,1157.216,2396.118,1155.533,2397.91,1153.742Z" transform="translate(-2333.541 -1088.318)"/><path class="b" d="M2389.685,1161.944l14.352,14.352c-.14.168-.259.336-.406.483l-4.436,4.436a1.215,1.215,0,0,1-.5.4,1.338,1.338,0,0,1-.909-.081.839.839,0,0,1-.175-.815c.49-.837.111-1.37-.469-1.943q-5.014-4.981-10-10c-.519-.52-1.011-.83-1.774-.4a.958.958,0,0,1-.921-.189,1.061,1.061,0,0,1,.026-.963,6.617,6.617,0,0,1,1.025-1.1C2386.883,1164.744,2388.257,1163.372,2389.685,1161.944Z" transform="translate(-2336.828 -1085.039)"/><path class="b" d="M2380.583,1171.055l14.351,14.352c-.172.195-.319.375-.481.541l-4.331,4.331c-.119.119-.228.3-.368.332-.341.07-.777.194-1.022.047a.956.956,0,0,1-.181-.921,1.3,1.3,0,0,0-.354-1.72c-3.409-3.386-6.8-6.794-10.2-10.194-.473-.473-.946-.805-1.642-.374-.382.239-.873.237-1.058-.206a1.166,1.166,0,0,1,.156-1.015c.795-.9,1.668-1.726,2.517-2.577S2379.671,1171.966,2380.583,1171.055Z" transform="translate(-2340.468 -1081.397)"/><path class="b" d="M2354.563,1138.459l4.646-4.646c.2.179.4.337.582.517l11.72,11.72a1.291,1.291,0,0,0,1.711.378,1.011,1.011,0,0,1,.968.21,1.1,1.1,0,0,1-.124,1.008,23.336,23.336,0,0,1-1.746,1.818l-3.464,3.464a1.48,1.48,0,0,1-.537.462,1.361,1.361,0,0,1-.964-.024.9.9,0,0,1-.167-.865c.436-.782.125-1.262-.43-1.817q-5.886-5.837-11.726-11.715C2354.877,1138.82,2354.742,1138.658,2354.563,1138.459Z" transform="translate(-2348.737 -1096.285)"/><path class="b" d="M2420.577,1161.255c-.695-.517-1.24-.938-.93-1.919a1.769,1.769,0,0,0-.523-1.391q-5.05-5.142-10.195-10.195a1.844,1.844,0,0,0-1.453-.526c-.97.291-1.341-.283-1.871-.921a9.024,9.024,0,0,1,8.826-1.741l-3.216-3.215,2.755-2.755a2.134,2.134,0,0,1,1.071,1.863,5.9,5.9,0,0,0,1.493,3.516c.409.571.893,1.149.245,1.8,1.021.959,2.075,1.828,2.986,2.832a10.818,10.818,0,0,1,2.886,5.854A8.569,8.569,0,0,1,2420.577,1161.255Z" transform="translate(-2328.332 -1094.375)"/><path class="b" d="M2394.09,1185.443l-1.02-1.021c.816-1.33.093-2.312-.84-3.245q-4.1-4.1-8.213-8.2a4.354,4.354,0,0,0-1.127-.879,1.771,1.771,0,0,0-1.285-.225c-.939.464-1.335-.1-1.83-.768a7.29,7.29,0,0,1,2.975-2.016,7.479,7.479,0,0,1,5.365-.068,12.884,12.884,0,0,1,7.343,6.041,8.637,8.637,0,0,1-.691,9.7A6.3,6.3,0,0,1,2394.09,1185.443Z" transform="translate(-2338.657 -1082.397)"/><path class="b" d="M2386.367,1139.651l.871.431c1.638.805,3.281,1.6,4.908,2.416a3.524,3.524,0,0,1,.867.621c1.405,1.383,2.774,2.8,4.2,4.164a10.783,10.783,0,0,0,1.768,1.345,3.652,3.652,0,0,0,3.378.395c.549-.209,1.1-.288,1.5.26a1.15,1.15,0,0,1-.193,1.578q-2.282,2.351-4.632,4.633a1.119,1.119,0,0,1-1.513.181c-.549-.393-.5-.914-.3-1.485a4.643,4.643,0,0,0-1.542-5.005c-2.921-3.018-5.933-5.963-8.907-8.935l-.483-.483Z" transform="translate(-2336.055 -1093.951)"/><path class="b" d="M2426.316,1124.284l-6.691,6.691-1.628-1.628c.285-.505.593-.99.847-1.5a8.5,8.5,0,0,0,0-7.324c-.153-.351-.294-.71-.419-1.072a1.081,1.081,0,0,1,.52-1.358,1.022,1.022,0,0,1,1.37.213c1.05,1.026,2.084,2.074,3.117,3.1C2424.387,1122.354,2425.332,1123.3,2426.316,1124.284Z" transform="translate(-2323.378 -1102.64)"/><path class="b" d="M2410.044,1107l4,4c.578.578,1.146,1.166,1.734,1.734a1.023,1.023,0,0,1,.224,1.428l-.036.048a1.119,1.119,0,0,1-1.519.447l-.031-.017a22.672,22.672,0,0,0-3.117-1.076,7.325,7.325,0,0,0-5.682,1.286c-.352.23-.564.249-.848-.067-.382-.426-.8-.818-1.247-1.261Z" transform="translate(-2329.164 -1107.003)"/><path class="b" d="M2415.391,1117.748c1.136,1.136,2.284,2.268,3.411,3.411.431.431.847.913.416,1.576-.406.621-.941.707-1.772.308-.536-.256-1.064-.557-1.616-.787a3.859,3.859,0,0,0-2.882-.078,1.23,1.23,0,0,1-.732-.138c-.142-.058-.235-.235-.364-.344-.687-.592-1.184-1.132-.753-2.227a3.781,3.781,0,0,0-.6-3.026c-.161-.322-.357-.633-.505-.953a1.144,1.144,0,0,1,.336-1.54,1.034,1.034,0,0,1,1.432.193c.731.693,1.425,1.425,2.137,2.139l1.477,1.477Z" transform="translate(-2326.644 -1104.311)"/><path class="b" d="M2390.566,1124.33l-4.425,4.425a8.033,8.033,0,0,1-.839-.867.624.624,0,0,1,.041-.553,5.648,5.648,0,0,0,.3-5.567,1.551,1.551,0,0,1-.219-.675,1.127,1.127,0,0,1,.322-.781.875.875,0,0,1,.83.069C2387.913,1121.65,2389.2,1122.967,2390.566,1124.33Z" transform="translate(-2336.467 -1101.711)"/><path class="b" d="M2403.745,1169.582l-4.378,4.379c-.175-.148-.31-.284-.461-.391-.517-.368-.56-.724-.214-1.306a5.471,5.471,0,0,0,.2-5.123c-.207-.5-.667-1.081,0-1.551.693-.5,1.034.19,1.417.563C2401.456,1167.275,2402.581,1168.417,2403.745,1169.582Z" transform="translate(-2331.185 -1083.651)"/><path class="b" d="M2376.693,1118.317l-1.036-1.036,4.265-4.266c1.307,1.306,2.608,2.584,3.866,3.9a.8.8,0,0,1,.026.764,1.232,1.232,0,0,1-.76.383c-.184.032-.4-.123-.6-.216a5.176,5.176,0,0,0-5.348.248C2376.987,1118.172,2376.856,1118.231,2376.693,1118.317Z" transform="translate(-2340.304 -1104.599)"/><path class="b" d="M2393.125,1158.249c1.3,1.3,2.588,2.559,3.823,3.866a.914.914,0,0,1-.028.876,1,1,0,0,1-.848.256,11.911,11.911,0,0,1-1.333-.527,4.906,4.906,0,0,0-3.913.288c-1.12.563-1.123.561-1.937-.531Z" transform="translate(-2335.015 -1086.516)"/><path class="b" d="M2416.158,1134.813l2.871-2.871,1.594,1.594,2.7,2.7a.819.819,0,0,1,.158,1.208.86.86,0,0,1-1.2.223.809.809,0,0,1-.077-.059,12.624,12.624,0,0,0-1.821-1.149c-.848-.34-1.79-.447-2.657-.752A10.2,10.2,0,0,1,2416.158,1134.813Z" transform="translate(-2324.113 -1097.033)"/><path class="b" d="M2351.931,1140.557l2.718-2.718a2.164,2.164,0,0,1,1.113,1.837,6.335,6.335,0,0,0,1.561,3.646,5.257,5.257,0,0,1,.385.6.8.8,0,0,1-.263,1.081.774.774,0,0,1-1.092-.049l-.015-.017c-.661-.63-1.3-1.277-1.947-1.925C2353.58,1142.209,2352.768,1141.4,2351.931,1140.557Z" transform="translate(-2349.79 -1094.676)"/><path class="b" d="M2383.442,1120.07c.73.73,1.469,1.456,2.193,2.192.3.3.576.636.264,1.075a.791.791,0,0,1-1.151.161,3.5,3.5,0,0,0-3.078-.535c-.389.143-1.3-.96-1.156-1.366a2.949,2.949,0,0,0-.28-2.361c-.116-.236-.332-.46-.35-.7-.019-.321.006-.787.208-.939a.98.98,0,0,1,.934.105c.839.746,1.617,1.577,2.415,2.375Z" transform="translate(-2338.616 -1102.797)"/><path class="b" d="M2396.616,1165.334c.747.747,1.527,1.47,2.222,2.261a1.166,1.166,0,0,1,.2,1c-.18.452-.662.432-1.055.213a3.564,3.564,0,0,0-3.142-.553c-.367.137-1.3-.986-1.165-1.375a2.951,2.951,0,0,0-.344-2.486c-.082-.147-.227-.3-.226-.445.006-.371-.055-.845.151-1.089.327-.388.746-.116,1.055.19C2395.09,1163.8,2395.852,1164.57,2396.616,1165.334Z" transform="translate(-2333.328 -1084.751)"/></g></g></svg>