<svg xmlns="http://www.w3.org/2000/svg" width="20" height="20" viewBox="0 0 20 20"><defs><style>.a{fill:none;}.b{fill:#1d1d1b;}</style></defs><g transform="translate(-6555 -479)"><rect class="a" width="20" height="20" transform="translate(6555 479)"/><g transform="translate(6435.381 480.169)"><path class="b" d="M131.2,5.843V4.306a3.356,3.356,0,0,1,.032-.535,1.034,1.034,0,0,1,.148-.373.6.6,0,0,1,.371-.254,2.669,2.669,0,0,1,.683-.07h1.551V0h-2.48a4.061,4.061,0,0,0-3.092,1.012,4.234,4.234,0,0,0-.939,2.981v1.85h-1.858V8.915h1.857v8.916H131.2V8.916h2.786l.022-3.073Z" transform="translate(0)"/></g></g></svg>