<svg xmlns="http://www.w3.org/2000/svg" width="91" height="80" viewBox="0 0 91 80"><defs><style>.a{fill:#dbdbdb;}.b{fill:#ebebeb;}.c{fill:#f8f8f8;}.d{fill:#a2a2a2;}.e{fill:#ffdc00;}.f{fill:#1d1d1b;}</style></defs><g transform="translate(-997.711 -693.746)"><g transform="translate(997.711 693.746)"><g transform="translate(0 23.591)"><path class="a" d="M2571.955-1300.686l-.1,36.095,36.633,8.336.043-36.607Z" transform="translate(-2571.79 1309.704)"/><path class="b" d="M2592.671-1290.977l-.077,36.484,29.321-13.023-.485-32.195Z" transform="translate(-2555.95 1307.859)"/><path class="c" d="M2571.818-1297.3l27.041-8.725,38.4,8.209-28.668,8.68Z" transform="translate(-2571.818 1306.022)"/><path class="d" d="M123.9,506.932l37.005,8.018-.917.255-37.046-8.067Z" transform="translate(-107.729 -503.061)"/></g><g transform="translate(14.045 0)"><path class="a" d="M2571.854-1300.64v28.067l24.186,4.938v-29.075Z" transform="translate(-2571.811 1304.743)"/><path class="b" d="M2592.629-1296.364l-.035,29.066,17.335-5.067v-28.4Z" transform="translate(-2568.4 1304.449)"/><path class="c" d="M2571.818-1299.935l17.853-4.087,23.774,3.681-17.489,4.442Z" transform="translate(-2571.818 1304.022)"/><path class="d" d="M122.793,508.715l24.25,3.739-.605.168-24.277-3.772Z" transform="translate(-112.228 -507.048)"/></g></g><g transform="translate(1046.711 731.746)"><circle class="e" cx="21" cy="21" r="21"/><g transform="translate(10.263 10.035)"><path class="f" d="M152.079,133.315l-6.307-6.308a2.427,2.427,0,0,1-.644-2.194,3.781,3.781,0,0,0-1.085-3.48,5.393,5.393,0,0,0-4.6-1.194.381.381,0,0,0-.173.666l2.629,2.214a.575.575,0,0,1,.036.848l-1.614,1.615a.576.576,0,0,1-.848-.036l-2.213-2.628a.382.382,0,0,0-.666.172,5.393,5.393,0,0,0,1.195,4.6,3.783,3.783,0,0,0,3.48,1.085,2.426,2.426,0,0,1,2.193.643l6.308,6.307a2.426,2.426,0,0,1,.643,2.194A3.782,3.782,0,0,0,151.5,141.3a5.393,5.393,0,0,0,4.6,1.194.382.382,0,0,0,.172-.666l-2.629-2.213a.576.576,0,0,1-.036-.848l1.615-1.615a.576.576,0,0,1,.848.036l2.213,2.628a.382.382,0,0,0,.667-.172,5.394,5.394,0,0,0-1.195-4.6,3.782,3.782,0,0,0-3.48-1.085A2.428,2.428,0,0,1,152.079,133.315Z" transform="translate(-136.056 -120.041)"/><g transform="translate(0 0.71)"><path class="f" d="M146.039,135.051l-.687-.688,8.526-8.526,1.169-.315,1.762-2.494-1.1-1.1-2.494,1.762-.356,1.129-8.526,8.526-.647-.647a.349.349,0,0,0-.495,0l-7.522,7.522a1.189,1.189,0,0,0,0,1.682l1.163,1.163a1.19,1.19,0,0,0,1.682,0l7.522-7.522A.35.35,0,0,0,146.039,135.051Z" transform="translate(-135.324 -121.931)"/></g></g></g></g></svg>