<svg xmlns="http://www.w3.org/2000/svg" width="278" height="51" viewBox="0 0 278 51"><defs><style>.a{fill:#ffdc00;}.b{fill:#1d1d1b;}</style></defs><g transform="translate(-107.67 -93.254)"><g transform="translate(107.67 93.254)"><g transform="translate(0 0)"><path class="a" d="M158.152,93.254H108.519a.847.847,0,0,0-.849.843v49.314a.847.847,0,0,0,.849.843h49.633a.847.847,0,0,0,.849-.843V94.1A.847.847,0,0,0,158.152,93.254Z" transform="translate(-107.67 -93.254)"/><rect class="b" width="7.852" height="28.506" transform="translate(1.698 11.247)"/><path class="b" d="M159.428,195.18H111.492v-7.853h47.936v7.853Z" transform="translate(-109.795 -145.877)"/><rect class="b" width="7.853" height="28.506" transform="translate(41.781 11.247)"/><path class="b" d="M159.428,104.928H111.492V97.076h47.936v7.852Z" transform="translate(-109.795 -95.379)"/><path class="a" d="M121.854,105.536a1.531,1.531,0,1,0-1.531-1.53A1.532,1.532,0,0,0,121.854,105.536Z" transform="translate(-114.703 -98.38)"/><path class="a" d="M205.231,105.536a1.531,1.531,0,1,0-1.531-1.53A1.532,1.532,0,0,0,205.231,105.536Z" transform="translate(-161.051 -98.38)"/><path class="a" d="M121.854,195.778a1.531,1.531,0,1,0-1.531-1.531A1.533,1.533,0,0,0,121.854,195.778Z" transform="translate(-114.703 -148.873)"/><path class="a" d="M205.231,195.778a1.531,1.531,0,1,0-1.531-1.531A1.533,1.533,0,0,0,205.231,195.778Z" transform="translate(-161.051 -148.873)"/></g><g transform="translate(58.544 7.348)"><path class="b" d="M254.818,111.731v3.119h-5.566v16.274h-3.6V114.85h-5.566v-3.119Z" transform="translate(-240.088 -111.596)"/><path class="b" d="M279.4,131.124V111.731H283v8h9.571v-8h3.6v19.393h-3.6v-8.273H283v8.273Z" transform="translate(-261.943 -111.596)"/><path class="b" d="M341.18,111.731v3.092h-9.72v4.882h9.259v3.214h-9.3v5.086h9.951v3.119H327.89V111.731Z" transform="translate(-288.895 -111.596)"/><path class="b" d="M382.617,131.124V111.731h9.1q5.539,0,5.539,4.516,0,3.309-3.611,4.733,3.855.719,3.855,4.408,0,5.737-6.068,5.736Zm8.661-3.119a2.135,2.135,0,0,0,2.389-2.441q0-3.024-3.57-3.024h-1.086V120.22q4.479-.745,4.48-3.743,0-1.627-2.009-1.628h-5.267v13.155Z" transform="translate(-319.316 -111.596)"/><path class="b" d="M424.562,123.5V111.731h3.6V123.5q0,4.638,4.752,4.638t4.751-4.638V111.731h3.6V123.5q0,7.758-8.349,7.757T424.562,123.5Z" transform="translate(-342.632 -111.596)"/><path class="b" d="M476.492,111.731v19.393h-3.6V111.731Z" transform="translate(-369.499 -111.596)"/><path class="b" d="M495.328,111.731v16.274h7.711v3.119H491.73V111.731Z" transform="translate(-379.969 -111.596)"/><path class="b" d="M526.4,131.124V111.731H534q9.639,0,9.638,9.168,0,10.226-9.638,10.226Zm7.6-3.119q6.04,0,6.041-7.106,0-6.048-6.041-6.049h-4v13.155Z" transform="translate(-399.241 -111.596)"/><path class="b" d="M588.288,130.141a16.044,16.044,0,0,1-5.7.949q-10.454,0-10.454-10.1,0-9.56,10.454-9.561a16.042,16.042,0,0,1,5.7.949v3.255a13.541,13.541,0,0,0-5.43-1.085q-6.992,0-6.992,6.442,0,6.985,6.992,6.984a13.547,13.547,0,0,0,5.43-1.085Z" transform="translate(-424.663 -111.426)"/><path class="b" d="M621.313,111.731v16.274h7.711v3.119H617.715V111.731Z" transform="translate(-450.001 -111.596)"/><path class="b" d="M652.384,123.5V111.731h3.6V123.5q0,4.638,4.751,4.638t4.751-4.638V111.731h3.6V123.5q0,7.758-8.349,7.757T652.384,123.5Z" transform="translate(-469.273 -111.596)"/><path class="b" d="M700.717,131.124V111.731h9.1q5.538,0,5.538,4.516,0,3.309-3.611,4.733,3.855.719,3.855,4.408,0,5.737-6.069,5.736Zm8.661-3.119a2.135,2.135,0,0,0,2.389-2.441q0-3.024-3.57-3.024h-1.086V120.22q4.479-.745,4.48-3.743,0-1.627-2.009-1.628h-5.267v13.155Z" transform="translate(-496.14 -111.596)"/><g transform="translate(14.686 27.616)"><path class="b" d="M278.98,172.864v.934h-4.673v2.99h4.455v.935h-4.455v4.05h-1.153v-8.909Z" transform="translate(-273.155 -172.801)"/><path class="b" d="M309.6,172.864v8.909h-1.152v-8.909Z" transform="translate(-292.775 -172.801)"/><path class="b" d="M334.91,181.773v-8.909h1.152l5.451,7.177v-7.177h1.09v8.909h-1.152L336,174.534v7.239Z" transform="translate(-307.483 -172.801)"/><path class="b" d="M377.249,172.864v8.909H376.1v-8.909Z" transform="translate(-330.378 -172.801)"/><path class="b" d="M401.885,181.383v-1.059a8.976,8.976,0,0,0,3.028.5q2.3,0,2.3-1.682,0-1.432-1.695-1.433h-1.146q-2.8,0-2.8-2.43,0-2.554,3.582-2.554a10.744,10.744,0,0,1,2.9.374v1.059a8.243,8.243,0,0,0-2.9-.5q-2.43,0-2.43,1.62,0,1.433,1.645,1.433h1.146q2.847,0,2.847,2.43,0,2.617-3.451,2.617A11.72,11.72,0,0,1,401.885,181.383Z" transform="translate(-344.54 -172.723)"/><path class="b" d="M439.324,181.773v-8.909h1.153v3.924h5.264v-3.924h1.152v8.909h-1.152v-4.05h-5.264v4.05Z" transform="translate(-365.524 -172.801)"/><path class="b" d="M511.322,172.864v.934H506.65v2.99H511.1v.935H506.65v4.05H505.5v-8.909Z" transform="translate(-402.309 -172.801)"/><path class="b" d="M537.431,181.773h-1.2l3.782-8.909h1.277l3.8,8.909h-1.277l-1.153-2.8h-2.947l.318-.934h2.243L540.614,174Z" transform="translate(-419.394 -172.801)"/><path class="b" d="M576.92,181.383v-1.059a8.975,8.975,0,0,0,3.027.5q2.3,0,2.3-1.682,0-1.432-1.695-1.433h-1.146q-2.8,0-2.8-2.43,0-2.554,3.583-2.554a10.74,10.74,0,0,1,2.9.374v1.059a8.24,8.24,0,0,0-2.9-.5q-2.43,0-2.43,1.62,0,1.433,1.645,1.433h1.146q2.847,0,2.847,2.43,0,2.617-3.451,2.617A11.719,11.719,0,0,1,576.92,181.383Z" transform="translate(-441.837 -172.723)"/><path class="b" d="M619.435,172.864v.934h-2.8v7.974h-1.153V173.8h-2.8v-.934Z" transform="translate(-461.886 -172.801)"/><path class="b" d="M655.48,172.864v.934h-4.673v2.99h4.454v.935h-4.454v3.115h4.766v.934h-5.918v-8.909Z" transform="translate(-482.442 -172.801)"/><path class="b" d="M685.582,181.773v-8.909h3.8q2.542,0,2.542,2.137,0,1.738-2.485,2.573l3.058,4.2h-1.52l-2.834-4.006v-.754q2.555-.405,2.554-1.963,0-1.234-1.421-1.233h-2.541v7.956Z" transform="translate(-502.413 -172.801)"/></g></g></g><g transform="translate(119.952 104.991)"><path class="b" d="M154.924,135.738l-7.459-7.459a2.87,2.87,0,0,1-.761-2.594,4.471,4.471,0,0,0-1.283-4.115,6.378,6.378,0,0,0-5.438-1.412.451.451,0,0,0-.2.787l3.109,2.619a.68.68,0,0,1,.043,1l-1.909,1.909a.682.682,0,0,1-1-.043l-2.617-3.108a.451.451,0,0,0-.788.2,6.378,6.378,0,0,0,1.413,5.438,4.473,4.473,0,0,0,4.115,1.283,2.869,2.869,0,0,1,2.594.761l7.459,7.459a2.869,2.869,0,0,1,.761,2.594,4.473,4.473,0,0,0,1.283,4.115,6.377,6.377,0,0,0,5.438,1.412.451.451,0,0,0,.2-.788l-3.108-2.617a.681.681,0,0,1-.043-1l1.909-1.909a.681.681,0,0,1,1,.043l2.617,3.108a.452.452,0,0,0,.788-.2,6.379,6.379,0,0,0-1.413-5.438,4.473,4.473,0,0,0-4.115-1.283A2.871,2.871,0,0,1,154.924,135.738Z" transform="translate(-135.975 -120.041)"/><g transform="translate(0 0.84)"><path class="b" d="M148,137.446l-.813-.813,10.082-10.082,1.383-.373,2.084-2.949-1.3-1.3-2.949,2.084-.421,1.335-10.082,10.082-.765-.765a.413.413,0,0,0-.585,0l-8.9,8.9a1.406,1.406,0,0,0,0,1.99l1.375,1.375a1.407,1.407,0,0,0,1.99,0l8.9-8.9A.414.414,0,0,0,148,137.446Z" transform="translate(-135.324 -121.931)"/></g></g></g></svg>