<svg xmlns="http://www.w3.org/2000/svg" width="90" height="80" viewBox="0 0 90 80"><defs><style>.a{fill:#dbdbdb;}.b{fill:#ebebeb;}.c{fill:#f8f8f8;}.d{fill:#b8b8b8;}.e{fill:#1d1d1b;}.f{fill:#ffdc00;}</style></defs><g transform="translate(-1418.642 -697.944)"><g transform="translate(1418.642 697.944)"><path class="a" d="M2571.854-1301.64v48.7l41.967,10.316v-50.45Z" transform="translate(-2571.78 1310.494)"/><path class="b" d="M2592.655-1291.7l-.062,50.433,33.59-16.049-.135-45.2Z" transform="translate(-2550.615 1309.208)"/><path class="c" d="M2571.818-1297.195l30.978-8.827,44.743,6.669-33.838,10.907Z" transform="translate(-2571.818 1306.022)"/><path class="d" d="M124.035,506.931l40.835,8.329-1.051.292-40.881-8.385Z" transform="translate(-104.347 -503.666)"/><g transform="translate(5.115 21.99)"><g transform="translate(0.525 0)"><path class="e" d="M17.521,17.366,10.429,9.114a3.53,3.53,0,0,1-.724-2.87,5.483,5.483,0,0,0-1.22-4.552A5.469,5.469,0,0,0,3.316.13.528.528,0,0,0,3.121,1L6.077,3.9a.838.838,0,0,1,.041,1.109L4.3,7.118a.589.589,0,0,1-.954-.048L.861,3.632a.413.413,0,0,0-.749.225A7.906,7.906,0,0,0,1.455,9.874a3.887,3.887,0,0,0,3.913,1.419,2.484,2.484,0,0,1,2.466.842l7.092,8.251a3.529,3.529,0,0,1,.723,2.87,5.485,5.485,0,0,0,1.22,4.552,5.469,5.469,0,0,0,5.17,1.562.529.529,0,0,0,.194-.872l-2.956-2.9a.839.839,0,0,1-.041-1.109l1.815-2.112a.589.589,0,0,1,.953.048l2.489,3.438a.413.413,0,0,0,.75-.225A7.907,7.907,0,0,0,23.9,19.626a3.886,3.886,0,0,0-3.912-1.419A2.485,2.485,0,0,1,17.521,17.366Z" transform="matrix(0.995, 0.105, -0.105, 0.995, 3.084, 0)"/></g><path class="e" d="M11.952,17.164l-.766-.9L20.694,5.111,22,4.7l1.965-3.262L22.739,0,19.957,2.305l-.4,1.476L10.052,14.935l-.722-.846a.351.351,0,0,0-.552,0L.389,23.929a1.752,1.752,0,0,0,0,2.2l1.3,1.522a1.194,1.194,0,0,0,1.877,0l8.389-9.841A.515.515,0,0,0,11.952,17.164Z" transform="matrix(0.995, 0.105, -0.105, 0.995, 2.938, 0.863)"/></g></g><g transform="translate(1466.642 735.944)"><path class="f" d="M0,21A21,21,0,1,1,21,42,21,21,0,0,1,0,21Z"/><path class="e" d="M0,17.833l7.07-7.07v3.357h6.56a5.381,5.381,0,0,0,5.381-5.382c0-2.972-2.409-6.381-5.381-6.381H12.451V0h1.182A11.274,11.274,0,0,1,24.9,11.273c0,6.225-5.045,10.272-11.269,10.273H7.07V24.9Z" transform="translate(8.593 8.593)"/></g></g></svg>