<svg xmlns="http://www.w3.org/2000/svg" width="27" height="18" viewBox="0 0 27 18"><defs><style>.a{fill:#d7280f;}.b{fill:#f7d700;}</style></defs><g transform="translate(0 0.169)"><rect class="a" width="27" height="18" rx="0.5" transform="translate(0 -0.169)"/><g transform="translate(1.734 1.684)"><path class="b" d="M8.034,21.686l.938,1.9,2.1.3L9.551,25.369l.358,2.088-1.875-.986-1.875.986.358-2.088L5,23.891l2.1-.3Z" transform="translate(-5 -18.738)"/><path class="b" d="M21.476,14.884l.36.73.806.117-.583.568.138.8-.721-.379-.721.379.138-.8-.583-.568.806-.117Z" transform="translate(-13.674 -14.884)"/><path class="b" d="M21.476,38l.36.73.806.117-.583.569.138.8-.721-.379-.721.379.138-.8-.583-.569.806-.117Z" transform="translate(-13.674 -27.98)"/><path class="b" d="M26.166,22l.361.73.805.117-.583.569.138.8-.721-.379-.721.379.138-.8L25,22.847l.806-.117Z" transform="translate(-16.331 -18.916)"/><path class="b" d="M26.166,30.116l.361.73.805.117-.583.568.138.8-.721-.379-.721.379.138-.8L25,30.963l.806-.117Z" transform="translate(-16.331 -23.514)"/></g></g></svg>