<svg xmlns="http://www.w3.org/2000/svg" width="27" height="18" viewBox="0 0 27 18"><defs><style>.a{fill:#0085e3;}.b{fill:#f5f5f5;}</style></defs><g transform="translate(0 0.127)"><rect class="a" width="27" height="18" rx="0.5" transform="translate(0 -0.127)"/><path class="b" d="M0,0,26.984.037V11.919L0,11.882Z" transform="translate(0 2.845)"/><path class="a" d="M171.868,157.254l-1.184-2.051,1.2-2.076a.431.431,0,0,0-.374-.647h-2.4l-1.2-2.076a.431.431,0,0,0-.747,0l-1.2,2.076h-2.4a.431.431,0,0,0-.374.647l1.2,2.076-1.2,2.076a.431.431,0,0,0,.374.647h2.4l1.2,2.076a.431.431,0,0,0,.747,0l1.2-2.076h2.4a.431.431,0,0,0,.359-.672Zm-1.106-3.912-.576,1-.576-1Zm-1.074,1.86-1.074,1.86h-2.148l-1.074-1.86,1.074-1.86h2.148Zm-2.148-3.721.576,1h-1.152Zm-3.222,1.86h1.152l-.576,1Zm0,3.721.576-1,.576,1Zm3.222,1.86-.576-1h1.152Zm2.07-1.86.576-1,.576,1Z" transform="translate(-154.102 -146.417)"/></g></svg>