<svg xmlns="http://www.w3.org/2000/svg" width="27" height="18" viewBox="0 0 27 18"><defs><style>.a{fill:#f5f5f5;}.b{fill:#ee2f3a;}.c{fill:#393f95;}.d{fill:#1d1d1b;}</style></defs><path class="a" d="M26.534,106.276H.466A.47.47,0,0,1,0,105.8V88.75a.47.47,0,0,1,.466-.474H26.534A.47.47,0,0,1,27,88.75V105.8A.47.47,0,0,1,26.534,106.276Z" transform="translate(0 -88.276)"/><path class="b" d="M182.07,168.508a4.672,4.672,0,0,0-6.475,1.3,2.334,2.334,0,1,0,3.884,2.59,2.334,2.334,0,1,1,3.884,2.59,4.67,4.67,0,0,0-1.292-6.476" transform="translate(-165.978 -163.592)"/><path class="c" d="M168.585,207.04a2.334,2.334,0,1,0,3.884,2.59,2.334,2.334,0,1,1,3.884,2.59,4.668,4.668,0,1,1-7.767-5.179" transform="translate(-158.967 -200.863)"/><g transform="translate(4.518 1.907)"><path class="d" d="M338.389,147.326l.848,1.275a.234.234,0,0,1-.065.323l-.215.144a.234.234,0,0,1-.324-.065l-.85-1.275a.234.234,0,0,1,.065-.324l.216-.144A.234.234,0,0,1,338.389,147.326Z" transform="translate(-324.437 -146.01)"/><path class="d" d="M363.144,184.493l.851,1.275a.234.234,0,0,1-.065.325l-.216.143a.234.234,0,0,1-.323-.065l-.851-1.273a.234.234,0,0,1,.064-.324l.216-.144A.234.234,0,0,1,363.144,184.493Z" transform="translate(-347.883 -181.258)"/><path class="d" d="M355.531,135.871l2.16,3.242a.234.234,0,0,1-.065.324l-.217.145a.234.234,0,0,1-.324-.065l-2.161-3.242a.233.233,0,0,1,.065-.324l.218-.145A.234.234,0,0,1,355.531,135.871Z" transform="translate(-340.671 -135.161)"/><path class="d" d="M372.67,124.427l.85,1.278a.233.233,0,0,1-.066.324l-.216.143a.234.234,0,0,1-.323-.065l-.851-1.276a.234.234,0,0,1,.065-.324l.217-.145A.233.233,0,0,1,372.67,124.427Z" transform="translate(-356.903 -124.323)"/><path class="d" d="M397.448,161.668l.849,1.275a.234.234,0,0,1-.065.324l-.216.144a.233.233,0,0,1-.324-.065l-.849-1.275a.234.234,0,0,1,.065-.324l.216-.144A.234.234,0,0,1,397.448,161.668Z" transform="translate(-380.372 -159.593)"/><path class="d" d="M121.19,292.122l2.16,3.239a.233.233,0,0,1-.065.324l-.216.144a.234.234,0,0,1-.324-.065l-2.16-3.239a.234.234,0,0,1,.065-.324l.216-.144A.234.234,0,0,1,121.19,292.122Z" transform="translate(-118.731 -283.323)"/><path class="d" d="M104.054,303.57l.848,1.272a.233.233,0,0,1-.064.324l-.215.144a.234.234,0,0,1-.324-.064l-.849-1.272a.234.234,0,0,1,.065-.324l.216-.144A.234.234,0,0,1,104.054,303.57Z" transform="translate(-102.502 -294.127)"/><path class="d" d="M128.818,340.742l.849,1.275a.233.233,0,0,1-.065.324l-.216.144a.234.234,0,0,1-.324-.065l-.85-1.275a.234.234,0,0,1,.065-.324l.216-.145A.234.234,0,0,1,128.818,340.742Z" transform="translate(-125.956 -329.37)"/><path class="d" d="M86.9,315.015l2.159,3.239a.234.234,0,0,1-.064.324l-.216.144a.234.234,0,0,1-.324-.065l-2.16-3.238a.234.234,0,0,1,.065-.324l.217-.145A.233.233,0,0,1,86.9,315.015Z" transform="translate(-86.255 -305.005)"/><path class="d" d="M120.592,150.564l2.16-3.241a.234.234,0,0,1,.324-.065l.216.144a.234.234,0,0,1,.065.324l-2.161,3.24a.234.234,0,0,1-.323.065l-.215-.143A.234.234,0,0,1,120.592,150.564Z" transform="translate(-118.738 -146.007)"/><path class="d" d="M103.445,139.12l2.16-3.242a.234.234,0,0,1,.324-.065l.216.144a.234.234,0,0,1,.065.324l-2.16,3.242a.234.234,0,0,1-.324.065l-.216-.144A.234.234,0,0,1,103.445,139.12Z" transform="translate(-102.498 -135.168)"/><path class="d" d="M86.29,127.677l2.16-3.245a.234.234,0,0,1,.324-.065l.216.144a.234.234,0,0,1,.065.324L86.9,128.081a.234.234,0,0,1-.324.065L86.355,128A.234.234,0,0,1,86.29,127.677Z" transform="translate(-86.251 -124.328)"/><path class="d" d="M337.789,330.567l.849-1.272a.234.234,0,0,1,.324-.064l.215.144a.234.234,0,0,1,.064.324l-.848,1.272a.234.234,0,0,1-.324.065l-.216-.144A.233.233,0,0,1,337.789,330.567Z" transform="translate(-324.441 -318.53)"/><path class="d" d="M362.543,293.4l.85-1.278a.234.234,0,0,1,.324-.065l.217.144a.234.234,0,0,1,.065.324l-.852,1.276a.234.234,0,0,1-.323.065l-.215-.142A.233.233,0,0,1,362.543,293.4Z" transform="translate(-347.886 -283.277)"/><path class="d" d="M354.924,342.013l.85-1.275a.234.234,0,0,1,.324-.065l.217.145a.234.234,0,0,1,.065.324l-.849,1.275a.234.234,0,0,1-.324.065l-.218-.145A.234.234,0,0,1,354.924,342.013Z" transform="translate(-340.671 -329.366)"/><path class="d" d="M379.7,304.836l.85-1.272a.234.234,0,0,1,.324-.065l.217.145a.234.234,0,0,1,.065.324l-.85,1.272a.234.234,0,0,1-.324.065l-.217-.145A.233.233,0,0,1,379.7,304.836Z" transform="translate(-364.133 -294.122)"/><path class="d" d="M372.065,353.441l.851-1.273a.234.234,0,0,1,.323-.065l.216.143a.234.234,0,0,1,.066.324l-.85,1.275a.234.234,0,0,1-.324.065l-.217-.145A.234.234,0,0,1,372.065,353.441Z" transform="translate(-356.905 -340.192)"/><path class="d" d="M396.853,316.3l.849-1.274a.234.234,0,0,1,.324-.065l.216.144a.234.234,0,0,1,.064.324l-.849,1.273a.234.234,0,0,1-.323.065l-.215-.142A.234.234,0,0,1,396.853,316.3Z" transform="translate(-380.38 -305.01)"/></g></svg>