<svg xmlns="http://www.w3.org/2000/svg" width="27" height="18" viewBox="0 0 27 18"><defs><style>.a{fill:#c8414b;}.b{fill:#ffd250;}.c{fill:#f5f5f5;}.d{fill:#fab446;}.e{fill:#ffb441;}.f{fill:#5064aa;}.g{fill:#ffa0d2;}</style></defs><path class="a" d="M.466,106.276H26.534A.47.47,0,0,0,27,105.8V88.75a.47.47,0,0,0-.466-.474H.466A.47.47,0,0,0,0,88.75V105.8A.47.47,0,0,0,.466,106.276Z" transform="translate(0 -88.276)"/><rect class="b" width="27" height="10.601" transform="translate(0 3.7)"/><path class="a" d="M209.069,218.357l.392-1.764a.26.26,0,0,0-.254-.317h-.276a.26.26,0,0,0-.254.317Z" transform="translate(-197.665 -209.386)"/><rect class="c" width="0.925" height="3.93" transform="translate(10.942 8.108)"/><rect class="d" width="1.387" height="0.462" transform="translate(10.711 7.584)"/><g transform="translate(3.995 6.915)"><rect class="a" width="2.312" height="0.462" transform="translate(5.716 2.081)"/><path class="a" d="M204.421,274.581l-1.387-.462v-.462l1.387.462Z" transform="translate(-196.393 -270.65)"/><path class="a" d="M76.655,218.357l.392-1.764a.26.26,0,0,0-.254-.317h-.276a.26.26,0,0,0-.254.317Z" transform="translate(-76.257 -216.276)"/></g><path class="c" d="M106.393,229.518a.462.462,0,0,0-.462.462v3.006c0,.562.524,1.618,2.312,1.618s2.312-1.057,2.312-1.618V229.98a.462.462,0,0,0-.462-.462Z" transform="translate(-100.337 -221.866)"/><g transform="translate(5.594 7.643)"><path class="a" d="M108.243,231.83h-2.312v-1.85a.462.462,0,0,1,.462-.462h1.85Z" transform="translate(-105.931 -229.518)"/><path class="a" d="M150.069,273.656h2.312v1.156a1.156,1.156,0,0,1-1.156,1.156h0a1.156,1.156,0,0,1-1.156-1.156Z" transform="translate(-147.757 -271.344)"/></g><path class="d" d="M105.931,273.656h2.312v1.156a1.156,1.156,0,0,1-1.156,1.156h0a1.156,1.156,0,0,1-1.156-1.156Z" transform="translate(-100.341 -263.673)"/><g transform="translate(6.054 9.983)"><path class="a" d="M132.875,275.732v-2.076h-.462v2.289A1.144,1.144,0,0,0,132.875,275.732Z" transform="translate(-131.488 -273.656)"/><path class="a" d="M115.22,275.945v-2.289h-.462v2.076A1.144,1.144,0,0,0,115.22,275.945Z" transform="translate(-114.758 -273.656)"/></g><rect class="e" width="1.387" height="0.462" transform="translate(6.054 9.006)"/><g transform="translate(6.054 8.065)"><rect class="d" width="1.387" height="0.462"/><rect class="d" width="0.925" height="0.838" transform="translate(0.231 0.275)"/></g><rect class="c" width="0.925" height="3.93" transform="translate(3.93 8.108)"/><g transform="translate(3.699 7.643)"><rect class="d" width="1.387" height="0.462" transform="translate(0 4.162)"/><rect class="d" width="1.387" height="0.462" transform="translate(0 0)"/></g><rect class="f" width="1.85" height="0.462" transform="translate(3.468 12.324)"/><rect class="d" width="1.387" height="0.462" transform="translate(10.944 11.85)"/><rect class="f" width="1.85" height="0.462" transform="translate(10.479 12.324)"/><rect class="d" width="2.775" height="0.462" transform="translate(6.522 7.11)"/><rect class="e" width="0.462" height="1.387" transform="translate(7.682 5.696)"/><g transform="translate(5.826 4.988)"><path class="c" d="M128.694,182.354a.694.694,0,1,1,.694-.694A.694.694,0,0,1,128.694,182.354Zm0-.925a.231.231,0,1,0,.231.231A.231.231,0,0,0,128.694,181.429Z" transform="translate(-127.075 -180.967)"/><path class="c" d="M146.35,182.354a.694.694,0,1,1,.694-.694A.694.694,0,0,1,146.35,182.354Zm0-.925a.231.231,0,1,0,.231.231A.231.231,0,0,0,146.35,181.429Z" transform="translate(-143.806 -180.967)"/><path class="c" d="M164,191.182a.694.694,0,1,1,.694-.694A.694.694,0,0,1,164,191.182Zm0-.925a.231.231,0,1,0,.231.231A.231.231,0,0,0,164,190.257Z" transform="translate(-160.536 -189.333)"/><path class="c" d="M111.039,191.182a.694.694,0,1,1,.694-.694A.694.694,0,0,1,111.039,191.182Zm0-.925a.231.231,0,1,0,.231.231A.231.231,0,0,0,111.039,190.257Z" transform="translate(-110.345 -189.333)"/></g><path class="d" d="M159.821,282.946v.231a.231.231,0,0,1-.462,0v-.231h.462m.462-.462H158.9v.694a.694.694,0,0,0,1.387,0v-.694Z" transform="translate(-150.514 -272.042)"/><path class="g" d="M163.772,239.732h0a.462.462,0,0,1-.462-.462v-.462a.462.462,0,0,1,.462-.462h0a.462.462,0,0,1,.462.462v.462A.462.462,0,0,1,163.772,239.732Z" transform="translate(-154.696 -230.276)"/><circle class="f" cx="0.694" cy="0.694" r="0.694" transform="translate(7.218 9.255)"/><rect class="d" width="0.462" height="1.387" transform="translate(7.682 4.746)"/><path class="a" d="M115.22,195.6l-.462-.462.271-.271a2.233,2.233,0,0,1,1.579-.654h0a2.233,2.233,0,0,1,1.579.654l.271.271-.462.462Z" transform="translate(-108.7 -188.512)"/><g transform="translate(6.754 6.399)"><circle class="b" cx="0.231" cy="0.231" r="0.231" transform="translate(0.925 0)"/><circle class="b" cx="0.231" cy="0.231" r="0.231" transform="translate(0 0)"/><circle class="b" cx="0.231" cy="0.231" r="0.231" transform="translate(1.85 0)"/></g><g transform="translate(3.699 9.025)"><rect class="a" width="2.312" height="0.462" transform="translate(0 0)"/><path class="a" d="M70.621,274.581l1.387-.462v-.462l-1.387.462Z" transform="translate(-70.621 -272.731)"/></g></svg>