<svg xmlns="http://www.w3.org/2000/svg" width="27" height="18" viewBox="0 0 27 18"><defs><style>.a{fill:#f5f5f5;}.b{fill:#ff4b55;}.c{fill:#41479b;}</style></defs><g transform="translate(0 -88.276)"><path class="a" d="M26.534,106.276H.466A.47.47,0,0,1,0,105.8V88.75a.47.47,0,0,1,.466-.474H26.534A.47.47,0,0,1,27,88.75V105.8A.47.47,0,0,1,26.534,106.276Z" transform="translate(0 0)"/><g transform="translate(0 88.276)"><path class="b" d="M27,89.658H0v-.909a.469.469,0,0,1,.466-.473H26.534a.469.469,0,0,1,.466.473v.909Z" transform="translate(0 -88.276)"/><rect class="b" width="27" height="1.382" transform="translate(0 5.539)"/><rect class="b" width="27" height="1.382" transform="translate(0 2.77)"/><path class="b" d="M27,244.48H.466A.469.469,0,0,1,0,244.007V243.1H27Z" transform="translate(0 -234.789)"/><rect class="b" width="27" height="1.382" transform="translate(0 13.849)"/><path class="b" d="M26.534,399.3H.466A.469.469,0,0,1,0,398.83v-.909H27v.909A.469.469,0,0,1,26.534,399.3Z" transform="translate(0 -381.303)"/><rect class="b" width="27" height="1.382" transform="translate(0 11.079)"/></g><path class="c" d="M12.291,88.277H.473A.473.473,0,0,0,0,88.75v8.727a.473.473,0,0,0,.473.473H12.291a.473.473,0,0,0,.473-.473V88.75A.473.473,0,0,0,12.291,88.277Z" transform="translate(0 -0.001)"/><g transform="translate(0.763 89.331)"><path class="a" d="M14.817,108l.1.314.331,0a.045.045,0,0,1,.026.08l-.266.2.1.315a.045.045,0,0,1-.068.05l-.269-.192-.269.192a.045.045,0,0,1-.068-.05l.1-.315-.266-.2a.045.045,0,0,1,.026-.08l.331,0,.1-.314A.045.045,0,0,1,14.817,108Z" transform="translate(-14.253 -107.969)"/><path class="a" d="M14.817,138.654l.1.314.331,0a.045.045,0,0,1,.026.08l-.266.2.1.315a.045.045,0,0,1-.068.05l-.269-.192-.269.192a.045.045,0,0,1-.068-.05l.1-.315-.266-.2a.045.045,0,0,1,.026-.08l.331,0,.1-.314A.045.045,0,0,1,14.817,138.654Z" transform="translate(-14.253 -136.982)"/><path class="a" d="M14.817,169.308l.1.314.331,0a.045.045,0,0,1,.026.08l-.266.2.1.315a.045.045,0,0,1-.068.05l-.269-.192-.269.192a.045.045,0,0,1-.068-.05l.1-.315-.266-.2a.045.045,0,0,1,.026-.08l.331,0,.1-.314A.045.045,0,0,1,14.817,169.308Z" transform="translate(-14.253 -165.995)"/><path class="a" d="M14.817,199.962l.1.314.331,0a.045.045,0,0,1,.026.08l-.266.2.1.315a.045.045,0,0,1-.068.05l-.269-.192-.269.192a.045.045,0,0,1-.068-.05l.1-.315-.266-.2a.045.045,0,0,1,.026-.08l.331,0,.1-.314A.045.045,0,0,1,14.817,199.962Z" transform="translate(-14.253 -195.007)"/><path class="a" d="M14.817,230.616l.1.314.331,0a.045.045,0,0,1,.026.08l-.266.2.1.315a.045.045,0,0,1-.068.05l-.269-.192-.269.192a.045.045,0,0,1-.068-.05l.1-.315-.266-.2a.045.045,0,0,1,.026-.08l.331,0,.1-.314A.044.044,0,0,1,14.817,230.616Z" transform="translate(-14.253 -224.019)"/><path class="a" d="M38.61,123.029l.1.314.331,0a.045.045,0,0,1,.026.08l-.266.2.1.315a.045.045,0,0,1-.068.05l-.269-.192-.269.192a.045.045,0,0,1-.068-.05l.1-.315-.266-.2a.045.045,0,0,1,.026-.08l.331,0,.1-.314A.045.045,0,0,1,38.61,123.029Z" transform="translate(-36.772 -122.194)"/><path class="a" d="M38.61,153.683l.1.314.331,0a.045.045,0,0,1,.026.08l-.266.2.1.315a.045.045,0,0,1-.068.05l-.269-.192-.269.192a.045.045,0,0,1-.068-.05l.1-.315-.266-.2a.045.045,0,0,1,.026-.08l.331,0,.1-.314A.045.045,0,0,1,38.61,153.683Z" transform="translate(-36.772 -151.206)"/><path class="a" d="M38.61,184.337l.1.314.331,0a.045.045,0,0,1,.026.08l-.266.2.1.315a.045.045,0,0,1-.068.05l-.269-.192-.269.192a.045.045,0,0,1-.068-.05l.1-.315-.266-.2a.045.045,0,0,1,.026-.08l.331,0,.1-.314A.045.045,0,0,1,38.61,184.337Z" transform="translate(-36.772 -180.219)"/><path class="a" d="M38.61,214.992l.1.314.331,0a.045.045,0,0,1,.026.08l-.266.2.1.315a.045.045,0,0,1-.068.05l-.269-.192-.269.192a.045.045,0,0,1-.068-.05l.1-.315-.266-.2a.045.045,0,0,1,.026-.08l.331,0,.1-.314A.045.045,0,0,1,38.61,214.992Z" transform="translate(-36.772 -209.232)"/><path class="a" d="M62.4,108l.1.314.331,0a.045.045,0,0,1,.026.08l-.266.2.1.315a.045.045,0,0,1-.068.05l-.269-.192-.269.192a.045.045,0,0,1-.068-.05l.1-.315-.266-.2a.045.045,0,0,1,.026-.08l.331,0,.1-.314A.045.045,0,0,1,62.4,108Z" transform="translate(-59.29 -107.969)"/><path class="a" d="M62.4,138.654l.1.314.331,0a.045.045,0,0,1,.026.08l-.266.2.1.315a.045.045,0,0,1-.068.05l-.269-.192-.269.192a.045.045,0,0,1-.068-.05l.1-.315-.266-.2a.045.045,0,0,1,.026-.08l.331,0,.1-.314A.045.045,0,0,1,62.4,138.654Z" transform="translate(-59.29 -136.982)"/><path class="a" d="M62.4,169.308l.1.314.331,0a.045.045,0,0,1,.026.08l-.266.2.1.315a.045.045,0,0,1-.068.05l-.269-.192-.269.192a.045.045,0,0,1-.068-.05l.1-.315-.266-.2a.045.045,0,0,1,.026-.08l.331,0,.1-.314A.045.045,0,0,1,62.4,169.308Z" transform="translate(-59.29 -165.994)"/><path class="a" d="M62.4,199.962l.1.314.331,0a.045.045,0,0,1,.026.08l-.266.2.1.315a.045.045,0,0,1-.068.05l-.269-.192-.269.192a.045.045,0,0,1-.068-.05l.1-.315-.266-.2a.045.045,0,0,1,.026-.08l.331,0,.1-.314A.045.045,0,0,1,62.4,199.962Z" transform="translate(-59.29 -195.007)"/><path class="a" d="M62.4,230.616l.1.314.331,0a.045.045,0,0,1,.026.08l-.266.2.1.315a.045.045,0,0,1-.068.05l-.269-.192-.269.192a.045.045,0,0,1-.068-.05l.1-.315-.266-.2a.045.045,0,0,1,.026-.08l.331,0,.1-.314A.045.045,0,0,1,62.4,230.616Z" transform="translate(-59.29 -224.019)"/><path class="a" d="M86.2,123.029l.1.314.331,0a.045.045,0,0,1,.026.08l-.266.2.1.315a.045.045,0,0,1-.068.05l-.269-.192-.269.192a.045.045,0,0,1-.068-.05l.1-.315-.266-.2a.045.045,0,0,1,.026-.08l.331,0,.1-.314A.045.045,0,0,1,86.2,123.029Z" transform="translate(-81.81 -122.194)"/><path class="a" d="M86.2,153.683l.1.314.331,0a.045.045,0,0,1,.026.08l-.266.2.1.315a.045.045,0,0,1-.068.05l-.269-.192-.269.192a.045.045,0,0,1-.068-.05l.1-.315-.266-.2a.045.045,0,0,1,.026-.08l.331,0,.1-.314A.045.045,0,0,1,86.2,153.683Z" transform="translate(-81.81 -151.206)"/><path class="a" d="M86.2,184.337l.1.314.331,0a.045.045,0,0,1,.026.08l-.266.2.1.315a.045.045,0,0,1-.068.05l-.269-.192-.269.192a.045.045,0,0,1-.068-.05l.1-.315-.266-.2a.045.045,0,0,1,.026-.08l.331,0,.1-.314A.045.045,0,0,1,86.2,184.337Z" transform="translate(-81.81 -180.219)"/><path class="a" d="M86.2,214.992l.1.314.331,0a.045.045,0,0,1,.026.08l-.266.2.1.315a.045.045,0,0,1-.068.05l-.269-.192-.269.192a.045.045,0,0,1-.068-.05l.1-.315-.266-.2a.045.045,0,0,1,.026-.08l.331,0,.1-.314A.045.045,0,0,1,86.2,214.992Z" transform="translate(-81.81 -209.232)"/><path class="a" d="M109.989,108l.1.314.331,0a.045.045,0,0,1,.026.08l-.266.2.1.315a.045.045,0,0,1-.068.05l-.269-.192-.269.192a.045.045,0,0,1-.068-.05l.1-.315-.266-.2a.045.045,0,0,1,.026-.08l.331,0,.1-.314A.045.045,0,0,1,109.989,108Z" transform="translate(-104.328 -107.969)"/><path class="a" d="M109.989,138.654l.1.314.331,0a.045.045,0,0,1,.026.08l-.266.2.1.315a.045.045,0,0,1-.068.05l-.269-.192-.269.192a.045.045,0,0,1-.068-.05l.1-.315-.266-.2a.045.045,0,0,1,.026-.08l.331,0,.1-.314A.045.045,0,0,1,109.989,138.654Z" transform="translate(-104.328 -136.982)"/><path class="a" d="M109.989,169.308l.1.314.331,0a.045.045,0,0,1,.026.08l-.266.2.1.315a.045.045,0,0,1-.068.05l-.269-.192-.269.192a.045.045,0,0,1-.068-.05l.1-.315-.266-.2a.045.045,0,0,1,.026-.08l.331,0,.1-.314A.045.045,0,0,1,109.989,169.308Z" transform="translate(-104.328 -165.994)"/><path class="a" d="M109.989,199.962l.1.314.331,0a.045.045,0,0,1,.026.08l-.266.2.1.315a.045.045,0,0,1-.068.05l-.269-.192-.269.192a.045.045,0,0,1-.068-.05l.1-.315-.266-.2a.045.045,0,0,1,.026-.08l.331,0,.1-.314A.045.045,0,0,1,109.989,199.962Z" transform="translate(-104.328 -195.007)"/><path class="a" d="M109.989,230.616l.1.314.331,0a.045.045,0,0,1,.026.08l-.266.2.1.315a.045.045,0,0,1-.068.05l-.269-.192-.269.192a.045.045,0,0,1-.068-.05l.1-.315-.266-.2a.045.045,0,0,1,.026-.08l.331,0,.1-.314A.045.045,0,0,1,109.989,230.616Z" transform="translate(-104.328 -224.019)"/><path class="a" d="M133.783,123.029l.1.314.331,0a.045.045,0,0,1,.026.08l-.266.2.1.315a.045.045,0,0,1-.068.05l-.269-.192-.269.192a.045.045,0,0,1-.068-.05l.1-.315-.266-.2a.045.045,0,0,1,.026-.08l.331,0,.1-.314A.045.045,0,0,1,133.783,123.029Z" transform="translate(-126.848 -122.194)"/><path class="a" d="M133.783,153.683l.1.314.331,0a.045.045,0,0,1,.026.08l-.266.2.1.315a.045.045,0,0,1-.068.05l-.269-.192-.269.192a.045.045,0,0,1-.068-.05l.1-.315-.266-.2a.045.045,0,0,1,.026-.08l.331,0,.1-.314A.045.045,0,0,1,133.783,153.683Z" transform="translate(-126.848 -151.206)"/><path class="a" d="M133.783,184.337l.1.314.331,0a.045.045,0,0,1,.026.08l-.266.2.1.315a.045.045,0,0,1-.068.05l-.269-.192-.269.192a.045.045,0,0,1-.068-.05l.1-.315-.266-.2a.045.045,0,0,1,.026-.08l.331,0,.1-.314A.045.045,0,0,1,133.783,184.337Z" transform="translate(-126.848 -180.219)"/><path class="a" d="M133.783,214.992l.1.314.331,0a.045.045,0,0,1,.026.08l-.266.2.1.315a.045.045,0,0,1-.068.05l-.269-.192-.269.192a.045.045,0,0,1-.068-.05l.1-.315-.266-.2a.045.045,0,0,1,.026-.08l.331,0,.1-.314A.045.045,0,0,1,133.783,214.992Z" transform="translate(-126.848 -209.232)"/><path class="a" d="M157.577,108l.1.314.331,0a.045.045,0,0,1,.026.08l-.266.2.1.315a.045.045,0,0,1-.068.05l-.269-.192-.269.192a.045.045,0,0,1-.068-.05l.1-.315-.266-.2a.045.045,0,0,1,.026-.08l.331,0,.1-.314A.045.045,0,0,1,157.577,108Z" transform="translate(-149.368 -107.969)"/><path class="a" d="M157.577,138.654l.1.314.331,0a.045.045,0,0,1,.026.08l-.266.2.1.315a.045.045,0,0,1-.068.05l-.269-.192-.269.192a.045.045,0,0,1-.068-.05l.1-.315-.266-.2a.045.045,0,0,1,.026-.08l.331,0,.1-.314A.045.045,0,0,1,157.577,138.654Z" transform="translate(-149.368 -136.982)"/><path class="a" d="M157.577,169.308l.1.314.331,0a.045.045,0,0,1,.026.08l-.266.2.1.315a.045.045,0,0,1-.068.05l-.269-.192-.269.192a.045.045,0,0,1-.068-.05l.1-.315-.266-.2a.045.045,0,0,1,.026-.08l.331,0,.1-.314A.045.045,0,0,1,157.577,169.308Z" transform="translate(-149.368 -165.994)"/><path class="a" d="M157.577,199.962l.1.314.331,0a.045.045,0,0,1,.026.08l-.266.2.1.315a.045.045,0,0,1-.068.05l-.269-.192-.269.192a.045.045,0,0,1-.068-.05l.1-.315-.266-.2a.045.045,0,0,1,.026-.08l.331,0,.1-.314A.045.045,0,0,1,157.577,199.962Z" transform="translate(-149.368 -195.007)"/><path class="a" d="M157.577,230.616l.1.314.331,0a.045.045,0,0,1,.026.08l-.266.2.1.315a.045.045,0,0,1-.068.05l-.269-.192-.269.192a.045.045,0,0,1-.068-.05l.1-.315-.266-.2a.045.045,0,0,1,.026-.08l.331,0,.1-.314A.045.045,0,0,1,157.577,230.616Z" transform="translate(-149.368 -224.019)"/><path class="a" d="M181.37,123.029l.1.314.331,0a.045.045,0,0,1,.026.08l-.266.2.1.315a.045.045,0,0,1-.068.05l-.269-.192-.269.192a.045.045,0,0,1-.068-.05l.1-.315-.266-.2a.045.045,0,0,1,.026-.08l.331,0,.1-.314A.045.045,0,0,1,181.37,123.029Z" transform="translate(-171.887 -122.194)"/><path class="a" d="M181.37,153.683l.1.314.331,0a.045.045,0,0,1,.026.08l-.266.2.1.315a.045.045,0,0,1-.068.05l-.269-.192-.269.192a.045.045,0,0,1-.068-.05l.1-.315-.266-.2a.045.045,0,0,1,.026-.08l.331,0,.1-.314A.045.045,0,0,1,181.37,153.683Z" transform="translate(-171.887 -151.206)"/><path class="a" d="M181.37,184.337l.1.314.331,0a.045.045,0,0,1,.026.08l-.266.2.1.315a.045.045,0,0,1-.068.05l-.269-.192-.269.192a.045.045,0,0,1-.068-.05l.1-.315-.266-.2a.045.045,0,0,1,.026-.08l.331,0,.1-.314A.045.045,0,0,1,181.37,184.337Z" transform="translate(-171.887 -180.219)"/><path class="a" d="M181.37,214.992l.1.314.331,0a.045.045,0,0,1,.026.08l-.266.2.1.315a.045.045,0,0,1-.068.05l-.269-.192-.269.192a.045.045,0,0,1-.068-.05l.1-.315-.266-.2a.045.045,0,0,1,.026-.08l.331,0,.1-.314A.045.045,0,0,1,181.37,214.992Z" transform="translate(-171.887 -209.232)"/><path class="a" d="M205.164,108l.1.314.331,0a.045.045,0,0,1,.026.08l-.266.2.1.315a.045.045,0,0,1-.068.05l-.269-.192-.269.192a.045.045,0,0,1-.068-.05l.1-.315-.266-.2a.045.045,0,0,1,.026-.08l.331,0,.1-.314A.045.045,0,0,1,205.164,108Z" transform="translate(-194.407 -107.969)"/><path class="a" d="M205.164,138.654l.1.314.331,0a.045.045,0,0,1,.026.08l-.266.2.1.315a.045.045,0,0,1-.068.05l-.269-.192-.269.192a.045.045,0,0,1-.068-.05l.1-.315-.266-.2a.045.045,0,0,1,.026-.08l.331,0,.1-.314A.045.045,0,0,1,205.164,138.654Z" transform="translate(-194.407 -136.982)"/><path class="a" d="M205.164,169.308l.1.314.331,0a.045.045,0,0,1,.026.08l-.266.2.1.315a.045.045,0,0,1-.068.05l-.269-.192-.269.192a.045.045,0,0,1-.068-.05l.1-.315-.266-.2a.045.045,0,0,1,.026-.08l.331,0,.1-.314A.045.045,0,0,1,205.164,169.308Z" transform="translate(-194.407 -165.994)"/><path class="a" d="M205.164,199.962l.1.314.331,0a.045.045,0,0,1,.026.08l-.266.2.1.315a.045.045,0,0,1-.068.05l-.269-.192-.269.192a.045.045,0,0,1-.068-.05l.1-.315-.266-.2a.045.045,0,0,1,.026-.08l.331,0,.1-.314A.045.045,0,0,1,205.164,199.962Z" transform="translate(-194.407 -195.007)"/><path class="a" d="M205.164,230.616l.1.314.331,0a.045.045,0,0,1,.026.08l-.266.2.1.315a.045.045,0,0,1-.068.05l-.269-.192-.269.192a.045.045,0,0,1-.068-.05l.1-.315-.266-.2a.045.045,0,0,1,.026-.08l.331,0,.1-.314A.045.045,0,0,1,205.164,230.616Z" transform="translate(-194.407 -224.019)"/></g></g></svg>