<svg xmlns="http://www.w3.org/2000/svg" width="14" height="17.004" viewBox="0 0 14 17.004"><defs><style>.a{fill:#1d1d1b;}</style></defs><g transform="translate(-53.35 0.001)"><g transform="translate(56.429 6.31)"><g transform="translate(0)"><path class="a" d="M146.169,192.034h-7.129a.357.357,0,0,0-.356.356v5.7a1.785,1.785,0,0,0,1.426,1.747v1.818a1.069,1.069,0,0,0,2.139,0v-1.782h.713v1.782a1.069,1.069,0,1,0,2.139,0V199.84a1.785,1.785,0,0,0,1.426-1.747v-5.7A.356.356,0,0,0,146.169,192.034Z" transform="translate(-138.683 -192.034)"/></g></g><g transform="translate(56.429 -0.001)"><g transform="translate(0 0)"><path class="a" d="M144.471,1.9l.6-1.4a.356.356,0,0,0-.655-.28l-.6,1.4a3.885,3.885,0,0,0-2.42,0l-.6-1.4a.356.356,0,1,0-.654.28l.6,1.4a3.924,3.924,0,0,0-2.056,3.448.357.357,0,0,0,.356.356h7.129a.357.357,0,0,0,.356-.356A3.925,3.925,0,0,0,144.471,1.9Zm-3.291,2.379a.356.356,0,1,1,.356-.356A.357.357,0,0,1,141.179,4.278Zm2.852,0a.356.356,0,1,1,.356-.356A.357.357,0,0,1,144.031,4.278Z" transform="translate(-138.684 0.001)"/></g></g><g transform="translate(65.211 6.357)"><path class="a" d="M395.753,192.034a1.071,1.071,0,0,0-1.069,1.069v3.565a1.069,1.069,0,0,0,2.139,0V193.1A1.071,1.071,0,0,0,395.753,192.034Z" transform="translate(-394.684 -192.034)"/></g><g transform="translate(53.35 6.357)"><g transform="translate(0)"><path class="a" d="M54.419,192.034A1.071,1.071,0,0,0,53.35,193.1v3.565a1.069,1.069,0,1,0,2.139,0V193.1A1.071,1.071,0,0,0,54.419,192.034Z" transform="translate(-53.35 -192.034)"/></g></g></g></svg>