<svg xmlns="http://www.w3.org/2000/svg" width="12" height="15" viewBox="0 0 12 15"><defs><style>.a{fill:#1d1d1b;}</style></defs><g transform="translate(-2.104)"><g transform="translate(2.104)"><path class="a" d="M14.208,0h.1a3.158,3.158,0,0,1-.8,2.38A2.465,2.465,0,0,1,11.348,3.4a3.063,3.063,0,0,1,.81-2.306A3.5,3.5,0,0,1,14.208,0Z" transform="translate(-5.374)"/><path class="a" d="M14.1,12.924v.03a8.852,8.852,0,0,1-1.225,2.42c-.467.659-1.04,1.546-2.062,1.546-.884,0-1.47-.582-2.376-.6-.958-.016-1.485.487-2.36.613h-.3a2.667,2.667,0,0,1-1.54-1.087A9.653,9.653,0,0,1,2.1,10.368V9.693A4.447,4.447,0,0,1,3.987,6.065a3.121,3.121,0,0,1,2.136-.507,5.274,5.274,0,0,1,1.046.307,2.839,2.839,0,0,0,1.046.321,2.466,2.466,0,0,0,.734-.23,4.42,4.42,0,0,1,2.36-.429A3.264,3.264,0,0,1,13.716,7a3.184,3.184,0,0,0-1.569,3.139A3.234,3.234,0,0,0,14.1,12.924Z" transform="translate(-2.104 -1.935)"/></g></g></svg>