<svg xmlns="http://www.w3.org/2000/svg" width="20" height="18" viewBox="0 0 20 18"><defs><style>.a{fill:#f10000;}.b{fill:#fff;}</style></defs><path class="a" d="M17.162,18.414H2.836A2.847,2.847,0,0,1,.3,14.294L7.462,1.988a2.833,2.833,0,0,1,5.075,0L19.7,14.294a2.847,2.847,0,0,1-2.538,4.12Zm0,0" transform="translate(0.001 -0.414)"/><path class="b" d="M222.758,345.772a1.08,1.08,0,1,1-1.08-1.08A1.08,1.08,0,0,1,222.758,345.772Zm0,0" transform="translate(-211.678 -332.012)"/><path class="b" d="M221.678,71.035a1.08,1.08,0,0,1,1.08,1.08v5.131a1.08,1.08,0,0,1-2.16,0V72.115A1.08,1.08,0,0,1,221.678,71.035Zm0,0" transform="translate(-211.678 -66.809)"/></svg>