<svg xmlns="http://www.w3.org/2000/svg" width="25" height="24" viewBox="0 0 25 24"><defs><style>.a{fill:#a2a2a2;}</style></defs><path class="a" d="M5.6,24.492A1.332,1.332,0,0,1,4.3,22.864l1.608-7.1L.455,10.976a1.333,1.333,0,0,1,.753-2.329L8.425,7.99,11.279,1.3a1.328,1.328,0,0,1,2.444,0l2.853,6.69,7.216.656a1.333,1.333,0,0,1,.755,2.329l-5.454,4.791,1.608,7.1A1.329,1.329,0,0,1,18.724,24.3L12.5,20.576,6.277,24.3a1.33,1.33,0,0,1-.681.189Zm6.9-5.521a1.33,1.33,0,0,1,.681.189l5.873,3.519-1.518-6.7a1.332,1.332,0,0,1,.421-1.3l5.15-4.525-6.814-.62a1.327,1.327,0,0,1-1.1-.807L12.5,2.42,9.808,8.733a1.324,1.324,0,0,1-1.1.8l-6.815.62,5.15,4.525a1.33,1.33,0,0,1,.421,1.3l-1.517,6.7,5.873-3.518a1.33,1.33,0,0,1,.681-.189ZM8.37,8.119a0,0,0,0,1,0,0Zm8.258,0v0S16.63,8.117,16.629,8.116Zm0,0" transform="translate(-0.001 -0.492)"/></svg>