<svg xmlns="http://www.w3.org/2000/svg" width="77" height="19" viewBox="0 0 77 19"><defs><style>.a{fill:#e51636;}.b{fill:#fff;}</style></defs><g transform="translate(-2891 -612)"><rect class="a" width="77" height="19" rx="2" transform="translate(2891 612)"/><path class="b" d="M3.568-1.31H1.806L1.463,0H.1l2-6.4H3.278L5.291,0H3.911ZM2.087-2.386h1.2l-.6-2.281Zm8.049.255A2.393,2.393,0,0,1,9.521-.475a2.173,2.173,0,0,1-1.6.563A2.016,2.016,0,0,1,6.258-.626,3.165,3.165,0,0,1,5.68-2.663V-3.74a3.083,3.083,0,0,1,.6-2.032,2.048,2.048,0,0,1,1.661-.714A2.062,2.062,0,0,1,9.528-5.9a2.658,2.658,0,0,1,.617,1.679h-1.3a1.723,1.723,0,0,0-.209-.934.824.824,0,0,0-.7-.257.784.784,0,0,0-.734.363,2.535,2.535,0,0,0-.229,1.193V-2.65A2.789,2.789,0,0,0,7.19-1.34a.783.783,0,0,0,.732.356.846.846,0,0,0,.7-.248,1.635,1.635,0,0,0,.22-.9Zm4.1-.637H12.226v1.7h2.382V0H10.934V-6.4H14.6v1.077H12.226V-3.81h2.013Zm7.528.637a2.393,2.393,0,0,1-.615,1.657,2.173,2.173,0,0,1-1.6.563,2.016,2.016,0,0,1-1.663-.714,3.165,3.165,0,0,1-.578-2.037V-3.74a3.083,3.083,0,0,1,.6-2.032,2.048,2.048,0,0,1,1.661-.714,2.062,2.062,0,0,1,1.589.584,2.658,2.658,0,0,1,.617,1.679h-1.3a1.723,1.723,0,0,0-.209-.934.824.824,0,0,0-.7-.257.784.784,0,0,0-.734.363,2.535,2.535,0,0,0-.229,1.193V-2.65a2.789,2.789,0,0,0,.213,1.31.783.783,0,0,0,.732.356.846.846,0,0,0,.7-.248,1.635,1.635,0,0,0,.22-.9ZM26.727-6.4v4.43a2.07,2.07,0,0,1-.549,1.527,2.126,2.126,0,0,1-1.551.53,2.143,2.143,0,0,1-1.571-.536A2.085,2.085,0,0,1,22.513-2V-6.4h1.3V-2a1.319,1.319,0,0,0,.176.778.753.753,0,0,0,.637.233.744.744,0,0,0,.633-.231,1.314,1.314,0,0,0,.176-.758V-6.4ZM29-1.072h2.268V0h-3.56V-6.4H29ZM33.2-1.758,34.273-6.4h1.441L33.869,0H32.524L30.691-6.4h1.433Zm6.427-1.011H37.611v1.7h2.382V0H36.319V-6.4h3.665v1.077H37.611V-3.81h2.013Zm3.052.431h-.642V0H40.742V-6.4H42.8a2.093,2.093,0,0,1,1.5.5,1.879,1.879,0,0,1,.53,1.43,1.861,1.861,0,0,1-.927,1.784L45.027-.062V0H43.638Zm-.642-1.077h.734a.68.68,0,0,0,.58-.257,1.117,1.117,0,0,0,.193-.688q0-.962-.751-.962h-.756Zm10.1,1.283a2.393,2.393,0,0,1-.615,1.657,2.173,2.173,0,0,1-1.6.563A2.016,2.016,0,0,1,48.26-.626a3.165,3.165,0,0,1-.578-2.037V-3.74a3.083,3.083,0,0,1,.6-2.032,2.048,2.048,0,0,1,1.661-.714,2.062,2.062,0,0,1,1.589.584,2.658,2.658,0,0,1,.617,1.679h-1.3a1.723,1.723,0,0,0-.209-.934.824.824,0,0,0-.7-.257.784.784,0,0,0-.734.363,2.535,2.535,0,0,0-.229,1.193V-2.65a2.789,2.789,0,0,0,.213,1.31.783.783,0,0,0,.732.356.846.846,0,0,0,.7-.248,1.635,1.635,0,0,0,.22-.9ZM54.285,0H52.993V-6.4h1.292Zm5.1-5.322H57.808V0h-1.3V-5.322H54.956V-6.4H59.39Zm2.745,1.8L63.1-6.4H64.5L62.789-2.32V0H61.48V-2.32L59.761-6.4h1.406Z" transform="translate(2897 625)"/></g></svg>