<svg xmlns="http://www.w3.org/2000/svg" width="61" height="19" viewBox="0 0 61 19"><defs><style>.a{fill:#e51636;}.b{fill:#fff;}</style></defs><g transform="translate(-2891 -612)"><rect class="a" width="61" height="19" rx="2" transform="translate(2891 612)"/><path class="b" d="M3.568-1.31H1.806L1.463,0H.1l2-6.4H3.278L5.291,0H3.911ZM2.087-2.386h1.2l-.6-2.281Zm8.049.255A2.393,2.393,0,0,1,9.521-.475a2.173,2.173,0,0,1-1.6.563A2.016,2.016,0,0,1,6.258-.626,3.165,3.165,0,0,1,5.68-2.663V-3.74a3.083,3.083,0,0,1,.6-2.032,2.048,2.048,0,0,1,1.661-.714A2.062,2.062,0,0,1,9.528-5.9a2.658,2.658,0,0,1,.617,1.679h-1.3a1.723,1.723,0,0,0-.209-.934.824.824,0,0,0-.7-.257.784.784,0,0,0-.734.363,2.535,2.535,0,0,0-.229,1.193V-2.65A2.789,2.789,0,0,0,7.19-1.34a.783.783,0,0,0,.732.356.846.846,0,0,0,.7-.248,1.635,1.635,0,0,0,.22-.9Zm4.1-.637H12.226v1.7h2.382V0H10.934V-6.4H14.6v1.077H12.226V-3.81h2.013Zm7.348.391L22.194-6.4h1.279L22.334,0h-1.3l-.747-3.771L19.553,0h-1.3L17.109-6.4H18.4L19-2.382,19.75-6.4h1.085Zm5.891-.391H25.466v1.7h2.382V0H24.174V-6.4h3.665v1.077H25.466V-3.81h2.013ZM31.3-1.679a.8.8,0,0,0-.2-.591,2.3,2.3,0,0,0-.727-.415,3.389,3.389,0,0,1-1.384-.855A1.718,1.718,0,0,1,28.562-4.7,1.623,1.623,0,0,1,29.135-6a2.164,2.164,0,0,1,1.457-.49,2.181,2.181,0,0,1,1.05.248,1.722,1.722,0,0,1,.71.7A2.1,2.1,0,0,1,32.6-4.509H31.313a1.061,1.061,0,0,0-.191-.683.67.67,0,0,0-.552-.235.691.691,0,0,0-.527.2.752.752,0,0,0-.189.538.663.663,0,0,0,.211.477,2.426,2.426,0,0,0,.747.442,3.2,3.2,0,0,1,1.36.831A1.85,1.85,0,0,1,32.6-1.687a1.652,1.652,0,0,1-.532,1.305,2.1,2.1,0,0,1-1.446.47,2.49,2.49,0,0,1-1.129-.255,1.912,1.912,0,0,1-.8-.729A2.119,2.119,0,0,1,28.4-2.017h1.3a1.223,1.223,0,0,0,.215.8.881.881,0,0,0,.7.25Q31.3-.962,31.3-1.679Zm6.3-3.643H36.018V0h-1.3V-5.322H33.166V-6.4H37.6Zm3.85,4.25h2.268V0h-3.56V-6.4H41.45ZM47.6-1.31H45.843L45.5,0H44.133l2-6.4h1.182L49.327,0h-1.38ZM46.124-2.386h1.2l-.6-2.281Z" transform="translate(2897 625)"/></g></svg>