<svg xmlns="http://www.w3.org/2000/svg" width="76" height="26" viewBox="0 0 76 26"><defs><style>.a{fill:#064d7a;}.b{fill:#fff;}</style></defs><g transform="translate(-0.027)"><rect class="a" width="76" height="26" rx="2" transform="translate(0.027)"/><path class="b" d="M5.623-2.062H2.583v3.95H.628V-7.795h5.36v1.629h-3.4v2.48H5.623ZM12.106-2.3H9.061V.265h3.6V1.888H7.105V-7.795h5.546v1.629H9.061v2.288h3.046Zm4.615.652H15.75V1.888H13.8V-7.795h3.119a3.168,3.168,0,0,1,2.271.761,2.844,2.844,0,0,1,.8,2.165,2.816,2.816,0,0,1-1.4,2.7l1.7,3.963v.093h-2.1ZM15.75-3.279h1.111a1.028,1.028,0,0,0,.878-.389,1.69,1.69,0,0,0,.293-1.041q0-1.456-1.137-1.456H15.75ZM27.913.79a3.567,3.567,0,0,1-1.387.921,5.066,5.066,0,0,1-1.8.309A3.3,3.3,0,0,1,22.134.986a4.472,4.472,0,0,1-.951-3.009V-3.765a4.789,4.789,0,0,1,.874-3.082,3.088,3.088,0,0,1,2.55-1.081,3.285,3.285,0,0,1,2.377.778,3.682,3.682,0,0,1,.928,2.441h-1.9a2.208,2.208,0,0,0-.386-1.26,1.235,1.235,0,0,0-.958-.336,1.252,1.252,0,0,0-1.15.579,3.687,3.687,0,0,0-.372,1.842v1.756a3.6,3.6,0,0,0,.4,1.925,1.439,1.439,0,0,0,1.3.6,1.7,1.7,0,0,0,.938-.233l.173-.12V-1.73h-1.37V-3.206h3.332Zm7.681-8.585v6.7a3.132,3.132,0,0,1-.831,2.311,3.216,3.216,0,0,1-2.347.8,3.243,3.243,0,0,1-2.377-.811,3.156,3.156,0,0,1-.821-2.347V-7.795h1.968v6.663A2,2,0,0,0,31.451.046,1.14,1.14,0,0,0,32.415.4a1.126,1.126,0,0,0,.958-.349A1.989,1.989,0,0,0,33.639-1.1v-6.7ZM41.166-.653a1.213,1.213,0,0,0-.3-.894,3.484,3.484,0,0,0-1.1-.628,5.129,5.129,0,0,1-2.095-1.293,2.6,2.6,0,0,1-.638-1.752A2.456,2.456,0,0,1,37.9-7.186a3.274,3.274,0,0,1,2.2-.741,3.3,3.3,0,0,1,1.589.376,2.606,2.606,0,0,1,1.074,1.061,3.182,3.182,0,0,1,.376,1.556H41.193A1.606,1.606,0,0,0,40.9-5.969a1.013,1.013,0,0,0-.835-.356,1.045,1.045,0,0,0-.8.3,1.138,1.138,0,0,0-.286.815,1,1,0,0,0,.319.722,3.67,3.67,0,0,0,1.13.668,4.844,4.844,0,0,1,2.058,1.257,2.8,2.8,0,0,1,.642,1.9,2.5,2.5,0,0,1-.8,1.975,3.185,3.185,0,0,1-2.188.712,3.768,3.768,0,0,1-1.709-.386,2.893,2.893,0,0,1-1.207-1.1,3.207,3.207,0,0,1-.436-1.7h1.962A1.85,1.85,0,0,0,39.078.052a1.334,1.334,0,0,0,1.064.379Q41.166.431,41.166-.653Zm10.081-1.43A4.516,4.516,0,0,1,50.327.943,3.184,3.184,0,0,1,47.77,2.021,3.22,3.22,0,0,1,45.21.953a4.45,4.45,0,0,1-.944-2.989V-3.692a4.76,4.76,0,0,1,.924-3.115,3.145,3.145,0,0,1,2.567-1.121,3.159,3.159,0,0,1,2.547,1.1,4.7,4.7,0,0,1,.944,3.089ZM49.286-3.705a3.976,3.976,0,0,0-.372-1.948,1.246,1.246,0,0,0-1.157-.638,1.251,1.251,0,0,0-1.15.615A3.778,3.778,0,0,0,46.22-3.8v1.722A3.6,3.6,0,0,0,46.6-.21a1.286,1.286,0,0,0,1.17.6A1.253,1.253,0,0,0,48.907-.2a3.531,3.531,0,0,0,.379-1.825ZM59.42,1.888H57.465L54.606-4.463V1.888H52.651V-7.795h1.955l2.866,6.357V-7.795H59.42Z" transform="translate(7.572 15.446)"/></g></svg>