<svg xmlns="http://www.w3.org/2000/svg" width="107" height="26" viewBox="0 0 107 26"><defs><style>.a{fill:#f8f8f8;}</style></defs><g transform="translate(-562 -3279)"><rect width="107" height="26" rx="2" transform="translate(562 3279)"/><path class="a" d="M5.934-4.061H2.81V0H.8V-9.953H6.31v1.675H2.81v2.55H5.934ZM9.472-1.668H13V0H7.462V-9.953h2.01ZM20.734-4.081a5.911,5.911,0,0,1-.26,1.839,3.678,3.678,0,0,1-.728,1.319,2.987,2.987,0,0,1-1.128.793,3.861,3.861,0,0,1-1.459.267A3.888,3.888,0,0,1,15.7-.13a3.041,3.041,0,0,1-1.138-.793,3.66,3.66,0,0,1-.738-1.319,5.84,5.84,0,0,1-.263-1.839V-5.735a6.244,6.244,0,0,1,.26-1.89,3.841,3.841,0,0,1,.731-1.364,3.012,3.012,0,0,1,1.135-.824,3.761,3.761,0,0,1,1.463-.277,3.735,3.735,0,0,1,1.459.277,3.048,3.048,0,0,1,1.135.824,3.81,3.81,0,0,1,.735,1.364,6.244,6.244,0,0,1,.26,1.89ZM18.718-5.749a6.166,6.166,0,0,0-.1-1.213,2.533,2.533,0,0,0-.3-.824,1.248,1.248,0,0,0-.492-.472,1.465,1.465,0,0,0-.677-.15,1.481,1.481,0,0,0-.684.15,1.248,1.248,0,0,0-.492.472,2.533,2.533,0,0,0-.3.824,6.166,6.166,0,0,0-.1,1.213v1.668a5.649,5.649,0,0,0,.1,1.159,2.314,2.314,0,0,0,.3.79,1.24,1.24,0,0,0,.5.451,1.562,1.562,0,0,0,.687.144,1.5,1.5,0,0,0,.673-.144,1.23,1.23,0,0,0,.489-.451,2.314,2.314,0,0,0,.3-.79,5.839,5.839,0,0,0,.1-1.159Zm10.47,1.668a5.911,5.911,0,0,1-.26,1.839A3.678,3.678,0,0,1,28.2-.923a2.987,2.987,0,0,1-1.128.793,3.861,3.861,0,0,1-1.459.267A3.888,3.888,0,0,1,24.149-.13a3.041,3.041,0,0,1-1.138-.793,3.66,3.66,0,0,1-.738-1.319,5.84,5.84,0,0,1-.263-1.839V-5.735a6.244,6.244,0,0,1,.26-1.89A3.841,3.841,0,0,1,23-8.989a3.012,3.012,0,0,1,1.135-.824A3.761,3.761,0,0,1,25.6-10.09a3.735,3.735,0,0,1,1.459.277,3.048,3.048,0,0,1,1.135.824,3.81,3.81,0,0,1,.735,1.364,6.244,6.244,0,0,1,.26,1.89ZM27.171-5.749a6.166,6.166,0,0,0-.1-1.213,2.533,2.533,0,0,0-.3-.824,1.248,1.248,0,0,0-.492-.472,1.465,1.465,0,0,0-.677-.15,1.481,1.481,0,0,0-.684.15,1.248,1.248,0,0,0-.492.472,2.533,2.533,0,0,0-.3.824,6.166,6.166,0,0,0-.1,1.213v1.668a5.649,5.649,0,0,0,.1,1.159,2.314,2.314,0,0,0,.3.79,1.24,1.24,0,0,0,.5.451,1.562,1.562,0,0,0,.687.144,1.5,1.5,0,0,0,.673-.144,1.23,1.23,0,0,0,.489-.451,2.314,2.314,0,0,0,.3-.79,5.839,5.839,0,0,0,.1-1.159Zm6.478,2.112h-1V0h-2.01V-9.953h3.206a4.2,4.2,0,0,1,1.33.195,2.666,2.666,0,0,1,.991.574,2.478,2.478,0,0,1,.622.94A3.609,3.609,0,0,1,37-6.945a4.388,4.388,0,0,1-.1.974,2.922,2.922,0,0,1-.287.772,2.445,2.445,0,0,1-.455.591,2.909,2.909,0,0,1-.6.438L37.306-.1V0h-2.16Zm-1-1.675h1.142a1.057,1.057,0,0,0,.9-.4,1.738,1.738,0,0,0,.3-1.07A2.714,2.714,0,0,0,34.93-7.4a1.311,1.311,0,0,0-.205-.472.939.939,0,0,0-.359-.3,1.181,1.181,0,0,0-.52-.106h-1.2ZM41.313-2.68a2.631,2.631,0,0,1,.109-.783,2.56,2.56,0,0,1,.308-.653,3.569,3.569,0,0,1,.475-.574q.277-.273.619-.554a7.442,7.442,0,0,1-.595-1.125,2.848,2.848,0,0,1-.219-1.1,3.205,3.205,0,0,1,.171-1.077,2.435,2.435,0,0,1,.482-.827,2.114,2.114,0,0,1,.752-.533,2.477,2.477,0,0,1,.981-.188,2.213,2.213,0,0,1,.926.188,2.142,2.142,0,0,1,.7.506,2.3,2.3,0,0,1,.451.738,2.478,2.478,0,0,1,.161.892,2.546,2.546,0,0,1-.294,1.237,3.09,3.09,0,0,1-.827.957L45-5.154,46.282-3.37a4.467,4.467,0,0,0,.178-.718,4.953,4.953,0,0,0,.062-.8h1.634a7.81,7.81,0,0,1-.171,1.675A4.275,4.275,0,0,1,47.4-1.8L48.689,0H46.494l-.369-.52a3.211,3.211,0,0,1-.957.5,3.577,3.577,0,0,1-1.08.157,3.069,3.069,0,0,1-1.159-.208,2.494,2.494,0,0,1-.875-.581,2.527,2.527,0,0,1-.55-.892A3.259,3.259,0,0,1,41.313-2.68Zm2.878,1.217a1.678,1.678,0,0,0,1.019-.355L43.637-4.04l-.041.034a1.92,1.92,0,0,0-.277.629,2.752,2.752,0,0,0-.065.581,1.9,1.9,0,0,0,.072.533,1.4,1.4,0,0,0,.2.424.95.95,0,0,0,.3.277A.723.723,0,0,0,44.191-1.463ZM43.733-7.5a1.438,1.438,0,0,0,.126.578,4.079,4.079,0,0,0,.338.612l.321-.246a1.712,1.712,0,0,0,.284-.267,1.048,1.048,0,0,0,.161-.263,1.053,1.053,0,0,0,.072-.27,2.315,2.315,0,0,0,.017-.287,1.092,1.092,0,0,0-.044-.3.849.849,0,0,0-.13-.27.727.727,0,0,0-.208-.191.527.527,0,0,0-.28-.075A.522.522,0,0,0,44.1-8.4a.652.652,0,0,0-.205.212,1.032,1.032,0,0,0-.123.311A1.7,1.7,0,0,0,43.733-7.5ZM52.962,0V-9.953h2.632a4.18,4.18,0,0,1,1.569.284,3.334,3.334,0,0,1,1.21.82,3.712,3.712,0,0,1,.779,1.319,5.345,5.345,0,0,1,.277,1.788V-4.2a5.375,5.375,0,0,1-.273,1.784A3.651,3.651,0,0,1,58.376-1.1a3.323,3.323,0,0,1-1.217.817A4.291,4.291,0,0,1,55.573,0Zm2.01-8.278v6.61h.6a2.44,2.44,0,0,0,.889-.14,1.213,1.213,0,0,0,.567-.448,2.026,2.026,0,0,0,.3-.786A6.436,6.436,0,0,0,57.419-4.2V-5.756a6.482,6.482,0,0,0-.089-1.162,1.964,1.964,0,0,0-.3-.779,1.23,1.23,0,0,0-.564-.441,2.368,2.368,0,0,0-.872-.14ZM66.016-4.307H62.885v2.639H66.59V0H60.875V-9.953h5.7v1.675H62.885v2.352h3.131Zm8.48.991a3.722,3.722,0,0,1-.957,2.577,3.38,3.38,0,0,1-2.488.875,3.774,3.774,0,0,1-1.477-.273A2.8,2.8,0,0,1,68.481-.95a3.752,3.752,0,0,1-.68-1.336,6.477,6.477,0,0,1-.236-1.835v-1.7a6.341,6.341,0,0,1,.243-1.839,3.705,3.705,0,0,1,.7-1.34,2.95,2.95,0,0,1,1.107-.817,3.7,3.7,0,0,1,1.463-.277,3.208,3.208,0,0,1,2.471.909,4.134,4.134,0,0,1,.96,2.611H72.493a4.842,4.842,0,0,0-.092-.892,1.421,1.421,0,0,0-.243-.571.885.885,0,0,0-.427-.3,2.063,2.063,0,0,0-.653-.089,1.572,1.572,0,0,0-.687.137,1.072,1.072,0,0,0-.461.441,2.4,2.4,0,0,0-.263.8,7.291,7.291,0,0,0-.085,1.213v1.709a8.818,8.818,0,0,0,.068,1.189,2.343,2.343,0,0,0,.239.8,1.072,1.072,0,0,0,.451.455,1.554,1.554,0,0,0,.711.144,2.228,2.228,0,0,0,.632-.079.9.9,0,0,0,.434-.277,1.331,1.331,0,0,0,.26-.547,4.329,4.329,0,0,0,.109-.882Zm8.248-.766a5.911,5.911,0,0,1-.26,1.839,3.679,3.679,0,0,1-.728,1.319,2.987,2.987,0,0,1-1.128.793,3.861,3.861,0,0,1-1.459.267A3.888,3.888,0,0,1,77.706-.13a3.041,3.041,0,0,1-1.138-.793,3.66,3.66,0,0,1-.738-1.319,5.84,5.84,0,0,1-.263-1.839V-5.735a6.244,6.244,0,0,1,.26-1.89,3.841,3.841,0,0,1,.731-1.364,3.012,3.012,0,0,1,1.135-.824,3.761,3.761,0,0,1,1.463-.277,3.735,3.735,0,0,1,1.459.277,3.048,3.048,0,0,1,1.135.824,3.81,3.81,0,0,1,.735,1.364,6.244,6.244,0,0,1,.26,1.89ZM80.728-5.749a6.166,6.166,0,0,0-.1-1.213,2.533,2.533,0,0,0-.3-.824,1.248,1.248,0,0,0-.492-.472,1.465,1.465,0,0,0-.677-.15,1.481,1.481,0,0,0-.684.15,1.248,1.248,0,0,0-.492.472,2.533,2.533,0,0,0-.3.824,6.166,6.166,0,0,0-.1,1.213v1.668a5.649,5.649,0,0,0,.1,1.159,2.314,2.314,0,0,0,.3.79,1.24,1.24,0,0,0,.5.451,1.562,1.562,0,0,0,.687.144,1.5,1.5,0,0,0,.673-.144,1.23,1.23,0,0,0,.489-.451,2.314,2.314,0,0,0,.3-.79,5.839,5.839,0,0,0,.1-1.159Zm6.478,2.112h-1V0H84.2V-9.953H87.4a4.2,4.2,0,0,1,1.33.195,2.666,2.666,0,0,1,.991.574,2.479,2.479,0,0,1,.622.94,3.609,3.609,0,0,1,.215,1.3,4.388,4.388,0,0,1-.1.974,2.922,2.922,0,0,1-.287.772,2.445,2.445,0,0,1-.455.591,2.909,2.909,0,0,1-.6.438L90.862-.1V0H88.7Zm-1-1.675h1.142a1.057,1.057,0,0,0,.9-.4,1.738,1.738,0,0,0,.3-1.07,2.714,2.714,0,0,0-.065-.619,1.311,1.311,0,0,0-.205-.472.939.939,0,0,0-.359-.3,1.181,1.181,0,0,0-.52-.106h-1.2Z" transform="translate(570 3297)"/></g></svg>