<svg xmlns="http://www.w3.org/2000/svg" width="39" height="19" viewBox="0 0 39 19"><defs><style>.a{fill:#004890;}.b{fill:#fff;}</style></defs><g transform="translate(-455 -3004)"><rect class="a" width="39" height="19" rx="2" transform="translate(455 3004)"/><path class="b" d="M1.806-1.072H4.074V0H.514V-6.4H1.806ZM9.044-2.624a2.985,2.985,0,0,1-.609,2,2.1,2.1,0,0,1-1.69.712A2.128,2.128,0,0,1,5.054-.617,2.941,2.941,0,0,1,4.43-2.593V-3.687a3.146,3.146,0,0,1,.611-2.059,2.078,2.078,0,0,1,1.7-.74,2.088,2.088,0,0,1,1.683.727,3.1,3.1,0,0,1,.624,2.041ZM7.748-3.7A2.627,2.627,0,0,0,7.5-4.983a.824.824,0,0,0-.765-.422A.827.827,0,0,0,5.977-5a2.5,2.5,0,0,0-.255,1.237v1.138a2.379,2.379,0,0,0,.25,1.237.85.85,0,0,0,.773.4A.828.828,0,0,0,7.5-1.378a2.334,2.334,0,0,0,.25-1.206Zm6.381,1.318L14.735-6.4h1.279L14.875,0h-1.3l-.747-3.771L12.094,0h-1.3L9.65-6.4h1.288l.6,4.017L12.292-6.4h1.085Zm5.889-.391H18v1.7h2.382V0H16.712V-6.4h3.665v1.077H18V-3.81h2.013ZM21.823-6.1,21.7-4.32h-.809V-6.75h.936Zm3.458,4.421a.8.8,0,0,0-.2-.591,2.3,2.3,0,0,0-.727-.415A3.389,3.389,0,0,1,22.97-3.54,1.718,1.718,0,0,1,22.548-4.7,1.623,1.623,0,0,1,23.122-6a2.164,2.164,0,0,1,1.457-.49,2.181,2.181,0,0,1,1.05.248,1.722,1.722,0,0,1,.71.7,2.1,2.1,0,0,1,.248,1.028H25.3a1.061,1.061,0,0,0-.191-.683.67.67,0,0,0-.552-.235.691.691,0,0,0-.527.2.752.752,0,0,0-.189.538.663.663,0,0,0,.211.477,2.426,2.426,0,0,0,.747.442,3.2,3.2,0,0,1,1.36.831,1.85,1.85,0,0,1,.424,1.252,1.652,1.652,0,0,1-.532,1.305A2.1,2.1,0,0,1,24.6.088a2.49,2.49,0,0,1-1.129-.255,1.912,1.912,0,0,1-.8-.729,2.119,2.119,0,0,1-.288-1.121h1.3a1.223,1.223,0,0,0,.215.8.881.881,0,0,0,.7.25Q25.282-.962,25.282-1.679Z" transform="translate(461 3017)"/></g></svg>