<svg xmlns="http://www.w3.org/2000/svg" width="39" height="26" viewBox="0 0 39 26"><defs><style>.a{fill:#ffdc00;}.b{fill:#1d1d1b;}</style></defs><g transform="translate(-562 -3279)"><rect class="a" width="39" height="26" rx="2" transform="translate(562 3279)"/><path class="b" d="M2.81-3.5V0H.8V-9.953H4.19a3.539,3.539,0,0,1,1.357.246,2.89,2.89,0,0,1,1.015.687A3.014,3.014,0,0,1,7.2-7.974a3.789,3.789,0,0,1,.222,1.316A3.661,3.661,0,0,1,7.2-5.349a2.739,2.739,0,0,1-.639.995,2.826,2.826,0,0,1-1.019.632A3.886,3.886,0,0,1,4.19-3.5Zm0-1.675H4.19a1.25,1.25,0,0,0,.543-.109,1.006,1.006,0,0,0,.376-.3,1.286,1.286,0,0,0,.215-.465,2.407,2.407,0,0,0,.068-.591,2.708,2.708,0,0,0-.068-.615,1.612,1.612,0,0,0-.215-.52,1.142,1.142,0,0,0-.376-.362,1.041,1.041,0,0,0-.543-.137H2.81ZM10.777-3.5V0H8.768V-9.953h3.391a3.539,3.539,0,0,1,1.357.246,2.89,2.89,0,0,1,1.015.687,3.014,3.014,0,0,1,.639,1.046,3.789,3.789,0,0,1,.222,1.316,3.661,3.661,0,0,1-.222,1.309,2.739,2.739,0,0,1-.639.995,2.826,2.826,0,0,1-1.019.632,3.886,3.886,0,0,1-1.354.222Zm0-1.675h1.381a1.25,1.25,0,0,0,.543-.109,1.006,1.006,0,0,0,.376-.3,1.286,1.286,0,0,0,.215-.465,2.407,2.407,0,0,0,.068-.591,2.708,2.708,0,0,0-.068-.615,1.612,1.612,0,0,0-.215-.52,1.142,1.142,0,0,0-.376-.362,1.041,1.041,0,0,0-.543-.137H10.777Zm11.1.868H18.745v2.639H22.45V0H16.735V-9.953h5.7v1.675H18.745v2.352h3.131Z" transform="translate(570 3297)"/></g></svg>