<svg xmlns="http://www.w3.org/2000/svg" width="67" height="26" viewBox="0 0 67 26"><defs><style>.a{fill:#288248;}.b{fill:#fff;}</style></defs><g transform="translate(0.152)"><rect class="a" width="67" height="26" rx="2" transform="translate(-0.152)"/><path class="b" d="M7.013-1.71,7.93-7.795H9.865L8.143,1.888H6.181L5.051-3.818,3.934,1.888H1.965L.236-7.795H2.185L3.1-1.717,4.233-7.795H5.875ZM15.259-.094H12.592l-.519,1.982H10.005l3.026-9.682H14.82l3.046,9.682H15.777ZM13.017-1.723h1.809l-.9-3.451ZM20.725.265h3.431V1.888H18.77V-7.795h1.955Zm9.469-6.43H27.8V1.888H25.839V-6.166H23.484V-7.795h6.71ZM36.319-2.3H33.273V.265h3.6V1.888H31.318V-7.795h5.546v1.629H33.273v2.288h3.046Zm4.615.652h-.971V1.888H38.008V-7.795h3.119a3.168,3.168,0,0,1,2.271.761,2.844,2.844,0,0,1,.8,2.165,2.816,2.816,0,0,1-1.4,2.7l1.7,3.963v.093h-2.1Zm-.971-1.629h1.111a1.028,1.028,0,0,0,.878-.389,1.69,1.69,0,0,0,.293-1.041q0-1.456-1.137-1.456H39.963ZM49.632-.653a1.213,1.213,0,0,0-.3-.894,3.484,3.484,0,0,0-1.1-.628,5.129,5.129,0,0,1-2.095-1.293A2.6,2.6,0,0,1,45.5-5.221a2.456,2.456,0,0,1,.868-1.965,3.274,3.274,0,0,1,2.2-.741,3.3,3.3,0,0,1,1.589.376,2.606,2.606,0,0,1,1.074,1.061,3.182,3.182,0,0,1,.376,1.556H49.659a1.606,1.606,0,0,0-.289-1.034,1.013,1.013,0,0,0-.835-.356,1.045,1.045,0,0,0-.8.3,1.138,1.138,0,0,0-.286.815,1,1,0,0,0,.319.722,3.67,3.67,0,0,0,1.13.668,4.844,4.844,0,0,1,2.058,1.257,2.8,2.8,0,0,1,.642,1.9,2.5,2.5,0,0,1-.8,1.975,3.185,3.185,0,0,1-2.188.712A3.768,3.768,0,0,1,46.9,1.635a2.893,2.893,0,0,1-1.207-1.1,3.207,3.207,0,0,1-.436-1.7h1.962A1.85,1.85,0,0,0,47.544.052a1.334,1.334,0,0,0,1.064.379Q49.632.431,49.632-.653Z" transform="translate(7.521 15.446)"/></g></svg>