<svg xmlns="http://www.w3.org/2000/svg" xmlns:xlink="http://www.w3.org/1999/xlink" width="46" height="46" viewBox="0 0 46 46"><defs><style>.a{fill:#4c4c4c;}.b{clip-path:url(#a);}.c{fill:#1d1d1b;stroke:#1d1d1b;stroke-width:0.7px;}</style><clipPath id="a"><rect class="a" width="46" height="46" transform="translate(1963 3018)"/></clipPath></defs><g class="b" transform="translate(-1963 -3018)"><g transform="translate(1934.08 2989.08)"><path class="c" d="M71.222,43.986v0a.212.212,0,0,0-.011-.034.177.177,0,0,0-.02-.037s0,0,0,0a20.924,20.924,0,0,0-4.484-6.719.255.255,0,0,0-.1-.1,20.938,20.938,0,0,0-6.628-4.446.258.258,0,0,0-.045-.024.232.232,0,0,0-.047-.015,20.881,20.881,0,0,0-15.9-.031h0a.257.257,0,0,0-.035.011.234.234,0,0,0-.037.019h0a20.918,20.918,0,0,0-6.718,4.484h0a.255.255,0,0,0-.1.1h0a20.932,20.932,0,0,0-4.445,6.627.258.258,0,0,0-.024.045.156.156,0,0,0-.013.044,0,0,0,0,0,0,0,20.883,20.883,0,0,0-.031,15.9v0a.148.148,0,0,0,.011.034.177.177,0,0,0,.019.037h0a20.918,20.918,0,0,0,4.484,6.718h0a.251.251,0,0,0,.1.1l0,0h0a20.923,20.923,0,0,0,6.626,4.444.259.259,0,0,0,.045.024.233.233,0,0,0,.047.015,20.878,20.878,0,0,0,15.894.032h0a.24.24,0,0,0,.042-.013.189.189,0,0,0,.041-.021,20.945,20.945,0,0,0,6.715-4.481h0a.29.29,0,0,0,.058-.045.245.245,0,0,0,.043-.057h0a20.948,20.948,0,0,0,4.445-6.625h0a.2.2,0,0,0,.025-.045.205.205,0,0,0,.014-.046v0a20.883,20.883,0,0,0,.031-15.9Zm-.343.645c.028.071.054.141.08.212.02.053.04.106.058.16s.038.106.057.16l.056.16c.019.054.037.108.055.161.024.071.048.143.071.215s.04.125.059.188c.014.044.027.086.04.13.022.073.045.146.065.219s.043.148.063.222.045.162.066.243c.028.1.055.207.08.312.02.074.037.148.054.222s.039.165.058.249c.015.066.03.132.043.2.032.15.062.3.09.451.01.053.019.107.03.161.006.033.012.067.018.1l.028.166c.008.048.016.1.023.143s.019.114.027.172l.025.172c.022.153.042.307.059.461.01.077.019.154.026.232s.017.155.023.233q.022.232.039.468.043.586.051,1.181H64.333a12.347,12.347,0,0,0-.83-4.2L68.64,45.31l2.157-.888C70.825,44.491,70.853,44.562,70.879,44.631ZM67.838,39.3q.146.182.285.368l.139.187q.139.187.272.378t.264.384c.045.065.087.13.129.195s.085.13.126.2.084.131.124.2.094.153.14.231c.032.051.062.1.092.154.049.082.1.164.145.247.032.058.066.115.1.174q.114.2.224.411.082.155.161.312c.053.1.1.21.157.315q.1.212.2.425c.033.071.066.143.1.214s.064.144.095.216h0l-2.129.876L63.29,46.91a12.5,12.5,0,0,0-2.406-3.6l5.575-5.575A20.157,20.157,0,0,1,67.838,39.3Zm-7.864-6.054h0l.212.094c.071.032.141.063.212.1s.14.064.21.1q.419.2.828.418c.109.058.217.118.325.178.057.031.114.063.171.1l.162.093.021.012c.042.023.084.048.125.074l.2.119c.066.039.131.08.2.122l.195.123c.129.082.258.166.385.253.064.042.127.085.19.13.095.065.188.131.282.2s.187.135.279.2c.061.045.123.09.184.137q.143.109.284.22c.1.082.208.164.31.249s.2.166.3.251l.055.047c.1.083.2.167.291.254l.171.153c.17.152.338.31.5.471l-5.575,5.575a12.484,12.484,0,0,0-3.551-2.383L59.6,34.161Zm-7.8-1.672q.43.006.856.031l.255.016c.065,0,.13.008.195.015.13.008.259.02.388.033.095.009.188.019.283.03.148.015.3.033.444.054s.294.041.441.064c.045.006.089.013.133.021l.2.033.154.027.138.025.138.027c.109.02.217.043.326.066q.863.181,1.7.438l.208.065c.063.019.125.039.187.06.145.047.288.1.431.147s.273.1.407.148c.068.024.135.05.2.077l.2.08h0l-3.035,7.281a12.359,12.359,0,0,0-4.248-.85Zm-.557,0v7.888a12.3,12.3,0,0,0-4.2.829L44.42,33A20.219,20.219,0,0,1,51.621,31.579Zm-7.714,1.636,3,7.294c-.061.027-.12.055-.181.083l-.085.039-.194.093-.1.048-.142.071-.01.007a12.506,12.506,0,0,0-2.562,1.763.277.277,0,0,0-.03.022c-.1.092-.2.186-.3.28L37.734,37.34A20.4,20.4,0,0,1,43.907,33.215ZM37.34,37.734l5.573,5.573a12.474,12.474,0,0,0-1.506,1.929c-.043.068-.088.135-.13.2v0a12.428,12.428,0,0,0-.745,1.418h0L33.25,43.825A20.409,20.409,0,0,1,37.34,37.734Zm-4.3,6.605,7.281,3.035h0a12.359,12.359,0,0,0-.85,4.248H31.579A20.184,20.184,0,0,1,33.036,44.339Zm-1.457,7.839h7.888a12.3,12.3,0,0,0,.829,4.2l-7.293,3A20.219,20.219,0,0,1,31.579,52.178ZM37.34,66.065a20.383,20.383,0,0,1-4.124-6.172l7.293-3c.015.035.032.069.048.1.027.059.054.119.081.178s.05.106.076.159l.071.143c.019.038.037.076.057.114l.006.009a12.5,12.5,0,0,0,1.761,2.56.279.279,0,0,0,.024.033c.092.1.185.2.28.3l-4.12,4.12,0,0-1.449,1.449Zm6.484,4.484a20.4,20.4,0,0,1-6.09-4.09h0l1.45-1.45,0,0,4.12-4.12a12.476,12.476,0,0,0,2.064,1.592l.061.039c.045.028.092.053.137.08a12.421,12.421,0,0,0,1.29.67Zm7.8,1.671a20.2,20.2,0,0,1-7.283-1.456l3.035-7.282a12.359,12.359,0,0,0,4.248.85Zm0-8.445-.26-.009h0q-.5-.023-.984-.087l-.09-.012a11.888,11.888,0,0,1-2.7-.7q-.259-.1-.514-.214a11.952,11.952,0,0,1-1.31-.685l-.042-.025c-.043-.026-.085-.055-.129-.082A11.954,11.954,0,0,1,43.7,60.491c-.135-.129-.265-.26-.394-.394a11.931,11.931,0,0,1-2.048-2.917l-.028-.056c-.072-.147-.142-.295-.208-.445-.075-.17-.146-.341-.213-.514-.016-.042-.031-.084-.047-.125s-.039-.1-.058-.157q-.118-.329-.216-.667v0a11.768,11.768,0,0,1-.286-1.221c0-.019-.006-.038-.01-.057q-.031-.178-.056-.358c-.009-.066-.018-.132-.026-.2-.005-.044-.011-.087-.016-.13-.014-.125-.026-.25-.036-.376l0-.024q-.009-.1-.014-.2c0-.072-.009-.144-.012-.216s-.007-.171-.008-.256,0-.186,0-.278,0-.186,0-.278a11.863,11.863,0,0,1,.808-4.032q.1-.259.214-.514a11.944,11.944,0,0,1,.634-1.223c.026-.044.051-.089.077-.133l.043-.067A11.943,11.943,0,0,1,43.309,43.7c.129-.135.26-.265.394-.394a11.939,11.939,0,0,1,2.9-2.04l.089-.044c.142-.069.284-.137.429-.2.17-.074.341-.146.514-.213l.051-.019c.085-.032.17-.063.255-.094l.161-.056c.081-.027.161-.054.243-.079l.23-.07.035-.01q.229-.066.461-.123h0q.362-.089.733-.155l.059-.01q.177-.031.356-.056l.2-.026.131-.016c.125-.014.25-.026.376-.036l.024,0q.1-.009.2-.014c.072,0,.144-.009.216-.012l.256-.008c.093,0,.186,0,.278,0l.278,0a11.821,11.821,0,0,1,4.033.807c.174.068.344.139.514.215A11.91,11.91,0,0,1,60.1,43.309l.044.043q.156.151.307.307l.043.044c.273.286.53.587.774.9a11.943,11.943,0,0,1,1.511,2.52c.074.169.145.341.212.513a11.762,11.762,0,0,1,.641,2.371c0,.022.008.044.011.065.007.044.013.087.019.131s.012.082.018.123c0,.02,0,.04.007.061q.021.167.038.335.014.136.024.274c.016.207.027.415.032.625q0,.139,0,.278t0,.278l0,.074c0,.058,0,.116-.007.174s-.006.13-.01.195c0,.017,0,.033,0,.05-.006.092-.013.185-.022.277,0,0,0,.009,0,.014-.008.1-.019.2-.031.3,0,.01,0,.019,0,.03q-.021.18-.048.359l0,.034q-.027.177-.059.351l-.008.043q-.027.147-.059.293l-.017.079q-.035.162-.075.322l-.015.056q-.035.136-.073.271l-.025.088c-.03.1-.062.209-.095.313l-.011.034q-.046.142-.1.283l-.029.082c-.037.1-.075.207-.115.31-.068.174-.139.344-.214.514s-.143.311-.22.464A11.94,11.94,0,0,1,60.491,60.1l-.043.044q-.151.156-.307.307l-.044.043A12.139,12.139,0,0,1,57.45,62.4c-.252.134-.509.261-.772.377-.073.032-.147.064-.221.094q-.146.061-.293.118a11.8,11.8,0,0,1-3.986.789l-.278,0C51.807,63.779,51.714,63.778,51.621,63.775ZM59.378,70.8c-.132.053-.265.1-.4.153l-.264.1c-.117.042-.233.083-.351.122s-.265.088-.4.13-.248.076-.372.112l-.227.065c-.076.021-.152.043-.228.062l-.345.089-.155.038c-.074.019-.149.035-.224.052s-.177.04-.266.058l-.106.022c-.019,0-.036.008-.055.011l-.116.024-.129.025-.236.044c-.093.017-.187.033-.279.048-.144.025-.289.046-.433.067-.127.019-.254.035-.382.051l-.055.007c-.146.019-.292.034-.439.048s-.268.026-.4.036l-.261.019c-.355.024-.715.039-1.075.044V64.333a12.347,12.347,0,0,0,4.2-.831l3,7.295Zm.514-.213-3-7.294h0a12.51,12.51,0,0,0,3.6-2.406l5.575,5.575A20.4,20.4,0,0,1,59.892,70.585Zm10.562-10.4c-.031.071-.063.141-.1.212s-.064.14-.1.21q-.2.419-.418.828c-.058.109-.118.217-.178.325-.031.057-.063.114-.1.171s-.062.109-.093.162l-.012.021c-.023.042-.048.084-.074.125-.039.067-.079.133-.119.2s-.08.131-.122.2l-.123.195c-.082.129-.166.258-.253.385-.042.064-.085.127-.13.19-.065.095-.131.188-.2.282s-.135.187-.2.279c-.045.061-.09.123-.137.184q-.109.143-.22.284c-.082.1-.164.208-.249.31s-.166.2-.251.3l-.047.055c-.083.1-.167.2-.254.291l-.153.171c-.152.17-.31.338-.471.5l-5.575-5.575a12.483,12.483,0,0,0,2.383-3.551l5.159,2.15,2.122.884h0Q70.5,60.081,70.455,60.187Zm1.363-4.251c-.015.076-.031.152-.047.227-.032.152-.066.3-.1.453q-.04.17-.084.337c-.029.112-.058.224-.089.335-.02.074-.04.148-.062.222-.034.119-.069.238-.106.355-.021.071-.044.141-.066.212s-.038.118-.058.177c-.039.118-.078.235-.119.351-.024.07-.048.139-.074.208a.112.112,0,0,0,0,.013c-.025.07-.051.14-.078.209q-.079.214-.165.426h0l-1.7-.708-.449-.187-5.131-2.139a12.359,12.359,0,0,0,.85-4.248h7.888A20.125,20.125,0,0,1,71.818,55.936Z" transform="translate(0 0)"/><path class="c" d="M211.269,216.087q.138.008.278.008t.278-.008a4.522,4.522,0,0,0,2.732-1.135,4.377,4.377,0,0,0,.394-.394,4.562,4.562,0,0,0,.893-1.521,4.556,4.556,0,0,0,.242-1.211q.008-.138.008-.278t-.008-.278a4.53,4.53,0,0,0-.448-1.707,4.546,4.546,0,0,0-.687-1.026,4.377,4.377,0,0,0-.394-.393,4.56,4.56,0,0,0-1.521-.893,4.556,4.556,0,0,0-1.211-.242q-.138-.008-.278-.008t-.278.008a4.522,4.522,0,0,0-2.732,1.135,4.377,4.377,0,0,0-.393.393,4.56,4.56,0,0,0-.893,1.521,4.556,4.556,0,0,0-.242,1.211q-.008.138-.008.278t.008.278a4.532,4.532,0,0,0,.236,1.193,4.375,4.375,0,0,0,.213.514,4.539,4.539,0,0,0,.685,1.026,4.657,4.657,0,0,0,.394.394,4.531,4.531,0,0,0,1.008.677,4.511,4.511,0,0,0,1.724.458Zm-2.338-1.529a3.766,3.766,0,0,1-.394-.394,3.958,3.958,0,0,1-.563-.844,3.849,3.849,0,0,1-.213-.514,3.939,3.939,0,0,1-.193-.98c-.007-.092-.01-.185-.01-.278s0-.187.01-.278a3.941,3.941,0,0,1,.2-1,3.84,3.84,0,0,1,.215-.513,3.945,3.945,0,0,1,.557-.828,3.578,3.578,0,0,1,.394-.394,3.955,3.955,0,0,1,2.338-.971c.092-.007.185-.01.278-.01s.187,0,.278.01a3.941,3.941,0,0,1,1,.2,3.839,3.839,0,0,1,.513.215,3.977,3.977,0,0,1,.828.556,3.766,3.766,0,0,1,.394.394,4,4,0,0,1,.564.844,3.848,3.848,0,0,1,.213.515,3.931,3.931,0,0,1,.193.979c.007.092.01.185.01.278s0,.187-.01.278a3.942,3.942,0,0,1-.2,1,3.843,3.843,0,0,1-.215.513,3.945,3.945,0,0,1-.557.828,3.575,3.575,0,0,1-.393.393,3.956,3.956,0,0,1-2.338.971c-.092.007-.185.01-.278.01s-.187,0-.278-.01a3.935,3.935,0,0,1-1-.2,3.855,3.855,0,0,1-.514-.215A3.978,3.978,0,0,1,208.931,214.558Z" transform="translate(-159.648 -159.648)"/><path class="c" d="M239.052,155.265a1.69,1.69,0,0,0,.337.095,1.659,1.659,0,0,0,.278.024,1.643,1.643,0,0,0,.278-.024,1.675,1.675,0,0,0,.384-.114,1.67,1.67,0,0,0-.384-3.181,1.627,1.627,0,0,0-.557,0,1.671,1.671,0,0,0-1.275,1.031h0A1.673,1.673,0,0,0,239.052,155.265Zm-.419-1.964a1.113,1.113,0,0,1,.756-.667,1.1,1.1,0,0,1,.557,0,1.038,1.038,0,0,1,.132.043,1.113,1.113,0,0,1,.032,2.058,1.119,1.119,0,0,1-.72.056.991.991,0,0,1-.132-.043,1.114,1.114,0,0,1-.625-1.446Z" transform="translate(-187.768 -109.79)"/><path class="c" d="M240.4,327.125a1.67,1.67,0,0,0-.187-3.08,1.725,1.725,0,0,0-.266-.069,1.671,1.671,0,0,0-.822,3.227,1.7,1.7,0,0,0,.265.069,1.675,1.675,0,0,0,.28.023,1.536,1.536,0,0,0,.277-.024A1.64,1.64,0,0,0,240.4,327.125Zm-1.011-.423c-.029-.007-.057-.016-.084-.025a1.115,1.115,0,0,1-.69-1.416,1.1,1.1,0,0,1,.565-.638,1.1,1.1,0,0,1,.766-.077c.029.007.057.016.084.025a1.113,1.113,0,0,1,.125,2.054,1.035,1.035,0,0,1-.21.077A1.088,1.088,0,0,1,239.39,326.7Z" transform="translate(-187.769 -265.747)"/><path class="c" d="M312.759,197.453l.028.021a1.659,1.659,0,0,0,.983.323,1.75,1.75,0,0,0,.26-.02,1.662,1.662,0,0,0,1.092-.665l.029-.042a1.649,1.649,0,0,0,.261-.616c.007-.033.013-.067.018-.1a1.483,1.483,0,0,0,.014-.158v-.007a1.608,1.608,0,0,0,0-.176c0-.047-.008-.1-.016-.143s-.013-.077-.022-.114-.01-.045-.016-.067l0,0a1.353,1.353,0,0,0-.057-.171c-.011-.028-.022-.055-.034-.082v0c-.013-.027-.026-.054-.04-.081a1.4,1.4,0,0,0-.091-.152l-.051-.072a1.368,1.368,0,0,0-.1-.121l0,0-.032-.032a.439.439,0,0,0-.042-.042c-.016-.016-.033-.032-.049-.045a1.473,1.473,0,0,0-.147-.118l-.052-.035-.027-.018a1.67,1.67,0,0,0-1.9,2.741Zm.115-1.984a1.1,1.1,0,0,1,.729-.443,1.069,1.069,0,0,1,.171-.014,1.116,1.116,0,0,1,1.1.944,1.1,1.1,0,0,1-.1.669,1.074,1.074,0,0,1-.1.159,1.114,1.114,0,0,1-1.8-1.315Z" transform="translate(-254.996 -148.268)"/><path class="c" d="M166.574,281.885c-.03-.023-.059-.045-.091-.066a1.67,1.67,0,0,0-2.3.448h0l-.013.019a1.671,1.671,0,0,0-.264.7,1.636,1.636,0,0,0,.018.558,1.673,1.673,0,0,0,1.637,1.34,1.693,1.693,0,0,0,.331-.033,1.669,1.669,0,0,0,.684-2.963Zm-.794,2.418a1.114,1.114,0,0,1-1.217-1.59,1.262,1.262,0,0,1,.069-.118,1.1,1.1,0,0,1,.707-.475,1.055,1.055,0,0,1,.221-.022,1.114,1.114,0,0,1,.22,2.205Z" transform="translate(-120.537 -227.27)"/><path class="c" d="M164.142,197.01a1.666,1.666,0,0,0,1.158.764,1.762,1.762,0,0,0,.26.02,1.658,1.658,0,0,0,.365-.041h0a1.664,1.664,0,0,0,.617-.282c.019-.013.036-.027.054-.042a1.67,1.67,0,1,0-2.691-1.563,1.609,1.609,0,0,0-.009.437A1.661,1.661,0,0,0,164.142,197.01Zm.314-1.058a1.116,1.116,0,0,1,1.1-.943,1.212,1.212,0,0,1,.173.013,1.114,1.114,0,0,1,.486,2,1.043,1.043,0,0,1-.258.14,1.089,1.089,0,0,1-.57.061,1.113,1.113,0,0,1-.848-.652h0A1.107,1.107,0,0,1,164.455,195.952Z" transform="translate(-120.534 -148.264)"/><path class="c" d="M313.443,284.846a1.706,1.706,0,0,0,.334.033,1.66,1.66,0,0,0,.884-.255l.018-.011.019-.013a1.771,1.771,0,0,0,.2-.152c.035-.032.07-.065.1-.1s.064-.071.093-.108c.015-.019.029-.038.043-.057.028-.039.054-.079.078-.119l.035-.062c.026-.048.049-.1.071-.148a1.7,1.7,0,0,0,.078-.235c.007-.027.013-.053.019-.08a1.437,1.437,0,0,0,.024-.164,1.509,1.509,0,0,0,.008-.171c0-.028,0-.057,0-.084s0-.062-.007-.093h0a1.457,1.457,0,0,0-.029-.178,1.684,1.684,0,0,0-.215-.526h0l-.024-.037a1.673,1.673,0,0,0-1.761-.706,1.678,1.678,0,0,0-.555.239c-.04.027-.079.055-.116.085a1.669,1.669,0,0,0,.709,2.944Zm-.76-1.858a1.1,1.1,0,0,1,.475-.707,1.167,1.167,0,0,1,.216-.112,1.115,1.115,0,0,1,1.328.424.973.973,0,0,1,.091.167h0a1.113,1.113,0,1,1-2.11.227Z" transform="translate(-254.997 -227.268)"/></g></g></svg>