<svg xmlns="http://www.w3.org/2000/svg" xmlns:xlink="http://www.w3.org/1999/xlink" width="46" height="46" viewBox="0 0 46 46"><defs><style>.a{fill:#4c4c4c;}.b{clip-path:url(#a);}.c{fill:#1d1d1b;}</style><clipPath id="a"><rect class="a" width="46" height="46" transform="translate(1725 3142)"/></clipPath></defs><g class="b" transform="translate(-1725 -3142)"><g transform="translate(-6031.996 4448)"><path class="c" d="M7776.018-1292.881h-.008a4.281,4.281,0,0,0-3.53,2.128,9.1,9.1,0,0,0,0,9.5,3.979,3.979,0,0,0,2.355,1.956,4.044,4.044,0,0,0,1.188.18,3.98,3.98,0,0,0,1.861-.464,3.962,3.962,0,0,0,1.669-1.667,9.109,9.109,0,0,0,0-9.5A4.279,4.279,0,0,0,7776.018-1292.881Zm2.334,10.842-.029-.006a2.555,2.555,0,0,1-3.39,1.223,2.568,2.568,0,0,1-1.228-1.232,7.678,7.678,0,0,1,0-7.9,2.537,2.537,0,0,1,1.443-1.313,2.577,2.577,0,0,1,.866-.152,2.534,2.534,0,0,1,1.084.245,2.567,2.567,0,0,1,1.225,1.229,7.679,7.679,0,0,1,0,7.889Z"/><path class="c" d="M7793.852-1299.326c-2.463-3.659-5.765-5.674-9.3-5.674h-8.543c-3.926,0-7.6,2.532-10.077,6.952a.735.735,0,0,0-.028.561.728.728,0,0,0,.377.415.737.737,0,0,0,.928-.264c2.215-3.938,5.423-6.2,8.8-6.2,6.367,0,11.547,7.866,11.547,17.534s-5.18,17.536-11.547,17.536-11.546-7.867-11.546-17.537a24.7,24.7,0,0,1,1.507-8.643.736.736,0,0,0-.429-.945.732.732,0,0,0-.561.019.726.726,0,0,0-.383.411A26.142,26.142,0,0,0,7763-1286a24.019,24.019,0,0,0,3.717,13.33c2.466,3.657,5.766,5.672,9.3,5.672h8.543a9.206,9.206,0,0,0,3-.505v4.762a1.1,1.1,0,0,0,.522,1.1.838.838,0,0,0,.359.079,1.335,1.335,0,0,0,.805-.378l3.318-2.785,3.305,2.774a1.09,1.09,0,0,0,1.186.3,1.089,1.089,0,0,0,.511-1.077V-1270a.65.65,0,0,0,0-.076V-1286A24.016,24.016,0,0,0,7793.852-1299.326Zm-8.546,0a13.845,13.845,0,0,0-4.25-4.209h3.5c6.363,0,11.54,7.866,11.54,17.533v10.214a.5.5,0,0,0,0,.054v12.061l-3-2.518a.791.791,0,0,0-.54-.21.787.787,0,0,0-.536.206l-3,2.521V-1286A24.016,24.016,0,0,0,7785.306-1299.324Zm2.255,22.135v8.123a7.828,7.828,0,0,1-3,.6h-3.5a13.845,13.845,0,0,0,4.254-4.209A20.717,20.717,0,0,0,7787.561-1277.189Z"/><path class="c" d="M7776.014-1299.574h-.043c-2.542.016-4.909,1.465-6.673,4.088a17.1,17.1,0,0,0-2.651,9.485.735.735,0,0,0,.734.733.733.733,0,0,0,.732-.733c0-6.676,3.544-12.107,7.9-12.107a.734.734,0,0,0,.733-.733A.734.734,0,0,0,7776.014-1299.574Z"/><path class="c" d="M7775.28-1273.159a.734.734,0,0,0,.733.733c2.556,0,4.939-1.45,6.713-4.087a17.1,17.1,0,0,0,2.651-9.486.734.734,0,0,0-.733-.733.734.734,0,0,0-.734.733c0,6.676-3.544,12.107-7.9,12.107A.734.734,0,0,0,7775.28-1273.159Z"/></g></g></svg>