<svg xmlns="http://www.w3.org/2000/svg" xmlns:xlink="http://www.w3.org/1999/xlink" width="46" height="46" viewBox="0 0 46 46"><defs><style>.a{fill:#4c4c4c;}.b{clip-path:url(#a);}.c{fill:#1d1d1b;}</style><clipPath id="a"><rect class="a" width="46" height="46" transform="translate(1935 1642)"/></clipPath></defs><g class="b" transform="translate(-1935 -1642)"><path class="c" d="M2480.343-455.155a.748.748,0,0,0-.923-.079l-9.4,6.4-1.039-1.039a1.14,1.14,0,0,0-1.606,0l-3.954,3.954.988.988a.44.44,0,0,1,0,.617l-8.894,8.895a.44.44,0,0,1-.619,0l-.988-.989-3.954,3.954a1.141,1.141,0,0,0,0,1.606l.493.494-5.127,5.127a1.141,1.141,0,0,0,0,1.606l1.471,1.471c-1.475,1.289-2.815,1.887-3.9,1.725a2.376,2.376,0,0,1-1.337-.686,2.256,2.256,0,0,1-.346-.433.743.743,0,0,0-1.007-.289.732.732,0,0,0-.355.441.744.744,0,0,0,.069.579,3.933,3.933,0,0,0,2.742,1.855c1.568.235,3.316-.483,5.187-2.14l1.365,1.366a1.142,1.142,0,0,0,1.607,0l.471-.471,4.816,7.429a3.89,3.89,0,0,0,2.144,1.942,1.693,1.693,0,0,0,.3.027,1.66,1.66,0,0,0,1.117-.429c.054-.045.1-.09.15-.137,1.358-1.357.443-3.467-1.565-8.1l-.147-.336c-.655-1.508-1.129-2.607-1.469-3.4l2.457,1.426a.745.745,0,0,0,1.016-.273.746.746,0,0,0-.273-1.015l-2.23-1.288a1.12,1.12,0,0,0,.252-.189l17.421-17.42a1.139,1.139,0,0,0,0-1.606l-1.03-1.03,6.2-9.609A.749.749,0,0,0,2480.343-455.155Zm-14.881,11.888a1.857,1.857,0,0,0,.274-.344l1.023,1.023-9.512,9.511-1.022-1.022a1.779,1.779,0,0,0,.343-.275Zm-14.206,11.611,2.655-2.655,2.532,2.533a1.143,1.143,0,0,0,1.606,0l10.009-10.007a1.141,1.141,0,0,0,0-1.606l-2.533-2.532,2.656-2.656,5.805,5.8-16.923,16.924-2.595-2.593a.812.812,0,0,0-.173-.209.66.66,0,0,0-.111-.075Zm.246,2.349,1.268,1.267c-.665.7-2.069,2.131-4.892,4.867l-1.255-1.255Zm.682,3.986c.785-.784,1.3-1.317,1.636-1.668l1.078,1.078-4.878,4.879-1.092-1.091C2450.341-423.494,2451.4-424.534,2452.184-425.321Zm4.708,6.444c1.7,3.915,2.549,5.88,1.794,6.533a.184.184,0,0,1-.123.053,2.682,2.682,0,0,1-1.175-1.24l-5.019-7.742,2.44-2.439c.3.716.829,1.941,1.726,4.01h0Zm14.314-28.974,6.014-4.09-4.021,6.227Zm8.405-7.09Z" transform="translate(-501.821 2097.357)"/></g></svg>