<?xml version="1.0" encoding="UTF-8"?>
<svg xmlns="http://www.w3.org/2000/svg" xmlns:xlink="http://www.w3.org/1999/xlink" width="46pt" height="46pt" viewBox="0 0 46 46" version="1.1">
<g id="surface1">
<path style=" stroke:none;fill-rule:nonzero;fill:rgb(0%,0%,0%);fill-opacity:1;" d="M 45.101562 4.851562 L 4.851562 4.851562 C 4.355469 4.851562 3.953125 5.253906 3.953125 5.75 L 3.953125 10.242188 C 3.953125 10.738281 4.355469 11.140625 4.851562 11.140625 C 5.347656 11.140625 5.75 10.738281 5.75 10.242188 L 5.75 6.648438 L 11.230469 6.648438 L 11.230469 9.613281 C 11.230469 10.109375 11.632812 10.511719 12.128906 10.511719 C 12.625 10.511719 13.027344 10.109375 13.027344 9.613281 L 13.027344 6.648438 L 16.710938 6.648438 L 16.710938 9.613281 C 16.710938 10.109375 17.113281 10.511719 17.609375 10.511719 C 18.105469 10.511719 18.507812 10.109375 18.507812 9.613281 L 18.507812 6.648438 L 22.191406 6.648438 L 22.191406 36.410156 C 22.191406 36.90625 22.59375 37.308594 23.089844 37.308594 C 23.585938 37.308594 23.988281 36.90625 23.988281 36.410156 L 23.988281 6.648438 L 27.671875 6.648438 L 27.671875 32.589844 C 27.671875 33.085938 28.074219 33.488281 28.570312 33.488281 C 29.066406 33.488281 29.46875 33.085938 29.46875 32.589844 L 29.46875 6.648438 L 33.152344 6.648438 L 33.152344 36.410156 C 33.152344 36.90625 33.554688 37.308594 34.050781 37.308594 C 34.546875 37.308594 34.949219 36.90625 34.949219 36.410156 L 34.949219 6.648438 L 38.722656 6.648438 L 38.722656 32.589844 C 38.722656 33.085938 39.125 33.488281 39.621094 33.488281 C 40.117188 33.488281 40.519531 33.085938 40.519531 32.589844 L 40.519531 6.648438 L 44.203125 6.648438 L 44.203125 39.351562 L 18.507812 39.351562 L 18.507812 36.363281 C 18.507812 35.867188 18.105469 35.464844 17.609375 35.464844 C 17.113281 35.464844 16.710938 35.867188 16.710938 36.363281 L 16.710938 39.351562 L 13.027344 39.351562 L 13.027344 36.363281 C 13.027344 35.867188 12.625 35.464844 12.128906 35.464844 C 11.632812 35.464844 11.230469 35.867188 11.230469 36.363281 L 11.230469 39.351562 L 5.75 39.351562 L 5.75 35.757812 C 5.75 35.261719 5.347656 34.859375 4.851562 34.859375 C 4.355469 34.859375 3.953125 35.261719 3.953125 35.757812 L 3.953125 40.25 C 3.953125 40.746094 4.355469 41.148438 4.851562 41.148438 L 45.101562 41.148438 C 45.597656 41.148438 46 40.746094 46 40.25 L 46 5.75 C 46 5.253906 45.597656 4.851562 45.101562 4.851562 Z M 45.101562 4.851562 "/>
<path style=" stroke:none;fill-rule:nonzero;fill:rgb(0%,0%,0%);fill-opacity:1;" d="M 19.71875 22.363281 L 17.914062 20.558594 C 17.5625 20.207031 16.992188 20.207031 16.644531 20.558594 C 16.292969 20.910156 16.292969 21.476562 16.644531 21.828125 L 16.914062 22.101562 L 16.601562 22.101562 C 16.597656 22.101562 16.59375 22.101562 16.585938 22.101562 C 15.667969 22.101562 14.753906 22.320312 13.9375 22.738281 C 12.789062 23.324219 11.417969 23.324219 10.273438 22.738281 C 8.613281 21.890625 6.632812 21.890625 4.972656 22.738281 C 3.824219 23.324219 2.453125 23.324219 1.308594 22.738281 C 0.867188 22.511719 0.324219 22.6875 0.0976562 23.128906 C -0.128906 23.570312 0.046875 24.113281 0.488281 24.339844 C 2.148438 25.1875 4.128906 25.1875 5.789062 24.339844 C 6.9375 23.753906 8.308594 23.753906 9.457031 24.339844 C 10.285156 24.761719 11.195312 24.972656 12.105469 24.972656 C 13.015625 24.972656 13.925781 24.761719 14.753906 24.339844 C 15.320312 24.050781 15.957031 23.898438 16.597656 23.898438 L 16.914062 23.898438 L 16.644531 24.171875 C 16.292969 24.519531 16.292969 25.089844 16.644531 25.441406 C 16.816406 25.617188 17.046875 25.703125 17.277344 25.703125 C 17.507812 25.703125 17.738281 25.617188 17.914062 25.441406 L 19.71875 23.632812 C 20.070312 23.285156 20.070312 22.714844 19.71875 22.363281 Z M 19.71875 22.363281 "/>
<path style=" stroke:none;fill-rule:nonzero;fill:rgb(0%,0%,0%);fill-opacity:1;" d="M 19.71875 29.578125 L 17.90625 27.761719 C 17.554688 27.414062 16.984375 27.414062 16.632812 27.761719 C 16.285156 28.113281 16.285156 28.683594 16.632812 29.035156 L 16.914062 29.316406 L 16.601562 29.316406 C 16.597656 29.316406 16.59375 29.316406 16.589844 29.316406 C 15.667969 29.316406 14.753906 29.535156 13.9375 29.953125 C 12.789062 30.539062 11.421875 30.539062 10.273438 29.953125 C 8.613281 29.105469 6.632812 29.105469 4.972656 29.953125 C 3.824219 30.539062 2.453125 30.539062 1.308594 29.953125 C 0.867188 29.726562 0.324219 29.902344 0.0976562 30.34375 C -0.128906 30.785156 0.046875 31.328125 0.488281 31.550781 C 2.148438 32.398438 4.128906 32.398438 5.789062 31.550781 C 6.9375 30.964844 8.308594 30.964844 9.457031 31.550781 C 10.285156 31.976562 11.195312 32.1875 12.105469 32.1875 C 13.015625 32.1875 13.925781 31.976562 14.753906 31.550781 C 15.320312 31.261719 15.957031 31.113281 16.597656 31.113281 L 16.914062 31.113281 L 16.632812 31.390625 C 16.285156 31.742188 16.285156 32.3125 16.632812 32.664062 C 16.808594 32.839844 17.039062 32.925781 17.269531 32.925781 C 17.5 32.925781 17.730469 32.839844 17.90625 32.664062 L 19.71875 30.847656 C 20.070312 30.496094 20.070312 29.929688 19.71875 29.578125 Z M 19.71875 29.578125 "/>
<path style=" stroke:none;fill-rule:nonzero;fill:rgb(0%,0%,0%);fill-opacity:1;" d="M 19.71875 15.113281 L 17.957031 13.351562 C 17.605469 13 17.039062 13 16.6875 13.351562 C 16.335938 13.703125 16.335938 14.273438 16.6875 14.621094 L 16.914062 14.851562 L 16.601562 14.851562 C 16.597656 14.851562 16.59375 14.851562 16.589844 14.851562 C 15.667969 14.851562 14.753906 15.070312 13.9375 15.488281 C 12.789062 16.074219 11.417969 16.074219 10.273438 15.488281 C 8.613281 14.640625 6.632812 14.640625 4.972656 15.488281 C 3.824219 16.074219 2.453125 16.074219 1.308594 15.488281 C 0.867188 15.261719 0.324219 15.4375 0.0976562 15.878906 C -0.128906 16.320312 0.046875 16.863281 0.488281 17.085938 C 2.148438 17.933594 4.128906 17.933594 5.789062 17.085938 C 6.9375 16.5 8.308594 16.5 9.457031 17.085938 C 10.285156 17.511719 11.195312 17.722656 12.105469 17.722656 C 13.015625 17.722656 13.925781 17.511719 14.753906 17.085938 C 15.320312 16.800781 15.953125 16.648438 16.589844 16.648438 C 16.59375 16.648438 16.597656 16.648438 16.597656 16.648438 L 16.914062 16.648438 L 16.6875 16.875 C 16.335938 17.226562 16.335938 17.796875 16.6875 18.144531 C 16.863281 18.320312 17.09375 18.410156 17.324219 18.410156 C 17.550781 18.410156 17.78125 18.320312 17.957031 18.144531 L 19.71875 16.382812 C 20.070312 16.035156 20.070312 15.464844 19.71875 15.113281 Z M 19.71875 15.113281 "/>
<path style=" stroke:none;fill-rule:nonzero;fill:rgb(0%,0%,0%);fill-opacity:1;" d="M 40.257812 35.773438 C 40.089844 35.609375 39.855469 35.511719 39.621094 35.511719 C 39.386719 35.511719 39.152344 35.609375 38.984375 35.773438 C 38.820312 35.941406 38.722656 36.171875 38.722656 36.410156 C 38.722656 36.644531 38.820312 36.878906 38.984375 37.046875 C 39.152344 37.210938 39.386719 37.308594 39.621094 37.308594 C 39.855469 37.308594 40.089844 37.210938 40.257812 37.046875 C 40.421875 36.878906 40.519531 36.644531 40.519531 36.410156 C 40.519531 36.171875 40.421875 35.941406 40.257812 35.773438 Z M 40.257812 35.773438 "/>
<path style=" stroke:none;fill-rule:nonzero;fill:rgb(0%,0%,0%);fill-opacity:1;" d="M 29.207031 35.773438 C 29.039062 35.609375 28.808594 35.511719 28.570312 35.511719 C 28.335938 35.511719 28.101562 35.609375 27.933594 35.773438 C 27.769531 35.941406 27.671875 36.171875 27.671875 36.410156 C 27.671875 36.644531 27.769531 36.878906 27.933594 37.046875 C 28.101562 37.210938 28.335938 37.308594 28.570312 37.308594 C 28.808594 37.308594 29.039062 37.210938 29.207031 37.046875 C 29.371094 36.878906 29.46875 36.644531 29.46875 36.410156 C 29.46875 36.171875 29.371094 35.941406 29.207031 35.773438 Z M 29.207031 35.773438 "/>
</g>
</svg>
