<?xml version="1.0" encoding="UTF-8"?>
<svg xmlns="http://www.w3.org/2000/svg" xmlns:xlink="http://www.w3.org/1999/xlink" width="46pt" height="46pt" viewBox="0 0 46 46" version="1.1">
<g id="surface1">
<path style=" stroke:none;fill-rule:nonzero;fill:rgb(0%,0%,0%);fill-opacity:1;" d="M 10.78125 17.25 L 14.375 17.25 L 14.375 18.6875 L 10.78125 18.6875 Z M 10.78125 17.25 "/>
<path style=" stroke:none;fill-rule:nonzero;fill:rgb(0%,0%,0%);fill-opacity:1;" d="M 2.15625 44.5625 L 36.65625 44.5625 C 37.054688 44.5625 37.375 44.242188 37.375 43.84375 L 37.375 38.09375 C 37.375 37.695312 37.054688 37.375 36.65625 37.375 L 32.34375 37.375 L 32.34375 35.527344 C 33.132812 35.554688 33.925781 35.492188 34.703125 35.335938 C 37.605469 34.765625 40.078125 32.875 41.394531 30.222656 C 42.058594 28.894531 42.40625 27.425781 42.40625 25.9375 L 42.40625 12.21875 L 43.84375 12.21875 C 44.117188 12.21875 44.363281 12.066406 44.488281 11.820312 C 44.609375 11.578125 44.582031 11.285156 44.417969 11.070312 L 40.105469 5.320312 C 39.96875 5.136719 39.757812 5.03125 39.53125 5.03125 C 39.304688 5.03125 39.09375 5.136719 38.957031 5.320312 L 34.644531 11.070312 C 34.480469 11.285156 34.453125 11.578125 34.574219 11.820312 C 34.699219 12.066406 34.945312 12.21875 35.21875 12.21875 L 36.65625 12.21875 L 36.65625 19.398438 C 36.660156 21.003906 35.929688 22.523438 34.675781 23.519531 C 33.402344 24.539062 31.652344 24.726562 30.191406 23.996094 L 26.761719 22.28125 C 24.847656 21.324219 22.589844 21.324219 20.675781 22.28125 L 17.496094 23.871094 C 16.75 24.242188 15.929688 24.4375 15.09375 24.4375 C 14.257812 24.4375 13.4375 24.242188 12.695312 23.871094 L 9.257812 22.152344 C 8.828125 21.941406 8.375 21.78125 7.90625 21.683594 L 7.90625 17.363281 L 10.175781 15.8125 L 16.53125 15.8125 L 16.53125 14.375 L 12.273438 14.375 L 14.375 12.9375 L 24.4375 12.9375 L 26.539062 14.375 L 17.96875 14.375 L 17.96875 15.8125 L 28.636719 15.8125 L 30.738281 17.25 L 15.8125 17.25 L 15.8125 18.6875 L 30.90625 18.6875 L 30.90625 23 L 32.34375 23 L 32.34375 18.347656 L 32.65625 18.5625 C 32.816406 18.671875 33.011719 18.710938 33.199219 18.675781 C 33.386719 18.636719 33.554688 18.527344 33.660156 18.367188 L 35.097656 16.210938 C 35.3125 15.886719 35.234375 15.453125 34.917969 15.226562 L 30.90625 12.363281 L 30.90625 2.15625 C 30.90625 1.757812 30.585938 1.4375 30.1875 1.4375 L 25.875 1.4375 C 25.476562 1.4375 25.15625 1.757812 25.15625 2.15625 L 25.15625 8.253906 L 19.824219 4.445312 C 19.574219 4.269531 19.238281 4.269531 18.988281 4.445312 L 3.894531 15.226562 C 3.578125 15.453125 3.5 15.886719 3.714844 16.210938 L 5.152344 18.367188 C 5.257812 18.527344 5.425781 18.636719 5.613281 18.675781 C 5.800781 18.710938 5.996094 18.671875 6.15625 18.5625 L 6.46875 18.347656 L 6.46875 21.566406 C 5.304688 21.613281 4.183594 22.015625 3.253906 22.71875 L 2.300781 23.429688 C 2.050781 23.617188 1.75 23.71875 1.4375 23.71875 L 1.4375 25.15625 C 2.058594 25.15625 2.664062 24.953125 3.164062 24.582031 L 4.113281 23.867188 C 4.867188 23.300781 5.78125 22.996094 6.71875 23 L 6.757812 23 C 7.402344 23 8.039062 23.152344 8.617188 23.4375 L 12.050781 25.15625 C 12.996094 25.628906 14.035156 25.875 15.09375 25.875 C 16.152344 25.875 17.195312 25.628906 18.140625 25.15625 L 21.316406 23.566406 C 22.828125 22.8125 24.609375 22.8125 26.121094 23.566406 L 29.550781 25.28125 C 31.511719 26.261719 33.859375 26.011719 35.570312 24.644531 C 37.167969 23.371094 38.097656 21.441406 38.09375 19.398438 L 38.09375 11.5 C 38.09375 11.101562 37.773438 10.78125 37.375 10.78125 L 36.65625 10.78125 L 39.53125 6.949219 L 42.40625 10.78125 L 41.6875 10.78125 C 41.289062 10.78125 40.96875 11.101562 40.96875 11.5 L 40.96875 20.90625 C 40.96875 22.171875 40.671875 23.417969 40.109375 24.550781 C 38.992188 26.804688 36.886719 28.410156 34.417969 28.894531 C 32.65625 29.25 30.824219 29.046875 29.179688 28.316406 L 26.761719 27.238281 C 25.804688 26.8125 24.765625 26.59375 23.71875 26.59375 C 22.660156 26.59375 21.621094 26.839844 20.675781 27.3125 L 17.496094 28.902344 C 16.75 29.273438 15.929688 29.46875 15.09375 29.46875 C 14.257812 29.46875 13.4375 29.273438 12.695312 28.902344 L 9.257812 27.183594 C 8.480469 26.796875 7.625 26.59375 6.757812 26.59375 L 6.71875 26.59375 C 5.46875 26.589844 4.25 26.996094 3.253906 27.75 L 2.300781 28.460938 C 2.050781 28.648438 1.75 28.75 1.4375 28.75 L 1.4375 30.1875 C 2.058594 30.1875 2.664062 29.984375 3.164062 29.613281 L 4.113281 28.898438 C 4.867188 28.332031 5.78125 28.027344 6.71875 28.03125 L 6.757812 28.03125 C 7.402344 28.03125 8.039062 28.183594 8.617188 28.46875 L 12.050781 30.1875 C 12.996094 30.660156 14.035156 30.90625 15.09375 30.90625 C 16.152344 30.90625 17.195312 30.660156 18.140625 30.1875 L 21.316406 28.597656 C 22.0625 28.226562 22.886719 28.03125 23.71875 28.03125 C 24.566406 28.03125 25.402344 28.207031 26.179688 28.554688 L 28.597656 29.628906 C 30.511719 30.484375 32.644531 30.71875 34.703125 30.304688 C 37.304688 29.792969 39.578125 28.21875 40.96875 25.957031 C 40.964844 27.214844 40.671875 28.457031 40.109375 29.582031 C 38.992188 31.835938 36.886719 33.441406 34.417969 33.925781 C 32.65625 34.28125 30.824219 34.078125 29.179688 33.347656 L 26.761719 32.269531 C 25.804688 31.84375 24.765625 31.625 23.71875 31.625 C 22.660156 31.625 21.621094 31.871094 20.675781 32.34375 L 17.496094 33.933594 C 16.75 34.304688 15.929688 34.5 15.09375 34.5 C 14.257812 34.5 13.4375 34.304688 12.695312 33.933594 L 9.257812 32.214844 C 8.480469 31.828125 7.625 31.625 6.757812 31.625 L 6.71875 31.625 C 5.46875 31.621094 4.25 32.027344 3.253906 32.78125 L 2.300781 33.492188 C 2.050781 33.679688 1.75 33.78125 1.4375 33.78125 L 1.4375 35.21875 C 2.058594 35.21875 2.664062 35.015625 3.164062 34.644531 L 4.113281 33.929688 C 4.867188 33.363281 5.78125 33.058594 6.71875 33.0625 L 6.757812 33.0625 C 7.402344 33.0625 8.039062 33.214844 8.617188 33.5 L 12.050781 35.21875 C 12.996094 35.691406 14.035156 35.9375 15.09375 35.9375 C 16.152344 35.9375 17.195312 35.691406 18.140625 35.21875 L 21.316406 33.628906 C 22.0625 33.257812 22.886719 33.0625 23.71875 33.0625 C 24.566406 33.0625 25.402344 33.238281 26.179688 33.585938 L 28.597656 34.660156 C 29.335938 34.988281 30.109375 35.226562 30.90625 35.371094 L 30.90625 37.375 L 23.71875 37.375 C 23.320312 37.375 23 37.695312 23 38.09375 L 23 38.8125 L 16.53125 38.8125 L 16.53125 38.09375 C 16.53125 37.695312 16.210938 37.375 15.8125 37.375 L 7.90625 37.375 L 7.90625 34.5 L 6.46875 34.5 L 6.46875 37.375 L 2.15625 37.375 C 1.757812 37.375 1.4375 37.695312 1.4375 38.09375 L 1.4375 43.84375 C 1.4375 44.242188 1.757812 44.5625 2.15625 44.5625 Z M 16.476562 11.5 L 19.40625 9.496094 L 22.335938 11.5 Z M 26.59375 2.875 L 29.46875 2.875 L 29.46875 11.335938 L 26.59375 9.28125 Z M 5.945312 16.964844 L 5.296875 15.992188 L 19.40625 5.914062 L 33.515625 15.992188 L 32.867188 16.964844 L 19.8125 8.03125 C 19.566406 7.863281 19.246094 7.863281 19 8.03125 Z M 35.9375 43.125 L 28.03125 43.125 L 28.03125 38.8125 L 35.9375 38.8125 Z M 24.4375 38.8125 L 26.59375 38.8125 L 26.59375 43.125 L 24.4375 43.125 Z M 16.53125 43.125 L 16.53125 42.40625 L 23 42.40625 L 23 43.125 Z M 23 40.25 L 23 40.96875 L 16.53125 40.96875 L 16.53125 40.25 Z M 15.09375 43.125 L 12.9375 43.125 L 12.9375 38.8125 L 15.09375 38.8125 Z M 2.875 38.8125 L 11.5 38.8125 L 11.5 43.125 L 2.875 43.125 Z M 2.875 38.8125 "/>
</g>
</svg>
