<svg xmlns="http://www.w3.org/2000/svg" xmlns:xlink="http://www.w3.org/1999/xlink" width="46" height="46" viewBox="0 0 46 46"><defs><style>.a{fill:#1d1d1b;}.b{clip-path:url(#a);}</style><clipPath id="a"><rect class="a" width="46" height="46" transform="translate(177 367)"/></clipPath></defs><g class="b" transform="translate(-177 -367)"><g transform="translate(183 367)"><path class="a" d="M88.657,0H58.343A2.342,2.342,0,0,0,56,2.335v41.33A2.342,2.342,0,0,0,58.343,46H88.657A2.342,2.342,0,0,0,91,43.665V2.335A2.342,2.342,0,0,0,88.657,0ZM57.5,9.438H89.5V41.33H57.5ZM89.5,2.335V7.948H68.664V1.49H88.657A.847.847,0,0,1,89.5,2.335ZM58.343,1.49h8.825V7.948H57.5V2.335A.847.847,0,0,1,58.343,1.49ZM88.657,44.51H58.343a.847.847,0,0,1-.848-.844v-.844H89.5v.844A.847.847,0,0,1,88.657,44.51Z" transform="translate(-56)"/><path class="a" d="M131.159,128a11.048,11.048,0,1,0,11.159,11.048A11.116,11.116,0,0,0,131.159,128Zm0,20.609a9.562,9.562,0,1,1,9.658-9.562A9.621,9.621,0,0,1,131.159,148.609Z" transform="translate(-113.659 -115.251)"/><path class="a" d="M210.328,28.657A2.328,2.328,0,1,0,208,26.328,2.331,2.331,0,0,0,210.328,28.657Zm0-3.171a.842.842,0,1,1-.842.842A.843.843,0,0,1,210.328,25.486Z" transform="translate(-192.828 -21.622)"/><path class="a" d="M88.743,57.486H93.5A.743.743,0,1,0,93.5,56H88.743a.743.743,0,1,0,0,1.486Z" transform="translate(-84.829 -50.451)"/><path class="a" d="M272.743,41.486h2.378a.743.743,0,1,0,0-1.486h-2.378a.743.743,0,1,0,0,1.486Z" transform="translate(-250.444 -36.037)"/><path class="a" d="M328.743,41.486h2.378a.743.743,0,1,0,0-1.486h-2.378a.743.743,0,1,0,0,1.486Z" transform="translate(-300.828 -36.037)"/><path class="a" d="M159.877,160a7.877,7.877,0,1,0,7.877,7.877A7.886,7.886,0,0,0,159.877,160Zm0,14.268a6.391,6.391,0,1,1,6.391-6.391A6.4,6.4,0,0,1,159.877,174.268Z" transform="translate(-142.377 -144.081)"/></g></g></svg>