<svg xmlns="http://www.w3.org/2000/svg" xmlns:xlink="http://www.w3.org/1999/xlink" width="46" height="46" viewBox="0 0 46 46"><defs><style>.a{fill:#4c4c4c;}.b{clip-path:url(#a);}.c{fill:#1d1d1b;}</style><clipPath id="a"><rect class="a" width="46" height="46" transform="translate(617 -70)"/></clipPath></defs><g class="b" transform="translate(-617 70)"><g transform="translate(-6370.17 1431.83)"><path class="c" d="M7025.39-1500.83h-30.54a.687.687,0,0,0-.68.68v3.39a.687.687,0,0,0,.68.68h1.03l-.01,14.59a2.369,2.369,0,0,0,2.37,2.37h1.03l.01.17a23.3,23.3,0,0,0,.48,3.9l.04.18-.19.03a2.38,2.38,0,0,0-2.04,2.35v1.7a.67.67,0,0,0,.67.67h1.29l.03.13a11.878,11.878,0,0,0,4.6,6.89l.1.08-1.56,4.38a.686.686,0,0,0,.38.86l.03.01a.834.834,0,0,0,.22.03h13.58a.67.67,0,0,0,.67-.67.542.542,0,0,0-.04-.22l-1.56-4.39.1-.08a11.924,11.924,0,0,0,4.61-6.89l.03-.13H7022a.67.67,0,0,0,.67-.67v-1.7a2.379,2.379,0,0,0-2.05-2.35l-.18-.03.04-.18a23.2,23.2,0,0,0,.48-3.9v-.17H7022a2.375,2.375,0,0,0,2.37-2.37v-14.6h1.02a.679.679,0,0,0,.68-.67v-3.4A.7.7,0,0,0,7025.39-1500.83Zm-21.1,41.75,1.15-3.22.18.09a9.915,9.915,0,0,0,9,0l.18-.09,1.15,3.22Zm14.98-10.82a9.888,9.888,0,0,1-9.15,7.42,9.9,9.9,0,0,1-9.15-7.42l-.06-.23h18.42Zm2.06-2.59v1.02h-22.41v-1.02a1.033,1.033,0,0,1,1.02-1.03h20.36A1.042,1.042,0,0,1,7021.33-1472.49Zm-11.21-18.15c-4.46,0-7.46,5.61-7.46,10.85a19.19,19.19,0,0,0,.61,4.71l.06.22h-2.14l-.03-.14a22.057,22.057,0,0,1-.55-4.79c0-7.11,4.27-12.9,9.51-12.9s9.51,5.79,9.51,12.9a21.469,21.469,0,0,1-.55,4.79l-.03.14h-2.14l.06-.22a18.732,18.732,0,0,0,.61-4.71C7017.58-1485.03,7014.58-1490.64,7010.12-1490.64Zm6.11,10.85a17.292,17.292,0,0,1-.69,4.8l-.04.13h-10.76l-.03-.13a16.946,16.946,0,0,1-.7-4.8c0-3.88,2.17-9.51,6.11-9.51C7014.11-1489.3,7016.23-1483.77,7016.23-1479.79Zm6.79-1.7a1.018,1.018,0,0,1-1.02,1.02h-1.04v-.16c-.29-6.59-4.42-13.41-10.84-13.41s-10.54,6.82-10.84,13.41v.16h-1.04a1.024,1.024,0,0,1-1.02-1.02v-14.6h25.8Zm1.7-15.94h-29.19v-2.05h29.19Z"/></g></g></svg>