<svg xmlns="http://www.w3.org/2000/svg" xmlns:xlink="http://www.w3.org/1999/xlink" width="46" height="46" viewBox="0 0 46 46"><defs><style>.a{fill:none;}.b{clip-path:url(#a);}.c{fill:#1d1d1b;}</style><clipPath id="a"><rect class="a" width="46" height="46" transform="translate(157 417)"/></clipPath></defs><g class="b" transform="translate(-157 -417)"><g transform="translate(157 417)"><path class="c" d="M45.233,14.606H39.867a.768.768,0,0,0-.767.769v2.306H32.2v-.769a.768.768,0,0,0-.767-.769H28.367V12.3a.768.768,0,0,0-.767-.769H25.3V6.919h2.223l4.586.923a3.289,3.289,0,1,0,0-6.452l-4.586.917H25.3V.769A.768.768,0,0,0,24.533,0H21.467A.768.768,0,0,0,20.7.769V2.306H18.477l-4.586-.923A3.29,3.29,0,1,0,13.242,7.9a3.346,3.346,0,0,0,.649-.064l4.586-.917H20.7v4.613H18.4a.768.768,0,0,0-.767.769v3.844H14.567a.768.768,0,0,0-.767.769V18.45H9.967A9.992,9.992,0,0,0,0,28.444v4.613a.768.768,0,0,0,.767.769H8.433a.768.768,0,0,0,.767-.769V28.444a.768.768,0,0,1,.767-.769H13.8v1.538a.768.768,0,0,0,.767.769H31.433a.768.768,0,0,0,.767-.769v-.769h6.9V30.75a.768.768,0,0,0,.767.769h5.367A.767.767,0,0,0,46,30.75V15.375A.767.767,0,0,0,45.233,14.606ZM13.8,26.138H9.967a2.3,2.3,0,0,0-2.3,2.306v3.844H1.533V28.444a8.455,8.455,0,0,1,8.433-8.456H13.8ZM18.4,5.381a.692.692,0,0,0-.153.015l-4.659.934a1.752,1.752,0,1,1,0-3.436l4.659.934a.692.692,0,0,0,.153.015h3.833V1.538h1.533V3.844H27.6a.681.681,0,0,0,.153-.015l4.66-.934a1.752,1.752,0,1,1,0,3.436L27.753,5.4a.681.681,0,0,0-.153-.015Zm5.367,1.538v4.613H22.233V6.919Zm-4.6,6.15h7.667v3.075H19.167Zm11.5,15.375H15.333V17.681H30.667ZM39.1,26.906H32.2V19.219h6.9Zm5.367,3.075H40.633V16.144h3.833Z"/><g transform="translate(0.763 35.378)"><path class="c" d="M15.217,373.739,12.5,368.692a.793.793,0,0,0-1.341,0l-2.719,5.047a3.394,3.394,0,0,0,.076,3.379,3.8,3.8,0,0,0,3.313,1.826,3.8,3.8,0,0,0,3.313-1.826A3.394,3.394,0,0,0,15.217,373.739Zm-1.382,2.6a2.4,2.4,0,0,1-4.014,0,1.862,1.862,0,0,1-.041-1.877l2.048-3.8,2.048,3.8A1.862,1.862,0,0,1,13.835,376.337Z" transform="translate(-8.025 -368.322)"/></g></g></g></svg>