<svg xmlns="http://www.w3.org/2000/svg" xmlns:xlink="http://www.w3.org/1999/xlink" width="46" height="46" viewBox="0 0 46 46"><defs><style>.a{fill:#4c4c4c;}.b{clip-path:url(#a);}.c{fill:#1d1d1b;}</style><clipPath id="a"><rect class="a" width="46" height="46" transform="translate(275 3992)"/></clipPath></defs><g class="b" transform="translate(-275 -3992)"><g transform="translate(-3544.25 4354.75)"><path class="c" d="M3862.29-341.15a.592.592,0,0,0-.04-.17.3.3,0,0,0-.04-.08.587.587,0,0,0-.1-.12l-.08-.07a.38.38,0,0,1-.06-.05l-4.15-2.37.25-.23a2.443,2.443,0,0,0,.13-3.44,2.358,2.358,0,0,0-.72-.53l-6.55-3.28.86-2.14.71-.35.11.07a1.494,1.494,0,0,0,.74.2,1.4,1.4,0,0,0,.41-.05l6.67-1.91a2.6,2.6,0,0,0,1.78-3.2,2.592,2.592,0,0,0-2.49-1.88h-.8a2.58,2.58,0,0,0-1.62.57l-4.85,3.88a1.375,1.375,0,0,0-.52,1.08l-.01.15-.89.44a.623.623,0,0,0-.3.32l-.9,2.27-2.67-1.33a4.391,4.391,0,0,0-5.23,1.1l-7.43,8.91-12.79,3.41c-.01.01-.04.02-.07.04l-.12.06a.47.47,0,0,0-.18.19.7.7,0,0,0-.08.26l-.01.08v12.09a.614.614,0,0,0,.31.53l12.12,6.93a.65.65,0,0,0,.31.08.671.671,0,0,0,.18-.03l27.71-8.66a.6.6,0,0,0,.43-.58v-12.13C3862.3-341.07,3862.29-341.11,3862.29-341.15Zm-4.21-18.07a1.369,1.369,0,0,1,.84-.3h.8a1.377,1.377,0,0,1,1.36,1.37,1.381,1.381,0,0,1-.99,1.3l-6.53,1.86v-.26a.01.01,0,0,1-.01-.01l-.18-.19Zm-15.2,7.73a3.051,3.051,0,0,1,2.36-1.1,3.14,3.14,0,0,1,1.38.32l2.75,1.38-.29.73-8.48,5.09a.584.584,0,0,0-.28.37.639.639,0,0,0,.06.47.629.629,0,0,0,.53.3h.01a.586.586,0,0,0,.31-.09l8.66-5.19a.664.664,0,0,0,.25-.3l.33-.84,6.47,3.23a1.3,1.3,0,0,1,.62.72,1.251,1.251,0,0,1-.07.95,1.243,1.243,0,0,1-.8.65l-.49.11-23.99,6.01Zm-9.51,30.12-10.89-6.22v-10.7l10.89,6.22Zm.69-11.73-.09-.05-10.5-5.99,9.67-2.58-3.09,3.7a.671.671,0,0,0-.14.45.6.6,0,0,0,.22.42.617.617,0,0,0,.54.12l3.01-.75,2.59,1.55a.615.615,0,0,0,.86-.18.614.614,0,0,0-.19-.85l-1.56-.94,4.01-1,2.08,1.24a.607.607,0,0,0,.83-.23.621.621,0,0,0-.2-.83l-1.01-.6,4.01-1.01,1.57.94a.636.636,0,0,0,.75-.09.6.6,0,0,0,.17-.44.591.591,0,0,0-.29-.52l-.5-.31,4.01-1,1.05.63a.584.584,0,0,0,.46.08.616.616,0,0,0,.38-.27.61.61,0,0,0,.02-.6l-.15-.28,3.77-.95,3.83,2.19Zm27.02,3.68-.18.06-26.3,8.22v-10.84l.18-.05,26.3-8.22Z"/></g></g></svg>