<svg xmlns="http://www.w3.org/2000/svg" xmlns:xlink="http://www.w3.org/1999/xlink" width="46" height="46" viewBox="0 0 46 46"><defs><style>.a{fill:#4c4c4c;}.b{clip-path:url(#a);}.c{fill:#1d1d1b;}</style><clipPath id="a"><rect class="a" width="46" height="46" transform="translate(270 3914)"/></clipPath></defs><g class="b" transform="translate(-270 -3914)"><g transform="translate(-3266.66 4258.34)"><path class="c" d="M3552.679-302.8a4.574,4.574,0,0,0-4.574-4.57,4.553,4.553,0,0,0-.905.091,4.444,4.444,0,0,0-.682.208c-.05.018-.1.027-.153.047a4.581,4.581,0,0,0-1.424.935l0,0h0a4.552,4.552,0,0,0-1.125,1.762,4.531,4.531,0,0,0-.152.486c-.022.091-.038.184-.053.278a4.27,4.27,0,0,0-.077.766h0v.005a4.574,4.574,0,0,0,4.574,4.57,4.561,4.561,0,0,0,.905-.091,4.441,4.441,0,0,0,.682-.208c.05-.018.1-.027.153-.047a4.568,4.568,0,0,0,1.426-.936h0a4.556,4.556,0,0,0,1.126-1.761,4.554,4.554,0,0,0,.152-.487c.022-.091.037-.184.053-.278a4.248,4.248,0,0,0,.078-.766h0Zm-1.551,1.282a3.282,3.282,0,0,1-3.023,2h0a3.281,3.281,0,0,1-3.281-3.281,3.246,3.246,0,0,1,.412-1.561,3.267,3.267,0,0,1,2.869-1.72h0a3.281,3.281,0,0,1,3.281,3.281A3.281,3.281,0,0,1,3551.128-301.516Z" transform="translate(-0.579 -4.589)"/><path class="c" d="M3569.16-317.539a1.709,1.709,0,0,0,2.416,0l8.746-8.748a1.711,1.711,0,0,0,0-2.416,4.393,4.393,0,0,0-6.2,0h0l-.532.532-11.125-11.123A12.589,12.589,0,0,0,3553.5-343a12.672,12.672,0,0,0-12.676,12.668,12.667,12.667,0,0,0,3.712,8.966l.379.38a11.628,11.628,0,0,0-4.328,8.663.829.829,0,0,0-.053.088c.014-.008.03-.01.043-.017a8.448,8.448,0,0,0-1.544,4.873,8.491,8.491,0,0,0,8.491,8.491c.254,0,.5-.017.752-.038l-.022.026a8.523,8.523,0,0,0,1.513-.257h21.393a3.458,3.458,0,0,0,3.454-3.462,3.539,3.539,0,0,0-.022-.381,22.422,22.422,0,0,0-3.485-9.96c-4.322-6.568-11.482-9.3-15.367-10.339a11.648,11.648,0,0,0-2.237-.371,11.572,11.572,0,0,0-3.245.241l-1.83-1.83a7.17,7.17,0,0,1,0-10.14,7.171,7.171,0,0,1,10.14,0l8.679,8.679,0,.005,2.439,2.439-.532.532A4.387,4.387,0,0,0,3569.16-317.539Zm-28.905,10.158a7.279,7.279,0,0,1,7.271-7.272,7.28,7.28,0,0,1,7.271,7.272,7.279,7.279,0,0,1-7.271,7.271A7.279,7.279,0,0,1,3540.255-307.38Zm13.857-14.931a10.3,10.3,0,0,1,1.3.261c3.619.971,10.213,3.467,14.326,9.368l-.586.586a2.92,2.92,0,0,1-4.128-.01l-.022-.023a23.729,23.729,0,0,0-8.954-5.519,2.928,2.928,0,0,1-1.936-2.743Zm-1.293-.091v2.011a4.225,4.225,0,0,0,2.788,3.959,22.441,22.441,0,0,1,8.469,5.206,4.212,4.212,0,0,0,5.956.072l.031-.031.391-.391a21.358,21.358,0,0,1,2.853,8.717,2.163,2.163,0,0,1-1.9,2.393,2.04,2.04,0,0,1-.242.014h-18.4a1.134,1.134,0,0,1-.188,0h-.089l.008-.006c-.014,0-.027-.01-.041-.013a8.475,8.475,0,0,0,3.566-6.908,8.491,8.491,0,0,0-8.491-8.492,8.436,8.436,0,0,0-4.363,1.217l.029-.043a8.323,8.323,0,0,0-1.122.772A10.236,10.236,0,0,1,3544-318.2a10.464,10.464,0,0,1,5.9-3.8A10.374,10.374,0,0,1,3552.819-322.4Zm6.666-13.911a8.473,8.473,0,0,0-11.967,0,8.465,8.465,0,0,0,0,11.968l1.307,1.307c-.05.015-.307.1-.566.188a11.528,11.528,0,0,0-2.272,1.1l-.532-.532a11.385,11.385,0,0,1,0-16.1,11.384,11.384,0,0,1,16.1,0l4.595,4.595-2.066,2.065Zm9.489,9.489,0-.005-3.976-3.974,2.065-2.065,5.612,5.612-2.065,2.065Zm1.1,3.994,4.958-4.958a3.1,3.1,0,0,1,4.376,0,.415.415,0,0,1,0,.587l-8.747,8.747a.415.415,0,0,1-.587,0A3.094,3.094,0,0,1,3570.075-322.83Z" transform="translate(0 0)"/></g></g></svg>