<svg xmlns="http://www.w3.org/2000/svg" xmlns:xlink="http://www.w3.org/1999/xlink" width="46" height="46" viewBox="0 0 46 46"><defs><style>.a{fill:#4c4c4c;}.b{clip-path:url(#a);}.c{fill:#1d1d1b;}</style><clipPath id="a"><rect class="a" width="46" height="46" transform="translate(218 3828)"/></clipPath></defs><g class="b" transform="translate(-218 -3828)"><g transform="translate(-3230.274 4106.646)"><path class="c" d="M3465.925-272.136h3.231a.625.625,0,0,0,.625-.626.626.626,0,0,0-.625-.627h-3.231a.627.627,0,0,0-.626.627A.626.626,0,0,0,3465.925-272.136Z" transform="translate(4.15 0.544)"/><path class="c" d="M3490.317-260.071l-2.154-8.879a4.741,4.741,0,0,0-2.607-3.039c-1.492-.634-6.209-2.425-7.391-2.878a.628.628,0,0,0-.395-.134h-12.236l-.031.007-.027.007-.031.009h-.016c-.244.092-5.979,2.26-7.653,2.972a4.736,4.736,0,0,0-2.6,3.018v.02l-1.535,6.327-.624,2.569a.625.625,0,0,0,.377.73l6.152,2.446v20.936a.626.626,0,0,0,.626.626h22.984a.626.626,0,0,0,.625-.626v-12.933h0v-8l6.152-2.446A.626.626,0,0,0,3490.317-260.071Zm-3.409-8.693.011.033.007.023v.04l1.405,5.791-4.567,1.915v-3.723h.019l2.844-4.706A3.763,3.763,0,0,1,3486.908-268.764Zm-9.79-4.983a5.908,5.908,0,0,1-5.406,5.688,5.909,5.909,0,0,1-5.406-5.688Zm-22.75,13.443.318-1.323,4.866,2.041v1.341Zm5.189-.645-4.571-1.915,1.4-5.788a3.455,3.455,0,0,1,.318-.738l2.849,4.7Zm-2-9.459a3.018,3.018,0,0,1,.717-.428c1.282-.544,5.127-2.006,6.806-2.649.4,3.7,3.277,6.679,6.636,6.679s6.218-2.96,6.631-6.647c1.721.654,5.459,2.081,6.72,2.617a3.018,3.018,0,0,1,.714.428l-3.16,5.224a.627.627,0,0,0-.091.324v25.729H3460.8V-264.86a.629.629,0,0,0-.091-.324Zm24.975,33.823H3460.8v-1.293h21.726Zm1.252-21.658v-1.347l4.867-2.037.322,1.327Z" transform="translate(0 0)"/></g></g></svg>