<?xml version="1.0" encoding="UTF-8"?>
<svg xmlns="http://www.w3.org/2000/svg" xmlns:xlink="http://www.w3.org/1999/xlink" width="46pt" height="46pt" viewBox="0 0 46 46" version="1.1">
<g id="surface1">
<path style=" stroke:none;fill-rule:nonzero;fill:rgb(0%,0%,0%);fill-opacity:1;" d="M 33.910156 18.90625 L 38.964844 18.90625 C 39.363281 20.445312 40.765625 21.582031 42.425781 21.582031 C 44.394531 21.582031 46 19.980469 46 18.007812 C 46 16.039062 44.394531 14.433594 42.425781 14.433594 C 40.765625 14.433594 39.363281 15.574219 38.964844 17.109375 L 33.910156 17.109375 L 33.910156 14.097656 C 33.910156 11.90625 32.128906 10.125 29.9375 10.125 L 10.382812 10.125 C 10.425781 9.261719 11.136719 8.574219 12.007812 8.574219 L 38.964844 8.574219 C 39.363281 10.113281 40.765625 11.25 42.425781 11.25 C 44.394531 11.25 46 9.648438 46 7.675781 C 46 5.703125 44.394531 4.101562 42.425781 4.101562 C 40.765625 4.101562 39.363281 5.238281 38.964844 6.777344 L 12.007812 6.777344 C 10.144531 6.777344 8.625 8.273438 8.585938 10.125 L 3.976562 10.125 C 1.78125 10.125 0 11.90625 0 14.097656 L 0 33.207031 C 0 35.398438 1.78125 37.183594 3.976562 37.183594 L 13.46875 37.183594 L 13.144531 40.101562 L 10.953125 40.101562 C 10.457031 40.101562 10.054688 40.503906 10.054688 41 C 10.054688 41.496094 10.457031 41.898438 10.953125 41.898438 L 22.945312 41.898438 C 23.441406 41.898438 23.84375 41.496094 23.84375 41 C 23.84375 40.503906 23.441406 40.101562 22.945312 40.101562 L 20.75 40.101562 L 20.425781 37.183594 L 29.9375 37.183594 C 32.128906 37.183594 33.910156 35.398438 33.910156 33.207031 C 33.910156 31.671875 33.910156 28.671875 33.910156 27.246094 L 38.964844 27.246094 C 39.363281 28.785156 40.765625 29.921875 42.425781 29.921875 C 44.394531 29.921875 46 28.320312 46 26.347656 C 46 24.378906 44.394531 22.773438 42.425781 22.773438 C 40.765625 22.773438 39.363281 23.910156 38.964844 25.449219 L 33.910156 25.449219 Z M 42.425781 16.230469 C 43.40625 16.230469 44.203125 17.027344 44.203125 18.007812 C 44.203125 18.988281 43.40625 19.785156 42.425781 19.785156 C 41.445312 19.785156 40.648438 18.988281 40.648438 18.007812 C 40.648438 17.027344 41.445312 16.230469 42.425781 16.230469 Z M 42.425781 5.898438 C 43.40625 5.898438 44.203125 6.695312 44.203125 7.675781 C 44.203125 8.65625 43.40625 9.453125 42.425781 9.453125 C 41.445312 9.453125 40.648438 8.65625 40.648438 7.675781 C 40.648438 6.695312 41.445312 5.898438 42.425781 5.898438 Z M 42.425781 24.570312 C 43.40625 24.570312 44.203125 25.367188 44.203125 26.347656 C 44.203125 27.328125 43.40625 28.125 42.425781 28.125 C 41.445312 28.125 40.648438 27.328125 40.648438 26.347656 C 40.648438 25.367188 41.445312 24.570312 42.425781 24.570312 Z M 18.941406 40.101562 L 14.953125 40.101562 L 15.277344 37.183594 L 18.617188 37.183594 Z M 32.113281 30.585938 L 29.140625 30.585938 C 28.644531 30.585938 28.242188 30.988281 28.242188 31.484375 C 28.242188 31.980469 28.644531 32.382812 29.140625 32.382812 L 32.113281 32.382812 L 32.113281 33.207031 C 32.113281 34.410156 31.136719 35.386719 29.9375 35.386719 C 29.035156 35.386719 5.242188 35.386719 3.976562 35.386719 C 2.773438 35.386719 1.796875 34.410156 1.796875 33.207031 L 1.796875 32.382812 L 21.953125 32.382812 C 22.449219 32.382812 22.851562 31.980469 22.851562 31.484375 C 22.851562 30.988281 22.449219 30.585938 21.953125 30.585938 L 1.796875 30.585938 L 1.796875 14.097656 C 1.796875 12.898438 2.773438 11.921875 3.976562 11.921875 L 8.582031 11.921875 L 8.582031 15.0625 L 5.828125 15.0625 C 4.507812 15.0625 3.4375 16.136719 3.4375 17.457031 L 3.4375 26.746094 C 3.4375 28.0625 4.507812 29.136719 5.828125 29.136719 L 13.136719 29.136719 C 14.453125 29.136719 15.527344 28.0625 15.527344 26.746094 L 15.527344 17.457031 C 15.527344 16.136719 14.453125 15.0625 13.136719 15.0625 L 10.378906 15.0625 L 10.378906 11.921875 L 29.9375 11.921875 C 31.136719 11.921875 32.113281 12.898438 32.113281 14.097656 L 32.113281 17.109375 L 30.472656 17.109375 C 30.472656 15.980469 29.550781 15.0625 28.421875 15.0625 L 18.734375 15.0625 C 17.605469 15.0625 16.683594 15.984375 16.683594 17.113281 L 16.683594 18.902344 C 16.683594 20.035156 17.605469 20.953125 18.734375 20.953125 L 28.421875 20.953125 C 29.550781 20.953125 30.472656 20.035156 30.472656 18.90625 L 32.113281 18.90625 L 32.113281 25.449219 L 30.46875 25.449219 C 30.382812 24.394531 29.5 23.558594 28.421875 23.558594 L 18.734375 23.558594 C 17.605469 23.558594 16.683594 24.480469 16.683594 25.609375 L 16.683594 27.085938 C 16.683594 28.214844 17.605469 29.136719 18.734375 29.136719 L 28.421875 29.136719 C 29.5 29.136719 30.382812 28.300781 30.46875 27.246094 L 32.113281 27.246094 Z M 13.136719 16.859375 C 13.464844 16.859375 13.730469 17.128906 13.730469 17.457031 L 13.730469 26.746094 C 13.730469 27.074219 13.464844 27.339844 13.136719 27.339844 L 5.828125 27.339844 C 5.5 27.339844 5.234375 27.074219 5.234375 26.746094 L 5.234375 17.457031 C 5.234375 17.128906 5.5 16.859375 5.828125 16.859375 Z M 28.675781 17.113281 L 28.675781 18.902344 C 28.675781 19.042969 28.5625 19.15625 28.421875 19.15625 L 18.734375 19.15625 C 18.59375 19.15625 18.480469 19.042969 18.480469 18.902344 L 18.480469 17.113281 C 18.480469 16.976562 18.59375 16.859375 18.734375 16.859375 L 28.421875 16.859375 C 28.5625 16.859375 28.675781 16.976562 28.675781 17.113281 Z M 28.675781 25.609375 L 28.675781 27.085938 C 28.675781 27.226562 28.5625 27.339844 28.421875 27.339844 L 18.734375 27.339844 C 18.59375 27.339844 18.480469 27.226562 18.480469 27.085938 L 18.480469 25.609375 C 18.480469 25.472656 18.59375 25.355469 18.734375 25.355469 L 28.421875 25.355469 C 28.5625 25.355469 28.675781 25.472656 28.675781 25.609375 Z M 28.675781 25.609375 "/>
<path style=" stroke:none;fill-rule:nonzero;fill:rgb(0%,0%,0%);fill-opacity:1;" d="M 18.183594 33.03125 L 15.726562 33.03125 C 15.230469 33.03125 14.828125 33.433594 14.828125 33.929688 C 14.828125 34.425781 15.230469 34.828125 15.726562 34.828125 L 18.183594 34.828125 C 18.679688 34.828125 19.082031 34.425781 19.082031 33.929688 C 19.082031 33.433594 18.679688 33.03125 18.183594 33.03125 Z M 18.183594 33.03125 "/>
<path style=" stroke:none;fill-rule:nonzero;fill:rgb(0%,0%,0%);fill-opacity:1;" d="M 7.3125 24.921875 C 7.707031 25.222656 8.269531 25.152344 8.574219 24.757812 L 9.480469 23.574219 L 10.390625 24.757812 C 10.695312 25.152344 11.257812 25.222656 11.652344 24.921875 C 12.042969 24.621094 12.117188 24.054688 11.816406 23.664062 L 10.613281 22.101562 L 11.816406 20.539062 C 12.117188 20.144531 12.042969 19.582031 11.652344 19.277344 C 11.257812 18.976562 10.695312 19.050781 10.390625 19.441406 L 9.480469 20.625 L 8.574219 19.441406 C 8.269531 19.050781 7.707031 18.976562 7.3125 19.277344 C 6.917969 19.582031 6.84375 20.144531 7.148438 20.539062 L 8.347656 22.101562 L 7.148438 23.660156 C 6.84375 24.054688 6.917969 24.621094 7.3125 24.921875 Z M 7.3125 24.921875 "/>
<path style=" stroke:none;fill-rule:nonzero;fill:rgb(0%,0%,0%);fill-opacity:1;" d="M 25.546875 30.585938 C 25.050781 30.585938 24.648438 30.988281 24.648438 31.484375 C 24.648438 31.980469 25.050781 32.382812 25.546875 32.382812 C 26.042969 32.382812 26.445312 31.980469 26.445312 31.484375 C 26.445312 30.988281 26.042969 30.585938 25.546875 30.585938 Z M 25.546875 30.585938 "/>
</g>
</svg>
