<svg xmlns="http://www.w3.org/2000/svg" xmlns:xlink="http://www.w3.org/1999/xlink" width="46" height="46" viewBox="0 0 46 46"><defs><style>.a{fill:#4c4c4c;}.b{clip-path:url(#a);}.c{fill:#1d1d1b;}</style><clipPath id="a"><rect class="a" width="46" height="46" transform="translate(2646 230)"/></clipPath></defs><g class="b" transform="translate(-2646 -230)"><g transform="translate(2263.771 745.62)"><path class="c" d="M424.577-504.38a10.37,10.37,0,0,0-8.558-8.555,9.96,9.96,0,0,0-1.193-.127l.012-.037-.886.031a10.4,10.4,0,0,0-6.4,2.5,9.87,9.87,0,0,0-1.109,1.109l-.025.028-.006.006L388.58-491.558a10.143,10.143,0,0,0-1.379,1.351,1.929,1.929,0,0,0-.124.155,10.374,10.374,0,0,0-2.327,6.547,10.406,10.406,0,0,0,10.393,10.393,10.5,10.5,0,0,0,7.087-2.789,8.875,8.875,0,0,0,.747-.781l0,0,18.167-18.167c.208-.18.4-.356.576-.539.146-.149.288-.3.424-.462h0l0,0,.027-.027h0v0a10.624,10.624,0,0,0,1.162-1.639,10.35,10.35,0,0,0,1.038-2.529,12.134,12.134,0,0,0,.344-2.606A8.6,8.6,0,0,0,424.577-504.38Zm-23.193,27.572a9.24,9.24,0,0,1-6.241,2.457,9.165,9.165,0,0,1-9.153-9.153,9.165,9.165,0,0,1,2-5.7l1.435-1.435a9.1,9.1,0,0,1,4.127-1.875,8.871,8.871,0,0,1,1.543-.133,9.3,9.3,0,0,1,5.7,1.943,9.256,9.256,0,0,1,1,.911,9.082,9.082,0,0,1,2.429,6.293A9.147,9.147,0,0,1,401.383-476.809Zm22.1-25.892a10.847,10.847,0,0,1-.3,2.339,9.05,9.05,0,0,1-.914,2.225,9.408,9.408,0,0,1-1,1.416c-.006.006-.012.009-.015.016l-.936.939c-.006,0-.009.009-.015.016l-3.04,3.04-12.243,12.243a10.8,10.8,0,0,0,.437-3.037,10.317,10.317,0,0,0-2.767-7.142,10.29,10.29,0,0,0-1.134-1.038,10.522,10.522,0,0,0-9.3-1.8L404.349-505.6l2.978-2.984-.229-.226.239.217,1.044-1.047a9.044,9.044,0,0,1,5.615-2.188l-.012-.335.034.053.009.282a9.359,9.359,0,0,1,1.791.115,9.14,9.14,0,0,1,7.539,7.536A7.8,7.8,0,0,1,423.486-502.7Z" transform="translate(0)"/><path class="c" d="M408.151-437.508a8.037,8.037,0,0,0-5.909-5.906,8.125,8.125,0,0,0-3.192-.139,8.077,8.077,0,0,0-2.466.812l-.335.177v.009a8.039,8.039,0,0,0-4.019,6.981,8.085,8.085,0,0,0,8.075,8.078,8.037,8.037,0,0,0,6.984-4.022h.012l.174-.332a8.062,8.062,0,0,0,.812-2.47,8.152,8.152,0,0,0,.1-1.255A8.057,8.057,0,0,0,408.151-437.508Zm-4.781-4.174c.093.047.186.1.276.149a.063.063,0,0,1,.025.012,6.658,6.658,0,0,1,1.709,1.373,7.072,7.072,0,0,1,.671.874c.1.148.187.3.271.453.044.081.16.434.231.466a6.765,6.765,0,0,1-3.465-3.464C403.184-441.775,403.277-441.729,403.37-441.682Zm-3.325-.722c.17-.006.341-.009.511,0,.05,0,.1,0,.149.006.084,0,.167.009.254.019.1.009.2.022.3.034s.22.034.328.056h0a8.019,8.019,0,0,0,5.427,5.424v0c.022.115.04.226.056.341.016.1.025.2.034.3.009.084.016.17.019.254,0,.05.006.1.009.152,0,.081,0,.161,0,.242s0,.177-.006.266c0,.059,0,.121-.009.183s-.006.1-.012.153c-.2.018-.4.029-.6.029a6.845,6.845,0,0,1-6.836-6.839c0-.2.011-.4.029-.6a1.213,1.213,0,0,1,.147-.009C399.918-442.4,399.98-442.4,400.045-442.4Zm-2.485.567.043-.019c.009,0,.019-.009.028-.012.071-.031.146-.059.22-.087a.712.712,0,0,1,.087-.034c.028-.012.059-.022.087-.031.068-.025.133-.046.2-.068l.034-.009q.093-.033.186-.056l.007,0c-.006.125-.015.25-.015.374a8.086,8.086,0,0,0,8.075,8.078c.126,0,.25-.009.375-.015v.006a.057.057,0,0,1-.006.022q-.065.232-.149.456c-.028.084-.059.164-.093.245a.011.011,0,0,0,0,.009c-.015.037-.031.071-.046.105-.034.084-.071.167-.112.248l-.016.028v0a6.735,6.735,0,0,1-2.978.682,6.846,6.846,0,0,1-6.836-6.839,6.791,6.791,0,0,1,.685-2.978C397.408-441.769,397.482-441.8,397.56-441.837Zm7.48,11.2-.019.019q-.116.112-.232.214a.043.043,0,0,0-.012.009c-.081.071-.164.139-.248.2a6.936,6.936,0,0,1-10.053-1.815,6.93,6.93,0,0,1,.123-7.333,6.459,6.459,0,0,1,.8-.991c.068-.074.143-.146.217-.214a8.073,8.073,0,0,0-.2,1.791,8.087,8.087,0,0,0,8.075,8.078,8.265,8.265,0,0,0,1.791-.2C405.2-430.794,405.12-430.716,405.04-430.639Z" transform="translate(-5.162 -47.93)"/></g></g></svg>