<svg xmlns="http://www.w3.org/2000/svg" xmlns:xlink="http://www.w3.org/1999/xlink" width="46" height="46" viewBox="0 0 46 46"><defs><style>.a{fill:#4c4c4c;}.b{clip-path:url(#a);}.c{fill:#1d1d1b;}</style><clipPath id="a"><rect class="a" width="46" height="46" transform="translate(267 1062)"/></clipPath></defs><g class="b" transform="translate(-267 -1062)"><g transform="translate(267 1058.327)"><g transform="translate(0 13.013)"><path class="c" d="M42.406,40.307H3.594A3.6,3.6,0,0,1,0,36.713V16.607a3.6,3.6,0,0,1,3.594-3.594H42.406A3.6,3.6,0,0,1,46,16.607V36.714A3.6,3.6,0,0,1,42.406,40.307ZM3.594,14.451a2.159,2.159,0,0,0-2.156,2.156V36.714A2.159,2.159,0,0,0,3.594,38.87H42.406a2.159,2.159,0,0,0,2.156-2.156V16.607a2.159,2.159,0,0,0-2.156-2.156Z" transform="translate(0 -13.013)"/><path class="c" d="M42.218,37.681H7.72A.718.718,0,0,1,7,36.962V19.731a.718.718,0,0,1,.719-.719h34.5a.718.718,0,0,1,.719.719V36.963A.718.718,0,0,1,42.218,37.681ZM8.438,36.243H41.5V20.449H8.438Z" transform="translate(-1.969 -14.7)"/><path class="c" d="M34.771,31.922a.718.718,0,0,1-.719-.719V25.451H25.426V31.2a.719.719,0,1,1-1.437,0V24.733a.718.718,0,0,1,.719-.719H34.771a.718.718,0,0,1,.719.719V31.2A.719.719,0,0,1,34.771,31.922Z" transform="translate(-6.747 -16.107)"/><path class="c" d="M31.737,38.891H28.864a.718.718,0,0,1-.719-.719v-.717H26.7a.719.719,0,1,1,0-1.437h2.159a.718.718,0,0,1,.719.719v.717h1.436v-.717a.718.718,0,0,1,.719-.719H33.9a.719.719,0,0,1,0,1.438H32.456v.717A.719.719,0,0,1,31.737,38.891Z" transform="translate(-7.309 -19.483)"/><path class="c" d="M34.768,34.454H24.7a.719.719,0,0,1,0-1.437h10.07a.719.719,0,0,1,0,1.438Z" transform="translate(-6.744 -18.639)"/><path class="c" d="M28.707,26.172a.718.718,0,0,1-.719-.719v-.72a.719.719,0,0,1,1.438,0v.72A.719.719,0,0,1,28.707,26.172Z" transform="translate(-7.872 -16.107)"/><path class="c" d="M31.707,26.172a.718.718,0,0,1-.719-.719v-.72a.719.719,0,0,1,1.437,0v.72A.719.719,0,0,1,31.707,26.172Z" transform="translate(-8.715 -16.107)"/><path class="c" d="M34.707,26.172a.718.718,0,0,1-.719-.719v-.72a.719.719,0,1,1,1.438,0v.72A.719.719,0,0,1,34.707,26.172Z" transform="translate(-9.559 -16.107)"/><path class="c" d="M26.7,36.328a.718.718,0,0,1-.719-.719V33.736a.719.719,0,0,1,1.438,0V35.61A.718.718,0,0,1,26.7,36.328Z" transform="translate(-7.309 -18.639)"/><path class="c" d="M36.709,36.611a.718.718,0,0,1-.719-.719V33.736a.719.719,0,0,1,1.438,0v2.157A.719.719,0,0,1,36.709,36.611Z" transform="translate(-10.122 -18.639)"/><path class="c" d="M17.753,35.517H12.721A.718.718,0,0,1,12,34.8V24.735a.718.718,0,0,1,.719-.719h5.032a.718.718,0,0,1,.719.719V34.8A.719.719,0,0,1,17.753,35.517ZM13.44,34.079h3.594V25.453H13.44Z" transform="translate(-3.376 -16.108)"/><path class="c" d="M18.878,34.2H16.722A.718.718,0,0,1,16,33.485v-5.75a.718.718,0,0,1,.719-.719h2.156a.718.718,0,0,1,.719.719v5.75A.719.719,0,0,1,18.878,34.2Zm-1.437-1.437h.719V28.453h-.719Z" transform="translate(-4.501 -16.951)"/><path class="c" d="M48.748,35.517H43.716A.718.718,0,0,1,43,34.8V24.735a.718.718,0,0,1,.719-.719h5.032a.718.718,0,0,1,.719.719V34.8A.719.719,0,0,1,48.748,35.517Zm-4.313-1.437h3.594V25.453H44.435Z" transform="translate(-12.093 -16.108)"/><path class="c" d="M45.872,34.2H43.716A.718.718,0,0,1,43,33.486v-5.75a.718.718,0,0,1,.719-.719h2.156a.718.718,0,0,1,.719.719v5.75A.719.719,0,0,1,45.872,34.2Zm-1.437-1.437h.719V28.454h-.719Z" transform="translate(-12.093 -16.952)"/><path class="c" d="M4.74,18.451a.719.719,0,0,1-.008-1.437H4.74a.719.719,0,0,1,0,1.438Z" transform="translate(-1.13 -14.138)"/><path class="c" d="M4.74,46.452a.719.719,0,0,1-.008-1.437H4.74a.719.719,0,0,1,0,1.438Z" transform="translate(-1.13 -22.014)"/><path class="c" d="M58.747,18.451a.719.719,0,0,1-.008-1.437h.008a.719.719,0,0,1,0,1.438Z" transform="translate(-16.32 -14.138)"/><path class="c" d="M58.747,46.452a.719.719,0,0,1-.008-1.437h.008a.719.719,0,0,1,0,1.438Z" transform="translate(-16.32 -22.014)"/></g></g></g></svg>