<svg xmlns="http://www.w3.org/2000/svg" xmlns:xlink="http://www.w3.org/1999/xlink" width="80" height="80" viewBox="0 0 80 80"><defs><style>.a{fill:#ffdc00;}.b{clip-path:url(#a);}.c{fill:#1d1d1b;}</style><clipPath id="a"><rect class="a" width="80" height="80" transform="translate(-11584 3822)"/></clipPath></defs><g class="b" transform="translate(11584 -3822)"><path class="c" d="M268.98,541.592v0a2.688,2.688,0,0,0-.028-.389c0-.01-.01-.029-.01-.038a2.729,2.729,0,0,0-.427-1.121,1.752,1.752,0,0,0-.181-.257,2.884,2.884,0,0,0-.874-.712c-.057-.029-.114-.057-.18-.086a2.461,2.461,0,0,0-.684-.2v-.047H195.83a2.2,2.2,0,0,0-.437.038,3.99,3.99,0,0,0-.456.114,2.561,2.561,0,0,0-.817.418l-.2.171a2.8,2.8,0,0,0-.9,1.682v.038a1.8,1.8,0,0,0-.038.389v70.3h0v0a2.828,2.828,0,0,0,.941,2.109l.01.009v0a2.9,2.9,0,0,0,.817.513h.01a2.711,2.711,0,0,0,1.073.218h70.3a2.711,2.711,0,0,0,1.073-.218h.01a.465.465,0,0,0,.067-.029,2.93,2.93,0,0,0,1.054-.807h0v0a2.822,2.822,0,0,0,.646-1.8v-70.3Zm-2.125,5v17.451l-7.4-4.28v-9.187Zm-.009,60.266-8.4,4.69-8-4.6v-9.329l8.047-4.645,8.373,4.645Zm-44.644,4.69-7.99-4.6v-9.329l8.037-4.645,8.113,4.684v9.2Zm-17.233-60.857,8.2-4.731,8.027,4.56v9.243l-8.113,4.683-8.113-4.683Zm26.362-4.779,7.932,4.569v9.377l-7.932,4.589-8.113-4.683v-9.187Zm35.533,49.381-7.413-4.133v-9.177l7.413-4.133Zm-71.818-28.408,9.134-5.3,8.037,4.646v9.148L204,580.131l-8.915-4.75Zm71.8-.467.009,9.029-8.411,4.712-8-4.779v-9.148l8.047-4.646Zm-61.877,15.67,8.246-4.769,7.98,4.608v9.234l-8.113,4.683-8.113-4.683Zm18.249-.1,8.113-4.683,7.932,4.588v9.367l-7.932,4.588-8.113-4.683Zm18.145,0,8.085-4.664,7.97,4.608v9.234l-8.113,4.683-7.942-4.588Zm-.96-20.4,8.046,4.646v9.148l-8.132,4.7-8.028-4.636v-9.177Zm-10.042,13.861-8.16,4.712-7.99-4.617v-9.31l8.037-4.646,8.113,4.683ZM195.046,577.9,202.9,581.8l.143.085v9.272l-7.956,4.418-.038.019Zm62.372-27.377v9.243l-8.113,4.683-7.942-4.589v-9.281l8.085-4.646Zm-62.334,47.7,9.1-5.242,8.037,4.645v9.158L204,611.519l-8.915-5.358Zm37.206-.559,8.113-4.684,8.046,4.645v9.158l-8.132,4.693-8.028-4.617Zm-29.25-37.9-7.956,4.541-.038-18.25.038.019,7.956,4.408ZM266.39,541.21a.518.518,0,0,1,.209.047.2.2,0,0,1,.057.038.432.432,0,0,1,.209.389v2.451l-.009.01-8.411,4.608-8-4.608v-3.03Zm-17.939-.095v2.869l-8.132,4.693-8.028-4.627v-2.935Zm-18.088,0v2.935l-8.16,4.7-7.99-4.608v-3.03Zm-35.05.047a.518.518,0,0,1,.209-.047h16.7v2.869L204,548.724l-8.915-4.969-.038-.019V541.59a.432.432,0,0,1,.209-.389A.2.2,0,0,1,195.312,541.162Zm.209,71.2a.476.476,0,0,1-.475-.475v-3.049l.038.019,6.379,3.505Zm11.376,0,6.318-3.648,6.327,3.648Zm18.069,0,6.365-3.667,6.355,3.667Zm18.145,0,6.337-3.648,6.327,3.648Zm23.744-.472a.476.476,0,0,1-.475.475l-5.181,0,5.656-3.123Z" transform="translate(-11774.98 3285.26)"/></g></svg>