<svg xmlns="http://www.w3.org/2000/svg" xmlns:xlink="http://www.w3.org/1999/xlink" width="46" height="46" viewBox="0 0 46 46"><defs><style>.a{fill:#4c4c4c;}.b{clip-path:url(#a);}.c{fill:#1d1d1b;}</style><clipPath id="a"><rect class="a" width="46" height="46" transform="translate(1245 474)"/></clipPath></defs><g class="b" transform="translate(-1245 -474)"><g transform="translate(-1722.723 1101.373)"><g transform="translate(2981.831 -620.133)"><path class="c" d="M3008.652-614.774h-6.209l.809-1.228a.634.634,0,0,0,.039-.643l-.741-1.482a.649.649,0,0,0-.731-.341l-2.164.546v-1.394a.643.643,0,0,0-.644-.643h-4.445a.643.643,0,0,0-.643.643v4.542h-1.579a.643.643,0,0,0-.644.643,6.565,6.565,0,0,0,3.977,6.034l.185.078-.175.1-11.795,6.55a.652.652,0,0,0-.331.565v14.173h-.283a1.2,1.2,0,0,0-1.2,1.2v2.408a.649.649,0,0,0,.643.643h14.816a.643.643,0,0,0,.644-.643v-2.408a1.2,1.2,0,0,0-1.2-1.2h-.283v-13.919l.029-.029,6.287-6.989h.039a6.572,6.572,0,0,0,6.238-6.56A.637.637,0,0,0,3008.652-614.774Zm-8.987-1.823,1.969-.487.341.682-1.082,1.628h-1.238Zm-4.445-2.076h3.148v3.9h-3.148Zm-10.371,18.52h10.566v13.529h-10.566Zm12.048,14.806v1.677h-13.53v-1.677Zm-1.131-16.093h-9.075l11.053-6.141h.029c.186.01.351.02.507.02h2.992Zm12.184-11.941a5.321,5.321,0,0,1-5.234,4.533h-4.435a5.321,5.321,0,0,1-5.234-4.533l-.01-.107h14.923Z" transform="translate(-2982.08 619.96)"/></g><g transform="translate(2987.016 -598.649)"><path class="c" d="M2993.063-593.865l-.672-1.374v-2.047a.641.641,0,0,0-.643-.634h-2.963a.635.635,0,0,0-.644.634l-.01,2.1-.663,1.326a.576.576,0,0,0-.068.283v3.7a2.124,2.124,0,0,0,2.125,2.125h1.482a2.124,2.124,0,0,0,2.125-2.125v-3.7A.708.708,0,0,0,2993.063-593.865Zm-1.218,3.987a.853.853,0,0,1-.838.848h-1.482a.847.847,0,0,1-.838-.848l.01-3.568.663-1.326a.711.711,0,0,0,.068-.283v-1.579h1.677v1.579a.576.576,0,0,0,.068.283l.673,1.365Z" transform="translate(-2987.4 597.92)"/></g><g transform="translate(2976.645 -623.837)"><path class="c" d="M2983.291-619.588l-2.378-3.87a.636.636,0,0,0-.546-.3.627.627,0,0,0-.341.1.589.589,0,0,0-.2.2l-2.388,3.87a4.613,4.613,0,0,0-.673,2.4,3.611,3.611,0,0,0,3.606,3.607,3.629,3.629,0,0,0,2.554-1.062,3.621,3.621,0,0,0,1.053-2.544A4.535,4.535,0,0,0,2983.291-619.588Zm-2.924,4.718a2.325,2.325,0,0,1-2.32-2.32,3.331,3.331,0,0,1,.478-1.725l1.842-2.973,1.833,2.973a3.252,3.252,0,0,1,.487,1.725A2.325,2.325,0,0,1,2980.366-614.87Z" transform="translate(-2976.76 623.76)"/></g><g transform="translate(2972.2 -626.8)"><path class="c" d="M2991.861-619.148a.509.509,0,0,0-.1-.107l-3.46-2.768v-4.133a.649.649,0,0,0-.643-.643h-14.816a.649.649,0,0,0-.643.643v14.816a.649.649,0,0,0,.643.643h14.816a.649.649,0,0,0,.643-.643v-4.143l.029-.029,3.431-2.739a.614.614,0,0,0,.234-.429A.622.622,0,0,0,2991.861-619.148Zm-4.611,2.856a.674.674,0,0,0-.234.507v3.8h-13.529v-13.529h13.529v3.8a.652.652,0,0,0,.244.507l3.071,2.456Z" transform="translate(-2972.2 626.8)"/></g></g></g></svg>