<svg xmlns="http://www.w3.org/2000/svg" xmlns:xlink="http://www.w3.org/1999/xlink" width="46" height="46" viewBox="0 0 46 46"><defs><style>.a{fill:#4c4c4c;}.b{clip-path:url(#a);}.c{fill:#1d1d1b;}</style><clipPath id="a"><rect class="a" width="46" height="46" transform="translate(232 3078)"/></clipPath></defs><g class="b" transform="translate(-232 -3078)"><g transform="translate(-2613.172 3381.834)"><path class="c" d="M2886.283-302.83H2851.11a.947.947,0,0,0-.77.28.824.824,0,0,0-.14.62v41.17a5.762,5.762,0,0,0,.14,2.26.658.658,0,0,0,.45.2h35.6a.6.6,0,0,0,.6-.6v-43.33C2886.99-302.922,2886.283-302.83,2886.283-302.83Zm-.493,35.6h-2.67v-1.9h2.67Zm-3.69-23.74a.589.589,0,0,0,.42.17h.95v20.47h-.95a.56.56,0,0,0-.42.18.559.559,0,0,0-.18.42v3.1a.56.56,0,0,0,.18.42.6.6,0,0,0,.42.18h.95v4.21h-29.75v-37.49h29.75v4.22h-.95a.589.589,0,0,0-.42.17.6.6,0,0,0-.18.43v3.09A.6.6,0,0,0,2882.1-290.97Zm3.69,20.64h-1.12V-290.8h1.12Zm0-21.66h-2.67v-1.9h2.67Zm0-3.1h-1.12v-4.81a.6.6,0,0,0-.18-.43.59.59,0,0,0-.42-.17h-30.95a.59.59,0,0,0-.42.17.642.642,0,0,0-.18.43v38.68a.6.6,0,0,0,.6.6h30.95a.6.6,0,0,0,.42-.18.6.6,0,0,0,.18-.42v-4.82h1.12v6.54H2851.4v-42.13h34.39Z"/><path class="c" d="M2877.59-279.39l-7.7-13.84a.611.611,0,0,0-.39-.27.586.586,0,0,0-.13-.02.674.674,0,0,0-.34.1.851.851,0,0,0-.19.19l-7.74,13.94a.548.548,0,0,0-.05.45.565.565,0,0,0,.28.36.6.6,0,0,0,.29.08h15.51a.6.6,0,0,0,.42-.18.56.56,0,0,0,.18-.42A.622.622,0,0,0,2877.59-279.39Zm-14.95-.21,6.73-12.11,6.72,12.11Z"/><path class="c" d="M2871.177-283.3a.487.487,0,0,0-.011.056.593.593,0,0,1-.034.135.57.57,0,0,1-.067.169v.011l-1.742,2.608a.671.671,0,0,1-.933.191.67.67,0,0,1-.18-.933l1.034-1.563h-1.349a.725.725,0,0,1-.225-.045l-.067-.034-.124-.079a.727.727,0,0,1-.168-.2c-.011-.034-.034-.079-.045-.112s-.022-.09-.034-.146a.122.122,0,0,0-.011-.056.084.084,0,0,0,.011-.056l.034-.135a.823.823,0,0,1,.068-.157c.011-.022.011-.022,0-.022l1.742-2.608a.671.671,0,0,1,.9-.18.679.679,0,0,1,.225.922l-1.046,1.563h1.315a.917.917,0,0,1,.1.022.578.578,0,0,1,.124.022.8.8,0,0,1,.157.067h.023l.045.056a.428.428,0,0,1,.1.1.624.624,0,0,1,.067.09.4.4,0,0,1,.045.124l.034.135A.1.1,0,0,0,2871.177-283.3Z" transform="translate(0 -0.722)"/><path class="c" d="M2877.74-272.03a.609.609,0,0,1-.19.42.613.613,0,0,1-.44.16h-15.54a.587.587,0,0,1-.57-.62.6.6,0,0,1,.6-.58h15.56a.655.655,0,0,1,.42.19A.622.622,0,0,1,2877.74-272.03Z" transform="translate(0 -1)"/><path class="c" d="M2877.74-269.71a.609.609,0,0,1-.19.42.613.613,0,0,1-.44.16h-15.54a.587.587,0,0,1-.57-.62.6.6,0,0,1,.6-.58h15.56a.655.655,0,0,1,.42.19A.622.622,0,0,1,2877.74-269.71Z"/><path class="c" d="M2856.6-281.94a1.769,1.769,0,0,0-1.76,1.76,1.762,1.762,0,0,0,1.76,1.76,1.763,1.763,0,0,0,1.76-1.76A1.769,1.769,0,0,0,2856.6-281.94Zm0,2.33a.568.568,0,0,1-.56-.57.559.559,0,0,1,.56-.56.559.559,0,0,1,.56.56A.568.568,0,0,1,2856.6-279.61Z"/></g></g></svg>