<svg xmlns="http://www.w3.org/2000/svg" xmlns:xlink="http://www.w3.org/1999/xlink" width="46" height="46" viewBox="0 0 46 46"><defs><style>.a{fill:#4c4c4c;stroke:#fff;stroke-width:0.2px;}.b{clip-path:url(#a);}.c{fill:#1d1d1b;}</style><clipPath id="a"><rect class="a" width="46" height="46" transform="translate(2273 1077)"/></clipPath></defs><g class="b" transform="translate(-2273 -1077)"><g transform="translate(915.79 630.8)"><path class="c" d="M1400.74,488.41h-.01a.947.947,0,0,0-.68-.13,1.408,1.408,0,0,1-.2.01h-.66a4.17,4.17,0,0,1-4.16-4.16v-4.82a5.484,5.484,0,0,0-5.47-5.47h-3.21a5.484,5.484,0,0,0-5.47,5.47v4.82a4.172,4.172,0,0,1-4.17,4.16h-3.21a4.17,4.17,0,0,1-4.16-4.16v-3.37h.95a.654.654,0,0,0,.64-.52l.38-1.88h.58a.666.666,0,0,0,.66-.66.657.657,0,0,0-.66-.65h-.32l.22-1.1h.91a.649.649,0,0,0,.65-.65.657.657,0,0,0-.65-.66h-.65l.38-1.9h.27a5.5,5.5,0,0,0,5.47-5.47v-9.63a.666.666,0,0,0-.66-.66h-2.55v-6.97a1.853,1.853,0,0,0-1.86-1.81h-.04a1.849,1.849,0,0,0-1.81,1.81v6.97h-1.91v-3.36a.649.649,0,0,0-.65-.65.662.662,0,0,0-.66.64v3.37h-1.9v-6.97a1.85,1.85,0,0,0-1.85-1.81h-.05a1.849,1.849,0,0,0-1.81,1.81v6.97h-2.56a.657.657,0,0,0-.65.66v9.63a5.491,5.491,0,0,0,5.47,5.47h.27l.38,1.9h-.65a.657.657,0,0,0-.65.66.649.649,0,0,0,.65.65h.91l.22,1.1h-.33a.649.649,0,0,0-.65.65.657.657,0,0,0,.65.66h.59l.38,1.88a.643.643,0,0,0,.63.52h.96v3.36a5.469,5.469,0,0,0,5.46,5.47h3.22a5.484,5.484,0,0,0,5.47-5.47v-4.81a4.172,4.172,0,0,1,4.16-4.17h3.21a4.178,4.178,0,0,1,4.16,4.17v4.81a5.484,5.484,0,0,0,5.47,5.47,4.192,4.192,0,0,0,1.5-.04.624.624,0,0,0,.29-.27A.773.773,0,0,0,1400.74,488.41Zm-28.18-38.4a.585.585,0,0,1,.13-.4.549.549,0,0,1,.38-.18.585.585,0,0,1,.4.13.559.559,0,0,1,.19.38v7.04h-1.1Zm-8.84,6.87.01-6.88a.548.548,0,0,1,.18-.38.6.6,0,0,1,.4-.13.558.558,0,0,1,.52.51v6.98h-1.11Zm.95,14.55a4.17,4.17,0,0,1-4.16-4.16v-8.98h16.35v8.98a4.163,4.163,0,0,1-4.16,4.16Zm1.98,3.21-.01-.08-.36-1.82h4.83l-.38,1.9Zm.26,1.3h3.55l-.22,1.1h-3.11Zm.71,3.52-.23-1.11h2.59l-.23,1.11Z"/><path class="c" d="M1371.54,463.59a.681.681,0,0,0-.45-.19h-1.61l.64-3.22a.637.637,0,0,0-.09-.49.619.619,0,0,0-.41-.28.64.64,0,0,0-.6.18l-4.82,4.81a.671.671,0,0,0,.47,1.12h1.61l-.65,3.23a.655.655,0,0,0,1.11.58l4.81-4.81A.661.661,0,0,0,1371.54,463.59Zm-4.2,3.3.38-1.9a.666.666,0,0,0-.53-.77.447.447,0,0,0-.11-.01h-.84l2.18-2.18-.38,1.9a.68.68,0,0,0,.11.5.662.662,0,0,0,.42.27.412.412,0,0,0,.11.01h.83Z"/></g></g></svg>