<svg xmlns="http://www.w3.org/2000/svg" xmlns:xlink="http://www.w3.org/1999/xlink" width="46" height="46" viewBox="0 0 46 46"><defs><style>.a{fill:#4c4c4c;}.b{clip-path:url(#a);}</style><clipPath id="a"><rect class="a" width="46" height="46" transform="translate(2188 475)"/></clipPath></defs><g class="b" transform="translate(-2188 -475)"><g transform="translate(-449.058 282.877)"><path d="M2686.315,260.274c-.388,0-.777,0-1.179,0,0-.435,0-.8,0-1.172,0-.531-.254-.85-.668-.857s-.676.31-.679.837c0,.39,0,.78,0,1.191-.455,0-.849,0-1.243,0-.485.005-.8.286-.79.689a.7.7,0,0,0,.785.657c.4.005.808,0,1.248,0,0,.439,0,.832,0,1.224.005.495.27.806.674.8s.668-.315.675-.81c0-.392,0-.784,0-1.214.433,0,.8,0,1.169,0,.537,0,.839-.246.842-.672S2686.848,260.277,2686.315,260.274Z" transform="translate(-34.343 -57.244)"/><path d="M2676.255,207.352c-.119-.119-.238-.237-.367-.367.385-.546.719-1.085,1.118-1.57a2.283,2.283,0,0,0,.327-2.706l-2.742-2.741a2.227,2.227,0,0,0-2.674.272c-.417.341-.9.607-1.312.947-.253.207-.392.145-.583-.06a3.685,3.685,0,0,0-.622-.543,2,2,0,0,0-2.419.177c-.108.1-.208.2-.311.3l-9.794,9.794V200.607a2.084,2.084,0,0,0-2.289-2.313h-.519c-.114-.658-.257-1.275-.32-1.9a2.28,2.28,0,0,0-1.682-2.144h-3.877a2.227,2.227,0,0,0-1.7,2.084c-.054.536-.2,1.062-.259,1.6-.032.325-.175.379-.455.369a3.664,3.664,0,0,0-.825.057,2,2,0,0,0-1.584,1.836c-.01.145-.005.289-.005.435v31.8a2.067,2.067,0,0,0,2.329,2.337q4.469,0,8.938,0a2.053,2.053,0,0,0,2.242-2.232v-2.56l4.786-4.785a7.538,7.538,0,1,0,4.477-4.476l10.1-10.1A2.084,2.084,0,0,0,2676.255,207.352Zm-28.321-11.289a.607.607,0,0,1,.657-.462c1.026,0,2.053-.008,3.079,0a.671.671,0,0,1,.7.619c.11.674.2,1.35.31,2.05h-5.146C2647.667,197.523,2647.779,196.788,2647.935,196.062Zm7.569,36.714c-.03.427-.31.634-.8.635l-1.309,0h-2.622q-2.581,0-5.161,0c-.678,0-.9-.226-.9-.9,0-.356,0-.71,0-1.1h10.8C2655.511,231.886,2655.536,232.334,2655.5,232.777Zm-10.773-2.769V209.132h10.757v20.876H2644.73Zm10.787-22.466a1.468,1.468,0,0,1-.027.185h-10.781v-4.62c0-.87,0-1.741,0-2.611,0-.6.24-.848.837-.849q4.568,0,9.137,0c.56,0,.831.244.831.775C2655.523,202.8,2655.519,205.168,2655.518,207.542Zm19.567,20.243a6.352,6.352,0,1,1-6.352-6.352A6.359,6.359,0,0,1,2675.085,227.785Zm-1.954-26.715a.608.608,0,0,1,.791.138c.729.724,1.458,1.446,2.177,2.18a.67.67,0,0,1,.057.933c-.4.554-.809,1.1-1.23,1.669l-3.639-3.639C2671.909,201.914,2672.508,201.473,2673.13,201.069Zm-16.258,26.939h0V212.8l4.75-4.751c2.537,2.537,5.06,5.059,7.605,7.605Zm18.537-18.495q-2.51,2.524-5.033,5.035a1.406,1.406,0,0,1-.151.111l-7.622-7.622,3.266-3.267c.616-.615,1.229-1.232,1.847-1.845a.718.718,0,0,1,1.191-.009q3.234,3.227,6.462,6.461A.705.705,0,0,1,2675.409,209.513Z"/><path d="M2670.248,395.131v-7.917a2.2,2.2,0,0,0-.011-.354.631.631,0,0,0-.575-.563.611.611,0,0,0-.692.406,1.271,1.271,0,0,0-.068.462q0,3.144,0,6.291V397.6q0,.5,0,1c0,.379,0,.756.006,1.134a.669.669,0,0,0,.67.725.628.628,0,0,0,.651-.532,1,1,0,0,0,.023-.183c0-.1,0-.21,0-.315v-4.294Z" transform="translate(-22.841 -171.78)"/><path d="M2872.9,306.07c.373-.378.421-.78.133-1.078s-.7-.258-1.072.112c-.277.274-.552.551-.843.842-.321-.321-.6-.6-.879-.878a.681.681,0,1,0-.955.948c.282.289.57.572.881.883-.311.31-.59.586-.865.866a.7.7,0,0,0-.09,1.044.709.709,0,0,0,1.05-.1c.28-.274.555-.554.859-.858.306.306.565.568.827.827.382.377.768.419,1.071.12s.263-.69-.112-1.069c-.273-.276-.549-.55-.833-.834C2872.379,306.591,2872.642,306.332,2872.9,306.07Z" transform="translate(-201.847 -98.88)"/><path d="M2840.838,474.172a5.074,5.074,0,1,0-5.074-5.074A5.079,5.079,0,0,0,2840.838,474.172Zm0-8.961a3.887,3.887,0,1,1-3.887,3.887A3.891,3.891,0,0,1,2840.838,465.212Z" transform="translate(-172.105 -241.314)"/></g></g></svg>