<?xml version="1.0" encoding="UTF-8"?>
<svg xmlns="http://www.w3.org/2000/svg" xmlns:xlink="http://www.w3.org/1999/xlink" width="46pt" height="46pt" viewBox="0 0 46 46" version="1.1">
<g id="surface1">
<path style=" stroke:none;fill-rule:nonzero;fill:rgb(0%,0%,0%);fill-opacity:1;" d="M 43.699219 30.667969 L 33.734375 30.667969 C 33.734375 29.363281 32.738281 28.367188 31.433594 28.367188 L 30.667969 28.367188 C 29.363281 28.367188 28.367188 29.363281 28.367188 30.667969 L 27.601562 30.667969 C 26.296875 30.667969 25.300781 31.664062 25.300781 32.964844 L 25.300781 42.167969 C 25.300781 43.46875 26.296875 44.464844 27.601562 44.464844 L 28.519531 44.464844 C 28.828125 45.386719 29.671875 46 30.667969 46 L 31.433594 46 C 32.429688 46 33.273438 45.386719 33.578125 44.464844 L 43.699219 44.464844 C 45.003906 44.464844 46 43.46875 46 42.167969 L 46 32.964844 C 46 31.664062 45.003906 30.667969 43.699219 30.667969 Z M 26.832031 42.167969 L 26.832031 32.964844 C 26.832031 32.507812 27.140625 32.199219 27.601562 32.199219 L 28.367188 32.199219 L 28.367188 42.933594 L 27.601562 42.933594 C 27.140625 42.933594 26.832031 42.625 26.832031 42.167969 Z M 32.199219 43.699219 C 32.199219 44.160156 31.894531 44.464844 31.433594 44.464844 L 30.667969 44.464844 C 30.207031 44.464844 29.898438 44.160156 29.898438 43.699219 L 29.898438 30.667969 C 29.898438 30.207031 30.207031 29.898438 30.667969 29.898438 L 31.433594 29.898438 C 31.894531 29.898438 32.199219 30.207031 32.199219 30.667969 Z M 44.464844 42.167969 C 44.464844 42.625 44.160156 42.933594 43.699219 42.933594 L 33.734375 42.933594 L 33.734375 32.199219 L 43.699219 32.199219 C 44.160156 32.199219 44.464844 32.507812 44.464844 32.964844 Z M 44.464844 42.167969 "/>
<path style=" stroke:none;fill-rule:nonzero;fill:rgb(0%,0%,0%);fill-opacity:1;" d="M 3.066406 32.199219 L 4.601562 32.199219 L 4.601562 33.734375 L 3.066406 33.734375 Z M 3.066406 32.199219 "/>
<path style=" stroke:none;fill-rule:nonzero;fill:rgb(0%,0%,0%);fill-opacity:1;" d="M 6.132812 32.199219 L 7.667969 32.199219 L 7.667969 33.734375 L 6.132812 33.734375 Z M 6.132812 32.199219 "/>
<path style=" stroke:none;fill-rule:nonzero;fill:rgb(0%,0%,0%);fill-opacity:1;" d="M 20.699219 46 L 20.699219 36.800781 C 22.003906 36.800781 23 35.804688 23 34.5 L 23 26.066406 L 20.699219 26.066406 L 20.699219 23 L 19.167969 23 L 19.167969 26.066406 L 3.832031 26.066406 L 3.832031 19.933594 L 16.253906 19.933594 C 16.558594 20.851562 17.402344 21.464844 18.398438 21.464844 L 26.679688 21.464844 L 26.144531 25.300781 L 23.765625 25.300781 L 23.765625 26.832031 L 37.566406 26.832031 L 37.566406 25.300781 L 35.191406 25.300781 L 34.652344 21.464844 L 42.933594 21.464844 C 44.238281 21.464844 45.234375 20.46875 45.234375 19.167969 L 45.234375 2.300781 C 45.234375 0.996094 44.238281 0 42.933594 0 L 18.398438 0 C 17.097656 0 16.101562 0.996094 16.101562 2.300781 L 16.101562 18.398438 L 2.300781 18.398438 L 2.300781 26.066406 L 0 26.066406 L 0 34.5 C 0 35.804688 0.996094 36.800781 2.300781 36.800781 L 2.300781 46 Z M 33.578125 25.300781 L 27.675781 25.300781 L 28.214844 21.464844 L 33.042969 21.464844 Z M 42.933594 19.933594 L 18.398438 19.933594 C 17.941406 19.933594 17.632812 19.625 17.632812 19.167969 L 17.632812 18.398438 L 43.699219 18.398438 L 43.699219 19.167969 C 43.699219 19.625 43.394531 19.933594 42.933594 19.933594 Z M 18.398438 1.535156 L 42.933594 1.535156 C 43.394531 1.535156 43.699219 1.839844 43.699219 2.300781 L 43.699219 16.867188 L 17.632812 16.867188 L 17.632812 4.601562 L 42.167969 4.601562 L 42.167969 3.066406 L 17.632812 3.066406 L 17.632812 2.300781 C 17.632812 1.839844 17.941406 1.535156 18.398438 1.535156 Z M 1.535156 34.5 L 1.535156 27.601562 L 21.464844 27.601562 L 21.464844 34.5 C 21.464844 34.960938 21.160156 35.265625 20.699219 35.265625 L 2.300781 35.265625 C 1.839844 35.265625 1.535156 34.960938 1.535156 34.5 Z M 19.167969 36.800781 L 19.167969 44.464844 L 3.832031 44.464844 L 3.832031 36.800781 Z M 19.167969 36.800781 "/>
<path style=" stroke:none;fill-rule:nonzero;fill:rgb(0%,0%,0%);fill-opacity:1;" d="M 5.367188 41.398438 L 17.632812 41.398438 L 17.632812 42.933594 L 5.367188 42.933594 Z M 5.367188 41.398438 "/>
<path style=" stroke:none;fill-rule:nonzero;fill:rgb(0%,0%,0%);fill-opacity:1;" d="M 35.265625 33.734375 L 36.800781 33.734375 L 36.800781 35.265625 L 35.265625 35.265625 Z M 35.265625 33.734375 "/>
<path style=" stroke:none;fill-rule:nonzero;fill:rgb(0%,0%,0%);fill-opacity:1;" d="M 38.332031 33.734375 L 39.867188 33.734375 L 39.867188 35.265625 L 38.332031 35.265625 Z M 38.332031 33.734375 "/>
<path style=" stroke:none;fill-rule:nonzero;fill:rgb(0%,0%,0%);fill-opacity:1;" d="M 41.398438 33.734375 L 42.933594 33.734375 L 42.933594 35.265625 L 41.398438 35.265625 Z M 41.398438 33.734375 "/>
<path style=" stroke:none;fill-rule:nonzero;fill:rgb(0%,0%,0%);fill-opacity:1;" d="M 35.265625 36.800781 L 36.800781 36.800781 L 36.800781 38.332031 L 35.265625 38.332031 Z M 35.265625 36.800781 "/>
<path style=" stroke:none;fill-rule:nonzero;fill:rgb(0%,0%,0%);fill-opacity:1;" d="M 38.332031 36.800781 L 39.867188 36.800781 L 39.867188 38.332031 L 38.332031 38.332031 Z M 38.332031 36.800781 "/>
<path style=" stroke:none;fill-rule:nonzero;fill:rgb(0%,0%,0%);fill-opacity:1;" d="M 41.398438 36.800781 L 42.933594 36.800781 L 42.933594 38.332031 L 41.398438 38.332031 Z M 41.398438 36.800781 "/>
<path style=" stroke:none;fill-rule:nonzero;fill:rgb(0%,0%,0%);fill-opacity:1;" d="M 35.265625 39.867188 L 36.800781 39.867188 L 36.800781 41.398438 L 35.265625 41.398438 Z M 35.265625 39.867188 "/>
<path style=" stroke:none;fill-rule:nonzero;fill:rgb(0%,0%,0%);fill-opacity:1;" d="M 38.332031 39.867188 L 39.867188 39.867188 L 39.867188 41.398438 L 38.332031 41.398438 Z M 38.332031 39.867188 "/>
<path style=" stroke:none;fill-rule:nonzero;fill:rgb(0%,0%,0%);fill-opacity:1;" d="M 41.398438 39.867188 L 42.933594 39.867188 L 42.933594 41.398438 L 41.398438 41.398438 Z M 41.398438 39.867188 "/>
<path style=" stroke:none;fill-rule:nonzero;fill:rgb(0%,0%,0%);fill-opacity:1;" d="M 5.367188 38.332031 L 17.632812 38.332031 L 17.632812 39.867188 L 5.367188 39.867188 Z M 5.367188 38.332031 "/>
<path style=" stroke:none;fill-rule:nonzero;fill:rgb(0%,0%,0%);fill-opacity:1;" d="M 4.601562 16.867188 L 11.5 16.867188 C 12.804688 16.867188 13.800781 15.871094 13.800781 14.566406 L 13.800781 2.300781 C 13.800781 0.996094 12.804688 0 11.5 0 L 4.601562 0 C 3.296875 0 2.300781 0.996094 2.300781 2.300781 L 2.300781 14.566406 C 2.300781 15.871094 3.296875 16.867188 4.601562 16.867188 Z M 11.5 15.332031 L 4.601562 15.332031 C 4.140625 15.332031 3.832031 15.027344 3.832031 14.566406 L 3.832031 13.800781 L 12.265625 13.800781 L 12.265625 14.566406 C 12.265625 15.027344 11.960938 15.332031 11.5 15.332031 Z M 3.832031 12.265625 L 3.832031 4.601562 L 12.265625 4.601562 L 12.265625 12.265625 Z M 4.601562 1.535156 L 11.5 1.535156 C 11.960938 1.535156 12.265625 1.839844 12.265625 2.300781 L 12.265625 3.066406 L 3.832031 3.066406 L 3.832031 2.300781 C 3.832031 1.839844 4.140625 1.535156 4.601562 1.535156 Z M 4.601562 1.535156 "/>
</g>
</svg>
