<svg xmlns="http://www.w3.org/2000/svg" xmlns:xlink="http://www.w3.org/1999/xlink" width="80" height="80" viewBox="0 0 80 80"><defs><style>.a{fill:#ffdc00;}.b{clip-path:url(#a);}.c{fill:#1d1d1b;}</style><clipPath id="a"><rect class="a" width="80" height="80" transform="translate(-11476 3822)"/></clipPath></defs><g class="b" transform="translate(11476 -3822)"><g transform="translate(-11475 3824)"><g transform="translate(0 49.553)"><path class="c" d="M372.33,274.1H351.66a.9.9,0,0,0-.9.832,16.581,16.581,0,0,1-15.27,14.927,16.04,16.04,0,0,1-10.745-2.963,16.332,16.332,0,0,1-6.964-12.041.894.894,0,0,0-.9-.81l-20.714.022a.918.918,0,0,0-.92.921v24.582a.918.918,0,0,0,.92.921H372.33a.918.918,0,0,0,.92-.921V275.017A.918.918,0,0,0,372.33,274.1Zm-1.774,23.694H297.945V276.7h17.376l.122.522a19.278,19.278,0,0,0,8.738,12.441,18.484,18.484,0,0,0,10.889,2.863,19.3,19.3,0,0,0,18-15.293l.111-.533h17.377Z" transform="translate(-295.25 -274.04)"/></g><g transform="translate(16.302 0)"><path class="c" d="M355.1,246.781a.906.906,0,0,0,.233-.943.882.882,0,0,0-.744-.621l-12.963-1.909a2.69,2.69,0,0,1-2.3-1.6l-5.838-11.8a.907.907,0,0,0-1.642,0L325.807,242.1a1.873,1.873,0,0,1-1.52,1.143l-13.529,1.953a.911.911,0,0,0-.744.633.887.887,0,0,0,.233.932l9.689,9.478a1.981,1.981,0,0,1,.655,1.942l-2.3,13.4a.929.929,0,0,0,1.343.977l12.008-6.3a1.96,1.96,0,0,1,2.042-.022l11.975,6.3a.874.874,0,0,0,.965-.067.891.891,0,0,0,.366-.9c-1.421-8.079-2.164-12.552-2.231-13.318a2.079,2.079,0,0,1,.633-2Zm-13.3,9.689c.477,2.652,1.765,10.288,1.931,12.075-8.878-4.661-9.855-5.161-10.81-5.693-.189-.111-.255-.122-.5.011-2.442,1.31-9.2,4.839-10.909,5.66.522-3.252,1.776-10.51,2.053-12.263a1.009,1.009,0,0,0-.2-.322c-2.364-2.342-8.57-8.257-9.125-8.657,9.968-1.376,11.289-1.554,12.61-1.787a.69.69,0,0,0,.333-.3c1.132-2.231,4.617-9.278,5.449-10.865.866,1.487,4.295,8.39,5.471,10.832.133.266.222.344.6.4,2.63.355,5.249.732,12.03,1.72-1.3,1.354-6.859,6.792-8.779,8.645C341.766,256.1,341.744,256.181,341.8,256.469Z" transform="translate(-309.968 -229.39)"/></g></g></g></svg>