<svg xmlns="http://www.w3.org/2000/svg" xmlns:xlink="http://www.w3.org/1999/xlink" width="46" height="46" viewBox="0 0 46 46"><defs><style>.a{fill:#4c4c4c;}.b{clip-path:url(#a);}.c{fill:#1d1d1b;}</style><clipPath id="a"><rect class="a" width="46" height="46" transform="translate(206 3364)"/></clipPath></defs><g class="b" transform="translate(-206 -3364)"><path class="c" d="M3027.76-255.8a.671.671,0,0,0-.28-.06H2988.7a.688.688,0,0,0-.24.05,1.1,1.1,0,0,0-.06.26v38.78a.583.583,0,0,0,.06.26.706.706,0,0,0,.25.06h38.78a1.072,1.072,0,0,0,.27-.06.751.751,0,0,0,.05-.26v-38.78A.7.7,0,0,0,3027.76-255.8Zm-2.16.98-3.81,3.81-3.81-3.81Zm.71,10.4-4.45,4.46-6.55-6.55c-.01-.01-.01-.02-.02-.03l-3.45-3.45,4.46-4.44Zm-9.94,1.03,4.45,4.46-8.51,8.51c-.01.01-.02.01-.02.02l-1.48,1.48-4.46-4.46Zm-16.53,14.47-4.46-4.46,10.02-10.01,4.45,4.46Zm14.78-25.89-3.81,3.81-3.81-3.81Zm-1.04,8.63c.01.01.01.03.02.03l1.73,1.74-4.45,4.45-10.02-10.02,4.47-4.45Zm-9.94-8.63-3.8,3.81-3.8-3.81Zm.73,10.4-4.46,4.45-10.01-10.01,4.45-4.46Zm-14.93-10.4h3.23l-3.23,3.23Zm0,6.44,3.95,3.95-3.94,3.94v-1.76l-.01.01Zm0,9.96,4.99-4.98,4.45,4.46-9.44,9.43Zm0,12.13,3.95,3.95-3.95,3.94Zm1.17,8.78,3.81-3.81,3.8,3.81Zm-.72-10.39,4.46-4.46,10.01,10.02-4.45,4.46Zm11.69,10.39,3.81-3.81,3.81,3.81Zm-.72-10.39,4.46-4.46,10.01,10.01-4.45,4.47Zm11.69,10.39,3.81-3.81,3.81,3.81Zm-.72-10.39.61-.6c.01-.01.03-.02.04-.03l3.82-3.82,10.01,10.02-4.46,4.45Zm14.92,10.39h-3.23l3.23-3.23Zm0-6.44-3.94-3.95,3.94-3.95Zm.01-9.96h-.01l-4.97,4.98-4.45-4.46,9.43-9.43Zm0-12.13-3.94-3.95,3.94-3.95Z" transform="translate(-2779.4 3622.86)"/></g></svg>