<svg xmlns="http://www.w3.org/2000/svg" xmlns:xlink="http://www.w3.org/1999/xlink" width="46" height="46" viewBox="0 0 46 46"><defs><style>.a{fill:#4c4c4c;}.b{clip-path:url(#a);}.c{fill:#1d1d1b;}</style><clipPath id="a"><rect class="a" width="46" height="46" transform="translate(2200 653)"/></clipPath></defs><g class="b" transform="translate(-2200 -653)"><g transform="translate(-2331.1 387.9)"><path class="c" d="M4569.218,280.869h-2.95a1.91,1.91,0,0,0-.7.128l-.138.039v-6.176a8.958,8.958,0,0,0-8.938-8.76h-5.82a8.672,8.672,0,0,0-8.662,8.563v6.373l-.138-.049a2.439,2.439,0,0,0-.7-.128h-2.95a2.116,2.116,0,1,0,0,4.232h.829v4.647a2.032,2.032,0,0,0,2.012,2h1.026l.02.069a2.847,2.847,0,0,0,2.752,2.141h5.268v2.318a.638.638,0,0,0,.631.641h.839v2.309a.235.235,0,0,1-.2.237l-6.117,1.016a3.631,3.631,0,0,0-2.93,2.841l-.306,1.529-.04.02a2.851,2.851,0,0,0,.572,5.239,2.825,2.825,0,0,0,2.17-.237,2.858,2.858,0,0,0,1.49-2.526,4.8,4.8,0,0,0-.06-.552l-.009-.02.009-.02.632-2.526,4.745-.6v1.815l-.02.03a2.852,2.852,0,1,0,4.281,0l-.02-.03v-1.8l4.745.592.651,2.545v.02a2.458,2.458,0,0,0,0,.543,2.846,2.846,0,0,0,2.841,2.871h.01a2.855,2.855,0,0,0,1.381-5.357l-.05-.02-.3-1.529a3.6,3.6,0,0,0-2.94-2.831l-6.117-1.026a.225.225,0,0,1-.2-.227V296.91h.838a.64.64,0,0,0,.641-.641V293.96h5.259a2.871,2.871,0,0,0,2.762-2.141l.02-.079h1.026a2.01,2.01,0,0,0,2-2V285.1h.839a2.116,2.116,0,1,0,0-4.232Zm-28.166,9.589a.724.724,0,0,1-.72-.72V285.1h.838a2.145,2.145,0,0,0,.7-.128l.128-.049.01,5.535Zm.118-6.639h-2.95a.839.839,0,1,1,0-1.677h2.95a.839.839,0,0,1,0,1.677Zm2.21,25.1a1.578,1.578,0,1,1,1.579-1.578A1.583,1.583,0,0,1,4543.381,308.916Zm10.339,0a1.578,1.578,0,1,1,1.579-1.578A1.583,1.583,0,0,1,4553.72,308.916Zm11.444-2.693a1.526,1.526,0,0,1,.463,1.115,1.583,1.583,0,1,1-.463-1.115Zm-3.226-4.489a2.325,2.325,0,0,1,1.885,1.825l.187.917-.109.01a2.9,2.9,0,0,0-1.627.631l-.119.1-.414-1.717a.631.631,0,0,0-.542-.483l-5.91-.74a.673.673,0,0,0-.73.6v1.746l-.128-.039a2.708,2.708,0,0,0-1.431,0l-.119.039v-1.707a.644.644,0,0,0-.72-.641l-5.909.74a.654.654,0,0,0-.542.483l-.434,1.726-.119-.1a2.85,2.85,0,0,0-1.618-.641l-.109-.01.178-.937a2.323,2.323,0,0,1,1.894-1.825l6.117-1.016a1.5,1.5,0,0,0,1.262-1.48V296.91h1.677v2.309a1.506,1.506,0,0,0,1.263,1.49Zm-5.91-6.107H4551.4V293.95h4.626Zm8.129-4.775a2.1,2.1,0,0,1-2.072,1.825h-16.731a2.1,2.1,0,0,1-2.072-1.825v-.03a1.577,1.577,0,0,1,1.559-1.292h17.768a1.566,1.566,0,0,1,1.549,1.292Zm-.148-2.21a2.813,2.813,0,0,0-1.431-.395H4544.86a2.816,2.816,0,0,0-1.431.395l-.148.1V274.861a7.409,7.409,0,0,1,7.32-7.478h5.89a7.671,7.671,0,0,1,7.655,7.478l.01,13.881Zm3.1,1.1a.724.724,0,0,1-.72.72h-.957v-5.535l.138.049a2.434,2.434,0,0,0,.7.128h.838Zm2.122-5.919h-2.96a.839.839,0,0,1,0-1.677h2.95a.839.839,0,0,1,.01,1.677Z"/></g></g></svg>