<?xml version="1.0" encoding="UTF-8" standalone="no"?>
<!DOCTYPE svg PUBLIC "-//W3C//DTD SVG 1.1//EN" "http://www.w3.org/Graphics/SVG/1.1/DTD/svg11.dtd">
<svg xmlns="http://www.w3.org/2000/svg" xmlns:xlink="http://www.w3.org/1999/xlink" version="1.1" width="46pt" height="46pt" viewBox="0 0 46 46">
<g enable-background="new">
<g>
<clipPath id="cp0">
<path transform="matrix(.25,0,0,.25,0,0)" d="M 0 0 L 184 0 L 184 184 L 0 184 Z " fill-rule="evenodd"/>
</clipPath>
<g clip-path="url(#cp0)">
<g>
<clipPath id="cp1">
<path transform="matrix(.25,0,0,.25,0,0)" d="M 0 0 L 184 0 L 184 184 L 0 184 Z " fill-rule="evenodd"/>
</clipPath>
<g clip-path="url(#cp1)">
<path transform="matrix(1,0,0,1,1,6.852783)" d="M 26.011767 .0018250895 C 25.922554 -.0024703956 25.83334 .008433521 25.747429 .033215073 L .50554987 7.973248 C .4923329 7.977543 .48175944 7.9864647 .46887297 7.9914209 C .44475223 8.001333 .4209619 8.012898 .39816285 8.0254549 C .34529538 8.052218 .29573194 8.08559 .25112535 8.12458 C .23096954 8.141431 .21147473 8.158944 .19330152 8.177777 C .14274705 8.232298 .10111422 8.294086 .06972365 8.361161 C .065758679 8.369752 .05915015 8.37636 .055185178 8.384952 C .02742968 8.451696 .009586962 8.522407 .0029785296 8.5944399 C .0016568432 8.607986 .0056219028 8.620543 .004961059 8.634089 C .0056219028 8.644002 .00033515693 8.652263 .00033515693 8.662175 L .00033515693 22.376669 C .004300216 22.40839 .010908647 22.439778 .019169165 22.470507 C .02379511 22.520401 .033707717 22.569632 .048907155 22.617547 C .065758679 22.660498 .08723606 22.701472 .11234811 22.740462 C .13382548 22.780114 .15893753 22.81745 .1876842 22.852145 C .22303926 22.88882 .2623595 22.921864 .30465327 22.950278 C .32745237 22.97209 .35157315 22.992243 .37701557 23.010746 C 5.3346636 25.714255 14.869634 27.976983 24.130995 27.976983 C 24.751196 27.976983 25.369082 27.966408 25.985655 27.945591 L 25.985655 31.038336 C 25.985655 32.46047 27.982724 33.20392 29.95567 33.20392 C 31.928614 33.20392 33.92569 32.46047 33.92569 31.038336 L 33.92569 26.97349 C 35.370954 26.657938 36.789785 26.231364 38.169298 25.697073 C 41.628149 24.32417 43.30933 22.79465 43.30933 21.019623 L 43.30933 17.648659 C 43.30933 15.729574 41.27492 14.214586 39.41961 13.229932 C 40.38642 12.814591 41.275915 12.238332 42.050424 11.52595 C 42.78396 10.921278 43.238626 10.043015 43.30933 9.095037 L 43.30933 6.027406 C 43.30933 1.3932399 28.900622 .19513592 26.011775 .0018360562 L 26.011767 .0018250895 Z M 26.050427 1.4517131 C 32.4801 1.8971216 41.865755 3.6440626 41.865755 6.0273959 C 41.814535 6.463221 41.61066 6.866997 41.289827 7.1663548 C 41.212835 7.2565605 41.13089 7.3421385 41.044324 7.423093 C 36.41379 11.928719 16.755322 12.474244 5.462579 9.5942959 C 5.4453966 9.59 5.427884 9.585704 5.410372 9.58306 C 4.8668286 9.448249 4.334853 9.298238 3.827326 9.136661 C 3.4486628 9.017049 3.0954424 8.896445 2.7676678 8.775841 L 26.050427 1.4517131 Z M 32.482088 31.02509 C 32.408735 31.23094 31.532124 31.760277 29.955683 31.760277 C 28.372639 31.760277 27.494374 31.225983 27.429284 31.038306 L 27.429284 27.870884 C 29.124016 27.768784 30.81115 27.567225 32.482095 27.266875 L 32.482088 31.02509 Z M 41.86577 17.648608 C 41.8357 18.091704 41.640756 18.50737 41.319585 18.814003 C 40.258928 19.78907 39.003984 20.528555 37.63703 20.983544 C 27.340392 25.061606 13.144511 23.200343 5.314544 20.402995 L 19.04756 15.824016 C 20.060307 15.859039 21.061152 15.878204 22.044816 15.878204 C 28.263018 15.878204 33.79061 15.195884 37.58286 13.944905 C 39.612314 14.843322 41.865789 16.30742 41.865789 17.648604 L 41.86577 17.648608 Z M 15.137928 15.605947 L 4.3311445 19.209855 L 4.3311445 13.857022 C 7.871614 14.773939 11.489398 15.359449 15.137928 15.605947 Z M 41.044 10.491354 C 39.980375 11.409928 38.73369 12.091589 37.386228 12.491063 C 33.138994 13.95516 26.425494 14.639461 18.959256 14.379421 C 13.063546 14.172907 7.548516 13.379895 3.827238 12.204259 C 3.7912224 12.196991 3.7545458 12.193025 3.7178689 12.192034 C 3.6821833 12.181791 3.6461673 12.174521 3.6094907 12.169895 C 3.597926 12.169895 3.5886739 12.176174 3.5774396 12.176504 C 3.524572 12.18113 3.4726957 12.191373 3.4221407 12.207563 C 3.38216 12.215824 3.3428398 12.227388 3.304841 12.242588 C 3.2632082 12.265057 3.223888 12.291491 3.1872106 12.321889 C 3.149873 12.346341 3.1151789 12.374096 3.0827974 12.405155 C 3.0557028 12.438528 3.0319124 12.473884 3.0110958 12.511552 C 2.981688 12.553515 2.9569066 12.598122 2.9374119 12.645373 C 2.9334465 12.655946 2.9248558 12.663214 2.9215515 12.674448 C 2.9169257 12.747803 2.9053608 12.820496 2.8875182 12.891867 L 2.8875182 20.522618 C 2.8878484 20.61745 2.9066826 20.711617 2.9433594 20.799181 C 2.965167 20.840815 2.9912704 20.880135 3.0210088 20.916811 C 3.0428162 20.956793 3.0682586 20.99479 3.0973359 21.029816 C 3.1637507 21.09689 3.2430518 21.150418 3.3302835 21.187096 L 3.332266 21.18842 C 8.580685 23.368536 15.999981 24.772831 23.315485 24.772831 C 28.609166 24.772831 33.849985 24.03632 38.168279 22.325728 C 39.50285 21.847277 40.75152 21.156699 41.865697 20.28009 L 41.865697 21.019574 C 41.865697 22.087824 40.363599 23.272387 37.63696 24.35419 C 27.585204 28.333458 9.828678 26.288149 1.4439006 21.937485 L 1.4439006 9.79878 C 2.0178433 10.043293 2.6565448 10.280205 3.3900824 10.512491 C 3.939244 10.687284 4.5161597 10.849193 5.1036479 10.9939169 C 5.118186 10.997221 5.132064 11.000195 5.1469328 11.002837 C 10.664975 12.249849 16.309239 12.851218 21.966057 12.794714 C 30.393458 12.794714 38.621 11.549351 41.865705 8.616536 L 41.865705 9.094986 C 41.778474 9.647782 41.48473 10.147048 41.043615 10.491345 L 41.044 10.491354 Z " fill="#1d1d1b"/>
<path transform="matrix(1,0,0,1,-280.2129,-173.15857)" d="M 307.19898 198.77883 C 307.19898 200.20096 309.196 200.94441 311.169 200.94441 C 313.142 200.94441 315.139 200.20096 315.139 198.77883 C 315.139 195.93521 307.19898 195.93521 307.19898 198.77883 Z M 311.169 199.5008 C 309.58363 199.5008 308.7067 198.96712 308.64064 198.79337 C 308.7067 198.59079 309.58363 198.05715 311.169 198.05715 C 312.71699 198.05715 313.58967 198.56601 313.69108 198.77883 C 313.58967 198.99161 312.71699 199.5008 311.169 199.5008 Z " fill="#1d1d1b"/>
</g>
</g>
</g>
</g>
</g>
</svg>
