<svg xmlns="http://www.w3.org/2000/svg" xmlns:xlink="http://www.w3.org/1999/xlink" width="46" height="46" viewBox="0 0 46 46"><defs><style>.a{fill:#4c4c4c;}.b{clip-path:url(#a);}.c{fill:#1d1d1b;}</style><clipPath id="a"><rect class="a" width="46" height="46" transform="translate(2646 152)"/></clipPath></defs><g class="b" transform="translate(-2646 -152)"><path class="c" d="M3895.043-761.61h-.927a5.3,5.3,0,0,0-5.258-4.667h-9.333a5.3,5.3,0,0,0-5.26,4.667h-.926a2.033,2.033,0,0,0-2.031,2.031v3.268a2.031,2.031,0,0,0,2.031,2.031h5.21v1.261a2.149,2.149,0,0,0-1.666,1.492,2.107,2.107,0,0,0,.173,1.621,2.126,2.126,0,0,0,1.281,1.03l.208.06v.265l0,2.3a2.145,2.145,0,0,0-1.671,1.5,2.109,2.109,0,0,0,.172,1.621,2.123,2.123,0,0,0,1.281,1.029l.208.061v2.561a2.142,2.142,0,0,0-1.665,1.49,2.111,2.111,0,0,0,.173,1.622,2.123,2.123,0,0,0,1.281,1.029l.209.061v2.561a2.14,2.14,0,0,0-1.665,1.492,2.1,2.1,0,0,0,.171,1.62,2.13,2.13,0,0,0,1.281,1.03l.209.06v2.561a2.145,2.145,0,0,0-1.665,1.492,2.1,2.1,0,0,0,.172,1.62,2.123,2.123,0,0,0,1.282,1.03l.207.06v3.252a1.106,1.106,0,0,0,1.1,1.1h9.1a1.1,1.1,0,0,0,1.109-1.1l0-.2a2.144,2.144,0,0,0,1.665-1.492,2.13,2.13,0,0,0-1.443-2.646l-.012,0-.207-.06-.007-2.561.014-.01a2.145,2.145,0,0,0,1.653-1.487,2.133,2.133,0,0,0-1.444-2.647l-.011,0-.209-.06-.007-2.565a2.14,2.14,0,0,0,1.665-1.492,2.131,2.131,0,0,0-1.443-2.646l-.012,0-.207-.06,0-2.564a2.141,2.141,0,0,0,1.665-1.491,2.132,2.132,0,0,0-1.45-2.643l-.011,0-.209-.061v-2.56a2.149,2.149,0,0,0,1.666-1.492,2.133,2.133,0,0,0-1.444-2.647l-.012,0-.208-.061,0-4.318h4.014c.009,0,.017,0,.025,0h1.159a2.033,2.033,0,0,0,2.031-2.031l0-3.27A2.031,2.031,0,0,0,3895.043-761.61Zm-15.521-3.407h9.336a4.043,4.043,0,0,1,3.987,3.406h-17.31A4.04,4.04,0,0,1,3879.523-765.017Zm.279,18.877,0-2.312,8.782,2.559-.007,2.324-8.773-2.557v-.014Zm8.78,27.48h-8.774v-2.721l8.774,2.556Zm1.643-2.554a.863.863,0,0,1,.07.657.888.888,0,0,1-1.1.592l-9.826-2.856-.009-.007-.669-.2a.87.87,0,0,1-.528-.422.859.859,0,0,1-.07-.657.886.886,0,0,1,1.1-.592l9.833,2.866.671.2A.875.875,0,0,1,3890.224-721.214Zm-6.6-5.823c.008,0,.013.01.02.012s.041.012.062.017l4.826,1.395.049.015v2.318l-8.773-2.557,0-2.306Zm6.6-.937a.857.857,0,0,1,.07.657.882.882,0,0,1-1.064.594l-9.859-2.862-.006,0-.67-.2a.875.875,0,0,1-.527-.422.861.861,0,0,1-.071-.658.887.887,0,0,1,1.1-.591l9.831,2.864.672.2A.877.877,0,0,1,3890.22-727.974Zm-10.413-4.622v-2.318l8.774,2.556v2.318Zm10.423-2.139a.863.863,0,0,1,.07.657.887.887,0,0,1-1.1.591l-9.835-2.869-.67-.2a.881.881,0,0,1-.528-.422.862.862,0,0,1-.07-.658.887.887,0,0,1,1.1-.591l9.83,2.866,0,0,.672.2A.882.882,0,0,1,3890.23-734.735Zm-10.424-4.63v-2.318l8.772,2.557v2.318Zm10.42-2.135a.863.863,0,0,1,.069.657.887.887,0,0,1-1.1.592l-9.834-2.874-.673-.2a.868.868,0,0,1-.526-.422.856.856,0,0,1-.07-.657.885.885,0,0,1,1.1-.592l9.83,2.866.008.006.67.2A.877.877,0,0,1,3890.227-741.5Zm0-6.776a.86.86,0,0,1,.07.658.886.886,0,0,1-1.1.593h0l-10.507-3.063a.879.879,0,0,1-.527-.422.856.856,0,0,1-.07-.658.885.885,0,0,1,1.1-.591L3889.7-748.7A.879.879,0,0,1,3890.223-748.276Zm-10.418-4.618v-1.386h8.772v3.941Zm16-3.414a.768.768,0,0,1-.768.769h-.011c-.008,0-.016,0-.025,0l-21.665,0a.769.769,0,0,1-.769-.769l0-3.266a.77.77,0,0,1,.77-.768h21.7a.768.768,0,0,1,.768.768Z" transform="translate(-602.359 -2046.321) rotate(45)"/></g></svg>