<svg xmlns="http://www.w3.org/2000/svg" xmlns:xlink="http://www.w3.org/1999/xlink" width="46" height="46" viewBox="0 0 46 46"><defs><style>.a{fill:#4c4c4c;}.b{clip-path:url(#a);}.c{fill:#1d1d1b;}</style><clipPath id="a"><rect class="a" width="46" height="46" transform="translate(1431 2221)"/></clipPath></defs><g class="b" transform="translate(-1431 -2221)"><g transform="translate(1431.578 2133.108)"><path class="c" d="M41.7,100.7H3.153A3.156,3.156,0,0,0,0,103.854v14.02a3.156,3.156,0,0,0,3.153,3.153H41.7a3.156,3.156,0,0,0,3.153-3.153v-14.02A3.156,3.156,0,0,0,41.7,100.7Zm-2.894,16.534h-3.96a.658.658,0,0,0,0,1.317h3.96v1.157H6.046v-1.157H32.213a.658.658,0,1,0,0-1.317H6.046v-1.157H38.808Zm4.729.639a1.838,1.838,0,0,1-1.836,1.836H40.124v-4.29a.658.658,0,0,0-.658-.658H5.388a.658.658,0,0,0-.658.658v4.29H3.153a1.838,1.838,0,0,1-1.836-1.836v-14.02a1.838,1.838,0,0,1,1.836-1.836H41.7a1.838,1.838,0,0,1,1.836,1.836Z" transform="translate(0 0)"/><path class="c" d="M423.363,146.78h-1.947a.658.658,0,1,0,0,1.317h1.947a.658.658,0,0,0,0-1.317Z" transform="translate(-383.897 -42.042)"/><path class="c" d="M257.324,146.78H244.861a.658.658,0,1,0,0,1.317h12.463a.658.658,0,0,0,0-1.317Z" transform="translate(-222.81 -42.042)"/></g></g></svg>