<svg xmlns="http://www.w3.org/2000/svg" xmlns:xlink="http://www.w3.org/1999/xlink" width="46" height="46" viewBox="0 0 46 46"><defs><style>.a{fill:#1d1d1b;}.b{clip-path:url(#a);}</style><clipPath id="a"><rect class="a" width="46" height="46" transform="translate(-145 731)"/></clipPath></defs><g class="b" transform="translate(145 -731)"><g transform="translate(-239.015 731)"><g transform="translate(104.015)"><path class="a" d="M130.049,26.592l-1.107-3.127A60.466,60.466,0,0,1,125.49,3.3V.767A.767.767,0,0,0,124.723,0H109.382a.767.767,0,0,0-.767.767V3.3a60.457,60.457,0,0,1-3.452,20.169l-1.1,3.128a.767.767,0,0,0,.721,1.019h9.972v9.2a2.3,2.3,0,0,0-2.3,2.3v.767h-3.068a2.3,2.3,0,0,0-2.3,2.3v3.068a.767.767,0,0,0,.767.767h18.41a.767.767,0,0,0,.767-.767V42.189a2.3,2.3,0,0,0-2.3-2.3h-3.068v-.767a2.3,2.3,0,0,0-2.3-2.3v-9.2h9.972a.767.767,0,0,0,.723-1.023Zm-5.326,14.83a.767.767,0,0,1,.767.767v2.3H108.615v-2.3a.767.767,0,0,1,.767-.767Zm-4.6-2.3v.767h-6.137v-.767a.767.767,0,0,1,.767-.767h4.6A.767.767,0,0,1,120.121,39.121Zm-3.835-2.3v-9.2h1.534v9.2ZM105.864,26.081l.743-2.106A61.988,61.988,0,0,0,110.149,3.3V1.534h2.3v2.3a63.52,63.52,0,0,1-3.3,19.706.768.768,0,1,0,1.457.488,65.093,65.093,0,0,0,3.375-20.188v-2.3h2.3V23.779a.767.767,0,0,0,1.534,0V1.534h2.3V3.842a65.086,65.086,0,0,0,3.38,20.182.768.768,0,0,0,1.457-.488,63.515,63.515,0,0,1-3.3-19.7v-2.3h2.3V3.3a61.986,61.986,0,0,0,3.542,20.68l.743,2.1Z" transform="translate(-104.015)"/></g></g></g></svg>