<svg xmlns="http://www.w3.org/2000/svg" xmlns:xlink="http://www.w3.org/1999/xlink" width="46" height="46" viewBox="0 0 46 46"><defs><style>.a{fill:#4c4c4c;}.b{clip-path:url(#a);}.c{fill:#1d1d1b;}</style><clipPath id="a"><rect class="a" width="46" height="46" transform="translate(253 3721)"/></clipPath></defs><g class="b" transform="translate(-253 -3721)"><g transform="translate(-945 3214)"><path class="c" d="M1237.924,512H1204.09a4.094,4.094,0,0,0-4.09,4.09v27.949a4.094,4.094,0,0,0,4.09,4.09h30.249l.01,0h3.575a4.094,4.094,0,0,0,4.09-4.09V516.09A4.094,4.094,0,0,0,1237.924,512Zm2.859,32.038a2.863,2.863,0,0,1-2.859,2.862h-1.392l-.009,0H1204.09a2.863,2.863,0,0,1-2.859-2.859V516.09a2.863,2.863,0,0,1,2.859-2.859h33.834a2.863,2.863,0,0,1,2.859,2.859Z"/><path class="c" d="M1227.071,519.366h-18.892a2.535,2.535,0,0,0-2.532,2.536v13.264a2.535,2.535,0,0,0,2.532,2.532h18.892a2.535,2.535,0,0,0,2.532-2.532V521.9A2.535,2.535,0,0,0,1227.071,519.366Zm1.3,2.536v13.264a1.3,1.3,0,0,1-1.3,1.3h-18.892a1.3,1.3,0,0,1-1.3-1.3V521.9a1.3,1.3,0,0,1,1.3-1.3h18.892a1.3,1.3,0,0,1,1.3,1.3Z"/><path class="c" d="M1214.719,524.454h-4.141c-.4,0-.793.28-.793.56v1.808c0,.313.408.558.9.558s.922-.245.922-.56v-.782h2.088v.817l-2.869,4.969a.6.6,0,0,0-.082.3,1.09,1.09,0,0,0,1.155.921.522.522,0,0,0,.513-.245l2.729-5.226a2.834,2.834,0,0,0,.373-1.108v-1.452C1215.512,524.734,1215.069,524.454,1214.719,524.454Z"/><path class="c" d="M1220.833,531.4h-3.056v-.1c0-1.062,3.6-1.89,3.6-4.421a2.519,2.519,0,0,0-2.613-2.421q-.053,0-.1.006a2.414,2.414,0,0,0-2.631,2.176c0,.021,0,.043-.005.064,0,.735.35.945.816.945.595,0,.957-.327.957-.665a.8.8,0,0,1,.717-.875.834.834,0,0,1,.158,0,.809.809,0,0,1,.883.728.83.83,0,0,1,0,.1c0,1.481-3.674,2.531-3.674,4.363v1.131c0,.339.466.56.793.56l0-.005h4.153c.292,0,.549-.385.549-.8S1221.125,531.4,1220.833,531.4Z"/><path class="c" d="M1223.566,524.018a1.783,1.783,0,0,0-1.66,1.66v.583a1.783,1.783,0,0,0,3.558,0v-.583A1.783,1.783,0,0,0,1223.566,524.018Zm.731,2.243a.642.642,0,0,1-.618.641.632.632,0,0,1-.607-.641v-.583a.63.63,0,0,1,.607-.63.64.64,0,0,1,.618.63Z"/><path class="c" d="M1219.019,539.633h-2.789a1.7,1.7,0,0,0-1.7,1.7v1.595a1.7,1.7,0,0,0,1.7,1.7h2.789a1.7,1.7,0,0,0,1.7-1.7v-1.595A1.7,1.7,0,0,0,1219.019,539.633Zm.472,3.295a.472.472,0,0,1-.472.472h-2.789a.472.472,0,0,1-.471-.473v-1.594a.472.472,0,0,1,.472-.472h2.789a.472.472,0,0,1,.472.472Z"/><path class="c" d="M1210.135,539.633h-2.785a1.7,1.7,0,0,0-1.7,1.7v1.595a1.7,1.7,0,0,0,1.7,1.7h2.785a1.7,1.7,0,0,0,1.7-1.7v-1.595A1.7,1.7,0,0,0,1210.135,539.633Zm.472,3.29a.472.472,0,0,1-.472.472h-2.785a.472.472,0,0,1-.472-.472v-1.595a.472.472,0,0,1,.472-.472h2.785a.472.472,0,0,1,.472.472Z"/><path class="c" d="M1227.9,539.633h-2.789a1.7,1.7,0,0,0-1.7,1.7v1.595a1.7,1.7,0,0,0,1.7,1.7h2.789a1.7,1.7,0,0,0,1.7-1.7v-1.595A1.7,1.7,0,0,0,1227.9,539.633Zm.472,3.295a.472.472,0,0,1-.472.472h-2.789a.472.472,0,0,1-.471-.473v-1.594a.472.472,0,0,1,.472-.472h2.789a.472.472,0,0,1,.472.472Z"/><path class="c" d="M1238.478,523.508l-1.691-2.867a1.849,1.849,0,0,0-3.185,0l-1.691,2.867a1.883,1.883,0,0,0,1.622,2.84h3.324a1.883,1.883,0,0,0,1.622-2.84Zm-1.056,1.28a.641.641,0,0,1-.566.329h-3.328a.652.652,0,0,1-.561-.983l1.691-2.867a.618.618,0,0,1,1.065,0l1.691,2.867a.64.64,0,0,1,0,.655Z"/><path class="c" d="M1237.813,530.983a1.883,1.883,0,0,0-.957-.261h-3.328a1.883,1.883,0,0,0-1.622,2.84l1.691,2.867a1.853,1.853,0,0,0,3.19,0l1.691-2.867A1.883,1.883,0,0,0,1237.813,530.983Zm-.4,1.956-1.691,2.867a.618.618,0,0,1-1.065,0l-1.691-2.867a.652.652,0,0,1,.561-.983h3.324a.652.652,0,0,1,.562.983Z"/></g></g></svg>