<svg xmlns="http://www.w3.org/2000/svg" xmlns:xlink="http://www.w3.org/1999/xlink" width="46" height="46" viewBox="0 0 46 46"><defs><style>.a{fill:#4c4c4c;}.b{clip-path:url(#a);}.c{fill:#1d1d1b;}</style><clipPath id="a"><rect class="a" width="46" height="46" transform="translate(2429 520)"/></clipPath></defs><g class="b" transform="translate(-2429 -520)"><g transform="translate(-1.777 -1.454)"><g transform="translate(2441.22 523.231)"><path class="c" d="M4.614,24.413H37.567A4.619,4.619,0,0,0,42.181,19.8V4.641A4.62,4.62,0,0,0,37.567.027C9.215.043,14.843-.041,4.614.027A4.62,4.62,0,0,0,0,4.641V19.8a4.619,4.619,0,0,0,4.614,4.614Zm32.954-1.318H4.614a3.3,3.3,0,0,1-3.229-2.642,4.6,4.6,0,0,0,3.229,1.325H37.567A4.6,4.6,0,0,0,40.8,20.452,3.3,3.3,0,0,1,37.567,23.094ZM1.318,4.641a3.3,3.3,0,0,1,3.3-3.3H37.567a3.3,3.3,0,0,1,3.3,3.3V17.163a3.3,3.3,0,0,1-3.3,3.3H4.614a3.3,3.3,0,0,1-3.3-3.3V4.641Z" transform="translate(24.413) rotate(90)"/><g transform="translate(10.544 28.386)"><path class="c" d="M5.272,10.544A5.272,5.272,0,1,0,0,5.272,5.277,5.277,0,0,0,5.272,10.544Zm0-9.226A3.954,3.954,0,1,1,1.318,5.272,3.958,3.958,0,0,1,5.272,1.318Z" transform="translate(10.544) rotate(90)"/><path class="c" d="M3.029,6.058A3.029,3.029,0,1,0,0,3.029,3.032,3.032,0,0,0,3.029,6.058Zm0-4.846A1.817,1.817,0,1,1,1.212,3.029,1.82,1.82,0,0,1,3.029,1.212Z" transform="translate(8.301 2.243) rotate(90)"/></g><g transform="translate(10.544 15.386)"><path class="c" d="M5.272,10.544A5.272,5.272,0,1,0,0,5.272,5.277,5.277,0,0,0,5.272,10.544Zm0-9.226A3.954,3.954,0,1,1,1.318,5.272,3.958,3.958,0,0,1,5.272,1.318Z" transform="translate(10.544) rotate(90)"/><path class="c" d="M3.029,6.058A3.029,3.029,0,1,0,0,3.029,3.032,3.032,0,0,0,3.029,6.058Zm0-4.846A1.817,1.817,0,1,1,1.212,3.029,1.82,1.82,0,0,1,3.029,1.212Z" transform="translate(8.301 2.243) rotate(90)"/></g><g transform="translate(10.544 2.386)"><path class="c" d="M5.272,10.544A5.272,5.272,0,1,0,0,5.272,5.277,5.277,0,0,0,5.272,10.544Zm0-9.226A3.954,3.954,0,1,1,1.318,5.272,3.958,3.958,0,0,1,5.272,1.318Z" transform="translate(10.544) rotate(90)"/><path class="c" d="M3.029,6.058A3.029,3.029,0,1,0,0,3.029,3.032,3.032,0,0,0,3.029,6.058Zm0-4.846A1.817,1.817,0,1,1,1.212,3.029,1.82,1.82,0,0,1,3.029,1.212Z" transform="translate(8.301 2.243) rotate(90)"/></g><path class="c" d="M36.3,50.016H33.658a.659.659,0,1,0,0,1.318H36.3a.659.659,0,1,0,0-1.318Z" transform="translate(-27.728 -43.142)"/><path class="c" d="M36.3,50.016H33.658a.659.659,0,1,0,0,1.318H36.3a.659.659,0,1,0,0-1.318Z" transform="translate(-27.728 -30.142)"/><path class="c" d="M36.3,50.016H33.658a.659.659,0,1,0,0,1.318H36.3a.659.659,0,1,0,0-1.318Z" transform="translate(-27.728 -18.007)"/></g></g></g></svg>