<?xml version="1.0" encoding="UTF-8"?>
<svg xmlns="http://www.w3.org/2000/svg" xmlns:xlink="http://www.w3.org/1999/xlink" width="46pt" height="46pt" viewBox="0 0 46 46" version="1.1">
<g id="surface1">
<path style=" stroke:none;fill-rule:nonzero;fill:rgb(0%,0%,0%);fill-opacity:1;" d="M 18.058594 12.9375 L 18.058594 17.25 L 20.933594 17.25 L 20.933594 15.8125 L 19.496094 15.8125 L 19.496094 12.9375 Z M 18.058594 12.9375 "/>
<path style=" stroke:none;fill-rule:nonzero;fill:rgb(0%,0%,0%);fill-opacity:1;" d="M 8.894531 34.5 L 10.332031 34.5 L 10.332031 46 L 8.894531 46 Z M 8.894531 34.5 "/>
<path style=" stroke:none;fill-rule:nonzero;fill:rgb(0%,0%,0%);fill-opacity:1;" d="M 43.113281 32.382812 L 41.929688 27.734375 L 38.222656 31.445312 L 36.386719 29.613281 L 40.097656 25.902344 L 35.453125 24.71875 L 34.132812 26.035156 C 33.363281 25.90625 32.578125 25.878906 31.800781 25.949219 L 27.257812 22.191406 L 27.257812 23.820312 L 25.246094 22.496094 L 25.246094 21.226562 L 27.402344 19.789062 L 27.402344 17.25 L 28.121094 17.25 C 29.671875 17.253906 31.046875 16.261719 31.535156 14.789062 C 32.019531 13.316406 31.503906 11.699219 30.253906 10.78125 L 30.277344 10.78125 L 30.277344 10.0625 C 30.277344 4.503906 25.773438 0 20.214844 0 C 14.65625 0 10.152344 4.503906 10.152344 10.0625 L 10.152344 10.78125 L 10.175781 10.78125 C 9.03125 11.621094 8.492188 13.054688 8.800781 14.441406 C 9.105469 15.824219 10.199219 16.898438 11.589844 17.179688 L 11.589844 20.125 L 18.777344 20.125 L 18.777344 18.6875 L 13.027344 18.6875 L 13.027344 17.25 L 14.464844 17.25 L 14.464844 12.515625 L 16.714844 10.265625 L 17.195312 10.585938 C 19.035156 11.785156 21.40625 11.78125 23.246094 10.582031 L 23.71875 10.269531 L 25.964844 12.515625 L 25.964844 19.023438 L 22.15625 21.5625 L 15.183594 21.5625 L 15.183594 22.621094 L 11.828125 24.941406 L 5.519531 26.84375 C 4 27.292969 2.957031 28.695312 2.964844 30.28125 L 2.964844 46 L 4.402344 46 L 4.402344 30.28125 C 4.398438 29.332031 5.023438 28.488281 5.933594 28.21875 L 11.683594 26.484375 L 14.332031 34.390625 L 17.035156 31.6875 L 19.496094 32.207031 L 19.496094 40.25 L 20.933594 40.25 L 20.933594 32.238281 L 23.703125 31.792969 C 22.558594 34.429688 22.65625 37.441406 23.96875 40 L 22.992188 40.972656 C 21.925781 42.042969 21.925781 43.773438 22.992188 44.839844 C 24.058594 45.90625 25.789062 45.90625 26.859375 44.839844 L 27.710938 43.988281 C 31.050781 45.96875 35.246094 45.757812 38.375 43.460938 C 41.5 41.160156 42.949219 37.214844 42.058594 33.441406 Z M 30.277344 13.65625 C 30.277344 14.847656 29.3125 15.8125 28.121094 15.8125 L 27.402344 15.8125 L 27.402344 11.5 L 28.121094 11.5 C 29.3125 11.5 30.277344 12.464844 30.277344 13.65625 Z M 13.027344 15.8125 L 12.308594 15.8125 C 11.117188 15.8125 10.152344 14.847656 10.152344 13.65625 C 10.152344 12.464844 11.117188 11.5 12.308594 11.5 L 13.027344 11.5 Z M 13.027344 10.0625 L 12.308594 10.0625 C 12.066406 10.0625 11.828125 10.085938 11.589844 10.132812 L 11.589844 10.0625 C 11.589844 5.300781 15.453125 1.4375 20.214844 1.4375 C 24.976562 1.4375 28.839844 5.300781 28.839844 10.0625 L 28.839844 10.132812 C 28.601562 10.085938 28.363281 10.0625 28.121094 10.0625 L 27.402344 10.0625 C 27.402344 6.09375 24.183594 2.875 20.214844 2.875 C 16.246094 2.875 13.027344 6.09375 13.027344 10.0625 Z M 23.898438 8.417969 L 22.449219 9.386719 C 21.09375 10.269531 19.347656 10.269531 17.992188 9.386719 L 16.527344 8.417969 L 14.464844 10.484375 L 14.464844 10.0625 C 14.464844 6.886719 17.039062 4.3125 20.214844 4.3125 C 23.390625 4.3125 25.964844 6.886719 25.964844 10.0625 L 25.964844 10.484375 Z M 28.347656 28.542969 L 28.695312 28.335938 L 28.695312 25.242188 L 31.351562 27.441406 L 31.65625 27.40625 C 31.972656 27.367188 32.292969 27.347656 32.613281 27.347656 C 32.679688 27.347656 32.742188 27.355469 32.808594 27.355469 L 31.027344 29.136719 L 31.832031 32.132812 L 25.050781 38.910156 C 23.371094 35.117188 24.785156 30.667969 28.347656 28.539062 Z M 16.566406 30.125 L 14.957031 31.734375 L 12.996094 25.882812 L 15.183594 24.367188 L 15.183594 27 L 18.246094 30.476562 Z M 20.214844 30.539062 L 16.621094 26.457031 L 16.621094 23 L 22.585938 23 L 23.808594 22.1875 L 23.808594 26.457031 Z M 22.074219 30.597656 L 25.246094 27 L 25.246094 24.214844 L 27.257812 25.542969 L 27.257812 27.535156 C 26.195312 28.238281 25.28125 29.144531 24.570312 30.199219 Z M 32.613281 43.882812 C 31.273438 43.882812 29.953125 43.554688 28.769531 42.929688 L 35.695312 36 L 38.691406 36.804688 L 40.8125 34.683594 C 40.851562 34.992188 40.875 35.304688 40.878906 35.617188 C 40.871094 40.179688 37.175781 43.875 32.613281 43.882812 Z M 38.261719 35.199219 L 35.265625 34.398438 L 25.839844 43.824219 C 25.335938 44.328125 24.515625 44.328125 24.007812 43.824219 C 23.503906 43.316406 23.503906 42.496094 24.007812 41.992188 L 33.433594 32.566406 L 32.632812 29.570312 L 35.886719 26.3125 L 37.292969 26.671875 L 34.355469 29.613281 L 38.222656 33.476562 L 41.160156 30.539062 L 41.519531 31.945312 Z M 38.261719 35.199219 "/>
</g>
</svg>
