<svg xmlns="http://www.w3.org/2000/svg" xmlns:xlink="http://www.w3.org/1999/xlink" width="46" height="46" viewBox="0 0 46 46"><defs><style>.a{fill:#4c4c4c;}.b{clip-path:url(#a);}.c{fill:#1d1d1b;}</style><clipPath id="a"><rect class="a" width="46" height="46" transform="translate(1413 2473)"/></clipPath></defs><g class="b" transform="translate(-1413 -2473)"><g transform="translate(-114.991 2248.001)"><path class="c" d="M1571.326,265.212h-1.1l-.1-.127a2.384,2.384,0,0,0-1.1-.814l-1.081-.361-.71-.709c-.412-.412-1.377-.478-2.869-.2l-.2-.044v-4.31a5.78,5.78,0,0,0,6.431-7.444.62.62,0,0,0-.405-.4,5.763,5.763,0,0,0-5.825,1.426,5.827,5.827,0,0,0-1.567,2.878c-.075-.088-.152-.171-.231-.25a4.808,4.808,0,0,0-4.857-1.189.622.622,0,0,0-.405.4,4.814,4.814,0,0,0,5.621,6.159v2.465a24.5,24.5,0,0,0-2.634-.487c-.331,0-.785,0-2.067,2.926l-.036.082h-5.077V248.092c.094,0,.161-.011.23-.012.933-.016,1.061-.146,1.061-1.083V238.85c.225,0,.414.007.6,0a.652.652,0,0,0,.709-.589.755.755,0,0,0,0-.094q.021-1.3,0-2.6a.649.649,0,0,0-.623-.671h-.059c-.2-.011-.4,0-.6,0v-2.638h.356c.759,0,1-.244.917-1a4.748,4.748,0,0,0-2.79-3.9,4.662,4.662,0,0,0-5.334,1.269,4.426,4.426,0,0,0-1.086,2.871.673.673,0,0,0,.579.754.694.694,0,0,0,.144,0c.188.007.375,0,.565,0v2.637h-.4c-.681,0-.892.21-.894.877,0,.769-.006,1.538,0,2.307a.677.677,0,0,0,.572.768h0a.765.765,0,0,0,.179,0h.567v8.384c0,.616.225.836.847.842h.439v17.138h-3.334l-.016-.036c-1.524-3.476-2.06-3.476-2.381-3.476a32.57,32.57,0,0,0-3.365.63v-3.383a5.726,5.726,0,0,0,6.862-7.272.6.6,0,0,0-.393-.393,5.708,5.708,0,0,0-5.77,1.412,5.5,5.5,0,0,0-.478.546,6.9,6.9,0,0,0-8.88-5.453.6.6,0,0,0-.394.394,6.887,6.887,0,0,0,7.849,8.851v5.564l-.4.088c-1.232-.236-2.812-.392-3.393.189l-.891.891-1.353.451a2.76,2.76,0,0,0-1.273.943l-.047.058h-.645a1.087,1.087,0,0,0-.8.41v3.131a1.035,1.035,0,0,0,.956.419q19.734-.012,39.468-.007h.947c.586-.005.813-.236.815-.832v-2.266C1572.2,265.431,1571.977,265.213,1571.326,265.212Zm-9.54-8.226a.618.618,0,0,0-.553,1.106,3.2,3.2,0,0,1,.909,1,3.593,3.593,0,0,1-2.776-1.039,3.556,3.556,0,0,1-.969-3.292,3.556,3.556,0,0,1,3.292.968,3.611,3.611,0,0,1,1.016,2.041A3.027,3.027,0,0,0,1561.786,256.986Zm-20.237-3.443a4.477,4.477,0,0,1,4.249-1.2,4.479,4.479,0,0,1-1.2,4.249,4.528,4.528,0,0,1-3.757,1.288,4.368,4.368,0,0,1,1.3-1.488.6.6,0,1,0-.539-1.076h0a4.2,4.2,0,0,0-1.382,1.321,4.53,4.53,0,0,1,1.329-3.094Zm23.688-.439a4.559,4.559,0,0,1,4.262-1.208,4.542,4.542,0,0,1-4.878,5.568,3.829,3.829,0,0,1,1.3-1.85.619.619,0,0,0-.687-1.03,4.362,4.362,0,0,0-1.32,1.461,4.529,4.529,0,0,1,1.323-2.941Zm-4.765,10.364c.623.1,2.355.464,3.75.774a.6.6,0,0,0,.254,0,5.92,5.92,0,0,1,1.913-.138l.782.782a.614.614,0,0,0,.242.149l.522.175h-8.389a13.5,13.5,0,0,1,.926-1.742Zm-9.525-35.166h0a3.256,3.256,0,0,1,3.362,2.617h-6.4a3.226,3.226,0,0,1,3.038-2.617Zm2.1,3.974v2.587h-3.9v-2.587Zm-5.218,5.223v-1.267h6.536V237.5Zm1.317,9.238v-7.856h3.9v7.856Zm2.584,1.363v17.083h-1.268V248.1Zm-15.4,4.9a.6.6,0,0,0,.256.383,4.919,4.919,0,0,1,1.7,2.511,5.688,5.688,0,0,1-6.279-7.044,5.709,5.709,0,0,1,5.432,1.491,5.647,5.647,0,0,1,1.66,4.323,5.469,5.469,0,0,0-1.847-2.283.6.6,0,0,0-.924.619Zm-1.7,11.857a.594.594,0,0,0,.236-.145l.973-.974a6.672,6.672,0,0,1,2.45.147.576.576,0,0,0,.248,0c1.8-.4,4-.861,4.672-.959a14.822,14.822,0,0,1,1.23,2.29h-10.875Zm36.232,2.965h-39.5v-1.269h39.5Z"/><path class="c" d="M1532.665,244.32a.649.649,0,0,0,.647-.647v-.144c0-.8-.017-9.39.005-10.19a2.9,2.9,0,0,1,2.284-2.9,4.724,4.724,0,0,1,1.177-.155c2.774-.012,5.548-.007,8.321-.007h.134a.66.66,0,0,0,.01-1.312h-.16c-2.92-.006-5.841-.039-8.76.015a4.217,4.217,0,0,0-4.191,3.411c-.178.974-.107,10.123-.143,11.123v.126A.679.679,0,0,0,1532.665,244.32Z"/><path class="c" d="M1542.325,232.916a3.7,3.7,0,0,0-3.652,3.121,27.127,27.127,0,0,0-.09,3.2v1.9a.662.662,0,1,0,1.324-.006v0c0-.918-.008-3.458,0-4.358v-.043a2.515,2.515,0,0,1,2.528-2.5h0c.974-.006,1.949,0,2.923,0h.465a.677.677,0,0,0,.524-.261.6.6,0,0,0,.115-.37v-.061a.607.607,0,0,0-.123-.378.554.554,0,0,0-.045-.051c-.01-.011-.023-.023-.035-.034a.665.665,0,0,0-.355-.161h-.161C1544.6,232.909,1543.461,232.9,1542.325,232.916Z"/><path class="c" d="M1556.966,230.276h.064c2.8,0,5.591,0,8.391.007a4.732,4.732,0,0,1,1.178.155,2.9,2.9,0,0,1,2.283,2.9c.021.8.005,9.39.005,10.19v.143a.649.649,0,0,0,.647.647h.01a.678.678,0,0,0,.666-.69h0v-.109c-.036-1,.035-10.149-.143-11.123a4.218,4.218,0,0,0-4.19-3.411c-2.946-.055-5.9-.015-8.846-.015a.5.5,0,0,0-.077.006.655.655,0,0,0,.012,1.3Z"/><path class="c" d="M1556.394,234.235h.444c.974,0,1.949-.005,2.923,0a2.515,2.515,0,0,1,2.533,2.5h0v.04c.007.889,0,3.4,0,4.338a.676.676,0,0,0,.574.678.662.662,0,0,0,.749-.656v-1.892a27.526,27.526,0,0,0-.09-3.2,3.7,3.7,0,0,0-3.653-3.122c-1.155-.012-2.31-.006-3.481,0a.659.659,0,0,0,0,1.318Z"/><path class="c" d="M1539.245,244.134a.662.662,0,0,0-.662.662v.525a.661.661,0,1,0,1.323,0V244.8A.661.661,0,0,0,1539.245,244.134Z"/><path class="c" d="M1562.968,243.21a.661.661,0,0,0-.662.661v.526a.661.661,0,1,0,1.323,0v-.526A.661.661,0,0,0,1562.968,243.21Z"/><path class="c" d="M1569.623,246.737a.661.661,0,0,0-.661.662v.525a.661.661,0,1,0,1.323,0V247.4A.662.662,0,0,0,1569.623,246.737Z"/></g></g></svg>