<svg xmlns="http://www.w3.org/2000/svg" xmlns:xlink="http://www.w3.org/1999/xlink" width="46" height="46" viewBox="0 0 46 46"><defs><style>.a{fill:#4c4c4c;}.b{clip-path:url(#a);}.c{fill:#1d1d1b;}</style><clipPath id="a"><rect class="a" width="46" height="46" transform="translate(2104 945)"/></clipPath></defs><g class="b" transform="translate(-2104 -945)"><path class="c" d="M1003.537,534.475h-.717l-.005-.042a3.184,3.184,0,0,0-2.461-2.661l-.033-.026a3.849,3.849,0,0,0-.91-1.414,3.911,3.911,0,0,0-2.784-1.165c-.141,0-.274.011-.439.024l-.048.005-.016-.038a3.937,3.937,0,0,0-7.281-.43l-.048.1-.047-.1a3.119,3.119,0,0,0-5.926,1.135,3.06,3.06,0,0,0-1.05.3,3.093,3.093,0,0,0-1.761,2.774l0,.055-.043.012a3.09,3.09,0,0,0-2.041,1.585l-3.286.025V516.135A1.145,1.145,0,0,0,973.5,515h-1.312a1.131,1.131,0,0,0-1.125,1.136v18.448h-1.173a1.138,1.138,0,0,0-1.126,1.138v1.7a1.13,1.13,0,0,0,1.123,1.127h1.176v8.013h-.181a1.137,1.137,0,0,0-1.125,1.136v2.485h-2.6a1.136,1.136,0,0,0-1.132,1.126v1.38h-2.011a2.023,2.023,0,0,0-1.165,3.676l.055.039-.333.326a.661.661,0,0,0,.038.934.662.662,0,0,0,.905-.009l.922-.922h.536l-.062.086a.7.7,0,0,0-.095.486.643.643,0,0,0,.28.435.662.662,0,0,0,.827-.084l.922-.922h.544l-.058.083a.715.715,0,0,0-.1.5.692.692,0,0,0,.291.426.67.67,0,0,0,.826-.085l.923-.922h.535l-.06.083a.677.677,0,0,0,.184.924.662.662,0,0,0,.827-.084l.923-.922h.44v.464a.658.658,0,1,0,1.316,0v-.464h.886l.922.922a.661.661,0,0,0,1.012-.842l-.054-.081h.542l.931.93a.776.776,0,0,0,.463.187.671.671,0,0,0,.462-.2.685.685,0,0,0,.077-.841l-.057-.079h.536l.932.929a.767.767,0,0,0,.46.187h.005a.656.656,0,0,0,.467-.2.668.668,0,0,0,.069-.839l-.055-.082h.543l.921.92a.651.651,0,0,0,.46.2.659.659,0,0,0,.471-1.123l-.451-.458.042-.037a2.034,2.034,0,0,0,.454-.568l.019-.034h14.43a1.834,1.834,0,0,0,1.776-1.479l.253-1.393.04-.005a1.882,1.882,0,0,0,.7-3.528l-.062-.034,0-.04,1.946-10.6h.956a1.126,1.126,0,0,0,1.124-1.123v-1.815A1.146,1.146,0,0,0,1003.537,534.475ZM971.061,535.9v1.333h-.983V535.9Zm1.314-19.586h.944l-.009,30.249h-.932Zm14.589,29.975a2.085,2.085,0,0,1-.253.019h0a2.417,2.417,0,0,1-.01-4.835h.014a2.416,2.416,0,0,1,2.169,1.343l.073.151-.92-.5a1.9,1.9,0,0,0-2.55.78,1.876,1.876,0,0,0-.14,1.427,1.853,1.853,0,0,0,.916,1.113l.887.477Zm-.323-2.415a.572.572,0,0,1,.5-.3.521.521,0,0,1,.207.042l12.727,6.775a.572.572,0,0,1,.266.69l-.037.068a.592.592,0,0,1-.766.231l-12.664-6.743a.562.562,0,0,1-.234-.76Zm12.761,4.658-8.96-4.773v-.027a3.739,3.739,0,1,0-6.275,2.892,3.638,3.638,0,0,0,2.682.987,3.794,3.794,0,0,0,1.781-.527l.031-.019,10.02,5.349-.273,1.487a.546.546,0,0,1-.457.406h-14.3l-.007-.045a2.031,2.031,0,0,0-1.969-1.576h-2.008v-1.381a1.133,1.133,0,0,0-1.13-1.125h-2.587V547.7a1.147,1.147,0,0,0-1.136-1.135h-.169v-8.014h26.612Zm-20.664,5.217a1.558,1.558,0,0,0,1.129.259h1.816a.7.7,0,0,1,0,1.4l-17.672,0a.672.672,0,0,1-.5-.2.688.688,0,0,1-.207-.495.7.7,0,0,1,.7-.7H966.4a1.022,1.022,0,0,0,.685-.285,1.13,1.13,0,0,0,.271-.884V551.5h11v1.352A1.143,1.143,0,0,0,978.738,553.752Zm-7.665-3.566v-2.31h3.549v2.31Zm25.541-19.86.013.158a2.611,2.611,0,0,1,2.552,2.041.659.659,0,0,0,.608.5,1.858,1.858,0,0,1,1.687,1.388l.017.068h-3.027l-.014-.034a2.543,2.543,0,0,0-2.424-1.82h-.472l-.008-.042a2.925,2.925,0,0,0-.749-1.284l-.04-.036.042-.041a2.606,2.606,0,0,1,1.815-.735v-.158Zm-16.981,4.252a1.824,1.824,0,0,1,.843-.327,1.316,1.316,0,0,1,.17-.009h.081a1.754,1.754,0,0,1,.978.325Zm5.9-.681h.109a1.764,1.764,0,0,1,1.521.64l-4.343.024a.667.667,0,0,0-.075-.847,3.065,3.065,0,0,0-1.372-.709l-.047-.013v-.051a1.791,1.791,0,0,1,.568-1.258,1.734,1.734,0,0,1,1.293-.485,1.8,1.8,0,0,1,1.745,1.8,1.11,1.11,0,0,1-.009.192A.666.666,0,0,0,985.529,533.9Zm2.8-2.895h.111a1.79,1.79,0,0,1,1.86,1.16l.006.015-.007.019a2.835,2.835,0,0,0-.223,1.092.658.658,0,0,0,1.316,0,1.548,1.548,0,0,1,.2-.753c.01-.01.063-.086.106-.151a1.466,1.466,0,0,1,2.033-.267,1.448,1.448,0,0,1,.568,1.171.656.656,0,0,0,.654.651h1.058a1.2,1.2,0,0,1,.942.458l.067.082-8.271.047-.036-.076a3.739,3.739,0,0,0-.867-1.129,3.234,3.234,0,0,0-.761-.494,1.759,1.759,0,0,0-.308-.1.721.721,0,0,1-.4-.192,1.442,1.442,0,0,1-.175-.322l-.1-.243a3.319,3.319,0,0,0-1.943-1.943l-.03-.01a1.8,1.8,0,0,1,3.6.088,1.106,1.106,0,0,1-.009.192A.666.666,0,0,0,988.329,531Zm6.5-1.407a3.86,3.86,0,0,0-1.017.744c-.028.033-.059.065-.088.1s-.078.084-.116.129l-.023.028-.035-.008a2.753,2.753,0,0,0-2.293.426l-.039.028-.033-.045a3.132,3.132,0,0,0-1.326-1.076l-.05-.021.008-.041a2.642,2.642,0,0,1,5.036-.331l.017.047Zm8.511,6.21v1.43H974.631V535.9Z" transform="translate(1143.983 431.973)"/></g></svg>