<svg xmlns="http://www.w3.org/2000/svg" xmlns:xlink="http://www.w3.org/1999/xlink" width="46" height="46" viewBox="0 0 46 46"><defs><style>.a{fill:#4c4c4c;}.b{clip-path:url(#a);}.c{fill:#1d1d1b;}</style><clipPath id="a"><rect class="a" width="46" height="46" transform="translate(1912 1713)"/></clipPath></defs><g class="b" transform="translate(-1912 -1713)"><path class="c" d="M414.4-526.331c0,.168,0,.293,0,.419q0,1.662,0,3.324a.752.752,0,0,1-.841.854q-3.73,0-7.46,0a.758.758,0,0,1-.864-.865q0-1.626,0-3.253v-.479c-.173,0-.321,0-.469,0a23.03,23.03,0,0,1-4.263-.215,13.87,13.87,0,0,1-3.008-.981,12.746,12.746,0,0,1-3.511-2.383,12.769,12.769,0,0,1-3.046-4.366,12.963,12.963,0,0,1-1.013-5.5.572.572,0,0,0-.353-.627,2.248,2.248,0,0,1-1.158-2.409,2.264,2.264,0,0,1,2.053-1.841c.281-.023.565-.016.848-.016l8.168-.006c.114,0,.229-.011.36-.018v-1.556c-.5,0-.987.008-1.477,0a.72.72,0,0,1-.777-.62.73.73,0,0,1,.712-.866c1.544-.013,3.088-.01,4.632,0a.723.723,0,0,1,.735.745.7.7,0,0,1-.732.739c-.5.017-1.008,0-1.532,0v1.547a2.332,2.332,0,0,0,.26.028c1.838,0,3.677,0,5.515.013.3,0,.369-.1.368-.388-.007-4.194,0-8.388,0-12.582a6.65,6.65,0,0,1,2.582-5.446,6.593,6.593,0,0,1,5.946-1.3,6.805,6.805,0,0,1,5.17,5.8,12.989,12.989,0,0,1,.043,1.693c0,1.26-.009,2.521-.034,3.781a.685.685,0,0,1-.78.745q-1.45,0-2.9,0a.743.743,0,0,1-.832-.824c0-1.461.006-2.923,0-4.384a2.34,2.34,0,0,0-2.186-2.45,2.316,2.316,0,0,0-2.419,2.005,7.524,7.524,0,0,0-.038.882q0,5.6,0,11.208c0,.341-.013.682.012,1.021.006.084.138.227.212.228,1.933.011,3.865.006,5.8,0a.445.445,0,0,0,.115-.038v-1.526h-1.335a.861.861,0,0,1-.764-.28.707.707,0,0,1-.1-.763.706.706,0,0,1,.66-.454c.554-.005,1.108,0,1.662,0,.966,0,1.933,0,2.9,0a.755.755,0,0,1,.753.482.61.61,0,0,1-.135.747,1.465,1.465,0,0,1-.73.262c-.441.041-.889.011-1.351.011v1.574h.455q4.3,0,8.592,0a2.249,2.249,0,0,1,2.326,1.636,2.26,2.26,0,0,1-1.171,2.676.442.442,0,0,0-.276.453,26.428,26.428,0,0,1-.258,3.126,12.532,12.532,0,0,1-3.8,6.9,12.483,12.483,0,0,1-5.2,3.009,12.2,12.2,0,0,1-3.54.547C416.088-526.34,415.266-526.331,414.4-526.331Zm-22.938-13.791a.98.98,0,0,0-.039.152,11.424,11.424,0,0,0,3.51,8.909,11.108,11.108,0,0,0,3.138,2.18,11.1,11.1,0,0,0,4.676,1.045c4.713.023,9.426.016,14.139,0a10.991,10.991,0,0,0,5.5-1.47,11.311,11.311,0,0,0,3.848-3.552,11.629,11.629,0,0,0,1.969-5.775c.033-.486,0-.976,0-1.493Zm18.344-3.053h-18.84c-.106,0-.212-.005-.318,0a.763.763,0,0,0-.76.732.753.753,0,0,0,.677.808,3.844,3.844,0,0,0,.529.015h37.566a2.716,2.716,0,0,0,.423-.015.725.725,0,0,0,.614-.515.658.658,0,0,0-.177-.776,1.406,1.406,0,0,0-.773-.24q-9.155-.019-18.31-.01Zm-.78-1.531,1.574,0v-.456q0-6.275,0-12.55a3.608,3.608,0,0,1,1.163-2.751,3.651,3.651,0,0,1,3.991-.819,3.712,3.712,0,0,1,2.464,3.5c.008,1.167,0,2.333,0,3.5v.4H419.8v-.38q0-1.749,0-3.5a5.393,5.393,0,0,0-5.272-5.328,5.38,5.38,0,0,0-5.494,5.43Zm3.849,18.392h-6.121c-.01.13-.026.244-.026.358,0,.777.012,1.554-.007,2.331-.008.306.078.4.395.4,1.789-.015,3.579-.008,5.368-.008h.392Z" transform="translate(1525.498 2279.424)"/></g></svg>