<svg xmlns="http://www.w3.org/2000/svg" xmlns:xlink="http://www.w3.org/1999/xlink" width="46" height="46" viewBox="0 0 46 46"><defs><style>.a{fill:#4c4c4c;}.b{clip-path:url(#a);}.c{fill:#1d1d1b;}</style><clipPath id="a"><rect class="a" width="46" height="46" transform="translate(238 3088)"/></clipPath></defs><g class="b" transform="translate(-238 -3088)"><g transform="translate(-361 2742.002)"><path class="c" d="M628.86,347a11.205,11.205,0,0,0-11.42,11.2v26.13h-1.49v-9.68a.764.764,0,0,0-.77-.77h-7.45a2.24,2.24,0,0,0,0,4.48h2.24v5.97h-5.2a.764.764,0,0,0-.77.77v5.93a.764.764,0,0,0,.77.77h31.31a.764.764,0,0,0,.77-.77V385.1a.764.764,0,0,0-.77-.77h-5.2v-5.97H633a2.324,2.324,0,0,0,2.35-2.01,2.24,2.24,0,0,0-2.23-2.47h-7.44a.764.764,0,0,0-.77.77v9.68h-1.5V358.42a5.386,5.386,0,0,1,4.72-5.43,5.234,5.234,0,0,1,5.74,5.21v3.73a.755.755,0,0,0,.75.75h4.48a.738.738,0,0,0,.74-.74v-3.37A11.449,11.449,0,0,0,628.86,347Zm-21.13,29.87a.754.754,0,0,1-.77-.72.763.763,0,0,1,.72-.78h6.77v8.96h-2.98V377.4a.527.527,0,0,0-.528-.528Zm18.67-1.49h6.72a.747.747,0,0,1,.72.77.759.759,0,0,1-.72.72h-3.2a.527.527,0,0,0-.528.528v6.942H626.4Zm8.96,10.45v4.48H605.49v-4.48Zm2.99-24.64h-2.99v-1.5h2.99Zm-2.99-2.99a6.72,6.72,0,1,0-13.44,0v26.13h-2.99V358.2a9.71,9.71,0,1,1,19.42,0Z"/></g></g></svg>