<?xml version="1.0" encoding="UTF-8" standalone="no"?>
<!DOCTYPE svg PUBLIC "-//W3C//DTD SVG 1.1//EN" "http://www.w3.org/Graphics/SVG/1.1/DTD/svg11.dtd">
<svg xmlns="http://www.w3.org/2000/svg" xmlns:xlink="http://www.w3.org/1999/xlink" version="1.1" width="46pt" height="46pt" viewBox="0 0 46 46">
<g enable-background="new">
<g>
<clipPath id="cp0">
<path transform="matrix(.25,0,0,.25,0,0)" d="M 0 0 L 184 0 L 184 184 L 0 184 Z " fill-rule="evenodd"/>
</clipPath>
<g clip-path="url(#cp0)">
<g>
<clipPath id="cp1">
<path transform="matrix(.25,0,0,.25,0,0)" d="M 0 0 L 184 0 L 184 184 L 0 184 Z " fill-rule="evenodd"/>
</clipPath>
<g clip-path="url(#cp1)">
<path transform="matrix(1,0,0,1,8.001465,1.9995117)" d="M 28.979802 35.571317 L 20.29778 14.409374 C 19.816332 13.235366 19.572009 11.996827 19.572009 10.7279 L 19.572009 5.134116 C 19.572009 4.531762 19.806624 3.9654315 20.232626 3.5394293 C 20.751973 3.020083 21.038273 2.329399 21.038273 1.5948551 L 21.038273 .802366 C 21.038273 .3594489 20.67899 .00047969819 20.236386 .00047969819 L 9.040369 .00047969819 C 8.597452 .00047969819 8.238482 .3594489 8.238482 .802366 L 8.238482 1.5948551 C 8.238482 2.3293958 8.524467 3.0200797 9.043817 3.5394293 C 9.469819 3.9654315 9.704433 4.5317637 9.704433 5.134429 L 9.704433 10.7279 C 9.704433 11.99682 9.4604229 13.235358 8.978664 14.409374 L 6.5930526 20.224303 C 6.5921127 20.226494 6.5911729 20.228688 6.590233 20.23088 L .29667668 35.571367 C -.20732174 36.80019 -.06667808 38.192529 .6731872 39.295438 C 1.4130526 40.39866 2.6475197 41.057085 3.9756439 41.057085 L 25.300848 41.057085 C 26.628973 41.057085 27.863749 40.398664 28.603617 39.295438 C 29.343169 38.192216 29.483819 36.80019 28.979817 35.571367 L 28.979802 35.571317 Z M 10.4624819 15.017928 C 11.023802 13.650023 11.308224 12.206628 11.308224 10.727837 L 11.308224 5.134054 C 11.308224 4.1035015 10.906967 3.13435 10.1780619 2.4054516 C 9.963807 2.191197 9.844777 1.9067783 9.842272 1.6041913 L 19.434517 1.6041913 C 19.432009 1.9067781 19.31298 2.190884 19.098412 2.4054516 C 18.369824 3.1343532 17.96825 4.1031968 17.96825 5.134054 L 17.96825 10.727524 C 17.96825 12.206315 18.252982 13.64971 18.813994 15.017616 L 20.750107 19.736845 L 8.526311 19.736845 L 10.4624819 15.017928 Z M 27.271382 38.401979 C 26.823454 39.07011 26.1052 39.4532 25.300812 39.4532 L 3.975608 39.4532 C 3.171533 39.4532 2.4532755 39.07011 2.0050369 38.401979 C 1.6670549 37.89798 1.5380008 37.31348 1.625707 36.737127 L 2.9469429 36.737127 C 3.3895467 36.737127 3.7488287 36.377843 3.7488287 35.93524 C 3.7488287 35.49232 3.3895467 35.133356 2.9469429 35.133356 L 2.21021 35.133356 L 3.131128 32.888074 L 4.483686 32.888074 C 4.9266035 32.888074 5.285572 32.52879 5.285572 32.086187 C 5.285572 31.64327 4.9266035 31.284298 4.483686 31.284298 L 3.78924 31.284298 L 4.7101585 29.039017 L 6.100934 29.039017 C 6.543851 29.039017 6.90282 28.679734 6.90282 28.237128 C 6.90282 27.794215 6.543851 27.435244 6.100934 27.435244 L 5.368273 27.435244 L 6.2895038 25.189963 L 7.717864 25.189963 C 8.16078 25.189963 8.51975 24.830679 8.51975 24.388077 C 8.51975 23.945158 8.16078 23.586192 7.717864 23.586192 L 6.947301 23.586192 L 7.868532 21.340909 L 21.407902 21.340909 L 27.495976 36.180215 C 27.801068 36.924154 27.719315 37.73418 27.271384 38.402 L 27.271382 38.401979 Z " fill="#1d1d1b"/>
<path transform="matrix(1,0,0,1,-215.35938,-288.9037)" d="M 247.24753 323.76194 L 244.37577 316.76234 C 244.20787 316.3526 243.73958 316.15653 243.32956 316.32475 C 242.91983 316.4926 242.72406 316.9612 242.89196 317.37095 L 245.76372 324.37055 C 245.8909 324.68098 246.19002 324.8683 246.5061 324.8683 C 246.60727 324.8683 246.71031 324.84916 246.80992 324.8081 C 247.21965 324.64024 247.41573 324.17167 247.24753 323.76194 Z " fill="#1d1d1b"/>
</g>
</g>
</g>
</g>
</g>
</svg>
