<svg xmlns="http://www.w3.org/2000/svg" xmlns:xlink="http://www.w3.org/1999/xlink" width="80" height="80" viewBox="0 0 80 80"><defs><style>.a{fill:#ffdc00;}.b{clip-path:url(#a);}.c{fill:#1d1d1b;}</style><clipPath id="a"><rect class="a" width="80" height="80" transform="translate(-11196 3822)"/></clipPath></defs><g class="b" transform="translate(11196 -3822)"><path class="c" d="M117.8,278.108h-.009V227.52a2.86,2.86,0,0,0-.836-2.014,2.927,2.927,0,0,0-.418-.352c-.076-.047-.152-.1-.237-.143a3.051,3.051,0,0,0-.779-.285,2.924,2.924,0,0,0-.579-.057H44.65a2.829,2.829,0,0,0-.57.057,3.257,3.257,0,0,0-.788.285c-.076.048-.161.1-.237.143a2.927,2.927,0,0,0-.418.352,2.86,2.86,0,0,0-.836,2.014v70.3a2.86,2.86,0,0,0,.836,2.014,3.714,3.714,0,0,0,.418.352c.076.047.161.1.237.143a3.257,3.257,0,0,0,.788.285,2.827,2.827,0,0,0,.57.057h70.291a2.922,2.922,0,0,0,.579-.057,3.051,3.051,0,0,0,.779-.285c.085-.048.161-.1.237-.143a3.714,3.714,0,0,0,.418-.352,2.86,2.86,0,0,0,.836-2.014V280.483h.009Zm-2.384-50.588v50.588H103.78V227.045h11.161A.47.47,0,0,1,115.416,227.52Zm-14.011,23.038H88.582V227.045h12.823Zm-15.2,27.55H73.384V227.045H86.207Zm-15.2-27.55H58.185V227.045H71.009ZM44.175,227.52a.476.476,0,0,1,.475-.475H55.811v51.062H44.175Zm0,70.3V280.483H55.811V298.3H44.65A.476.476,0,0,1,44.175,297.82Zm14.011-44.887H71.009V298.3H58.185Zm15.2,27.55H86.207V298.3H73.384Zm15.2-27.55h12.823V298.3H88.582Zm26.834,44.887a.47.47,0,0,1-.475.475H103.78V280.483h11.636Z" transform="translate(-11235.8 3599.33)"/></g></svg>