<svg xmlns="http://www.w3.org/2000/svg" xmlns:xlink="http://www.w3.org/1999/xlink" width="46" height="46" viewBox="0 0 46 46"><defs><style>.a{fill:#4c4c4c;}.b{clip-path:url(#a);}.c{fill:#1d1d1b;}</style><clipPath id="a"><rect class="a" width="46" height="46" transform="translate(1186 -76)"/></clipPath></defs><g class="b" transform="translate(-1186 76)"><path class="c" d="M7128.049-1463.245c-5.242-5.379-8.881-11.917-11.9-18.744a1.03,1.03,0,0,0,.291-.717v-1.782a1.987,1.987,0,0,0-1.34-1.876v-11.993a.644.644,0,0,0-.643-.643.643.643,0,0,0-.644.643v11.993a1.988,1.988,0,0,0-1.34,1.876v1.782a1.032,1.032,0,0,0,.275.7,59.808,59.808,0,0,1-2.883,6.032,33.069,33.069,0,0,1-7.739-6.407,1.034,1.034,0,0,0,.131-.5v-1.782a1.988,1.988,0,0,0-1.34-1.876v-11.814a.643.643,0,0,0-.644-.643.643.643,0,0,0-.643.643v11.814a1.987,1.987,0,0,0-1.34,1.876v1.787a1.034,1.034,0,0,0,.119.481,42.3,42.3,0,0,1-10.424,7.905H7086.3a1.3,1.3,0,0,0-1.3,1.295v1.481a1.3,1.3,0,0,0,1.3,1.3h10.6a3.429,3.429,0,0,0,3.98,2.772,3.428,3.428,0,0,0,2.773-2.772h2.814a65.883,65.883,0,0,1-5.665,7.241,3.227,3.227,0,0,0-.846,2.187,1.5,1.5,0,0,0,1.5,1.5h9.624a3.436,3.436,0,0,0,4.01,2.742,3.438,3.438,0,0,0,2.743-2.742h9.632a1.5,1.5,0,0,0,1.5-1.5A3.226,3.226,0,0,0,7128.049-1463.245Zm-13.6,5.26h0a2.144,2.144,0,0,1-2.05-1.5h4.1A2.157,2.157,0,0,1,7114.454-1457.985Zm-.7-26.5a.7.7,0,0,1,.7-.7.7.7,0,0,1,.7.7v1.531h-1.393Zm-14.181-.179a.7.7,0,0,1,.7-.7.7.7,0,0,1,.7.7v1.531h-1.393Zm.053,2.821h1.254a34.467,34.467,0,0,0,8.93,7.349h-19.28A39.8,39.8,0,0,0,7099.631-1481.845Zm.638,12.932h0a2.151,2.151,0,0,1-2.05-1.5h4.1A2.156,2.156,0,0,1,7100.27-1468.913ZM7086.3-1471.7a.012.012,0,0,1-.013-.011v-1.482a.012.012,0,0,1,.011-.012h27.942a.012.012,0,0,1,.012.012v1.481a.012.012,0,0,1-.012.012Zm41.158,10.928h-26.009a.214.214,0,0,1-.214-.215,1.945,1.945,0,0,1,.509-1.315,67.953,67.953,0,0,0,6.265-8.11h6.231a1.3,1.3,0,0,0,1.3-1.3v-1.482a1.3,1.3,0,0,0-1.3-1.3h-1.766q-.766-.4-1.5-.82a60.8,60.8,0,0,0,3.028-6.351h.892c3.117,7.109,6.775,13.715,12.229,19.319a1.942,1.942,0,0,1,.55,1.358A.215.215,0,0,1,7127.457-1460.776Z" transform="translate(-5898 1424.999)"/></g></svg>