<?xml version="1.0" encoding="UTF-8" standalone="no"?>
<!DOCTYPE svg PUBLIC "-//W3C//DTD SVG 1.1//EN" "http://www.w3.org/Graphics/SVG/1.1/DTD/svg11.dtd">
<svg xmlns="http://www.w3.org/2000/svg" xmlns:xlink="http://www.w3.org/1999/xlink" version="1.1" width="46pt" height="46pt" viewBox="0 0 46 46">
<g enable-background="new">
<g>
<clipPath id="cp0">
<path transform="matrix(.25,0,0,.25,0,0)" d="M 0 0 L 184 0 L 184 184 L 0 184 Z " fill-rule="evenodd"/>
</clipPath>
<g clip-path="url(#cp0)">
<g>
<clipPath id="cp1">
<path transform="matrix(.25,0,0,.25,0,0)" d="M 0 0 L 184 0 L 184 184 L 0 184 Z " fill-rule="evenodd"/>
</clipPath>
<g clip-path="url(#cp1)">
<path transform="matrix(1,0,0,1,-31.88086,1.9995117)" d="M 68.235637 8.381617 L 63.581644 8.381617 L 65.198497 6.8947317 C 65.48384 6.6325485 65.85443 6.4881064 66.24207 6.4881064 L 70.12239 6.4881064 C 70.57727 6.4881064 70.94593 6.119119 70.94593 5.6645615 C 70.94593 5.209681 70.57727 4.8406956 70.12239 4.8406956 L 66.24207 4.8406956 C 65.44041 4.8406956 64.673809 5.1395528 64.08382 5.682259 L 61.148015 8.381617 L 56.56962 8.381617 L 53.467168 5.872374 C 53.120695 5.592176 52.61402 5.638179 52.324178 5.9769265 L 51.62159 6.7962887 L 44.640119 .7158934 C 44.634328 .7107463 44.628217 .7059208 44.622106 .7007736 C 44.072969 .24911049 43.378419 .00043867314 42.66715 .00043867314 L 40.052396 .00043867314 C 39.160974 .00043867314 38.31394 .38615326 37.7291 1.0591467 L 36.944158 1.9618257 C 36.645948 2.3047548 36.681978 2.8249419 37.025228 3.1234768 C 37.368478 3.4223338 37.88866 3.3856595 38.1872 3.042409 L 38.97214 2.1400512 C 39.243974 1.8270401 39.63773 1.6475326 40.0524 1.6475326 L 42.667158 1.6475326 C 42.994646 1.6475326 43.314088 1.7607701 43.568227 1.9666562 L 50.549699 8.046731 L 49.89086 8.815266 C 49.604875 9.148865 49.631254 9.648141 49.950376 9.949887 L 52.55355 12.410548 L 48.403657 17.391388 C 48.281736 17.53776 48.212896 17.728205 48.212896 17.918648 L 48.212896 38.471284 C 48.212896 40.498296 49.861909 42.14699 51.888605 42.14699 L 62.467615 42.14699 C 64.49463 42.14699 66.14332 40.498296 66.14332 38.471284 L 66.14332 38.360296 C 66.14332 37.905736 65.77466 37.53675 65.31978 37.53675 C 64.8649 37.53675 64.49623 37.905736 64.49623 38.360296 L 64.49623 38.471284 C 64.49623 39.589818 63.58615 40.499906 62.467615 40.499906 L 51.888605 40.499906 C 50.770067 40.499906 49.860303 39.589818 49.860303 38.471284 L 49.860303 18.742196 L 64.496257 18.742196 L 64.496257 38.69479 C 64.496257 39.14935 64.86492 39.518335 65.3198 39.518335 C 65.77468 39.518335 66.14334 39.14935 66.14334 38.69479 L 66.14334 17.91865 C 66.14334 17.738821 66.0819 17.558028 65.97188 17.415516 L 62.693464 13.167188 L 66.0597 13.167188 L 70.90157 19.99714 C 71.41499 20.720959 72.2514 21.153323 73.13897 21.153323 C 74.651599 21.153323 75.88177 19.923151 75.88177 18.410853 L 75.88177 16.02772 C 75.88177 11.811559 72.45183 8.3816189 68.23566 8.3816189 L 68.235637 8.381617 Z M 53.05375 7.656511 L 55.112615 9.321941 L 53.607717 11.140493 L 51.651796 9.291701 L 53.05375 7.656511 Z M 63.64404 17.095074 L 50.79485 17.095074 L 54.067155 13.167153 L 60.612733 13.167153 L 63.64404 17.095074 Z M 74.23466 18.410498 C 74.23466 19.014645 73.7431 19.506199 73.13896 19.506199 C 72.784458 19.506199 72.45053 19.333449 72.24528 19.044243 L 67.157 11.867182 C 67.00259 11.649071 66.752307 11.519749 66.48529 11.519749 L 55.431764 11.519749 L 56.66547 10.028681 L 68.23562 10.028681 C 71.543308 10.028681 74.23463 12.719678 74.23463 16.027693 L 74.23466 18.410498 Z " fill="#1d1d1b"/>
<path transform="matrix(1,0,0,1,2.0004884,-76.65576)" d="M 3.9319356 86.13236 C 3.8042219 85.824817 3.5040789 85.625049 3.1714435 85.625049 C 3.1682265 85.625049 3.1650093 85.625049 3.1617923 85.625049 C 2.8252969 85.62891 2.5251537 85.83705 2.4035524 86.150699 L .21955274 91.78265 C -.1684142 92.78313 -.038126988 93.908748 .5682728 94.79406 C 1.1743507 95.67937 2.1767629 96.20792 3.2496193 96.20792 C 4.338246 96.20792 5.348695 95.667469 5.952838 94.76189 C 6.556985 93.85631 6.668614 92.71557 6.2507297 91.710597 L 3.9319356 86.13236 Z M 4.5827286 93.847309 C 4.2803328 94.300579 3.794249 94.5605 3.2496157 94.5605 C 2.7123814 94.5605 2.2304793 94.306369 1.9271183 93.86339 C 1.6237575 93.42041 1.561027 92.879 1.755332 92.37843 L 3.198141 88.658008 L 4.729423 92.34272 C 4.938848 92.845859 4.885125 93.39435 4.5827295 93.8473 L 4.5827286 93.847309 Z " fill="#1d1d1b"/>
</g>
</g>
</g>
</g>
</g>
</svg>
