<svg xmlns="http://www.w3.org/2000/svg" xmlns:xlink="http://www.w3.org/1999/xlink" width="46" height="46" viewBox="0 0 46 46"><defs><style>.a{fill:#4c4c4c;}.b{clip-path:url(#a);}.c{fill:#1d1d1b;}</style><clipPath id="a"><rect class="a" width="46" height="46" transform="translate(224 3650)"/></clipPath></defs><g class="b" transform="translate(-224 -3650)"><g transform="translate(-962.622 3242.59)"><path class="c" d="M1232.036,422.115h-8.686l.647-.657a.576.576,0,0,0,.192-.425v-3.317a.585.585,0,0,0-.576-.586h-11.639a.6.6,0,0,0-.4.162l-4.813,4.813h-3.165a.565.565,0,0,0-.415.182l-15.885,15.875a.6.6,0,0,0-.172.415v3.317a.592.592,0,0,0,.576.586h11.649a.567.567,0,0,0,.4-.172l3.286-3.286a.586.586,0,0,0,0-.819.606.606,0,0,0-.819,0l-2.306,2.305v-1.921a.583.583,0,0,0-.576-.576H1189.1l.212-.222,14.5-14.5h1.78l-9.91,9.92a.55.55,0,0,0-.172.4v3.317a.583.583,0,0,0,.576.576h9.829l-.657.657a.572.572,0,0,0-.2.435v3.317a.592.592,0,0,0,.576.586h11.638a.528.528,0,0,0,.394-.172l14.753-15.865a.6.6,0,0,0,.182-.435V422.7A.576.576,0,0,0,1232.036,422.115Zm-33.288,17.048v2.154h-10.466v-2.154Zm-1.031-6.37,14.5-14.5h1.274l-3.175,3.175a.576.576,0,0,0,.819.809l3.984-3.974h2.528l-.212.212-7.109,7.1a.579.579,0,0,0,.819.819l8.14-8.13h2.932l-14.733,14.7h-6.229l2.548-2.528a.577.577,0,0,0-.01-.819.562.562,0,0,0-.809,0l-3.347,3.347h-2.144Zm25.31-13.681v1.668L1208.3,435.513v-1.689l.04-.03Zm-26.341,17.22v-2.164h10.466v2.164Zm20.011,4.975h-10.476v-2.154H1216.7Zm.334-3.307h-1.7l4.844-4.823a.607.607,0,0,0,.162-.415.578.578,0,0,0-.182-.4.558.558,0,0,0-.394-.162.583.583,0,0,0-.4.162L1213.714,438H1211.2l2.336-2.336a.582.582,0,0,0-.829-.809L1209.558,438h-2.508l.506-.506h.152a.58.58,0,0,0,.415-.162l14.045-14.055h8.443l-.192.212Zm14.419-13.924v1.7l-.03.04-13.57,14.7v-1.7Z" transform="translate(0 0)"/></g></g></svg>