<svg xmlns="http://www.w3.org/2000/svg" xmlns:xlink="http://www.w3.org/1999/xlink" width="46" height="46" viewBox="0 0 46 46"><defs><style>.a{fill:#4c4c4c;}.b{clip-path:url(#a);}</style><clipPath id="a"><rect class="a" width="46" height="46" transform="translate(2228 -45)"/></clipPath></defs><g class="b" transform="translate(-2228 45)"><g transform="translate(-2483.302 -303.3)"><g transform="translate(4722.302 266.996)"><path d="M4726.445,274.846a.505.505,0,0,0,.35-.226.531.531,0,0,0-.441-.831h-.165v-2.381l.256-.051a.555.555,0,0,0,.35-.236.531.531,0,0,0-.441-.831h-.165l-.01-1.632c-.01-.041-.021-.072-.031-.113a.6.6,0,0,0-.041-.082.586.586,0,0,0-.041-.082l-1.037-1.385a.573.573,0,0,0-.79-.072.314.314,0,0,0-.083.082l-1.047,1.4a.083.083,0,0,1-.01.031,1.109,1.109,0,0,0-.062.123.348.348,0,0,0-.021.1.317.317,0,0,0-.01.092v2.176l-.267.062a.545.545,0,0,0,.113,1.078h.154v2.36l-.267.051a.545.545,0,0,0,.113,1.078h.154v2.36l-.267.051a.545.545,0,0,0,.113,1.078h.154v2.36l-.267.051a.55.55,0,0,0,.113,1.088h.154v2.36l-.267.062a.544.544,0,0,0,.1,1.078H4723v16.9a.548.548,0,0,0,.543.544h2.1a.547.547,0,0,0,.544-.544v-17.56l.256-.051a.549.549,0,0,0,.431-.647.529.529,0,0,0-.523-.421h-.165v-2.381l.256-.062a.534.534,0,0,0,.431-.636.557.557,0,0,0-.533-.421h-.154V278.4l.256-.062a.532.532,0,0,0-.092-1.057h-.165v-2.371Zm-1.354,27.556h-1.005V285.807l1.005-.205Zm0-17.909-1.005.205v-2.4l1.005-.205Zm0-3.51-1.005.205v-2.381l1.005-.205Zm0-3.489-1.005.205v-2.381l1.005-.205Zm0-3.489-1.005.205v-2.381l1.005-.205Zm0-3.489-1.005.195V268.9l.5-.667.5.667Z" transform="translate(-4722.301 -266.798)"/></g><g transform="translate(4731.392 259.3)"><path d="M4736.056,267.336a.544.544,0,0,0,.349-.688.539.539,0,0,0-.524-.359h-.164v-2.34l.339-.1a.56.56,0,0,0,.349-.7.534.534,0,0,0-.513-.359h-.011l-.164.01v-.893a1.321,1.321,0,0,0-.031-.133.41.41,0,0,0-.041-.1l-.021-.051-1.4-2.083a.307.307,0,0,0-.083-.082.621.621,0,0,0-.082-.082.556.556,0,0,0-.175-.072.316.316,0,0,0-.092.01.284.284,0,0,0-.133,0,.465.465,0,0,0-.185.072l-.041.051a.6.6,0,0,0-.113.113l-1.385,2.083a.036.036,0,0,0-.01.021.557.557,0,0,0-.052.123.48.48,0,0,0-.021.1c-.01.051-.01.062-.021.072l.011,2.155-.318.1a.543.543,0,0,0-.308.277.481.481,0,0,0-.031.41.54.54,0,0,0,.5.369l.154.01v2.319l-.318.113a.526.526,0,0,0-.308.267.5.5,0,0,0-.031.421.54.54,0,0,0,.5.369h.154v2.33l-.318.113a.526.526,0,0,0-.308.267.5.5,0,0,0-.031.421.554.554,0,0,0,.5.369h.154v2.319l-.318.113a.526.526,0,0,0-.308.267.507.507,0,0,0-.031.421.54.54,0,0,0,.5.369l.154.01v2.319l-.318.1a.543.543,0,0,0-.308.277.483.483,0,0,0-.031.41.55.55,0,0,0,.5.38h.154v2.319l-.318.113a.526.526,0,0,0-.308.267.5.5,0,0,0-.031.421.554.554,0,0,0,.5.369h.154v2.34l-.318.1a.51.51,0,0,0-.308.277.481.481,0,0,0-.031.41.54.54,0,0,0,.5.369l.154.01v16.9a.541.541,0,0,0,.543.544h2.792a.56.56,0,0,0,.543-.544V284.926l.329-.113a.549.549,0,0,0,.349-.688.577.577,0,0,0-.524-.369l-.164.01v-2.34l.339-.113a.553.553,0,0,0,.349-.688.543.543,0,0,0-.513-.369h-.011l-.164.01v-2.34l.339-.113a.544.544,0,0,0,.349-.688.553.553,0,0,0-.524-.359l-.164.01v-2.34l.339-.113a.544.544,0,0,0,.349-.688.539.539,0,0,0-.524-.359h-.164v-2.33l.339-.113a.549.549,0,0,0,.349-.688.543.543,0,0,0-.513-.369l-.011.01h-.164v-2.34Zm-1.427,35.263h-1.7V285.86l1.7-.575Zm0-18.463-1.7.564v-2.34l1.7-.575Zm0-3.5-1.7.564v-2.34l1.7-.564Zm0-3.489-1.7.564v-2.34l1.7-.575Zm0-3.489-1.7.564v-2.34l1.7-.575Zm0-3.489-1.7.564v-2.35l1.7-.564Zm0-3.5-1.7.575v-2.36l1.7-.564Zm0-3.5-1.7.564v-1.642l.852-1.283.852,1.283Z" transform="translate(-4731.159 -259.3)"/></g><g transform="translate(4741.163 259.34)"><path d="M4745.421,263.2a.528.528,0,0,0,.38-.154.543.543,0,0,0,.164-.39v-2.094a.561.561,0,0,0-.164-.39.528.528,0,0,0-.38-.154h-1.56v-.154a.543.543,0,0,0-.564-.523.546.546,0,0,0-.523.523v.144l-.154.01h-1.4a.551.551,0,0,0-.39.154.527.527,0,0,0-.154.38v2.1a.551.551,0,0,0,.154.39.535.535,0,0,0,.39.154h1.55V264.2h-1.55a.551.551,0,0,0-.39.154.527.527,0,0,0-.154.38v2.1a.551.551,0,0,0,.154.39.535.535,0,0,0,.39.154h1.55v1.006h-1.55a.551.551,0,0,0-.39.154.534.534,0,0,0-.154.39v2.094a.527.527,0,0,0,.154.38.544.544,0,0,0,.39.164h1.55v1.006h-1.55a.568.568,0,0,0-.39.154.579.579,0,0,0-.154.39v2.094a.569.569,0,0,0,.154.39.551.551,0,0,0,.39.154h1.55v1.006h-1.55a.568.568,0,0,0-.39.154.579.579,0,0,0-.154.39V279.4a.526.526,0,0,0,.544.544h1.55v1.006h-1.55a.551.551,0,0,0-.39.154.527.527,0,0,0-.154.38v2.1a.551.551,0,0,0,.154.39.535.535,0,0,0,.39.154h1.55v1.016h-.852a.558.558,0,0,0-.554.554v17.436a.526.526,0,0,0,.544.544h2.792a.541.541,0,0,0,.544-.544l.01-17.457a.539.539,0,0,0-.544-.534h-.852v-1.016h1.55a.535.535,0,0,0,.39-.154.527.527,0,0,0,.154-.38v-2.1a.511.511,0,0,0-.154-.39.528.528,0,0,0-.38-.154h-1.56v-1.006h1.56a.528.528,0,0,0,.38-.154.561.561,0,0,0,.164-.39V277.31a.561.561,0,0,0-.544-.544h-1.56V275.76h1.56a.528.528,0,0,0,.38-.154.543.543,0,0,0,.164-.39v-2.094a.561.561,0,0,0-.544-.544h-1.56v-1.006h1.56a.528.528,0,0,0,.38-.154.543.543,0,0,0,.164-.39v-2.094a.561.561,0,0,0-.544-.544h-1.56v-1.006h1.56a.528.528,0,0,0,.38-.154.543.543,0,0,0,.164-.39v-2.094a.561.561,0,0,0-.164-.39.528.528,0,0,0-.38-.154h-1.56V263.2Zm-1.252,23.05V302.6h-1.714V286.249Zm.708-4.208-.01,1.006h-3.1v-1.006Zm0-4.187-.01,1.006h-3.1v-1.006Zm0-4.187-.01,1.006h-3.1v-1.006Zm0-4.187-.01,1.006h-3.1V269.48Zm0-4.187-.01,1.006h-3.1v-1.006Zm-1.56-3.192c-.01.01-.021.01-.041.01h-1.508v-1.006h3.109l-.01,1.006Z" transform="translate(-4740.68 -259.339)"/></g></g></g></svg>