<svg xmlns="http://www.w3.org/2000/svg" xmlns:xlink="http://www.w3.org/1999/xlink" width="46" height="46" viewBox="0 0 46 46"><defs><style>.a{fill:#4c4c4c;}.b{clip-path:url(#a);}.c{fill:#1d1d1b;}</style><clipPath id="a"><rect class="a" width="46" height="46" transform="translate(2168 1638)"/></clipPath></defs><g class="b" transform="translate(-2168 -1638)"><g transform="translate(-1174.552 2235.972)"><path class="c" d="M3374.824-597h-17.608a3.229,3.229,0,0,0-3.221,3.222v21.23a3.22,3.22,0,0,0,1.362,2.624,2.848,2.848,0,0,0,.766.36c.316.108.357.138.384.208a1.155,1.155,0,0,1,.022.3v8.375a2.85,2.85,0,0,0,2.846,2.846h3.814v4.194a1,1,0,0,0,1,1h4.086a1,1,0,0,0,1-1v-4.194h3.394a2.85,2.85,0,0,0,2.841-2.846l.016-8.654c.757,0,2.519-.313,2.519-3.215v-21.237A3.22,3.22,0,0,0,3374.824-597ZM3368-553.906h-3.548v-3.926H3368Zm8.781-18.643c0,1.951-.911,1.951-1.254,1.951a1.282,1.282,0,0,0-1.28,1.28v8.64a1.582,1.582,0,0,1-1.583,1.582h-13.287a1.583,1.583,0,0,1-1.581-1.582v-8.375a1.993,1.993,0,0,0-.109-.758,1.648,1.648,0,0,0-1.153-.949,1.7,1.7,0,0,1-.443-.195,1.979,1.979,0,0,1-.831-1.593v-21.23a1.958,1.958,0,0,1,1.957-1.958h17.614a1.952,1.952,0,0,1,1.95,1.951Z" transform="translate(0 0)"/><path class="c" d="M3374.328-592.528h-16.073a.768.768,0,0,0-.767.769v10.012a.77.77,0,0,0,.767.769h16.073a.769.769,0,0,0,.769-.769v-10.012A.769.769,0,0,0,3374.328-592.528Zm-.5,10.285h-15.08v-9.02h15.08Z" transform="translate(-0.27 0.577)"/><path class="c" d="M3372.86-572.206h-4.086a1,1,0,0,0-1,.995v3.541a1,1,0,0,0,1,1h4.086a1,1,0,0,0,1-1v-3.541A1,1,0,0,0,3372.86-572.206Zm-.269,4.268h-3.548v-3h3.548Z" transform="translate(-1.065 -2.042)"/><path class="c" d="M3372.86-564.924h-4.086a1,1,0,0,0-1,1v3.542a1,1,0,0,0,1,.995h4.086a1,1,0,0,0,1-.995v-3.542A1,1,0,0,0,3372.86-564.924Zm-.269,4.269h-3.548v-3.005h3.548Z" transform="translate(-1.065 -2.604)"/><path class="c" d="M3364.774-564.924h-4.086a1,1,0,0,0-1,1v3.542a1,1,0,0,0,1,.995h4.086a1,1,0,0,0,1-.995v-3.542A1,1,0,0,0,3364.774-564.924Zm-.268,4.269h-3.549v-3.005h3.549Z" transform="translate(-0.44 -2.604)"/><path class="c" d="M3362.731-566.425a3.045,3.045,0,0,0,3.039-3.039,3.045,3.045,0,0,0-3.039-3.039,3.045,3.045,0,0,0-3.039,3.039A3.045,3.045,0,0,0,3362.731-566.425Zm0-4.813a1.778,1.778,0,0,1,1.775,1.774,1.778,1.778,0,0,1-1.775,1.774,1.776,1.776,0,0,1-1.774-1.774A1.776,1.776,0,0,1,3362.731-571.238Z" transform="translate(-0.44 -2.019)"/><path class="c" d="M3367.34-577.659a.633.633,0,0,0-.632-.632h-8.589a.632.632,0,0,0-.632.632h0a.632.632,0,0,0,.632.632h8.589A.633.633,0,0,0,3367.34-577.659Z" transform="translate(-0.27 -0.523)"/><path class="c" d="M3371.646-593.635h3.715a.633.633,0,0,0,.633-.631.632.632,0,0,0-.633-.632h-3.715a.633.633,0,0,0-.633.632A.633.633,0,0,0,3371.646-593.635Z" transform="translate(-1.315 0.76)"/><path class="c" d="M3361.17-583.89h1.452a.565.565,0,0,0,.442-.173.6.6,0,0,0,.182-.447v-4.644a.609.609,0,0,0-.183-.453.61.61,0,0,0-.436-.17H3361.2a.637.637,0,0,0-.449.176.607.607,0,0,0-.174.438v4.648a.61.61,0,0,0,.177.449A.609.609,0,0,0,3361.17-583.89Zm.342-5h.79v4.112h-.79Z" transform="translate(-0.508 0.365)"/><path class="c" d="M3364.507-583.89h1.454a.564.564,0,0,0,.442-.173.6.6,0,0,0,.181-.447v-4.644a.605.605,0,0,0-.184-.453.651.651,0,0,0-.434-.17h-1.433a.627.627,0,0,0-.45.176.607.607,0,0,0-.174.438v4.648a.61.61,0,0,0,.178.449A.606.606,0,0,0,3364.507-583.89Zm.344-5h.791v4.112h-.791Z" transform="translate(-0.767 0.365)"/><path class="c" d="M3367.851-583.89h1.454a.643.643,0,0,0,.44-.172.6.6,0,0,0,.182-.447v-4.644a.6.6,0,0,0-.183-.452.623.623,0,0,0-.436-.171h-1.43a.6.6,0,0,0-.452.177.612.612,0,0,0-.17.437v4.648a.614.614,0,0,0,.176.449A.608.608,0,0,0,3367.851-583.89Zm.342-5h.79v4.112h-.79Z" transform="translate(-1.025 0.365)"/><path class="c" d="M3371.191-583.89h1.466a.616.616,0,0,0,.427-.173.6.6,0,0,0,.182-.445v-4.649a.607.607,0,0,0-.184-.45.636.636,0,0,0-.436-.17h-1.431a.657.657,0,0,0-.45.176.607.607,0,0,0-.173.438v4.648a.611.611,0,0,0,.175.448A.6.6,0,0,0,3371.191-583.89Zm.342-5h.79v4.112h-.79Z" transform="translate(-1.283 0.365)"/></g></g></svg>