<svg xmlns="http://www.w3.org/2000/svg" xmlns:xlink="http://www.w3.org/1999/xlink" width="46" height="46" viewBox="0 0 46 46"><defs><style>.a{fill:#4c4c4c;}.b{clip-path:url(#a);}</style><clipPath id="a"><rect class="a" width="46" height="46"/></clipPath></defs><g class="b"><g transform="translate(-2970.02 751.684)"><g transform="translate(2973.3 -750.684)"><path d="M3002.02-736.617h-5.344v-1.052h.156a2.072,2.072,0,0,0,2.073-2.073,2.069,2.069,0,0,0-2.073-2.063h-.9v-3.188l.031-.042a3.537,3.537,0,0,0,.677-2.625,3.505,3.505,0,0,0-1.385-2.323,3.547,3.547,0,0,0-4.948.708l-.042.063h-.833a8.011,8.011,0,0,0-7.99,7.99v4.6h-.156a2.8,2.8,0,0,0-2.8,2.8,2.805,2.805,0,0,0,2.8,2.813h.156v1.625a3.875,3.875,0,0,1-3.854,3.865h-2.229a2.067,2.067,0,0,0-2.063,2.063,2.067,2.067,0,0,0,2.063,2.063h2.229a7.994,7.994,0,0,0,7.98-7.979V-731h4.021v1.135l-.1.042a2.056,2.056,0,0,0-1.261,1.25,2.111,2.111,0,0,0,.083,1.573,2.038,2.038,0,0,0,1.177,1.042l.1.042v12.25h-.156a2.067,2.067,0,0,0-2.063,2.063v.99l-.1.042a2.068,2.068,0,0,0-1.385,1.938v1.479a.582.582,0,0,0,.583.583H2999.8a.582.582,0,0,0,.583-.583v-1.49a2.079,2.079,0,0,0-1.375-1.938l-.1-.031v-.99a2.069,2.069,0,0,0-2.073-2.063h-.156v-12.25l.1-.031a2.046,2.046,0,0,0,1.26-1.26,2.015,2.015,0,0,0-.083-1.573,2.037,2.037,0,0,0-1.177-1.042l-.1-.042V-731h5.344a1.636,1.636,0,0,1,1.635,1.625.582.582,0,0,0,.583.583h4.448a.582.582,0,0,0,.583-.583A7.267,7.267,0,0,0,3002.02-736.617Zm-8.886-12.907.156.01a2.378,2.378,0,0,1,2.219,2.365,2.383,2.383,0,0,1-2.375,2.385,2.383,2.383,0,0,1-2.375-2.385A2.381,2.381,0,0,1,2993.134-749.524Zm1.635,5.531v2.188h-3.281v-2.188l.229.094a3.486,3.486,0,0,0,2.833,0Zm-4.437-1.083v3.271h-.9a2.069,2.069,0,0,0-2.073,2.063,2.072,2.072,0,0,0,2.073,2.073h.156v1.052h-4.021v-4.6a3.868,3.868,0,0,1,3.865-3.854Zm-7.719,3.854a6.826,6.826,0,0,1,6.823-6.823h.26l-.031.188a3.3,3.3,0,0,0,0,1.427l.031.188h-.26a5.03,5.03,0,0,0-5.021,5.021v4.6h-1.8Zm1.8,11.844a6.826,6.826,0,0,1-6.823,6.823h-2.281a.9.9,0,0,1-.844-.9.9.9,0,0,1,.9-.9h2.229a5.037,5.037,0,0,0,5.021-5.021V-731h1.8Zm5.167-2.917-.146-.021v.135h-8.23a1.638,1.638,0,0,1-1.594-1.677,1.629,1.629,0,0,1,1.635-1.594h8.344v2.958h.042Zm8.74,22.751a.9.9,0,0,1,.9.9v.906h-12.167v-.906a.9.9,0,0,1,.906-.9Zm-1.49-2.958a.9.9,0,0,1,.906.9v.9h-9.2v-.9a.9.9,0,0,1,.9-.9Zm-6.073-1.167v-12.157h4.76v12.157Zm6.021-14.834a.878.878,0,0,1,.24.646.94.94,0,0,1-.281.625.972.972,0,0,1-.646.24h-5.979a.9.9,0,0,1-.865-.938.906.906,0,0,1,.292-.625.908.908,0,0,1,.635-.24h5.979A.887.887,0,0,1,2996.78-728.5Zm-6.021-1.458v-7.709h4.75v7.709Zm-1.323-8.886a.9.9,0,0,1-.875-.854.913.913,0,0,1,.865-.937h7.469a.9.9,0,0,1,.865.938.9.9,0,0,1-.9.854Zm15.323,8.886-.031-.115a2.8,2.8,0,0,0-2.708-2.1h-5.344v-3.271h5.344a6.1,6.1,0,0,1,6.031,5.313l.021.177Z" transform="translate(-2973.3 750.684)"/></g></g></g></svg>