<svg xmlns="http://www.w3.org/2000/svg" xmlns:xlink="http://www.w3.org/1999/xlink" width="46" height="46" viewBox="0 0 46 46"><defs><style>.a{fill:#4c4c4c;}.b{clip-path:url(#a);}.c{fill:#1d1d1b;}</style><clipPath id="a"><rect class="a" width="46" height="46" transform="translate(1543 272)"/></clipPath></defs><g class="b" transform="translate(-1543 -272)"><g transform="translate(-3269.767 12.783)"><path class="c" d="M4853.715,297.06h-19.96V272.7a2.6,2.6,0,0,0-.2-.988l-3.258-7.871a1.927,1.927,0,0,0-1.788-1.2h-1.971a1.2,1.2,0,0,0-.906-.426h-6.913a1.956,1.956,0,0,0,0,3.913h6.913a1.187,1.187,0,0,0,.611-.189h1.019a.762.762,0,0,1,.859.566l2.263,5.884a1.573,1.573,0,0,1,.12.605v10.841l-6.347,2.74a2.266,2.266,0,0,0-1.335,2.064v2.217a5.313,5.313,0,1,0,2.892.046v-1.431a.461.461,0,0,1,.255-.416l4.535-1.827v10.184a1.808,1.808,0,0,0,1.065,3.271h.384v.163a.38.38,0,0,0,.38.38h20.826a.38.38,0,0,0,.38-.38v-.163h.172a1.813,1.813,0,0,0,0-3.625Zm-27.862-32.147a.218.218,0,0,1-.217.217h-6.913a.956.956,0,0,1,0-1.913h6.913a.217.217,0,0,1,.217.217Zm2.528,31.049a4.183,4.183,0,1,1-4.183-4.183A4.187,4.187,0,0,1,4828.381,295.962Zm-2.8-7.825a1.47,1.47,0,0,0-.863,1.336v1.235c-.174-.017-.342-.053-.52-.053-.127,0-.247.029-.372.038v-2.052a1.261,1.261,0,0,1,.738-1.149l5.944-2.566v1.226Zm5.735-16.117-2.262-5.883a1.737,1.737,0,0,0-1.788-1.2h-.419c0-.01.006-.018.006-.028v-1.27h1.66a.933.933,0,0,1,.864.578l3.258,7.872a1.565,1.565,0,0,1,.12.605V297.06h-1.182c-.022,0-.043.006-.065.007V273A2.561,2.561,0,0,0,4831.316,272.02Zm22.4,27.665h-22.142a.813.813,0,0,1,0-1.625h22.142a.813.813,0,0,1,0,1.625Z"/><path class="c" d="M4823.029,295.962a1.169,1.169,0,1,0,1.169-1.169A1.171,1.171,0,0,0,4823.029,295.962Zm1.337,0c0,.185-.337.185-.337,0a.169.169,0,1,1,.337,0Z"/><path class="c" d="M4821.236,295.962A2.962,2.962,0,1,0,4824.2,293,2.966,2.966,0,0,0,4821.236,295.962Zm4.924,0A1.962,1.962,0,1,1,4824.2,294,1.964,1.964,0,0,1,4826.16,295.962Z"/><path class="c" d="M4850.195,280.445h-13.632c-.437,0-.616.18-.616.621v14.615c0,.44.179.62.616.62h13.6c.476,0,.645-.17.645-.649v-14.6C4850.8,280.628,4850.621,280.445,4850.195,280.445Zm-9.677,7.1.026.061a.6.6,0,0,0,.238.322.569.569,0,0,0,.527-.055c.247-.169.487-.351.733-.538l.143-.107.8.594a.531.531,0,0,0,.782.006l.8-.6.737.553a2.1,2.1,0,0,0,.182.131.495.495,0,0,0,.768-.384c0-.051,0-.1,0-.205V281.45h3.54v13.844h-12.842V281.449h3.544l0,5.887A.361.361,0,0,0,4840.518,287.54Zm4.729-1.053-.216-.162c-.408-.305-.52-.306-.932,0l-.722.542-.835-.623a.6.6,0,0,0-.356-.148.626.626,0,0,0-.365.152l-.321.24v-5.036h3.747Z"/></g></g></svg>