<svg xmlns="http://www.w3.org/2000/svg" xmlns:xlink="http://www.w3.org/1999/xlink" width="46" height="46" viewBox="0 0 46 46"><defs><style>.a{fill:#4c4c4c;}.b{clip-path:url(#a);}.c{fill:#1d1d1b;}</style><clipPath id="a"><rect class="a" width="46" height="46" transform="translate(2352 588)"/></clipPath></defs><g class="b" transform="translate(-2352 -588)"><g transform="translate(1452 710)"><path class="c" d="M937.842-120H907.26a1.262,1.262,0,0,0-1.26,1.259v38.686a1.263,1.263,0,0,0,1.26,1.255h30.582a1.263,1.263,0,0,0,1.259-1.259v-38.687A1.264,1.264,0,0,0,937.842-120Zm-.137,39.8H923.261v-38.4H937.7Zm-15.862,0H907.4v-38.4h14.442Z"/><path class="c" d="M911.06-101.469h7.12a1.1,1.1,0,0,0,1.1-1.1v-12.113a1.1,1.1,0,0,0-1.1-1.1h-7.12a1.1,1.1,0,0,0-1.1,1.1v12.113A1.1,1.1,0,0,0,911.06-101.469Zm.3-9.343v-3.57h6.522v3.57Zm0,7.943v-6.544h6.522v6.544Z"/><path class="c" d="M914.614-97.162a4.3,4.3,0,0,0-4.3,4.3,4.3,4.3,0,0,0,4.3,4.3,4.3,4.3,0,0,0,4.3-4.3A4.3,4.3,0,0,0,914.614-97.162Zm2.9,4.29a2.9,2.9,0,0,1-2.9,2.9,2.9,2.9,0,0,1-2.9-2.9,2.9,2.9,0,0,1,2.9-2.9A2.9,2.9,0,0,1,917.515-92.872Z"/><path class="c" d="M917.475-87.056h-5.71a.7.7,0,0,0-.7.7.7.7,0,0,0,.7.7h5.71a.7.7,0,0,0,.7-.7A.7.7,0,0,0,917.475-87.056Z"/><path class="c" d="M917.475-84.414h-5.71a.7.7,0,0,0-.7.7.7.7,0,0,0,.7.7h5.71a.7.7,0,0,0,.7-.7A.7.7,0,0,0,917.475-84.414Z"/><path class="c" d="M926.925-101.469h7.12a1.1,1.1,0,0,0,1.1-1.1v-12.113a1.1,1.1,0,0,0-1.1-1.1h-7.121a1.1,1.1,0,0,0-1.1,1.1v12.113A1.1,1.1,0,0,0,926.925-101.469Zm.3-9.343v-3.57h6.521v3.57Zm0,7.943v-6.544h6.521v6.544Z"/><path class="c" d="M930.472-97.162a4.3,4.3,0,0,0-4.3,4.3,4.3,4.3,0,0,0,4.3,4.3,4.3,4.3,0,0,0,4.3-4.3A4.3,4.3,0,0,0,930.472-97.162Zm2.9,4.29a2.9,2.9,0,0,1-2.9,2.9,2.9,2.9,0,0,1-2.9-2.9,2.9,2.9,0,0,1,2.9-2.9A2.9,2.9,0,0,1,933.372-92.872Z"/><path class="c" d="M933.337-87.056h-5.711a.7.7,0,0,0-.7.7.7.7,0,0,0,.7.7h5.71a.7.7,0,0,0,.7-.7A.7.7,0,0,0,933.337-87.056Z"/><path class="c" d="M933.337-84.414h-5.711a.7.7,0,0,0-.7.7.7.7,0,0,0,.7.7h5.71a.7.7,0,0,0,.7-.7A.7.7,0,0,0,933.337-84.414Z"/></g></g></svg>