<svg xmlns="http://www.w3.org/2000/svg" xmlns:xlink="http://www.w3.org/1999/xlink" width="46" height="46" viewBox="0 0 46 46"><defs><style>.a{fill:#4c4c4c;}.b{clip-path:url(#a);}.c{fill:#1d1d1b;}</style><clipPath id="a"><rect class="a" width="46" height="46" transform="translate(2190 402)"/></clipPath></defs><g class="b" transform="translate(-2190 -402)"><g transform="translate(1066.467 1111.948)"><path class="c" d="M1166.2-677.657a16.923,16.923,0,0,0-2.222-.874c.008.057-.005,0-.007-.055-.088-2.206-.909-3.218-3.046-3.723-1.72-.407-3.445-.792-5.165-1.2-.126-.03-.312-.152-.324-.25a7.792,7.792,0,0,1-.016-.982c.274-.046.492-.063.7-.12a2.268,2.268,0,0,0,1.669-2.014,2.268,2.268,0,0,0-1.439-2.315c-2.172-.852-4.352-1.682-6.529-2.519-2.381-.915-4.759-1.835-7.144-2.738a2.262,2.262,0,0,0-3.2,2.207c-.007.553,0,1.106,0,1.66a2.265,2.265,0,0,0,1.614,2.369c.1.039.224.159.229.248.024.429.011.86.011,1.3h-5.818c-.037-.132-.075-.256-.107-.381q-2.178-8.668-4.354-17.336a1.9,1.9,0,0,0-2.028-1.594c-.972,0-1.945-.018-2.916,0a2.048,2.048,0,0,0-1.865,1.4c-.01.036-.02.071-.028.108a2,2,0,0,0,.844,2.05,2.428,2.428,0,0,0,1.56.323c.386-.034.778-.005,1.186-.005.19.8,2.7,11.329,2.885,12.089,0,.012.006.023.01.034q.472,1.976.943,3.952a16.865,16.865,0,0,1,.51,2.381c.083.938-.012,1.89-.005,2.836a.823.823,0,0,1-.305.67,6.8,6.8,0,0,0-2.24,6.055,6.963,6.963,0,0,0,5.585,5.945,6.913,6.913,0,0,0,7.388-3.585.669.669,0,0,1,.7-.414q7.357.016,14.713,0a.58.58,0,0,1,.684.5,5.113,5.113,0,0,0,5.173,3.6,5.184,5.184,0,0,0,4.738-3.851A5.11,5.11,0,0,0,1166.2-677.657Zm-25.416-12.826c-.01-.553-.006-1.106,0-1.659.006-.995.591-1.406,1.512-1.053q3.894,1.493,7.785,3c1.865.718,3.729,1.44,5.6,2.151a1.092,1.092,0,0,1,.795.786.988.988,0,0,1-1.313,1.118c-1-.232-2-.486-3-.728q-2.668-.646-5.337-1.289c-1.531-.381-4.642-1.131-5.2-1.274A.959.959,0,0,1,1140.786-690.483Zm13.328,6.6-11.457-2.628v-1.3c.247.051,4.377,1.052,4.61,1.094h.013c2.091.513,4.182,1.028,6.279,1.515.429.1.64.243.561.7A4.148,4.148,0,0,0,1154.114-683.88Zm-22.129-6.327c0-.03-.01-.06-.018-.091-.208-.891-2.755-11.551-2.974-12.439-.129-.522-.314-.665-.857-.67-.624-.006-1.248,0-1.872,0-.488,0-.777-.245-.773-.631s.29-.618.782-.621q1.262-.006,2.525,0c.766,0,.855.078,1.04.814q1.082,4.313,2.165,8.626,1.065,4.25,2.122,8.5a.477.477,0,0,1-.071.4c-.3.237-.639.429-.972.643-.031-.1-.066-.2-.09-.3Q1132.487-688.088,1131.984-690.206Zm4.5,20.866a5.613,5.613,0,0,1-5.624-5.624,5.637,5.637,0,0,1,5.607-5.653,5.66,5.66,0,0,1,5.635,5.635A5.636,5.636,0,0,1,1136.48-669.34Zm21.94-4.254a.73.73,0,0,1-.05.137h-15.114a6.835,6.835,0,0,0-2.485-6.943,6.782,6.782,0,0,0-7.243-.895,18.443,18.443,0,0,1,.025-2.525,1.862,1.862,0,0,1,1.81-1.5c2.161-.031,4.325-.076,6.483.015a16.144,16.144,0,0,1,2.841.608q8.111,1.861,16.221,3.726a2.122,2.122,0,0,1,1.748,2.425.366.366,0,0,1-.195.268A5.152,5.152,0,0,0,1158.42-673.595Zm5.187,4.256a3.883,3.883,0,0,1-3.893-3.861,3.9,3.9,0,0,1,3.87-3.892,3.893,3.893,0,0,1,3.867,3.848A3.87,3.87,0,0,1,1163.608-669.339Z"/><path class="c" d="M1376.806-470.346c.406.014.814,0,1.221,0s.844.011,1.265,0a.647.647,0,0,0,.67-.61.649.649,0,0,0-.646-.683q-1.264-.034-2.53-.005a.629.629,0,0,0-.659.663A.623.623,0,0,0,1376.806-470.346Z" transform="translate(-222.716 -207.027)"/><path class="c" d="M1379.326-449.87q-1.263-.033-2.527,0a.623.623,0,0,0-.648.671.623.623,0,0,0,.689.624c.406.012.814,0,1.22,0s.814.009,1.22,0a.655.655,0,0,0,.7-.621A.652.652,0,0,0,1379.326-449.87Z" transform="translate(-222.736 -226.263)"/><path class="c" d="M1207.092-465.808a3.039,3.039,0,0,0-3.057,3.046,3.034,3.034,0,0,0,3.042,3.014,3.036,3.036,0,0,0,3.035-3.022A3.039,3.039,0,0,0,1207.092-465.808Zm0,4.749a1.712,1.712,0,0,1-1.741-1.69,1.723,1.723,0,0,1,1.688-1.746,1.721,1.721,0,0,1,1.764,1.713A1.725,1.725,0,0,1,1207.09-461.059Z" transform="translate(-70.597 -212.196)"/><path class="c" d="M1447.974-442.506a2.069,2.069,0,0,0-2.065,2.085,2.076,2.076,0,0,0,2.076,2.078,2.078,2.078,0,0,0,2.064-2.091A2.061,2.061,0,0,0,1447.974-442.506Zm.018,2.843a.764.764,0,0,1-.77-.73.763.763,0,0,1,.741-.8.759.759,0,0,1,.768.729A.759.759,0,0,1,1447.992-439.663Z" transform="translate(-284.412 -232.783)"/></g></g></svg>