<svg xmlns="http://www.w3.org/2000/svg" xmlns:xlink="http://www.w3.org/1999/xlink" width="46" height="46" viewBox="0 0 46 46"><defs><style>.a{fill:#1d1d1b;}.b{clip-path:url(#a);}</style><clipPath id="a"><rect class="a" width="46" height="46" transform="translate(180 854)"/></clipPath></defs><g class="b" transform="translate(-180 -854)"><g transform="translate(-4155.13 1250.427)"><g transform="translate(4336.13 -392.882)"><path class="a" d="M4380.7-389.032l-.03-.069c-.03-.089-.069-.187-.108-.276a2.388,2.388,0,0,0-1.963-1.7,2.364,2.364,0,0,0-2.417.987,2.571,2.571,0,0,0-.355,2.309l.049.158h-.71c-.8,0-1.589,0-2.378-.01a.424.424,0,0,1-.326-.2,2.578,2.578,0,0,0-1.874-1.509l-.1-.02v-.109a8.658,8.658,0,0,0-.1-1.608,2.449,2.449,0,0,0-2.624-1.8h-23.7c-1.628,0-3.266-.01-4.9,0-.04,0-.089-.01-.128-.01a2.5,2.5,0,0,0-2.417,1.825,3.53,3.53,0,0,0,.089,1.865,1.175,1.175,0,0,1-.178,1.006c-.049.069-.088.148-.138.227a2.479,2.479,0,0,0-.148,1.875,2.453,2.453,0,0,0,1.224,1.421,1.371,1.371,0,0,1,.681.73,16.433,16.433,0,0,0,5.831,7.074c.375.266.779.513,1.174.76.178.118.365.227.543.345l.079.049-.464,1.509c-1.1,3.581-2.24,7.291-3.365,10.921a.8.8,0,0,1-.483.414,4.99,4.99,0,0,0-3.542,4.38,5.159,5.159,0,0,0,1.184,3.818,5.088,5.088,0,0,0,3.483,1.8,5.08,5.08,0,0,0,3.739-1.194,5.031,5.031,0,0,0,1.8-3.483,5.075,5.075,0,0,0-1.184-3.729.662.662,0,0,1-.187-.493v-.03c.247-.868.513-1.736.779-2.585l.217-.7h11.533l.02.089c.286.908.572,1.825.848,2.743q.415,1.347.829,2.693c.148.454.286.908.424,1.352.385,1.273.78,2.585,1.233,3.848l.02.049a2.393,2.393,0,0,0,3.137,1.283l.04-.01a2.507,2.507,0,0,0,1.371-1.362,2.486,2.486,0,0,0,.01-1.934q-2.339-7.592-4.667-15.164l-1.283-4.193.05-.049a.507.507,0,0,1,.108-.1c.1-.059.2-.118.3-.168.1-.069.207-.128.316-.2a16.227,16.227,0,0,0,6.649-7.35,1.184,1.184,0,0,1,1.322-.829,2.382,2.382,0,0,0,2.368-1.362.6.6,0,0,1,.661-.375h5.012a2.813,2.813,0,0,0,1.687-.533,3.03,3.03,0,0,0,.977-1.549Zm-42.443-1.983a1.2,1.2,0,0,1,.967-.355h12.786c1.411,0,2.832,0,4.252.01,3.65,0,7.429.01,11.148-.03h.03a1.6,1.6,0,0,1,1.371.474,1.594,1.594,0,0,1,.02,1.46l-.029.089h-30.593l-.06-.276c-.03-.118-.059-.237-.079-.355A1.205,1.205,0,0,1,4338.261-391.015Zm8.366,33.1a3.591,3.591,0,0,1-1.095,2.545,3.61,3.61,0,0,1-2.526,1.026h-.05a3.625,3.625,0,0,1-3.571-3.68,3.628,3.628,0,0,1,1.095-2.545,3.61,3.61,0,0,1,2.526-1.026h.059a3.678,3.678,0,0,1,3.562,3.66Zm-1.224-4.667-1.914-.562.039-.118,3.631-11.809,1.895.622-.04.118Zm2.822-4.045.049-.148c.04-.148.089-.3.128-.434.118-.395.227-.77.365-1.135.069-.178.385-.257.523-.257h8.909l.612,1.973Zm1.075-3.5,1.233-4.006.108.02a17.059,17.059,0,0,0,5.752,0l.1-.02,1.233,4.006Zm16.476,14.256a1.565,1.565,0,0,1,.088.73.944.944,0,0,1-.878.789h-.089a1.01,1.01,0,0,1-.967-.75c-.178-.543-.345-1.1-.523-1.667l-.177-.582q-2.546-8.258-5.081-16.535c-.03-.1-.059-.2-.089-.306l-.06-.247,1.855-.631.2.612c.109.326.207.641.306.967Q4363.083-364.688,4365.777-355.873Zm1.509-28.285a15.2,15.2,0,0,1-7.39,7.389,15.093,15.093,0,0,1-6.363,1.411,15.215,15.215,0,0,1-13.8-8.8l-.079-.168h27.713Zm2.506-1.707h-31c-.71-.02-1.164-.414-1.154-1.016s.473-.987,1.174-.987h18.508l.01.128.02-.118,12.421-.01a1.549,1.549,0,0,1,1.135.355.9.9,0,0,1,.237.661C4371.144-386.487,4370.956-385.865,4369.792-385.865Zm8.435-1.766h-.02a1,1,0,0,1-1-.977,1,1,0,0,1,.987-1.006h.009a1,1,0,0,1,1,.977A1.019,1.019,0,0,1,4378.227-387.631Z" transform="translate(-4336.13 392.882)"/></g><g transform="translate(4341.389 -359.593)"><path class="a" d="M4344.706-357.512a1.636,1.636,0,0,1-1.638,1.618h-.009a1.619,1.619,0,0,1-1.6-1.638,1.613,1.613,0,0,1,.484-1.144,1.629,1.629,0,0,1,1.134-.464h.02A1.632,1.632,0,0,1,4344.706-357.512Z" transform="translate(-4341.46 359.14)"/></g></g></g></svg>