<?xml version="1.0" encoding="UTF-8" standalone="no"?>
<!DOCTYPE svg PUBLIC "-//W3C//DTD SVG 1.1//EN" "http://www.w3.org/Graphics/SVG/1.1/DTD/svg11.dtd">
<svg xmlns="http://www.w3.org/2000/svg" xmlns:xlink="http://www.w3.org/1999/xlink" version="1.1" width="46pt" height="46pt" viewBox="0 0 46 46">
<g enable-background="new">
<g>
<clipPath id="cp0">
<path transform="matrix(.25,0,0,.25,0,0)" d="M 0 0 L 184 0 L 184 184 L 0 184 Z " fill-rule="evenodd"/>
</clipPath>
<g clip-path="url(#cp0)">
<g>
<clipPath id="cp1">
<path transform="matrix(.25,0,0,.25,0,0)" d="M 0 0 L 184 0 L 184 184 L 0 184 Z " fill-rule="evenodd"/>
</clipPath>
<g clip-path="url(#cp1)">
<path transform="matrix(1,0,0,1,-.05859375,-2.6540528)" d="M 39.432458 17.230582 L 43.940839 12.077848 C 44.09688 11.899766 44.152627 11.655015 44.089094 11.426921 C 44.02556 11.198827 43.851316 11.018137 43.625677 10.946368 L 28.183625 6.0329878 C 27.917708 5.948477 27.62699 6.0294926 27.443108 6.2393496 L 23.057566 11.250997 L 18.672022 6.2393486 C 18.488512 6.0303356 18.198895 5.949396 17.933613 6.0329868 L 2.4915598 10.946367 C 2.2659214 11.018135 2.0916734 11.198826 2.0281409 11.42692 C 1.9646082 11.655015 2.0203553 11.899768 2.1764017 12.077848 L 6.6826727 17.230582 L 2.1742953 22.383315 C 2.0183044 22.561688 1.9628425 22.806725 2.026818 23.034888 C 2.0907939 23.263049 2.26557 23.443528 2.4915596 23.514796 L 6.913602 24.922829 L 6.913602 38.989839 C 6.9135129 39.285005 7.0980927 39.54869 7.375459 39.649637 L 22.817513 45.264928 C 22.822653 45.26459 22.827813 45.26459 22.832953 45.264928 C 22.978106 45.317354 23.137022 45.317354 23.282176 45.264925 C 23.287316 45.264589 23.292475 45.26459 23.297619 45.264928 L 38.739675 39.649637 C 39.01704 39.54869 39.20162 39.285005 39.20153 38.989839 L 39.20153 24.922829 L 43.623575 23.514796 C 43.84921 23.443026 44.023458 23.262335 44.08699 23.03424 C 44.150526 22.806149 44.094778 22.561396 43.93873 22.383316 L 39.432458 17.230582 Z M 23.057566 21.406956 L 9.931822 17.230582 L 22.355654 13.277415 L 22.355654 19.336318 C 22.355654 19.72397 22.66991 20.038228 23.057566 20.038228 C 23.44522 20.038228 23.759478 19.72397 23.759478 19.336318 L 23.759478 13.277415 L 36.18331 17.230582 L 23.057566 21.406956 Z M 28.196259 7.5091078 L 42.17904 11.959225 L 38.274309 16.42268 L 24.291525 11.973264 L 28.196259 7.5091078 Z M 17.91887 7.5091078 L 21.823605 11.972563 L 7.840827 16.422682 L 3.936093 11.959225 L 17.91887 7.5091078 Z M 7.8408267 18.03778 L 21.823607 22.487898 L 17.918873 26.951354 L 3.936093 22.501938 L 7.8408267 18.03778 Z M 37.797708 38.4985 L 23.759478 43.6028 L 23.759478 37.586015 C 23.759478 37.19836 23.44522 36.884107 23.057566 36.884107 C 22.66991 36.884107 22.355654 37.19836 22.355654 37.586015 L 22.355654 43.6028 L 8.317425 38.4985 L 8.317425 25.372754 L 17.933613 28.431687 C 18.001858 28.452336 18.072894 28.46228 18.144186 28.461167 C 18.346295 28.461167 18.53868 28.37396 18.671957 28.22189 L 22.355654 24.010346 L 22.355654 41.797487 C 22.355654 42.18514 22.66991 42.499399 23.057566 42.499399 C 23.44522 42.499399 23.759478 42.18514 23.759478 41.797487 L 23.759478 24.011748 L 27.44311 28.223217 C 27.576624 28.374785 27.76896 28.46149 27.970946 28.461167 C 28.04242 28.461094 28.11345 28.449965 28.181519 28.428174 L 37.797708 25.372754 L 37.797708 38.4985 Z M 28.196259 26.951354 L 24.291525 22.487898 L 38.274309 18.03848 L 42.17904 22.501936 L 28.196259 26.951354 Z "/>
</g>
</g>
</g>
</g>
</g>
</svg>
