<svg xmlns="http://www.w3.org/2000/svg" xmlns:xlink="http://www.w3.org/1999/xlink" width="46" height="46" viewBox="0 0 46 46"><defs><style>.a{fill:#1d1d1b;}.b{clip-path:url(#a);}</style><clipPath id="a"><rect class="a" width="46" height="46" transform="translate(214 462)"/></clipPath></defs><g class="b" transform="translate(-214 -462)"><g transform="translate(287.405 409.99)"><g transform="translate(-58.245 52.01)"><path class="a" d="M-39.76,82.482a.7.7,0,0,1-.5-.205L-57.042,65.491a.7.7,0,0,1,0-.995L-45.2,52.652a2.2,2.2,0,0,1,3.1,0l1.523,1.529A2.207,2.207,0,0,1-39.946,56a2.21,2.21,0,0,1,1.824.627l4.855,4.856a2.2,2.2,0,0,1,.275,2.775l-1.158,1.726,1.7-1.159a2.2,2.2,0,0,1,2.788.264l2.24,2.24a2.2,2.2,0,0,1,0,3.106L-39.263,82.277A.7.7,0,0,1-39.76,82.482ZM-55.55,64.994l15.79,15.79,11.347-11.348h0a.788.788,0,0,0,0-1.115l-2.24-2.241a.791.791,0,0,0-1-.094l-4.707,3.2a.7.7,0,0,1-.892-.083.7.7,0,0,1-.088-.891l3.181-4.74a.788.788,0,0,0-.1-1l-4.855-4.858a.785.785,0,0,0-.9-.152l-.846.4a.7.7,0,0,1-.8-.13.7.7,0,0,1-.149-.793l.4-.892a.792.792,0,0,0-.161-.882l-1.522-1.528a.789.789,0,0,0-1.115,0Z" transform="translate(57.248 -52.01)"/></g><g transform="translate(-73.405 66.504)"><path class="a" d="M-67.317,98.586a6.07,6.07,0,0,1-4.266-1.734,6.1,6.1,0,0,1-.078-8.615c.345-.345,1.248-1.247,10.866-7.378a2.256,2.256,0,0,0,.373-.3A2.2,2.2,0,0,0-59.775,79a2.188,2.188,0,0,0-.646-1.559l-3.251-3.253a2.2,2.2,0,0,1,0-3.107l3.429-3.428a.724.724,0,0,1,.995,0l16.782,16.784a.7.7,0,0,1,0,.995L-45.9,88.863a2.2,2.2,0,0,1-3.1,0l-3.252-3.252a2.205,2.205,0,0,0-.372-.3,2.208,2.208,0,0,0-3.046.675c-6.136,9.626-7.034,10.523-7.372,10.86A6.079,6.079,0,0,1-67.317,98.586Zm7.571-29.438-2.931,2.931a.784.784,0,0,0-.231.557.783.783,0,0,0,.231.556l3.252,3.254A3.591,3.591,0,0,1-58.368,79a3.587,3.587,0,0,1-1.06,2.553,3.613,3.613,0,0,1-.612.492c-6.3,4.012-9.869,6.428-10.622,7.18a4.69,4.69,0,0,0,.063,6.622,4.709,4.709,0,0,0,6.565,0c.744-.742,3.16-4.316,7.176-10.618a3.615,3.615,0,0,1,4.987-1.105,3.562,3.562,0,0,1,.612.491l3.253,3.252a.792.792,0,0,0,1.115,0l2.931-2.931Zm-7.512,26.107a2.8,2.8,0,0,1-1.988-.822,2.815,2.815,0,0,1,0-3.978,2.879,2.879,0,0,1,3.978,0,2.792,2.792,0,0,1,.825,1.989,2.791,2.791,0,0,1-.825,1.988h0A2.8,2.8,0,0,1-67.258,95.255Zm0-4.217a1.4,1.4,0,0,0-.994.411,1.408,1.408,0,0,0,0,1.988,1.41,1.41,0,0,0,1.988,0h0a1.408,1.408,0,0,0,0-1.988A1.4,1.4,0,0,0-67.258,91.038Z" transform="translate(73.405 -67.457)"/></g></g></g></svg>