<svg xmlns="http://www.w3.org/2000/svg" xmlns:xlink="http://www.w3.org/1999/xlink" width="46" height="46" viewBox="0 0 46 46"><defs><style>.a{fill:#4c4c4c;}.b{clip-path:url(#a);}.c{fill:#1d1d1b;}</style><clipPath id="a"><rect class="a" width="46" height="46" transform="translate(2237 126)"/></clipPath></defs><g class="b" transform="translate(-2237 -126)"><g transform="translate(2238.772 127.772)"><path class="c" d="M40.958,5.03V4.311a.719.719,0,0,0-.719-.719H38.083A3.6,3.6,0,0,0,34.491,0H5.748A3.6,3.6,0,0,0,2.156,3.593a2.156,2.156,0,0,0,0,4.311A3.6,3.6,0,0,0,5.748,11.5H34.491A3.6,3.6,0,0,0,38.083,7.9h2.156a.719.719,0,0,0,.719-.719V6.467a.719.719,0,0,1,.719.719v6.072a.719.719,0,0,1-.539.7L21.018,19.146A2.156,2.156,0,0,0,19.4,21.23v4.638H17.964a.719.719,0,0,0-.719.719V40.958A2.156,2.156,0,0,0,19.4,43.113h1.437a2.156,2.156,0,0,0,2.156-2.156V26.586a.719.719,0,0,0-.719-.719H20.838V21.233a.719.719,0,0,1,.539-.7L41.5,15.345a2.156,2.156,0,0,0,1.617-2.084V7.186A2.156,2.156,0,0,0,40.958,5.03ZM2.156,6.467a.719.719,0,1,1,0-1.437ZM36.646,7.9a2.156,2.156,0,0,1-2.156,2.156H5.748A2.156,2.156,0,0,1,3.593,7.9V3.593A2.156,2.156,0,0,1,5.748,1.437H34.491a2.156,2.156,0,0,1,2.156,2.156ZM39.52,6.467H38.083V5.03H39.52ZM21.557,27.305V40.958a.719.719,0,0,1-.719.719H19.4a.719.719,0,0,1-.719-.719V27.305Z"/></g></g></svg>