<svg xmlns="http://www.w3.org/2000/svg" xmlns:xlink="http://www.w3.org/1999/xlink" width="46" height="46" viewBox="0 0 46 46"><defs><style>.a{fill:#4c4c4c;}.b{clip-path:url(#a);}.c{fill:#1d1d1b;}</style><clipPath id="a"><rect class="a" width="46" height="46" transform="translate(1918 2310)"/></clipPath></defs><g class="b" transform="translate(-1918 -2310)"><g transform="translate(252 2113)"><path class="c" d="M1706.035,200.7h-2.113a.7.7,0,0,0-.7-.7h-4.226a.7.7,0,0,0-.7.7v.722a15.514,15.514,0,0,0-14.774,14.774h-.018a.7.7,0,0,0-.7.7v2.113a.7.7,0,0,0-.7.7v4.226a.7.7,0,0,0,.7.7h.7v3.522h-3.522v-.7a.7.7,0,0,0-.7-.7h-4.226a.7.7,0,0,0-.7.7h-2.113a.7.7,0,0,0-.7.7H1668.7a.7.7,0,0,0-.7.7h0a.7.7,0,0,0,.7.7h2.817v8.452H1668.7a.7.7,0,0,0-.7.7h0a.7.7,0,0,0,.7.7h2.817a.7.7,0,0,0,.7.7h2.113a.7.7,0,0,0,.7.7h4.226a.7.7,0,0,0,.7-.7v-.7h18.313v.7a.7.7,0,0,0,.7.7h4.226a.7.7,0,0,0,.7-.7h2.113a.7.7,0,0,0,.7-.7h2.817a.7.7,0,0,0,.7-.7h0a.7.7,0,0,0-.7-.7h-2.817v-8.452h2.817a.7.7,0,0,0,.7-.7h0a.7.7,0,0,0-.7-.7h-2.817a.7.7,0,0,0-.7-.7h-2.113a.7.7,0,0,0-.7-.7h-4.226a.7.7,0,0,0-.7.7v.7h-3.522v-3.522h.7a.7.7,0,0,0,.7-.7v-4.226a.7.7,0,0,0-.7-.7V216.9a.7.7,0,0,0-.642-.692,4.23,4.23,0,0,1,3.46-3.471v.641a.7.7,0,0,0,.7.7h4.226a.7.7,0,0,0,.7-.7h2.113a.7.7,0,0,0,.7-.7h2.817a.7.7,0,0,0,.7-.7h0a.7.7,0,0,0-.7-.7h-2.817v-8.452h2.817a.7.7,0,0,0,.7-.7h0a.7.7,0,0,0-.7-.7h-2.817A.7.7,0,0,0,1706.035,200.7Zm-33.1,38.035v-9.861h1.409v9.861Zm5.635.7h-2.817v-11.27h2.817Zm26.766-10.565v9.861h-1.409v-9.861Zm-5.635-.7h2.818v11.27H1699.7Zm-5.635,1.409h4.226v8.452h-18.313v-8.452h4.226a.7.7,0,0,0,.7-.7v-4.226h8.452v4.226A.7.7,0,0,0,1694.061,229.583Zm.7-6.339H1683.5v-2.817h11.27Zm-10.565-4.226v-1.409h9.861v1.409Zm9.205-2.817h-8.465a14.08,14.08,0,0,1,13.347-13.347v8.465A5.639,5.639,0,0,0,1693.405,216.2Zm6.291-3.522v-11.27h2.818v11.27Zm5.635-.7h-1.409v-9.861h1.409Z"/></g></g></svg>