<svg xmlns="http://www.w3.org/2000/svg" xmlns:xlink="http://www.w3.org/1999/xlink" width="46" height="46" viewBox="0 0 46 46"><defs><style>.a{fill:#4c4c4c;}.b{clip-path:url(#a);}.c{fill:#1d1d1b;}</style><clipPath id="a"><rect class="a" width="46" height="46" transform="translate(1464 2557)"/></clipPath></defs><g class="b" transform="translate(-1464 -2557)"><path class="c" d="M36.325,27.858h-.333V13.6A11.906,11.906,0,0,0,24.1,1.7H9.875V1.408A1.41,1.41,0,0,0,8.468,0H4.651A1.41,1.41,0,0,0,3.243,1.408v.25H.553A.553.553,0,0,0,0,2.211V9.367a.553.553,0,0,0,1.105,0v-6.6H3.243V12.05H1.105V7.37A.553.553,0,0,0,0,7.37V12.6a.553.553,0,0,0,.553.553h2.69v.25a1.41,1.41,0,0,0,1.408,1.408H8.468a1.41,1.41,0,0,0,1.408-1.408v-.279H20.431a4.142,4.142,0,0,1,4.137,4.137V27.858h-.241a1.41,1.41,0,0,0-1.408,1.408v3.817a1.41,1.41,0,0,0,1.408,1.408h.213v2.69a.553.553,0,0,0,.553.553h9.992a.553.553,0,0,0,0-1.105H25.647V34.491h9.286v2.137h-.221a.553.553,0,0,0,0,1.105h.774a.553.553,0,0,0,.553-.553v-2.69h.287a1.41,1.41,0,0,0,1.408-1.408V29.266a1.41,1.41,0,0,0-1.408-1.408ZM4.348,5.455H8.77v3.9H4.348Zm0-4.047a.3.3,0,0,1,.3-.3H8.468a.3.3,0,0,1,.3.3V4.35H4.348V1.408Zm4.422,12a.3.3,0,0,1-.3.3H4.651a.3.3,0,0,1-.3-.3V10.463H8.77v2.942ZM20.431,12.02H9.875V2.808H24.1A10.8,10.8,0,0,1,34.887,13.6V27.847H25.674V17.263A5.249,5.249,0,0,0,20.431,12.02ZM32.278,28.963v4.422h-3.9V28.963Zm-7.184,4.422h-.766a.3.3,0,0,1-.3-.3V29.266a.3.3,0,0,1,.3-.3H27.27v4.422H25.094Zm11.534-.3a.3.3,0,0,1-.3.3H33.383V28.963h2.942a.3.3,0,0,1,.3.3Z" transform="translate(1505.733 2598.733) rotate(180)"/></g></svg>