<svg xmlns="http://www.w3.org/2000/svg" xmlns:xlink="http://www.w3.org/1999/xlink" width="46" height="46" viewBox="0 0 46 46"><defs><style>.a{fill:#4c4c4c;}.b{clip-path:url(#a);}.c{fill:#1d1d1b;}</style><clipPath id="a"><rect class="a" width="46" height="46" transform="translate(1464 2557)"/></clipPath></defs><g class="b" transform="translate(-1464 -2557)"><path class="c" d="M3313-308.354c-.017-.3-.474-.271-.736-.284-.234-.012-.471,0-.7,0-.415,0-.831,0-1.245-.006a1.51,1.51,0,0,0-.679.1c-.315.158-.326.478-.332.787-.008.405,0,.81,0,1.214-.354,0-.652-.006-.949,0-.95.024-1.9.044-2.848.072a15.954,15.954,0,0,0-2.174.112,10.818,10.818,0,0,0-6.914,4.474,11.571,11.571,0,0,0-1.458,3.014,11.429,11.429,0,0,0-.478,3.69c.007.538,0,1.074,0,1.646h-1.313c-.535.007-.77.227-.778.75q-.015,1.1,0,2.192c.007.529.241.758.765.766.424.006.851,0,1.276,0a2.391,2.391,0,0,1-2.021,2.223,14.176,14.176,0,0,1-1.886.056,2.526,2.526,0,0,1-2.679-2.363,2.458,2.458,0,0,1,0-.345c0-1.314,0-2.636,0-3.954,0-.135.016-.272.026-.424h1.3c.534-.005.767-.222.775-.752q.016-1.1,0-2.192c-.009-.528-.247-.755-.77-.763-.427-.006-.853,0-1.327,0,0-1.042.031-2.042-.009-3.039a16.816,16.816,0,0,0-.25-2.942,10.806,10.806,0,0,0-10.7-8.578h-3.7c-.153,0-.3-.013-.486-.022,0-.472.006-.9,0-1.329-.009-.505-.233-.74-.737-.747q-1.117-.017-2.235,0a.655.655,0,0,0-.734.567.64.64,0,0,0,0,.187v13.668c0,.525.236.761.761.767q1.1.012,2.191,0c.523-.005.747-.238.754-.771.006-.425,0-.85,0-1.277h4.091v3.51c-.464,0-.893-.008-1.322,0a.646.646,0,0,0-.718.564.614.614,0,0,0,0,.156q-.015,1.117,0,2.235c0,.526.23.744.768.75h1.314v6.869a1.283,1.283,0,0,0,.018.216c.012.35.031.7.075,1.045a11.4,11.4,0,0,0,11.316,9.978c1.92,0,3.839.034,5.759-.014a14.017,14.017,0,0,0,2.806-.326,11.307,11.307,0,0,0,8.647-10.228c.055-.894.008-1.794.008-2.733h1.327c.556-.005.793-.229.8-.774q.011-1.075,0-2.149c-.005-.554-.231-.775-.788-.782-.422-.005-.845,0-1.266,0V-295.5h3.723a.481.481,0,0,1,.038.112c0,.387,0,.774.009,1.16.008.557.226.78.782.784.674.006,1.347-.015,2.021.009a.911.911,0,0,0,.909-.439S3313.006-308.213,3313-308.354Zm-41.609,7.249h-1.076V-313.67h1.076Zm1.829-2.068h-.486v-8.392a2.793,2.793,0,0,1,.329-.037c1.347,0,2.693-.02,4.042,0a9.544,9.544,0,0,1,9.45,9.408c.024,1.174,0,2.348,0,3.523,0,.1-.013.192-.022.309h-8.406v-.979c0-.859.005-1.718,0-2.578a1.138,1.138,0,0,0-1.01-1.253,1.214,1.214,0,0,0-.242,0c-1.219-.007-2.437,0-3.655,0Zm2.861,7.223v-1.07h12.559v1.07Zm14.28,17.746c0,.112-.016.224-.029.388-.744,0-1.47.011-2.2,0a9.876,9.876,0,0,1-6.808-2.738,9.947,9.947,0,0,1-3.2-7.307V-294.6h8.412c.008.161.02.3.02.44,0,1.347-.016,2.694.005,4.042a3.773,3.773,0,0,0,3.435,3.839c.3.034.369.154.368.43-.009,2.547,0,5.1-.007,7.648Zm10.778-2.459a9.98,9.98,0,0,1-6.894,2.847c-.744.019-1.49,0-2.234.008-.246,0-.363-.054-.363-.33.009-2.635.007-5.27.009-7.9a.928.928,0,0,1,.027-.152c2.763-.49,3.643-1.262,4.107-3.6h8.359c.014.017.046.037.047.06C3304.436-286.29,3303.725-283.156,3301.138-280.664Zm5.142-11.544v1.057H3293.7v-1.057Zm-.845-4.606a1.111,1.111,0,0,0-1.2,1.011c0,.022,0,.043,0,.066-.017.228-.01.458-.01.687v1.487h-8.432c0-.808-.037-1.6.006-2.382a9.6,9.6,0,0,1,3.327-7,9.825,9.825,0,0,1,3.921-2.008,22.009,22.009,0,0,1,4.786-.272l1.367-.022.084,8.428Zm6.268,2.07h-1.078v-12.565h1.078Z" transform="translate(-1804.001 2876.006)"/></g></svg>