<svg xmlns="http://www.w3.org/2000/svg" xmlns:xlink="http://www.w3.org/1999/xlink" width="46" height="46" viewBox="0 0 46 46"><defs><style>.a{fill:#4c4c4c;}.b{clip-path:url(#a);}.c{fill:#1d1d1b;}</style><clipPath id="a"><rect class="a" width="46" height="46" transform="translate(2203 687)"/></clipPath></defs><g class="b" transform="translate(-2203 -687)"><g transform="translate(-188 1401)"><path class="c" d="M2430.3-697.2l-.148,0-21.51,4.315v-6.138a2.925,2.925,0,0,1,1.028-1.918c2.416-2.418,8.9-5.021,17.43-5.021.8,0,1.379-.85,1.379-2.02s-.58-2.02-1.379-2.02c-16.672,0-32.1,1.1-32.1,9.059v28.8a.741.741,0,0,0,.74.74h12.16a.74.74,0,0,0,.74-.74v-10.386l17.08-7.009v1.393a.74.74,0,0,0,.739.74h5.12a.74.74,0,0,0,.739-.74v-4.1l.819-.339a.739.739,0,0,0,.463-.682C2433.6-694.953,2433.258-697.2,2430.3-697.2Zm.54,5.566,0,2.751H2427.2v-1.259ZM2426.9-708.52a1.312,1.312,0,0,1,.1.544,1.3,1.3,0,0,1-.094.537c-10.158.048-19.744,4.131-19.744,8.418v3.1h-10.683v-5.02C2396.479-707.61,2411.848-708.518,2426.9-708.52Zm-19.747,25.5v7.579h-10.677v-19h10.68v2.458a.742.742,0,0,0,.725.755.886.886,0,0,0,.163-.015l22.314-4.478c1.028,0,1.645.324,1.745,1.966L2407.618-683.7A.741.741,0,0,0,2407.156-683.022Zm0,9.059v1.08h-10.68v-1.08Z"/><path class="c" d="M2430.624-683.879c-.364-.741-.708-1.44-.919-1.976h0a.74.74,0,0,0-.961-.415.745.745,0,0,0-.415.415c-.222.546-.572,1.273-.919,1.977-1.392,2.838-3.126,6.37-1.825,8.455.611.969,1.766,1.461,3.432,1.461s2.821-.492,3.432-1.461c1.3-2.077-.424-5.6-1.813-8.431Zm-1.883.65.275-.568.282.583c1.1,2.239,2.752,5.623,1.913,7.006v0a2.506,2.506,0,0,1-2.194.763c-1.122,0-1.854-.258-2.174-.766C2425.968-677.6,2427.7-681.124,2428.741-683.229Z"/></g></g></svg>