<svg xmlns="http://www.w3.org/2000/svg" xmlns:xlink="http://www.w3.org/1999/xlink" width="46" height="46" viewBox="0 0 46 46"><defs><style>.a{fill:#4c4c4c;}.b{clip-path:url(#a);}.c{fill:#1d1d1b;}</style><clipPath id="a"><rect class="a" width="46" height="46" transform="translate(208 3521)"/></clipPath></defs><g class="b" transform="translate(-208 -3521)"><path class="c" d="M3260.835-268.011a1.359,1.359,0,0,0,1.354-1.354v-4.049a1.6,1.6,0,0,0-1.59-1.591h-12.715a1.6,1.6,0,0,0-1.59,1.591v4.043c0,.876.6,1.331,1.8,1.353v6.641a.285.285,0,0,1-.284.283h-9.19v-.208a1.618,1.618,0,0,0-1.6-1.591v-.455a1.839,1.839,0,0,0-1.835-1.836h-.706v-.908h2.019a.683.683,0,0,0,.682-.683.684.684,0,0,0-.682-.681h-2.02v-.57a1.627,1.627,0,0,0-1.622-1.552l-.071,0a1.614,1.614,0,0,0-1.549,1.554v.567h-2.019a.683.683,0,0,0-.683.682.684.684,0,0,0,.683.682h2.019v.911h-.707a1.838,1.838,0,0,0-1.835,1.836v.443a1.617,1.617,0,0,0-1.6,1.533v.352h-4.417a.683.683,0,0,0-.683.682V-249.4a.683.683,0,0,0,.683.682h4.407a1.623,1.623,0,0,0,.358,1.1,1.633,1.633,0,0,0,1.1.605c.045,0,.09.008.14.009h8.353a1.652,1.652,0,0,0,1.157-.529,1.643,1.643,0,0,0,.445-1.194c0-.026,0-.052,0-.078h9.173a.284.284,0,0,1,.284.283v6.554a1.662,1.662,0,0,0-1.78,1.395l0,.019a1.523,1.523,0,0,0-.017.192v4.042a1.6,1.6,0,0,0,1.393,1.571v.022h3.839l.038-.008.055.008h8.973a1.6,1.6,0,0,0,1.591-1.591v-4.045a1.664,1.664,0,0,0-1.66-1.6,1.387,1.387,0,0,0-.14.006v-26.055Zm-4.656,27.426v4.5h-3.873v-4.5Zm-3.87-28.79v-4.262h3.872v4.262Zm5.234,0v-4.262h3.057a.222.222,0,0,1,.159.066.225.225,0,0,1,.067.161l.009,4.04Zm-9.732,19.222h-9.145v-9.573h9.146a1.646,1.646,0,0,0,1.644-1.644v-6.644h9.576v26.021l-9.576.009V-248.5A1.649,1.649,0,0,0,3247.811-250.149Zm-.153-19.226v-4.035a.227.227,0,0,1,.227-.227h3.057v4.262Zm0,33.064v-4.041a.228.228,0,0,1,.227-.227h3.057v4.495h-3.058A.23.23,0,0,1,3247.654-236.311Zm13.172,0a.227.227,0,0,1-.227.227h-3.053v-4.5h3.052a.229.229,0,0,1,.228.227Zm-28.22-31.693a.26.26,0,0,1,.283-.225.257.257,0,0,1,.229.219v.567h-.512Zm0,2.84v-.911h.512v.911Zm-2.544,2.262v-.434a.473.473,0,0,1,.473-.472h4.66a.473.473,0,0,1,.473.472v.434Zm-1.6,1.61a.227.227,0,0,1,.227-.227h8.35a.227.227,0,0,1,.227.227v12.709a.227.227,0,0,1-.227.227h-8.35a.227.227,0,0,1-.227-.227Zm-5.1,11.231v-9.574h3.734v9.574Z" transform="translate(-3010.815 3799.189)"/></g></svg>