<svg xmlns="http://www.w3.org/2000/svg" xmlns:xlink="http://www.w3.org/1999/xlink" width="46" height="46" viewBox="0 0 46 46"><defs><style>.a{fill:#4c4c4c;}.b{clip-path:url(#a);}.c{fill:#1d1d1b;}</style><clipPath id="a"><rect class="a" width="46" height="46" transform="translate(2156 1151)"/></clipPath></defs><g class="b" transform="translate(-2156 -1151)"><g transform="translate(2157.639 1151.285)"><path class="c" d="M42.7,27.224H41.222a2.031,2.031,0,0,0-1.908-1.356H36.606A2.03,2.03,0,0,0,34.7,27.224H32.539a.677.677,0,0,0-.678.678v.678h-.681V27.9a.677.677,0,0,0-.678-.678h-6.09V26.21a11.523,11.523,0,1,0-5.423.005v1.008H12.878a.677.677,0,0,0-.678.678v.678H11.52V27.9a.677.677,0,0,0-.678-.678H8.683a2.031,2.031,0,0,0-1.908-1.356H4.067a2.03,2.03,0,0,0-1.908,1.356H.677A.677.677,0,0,0,0,27.9s0,0,0,0V40.1a.677.677,0,0,0,.678.678H2.159a2.031,2.031,0,0,0,1.908,1.356H6.775a2.03,2.03,0,0,0,1.908-1.356h2.16a.677.677,0,0,0,.678-.678s0,0,0,0v-.674H12.2V40.1a.677.677,0,0,0,.678.678H30.5a.677.677,0,0,0,.678-.678v-.678h.681V40.1s0,0,0,0a.677.677,0,0,0,.678.678H34.7a2.031,2.031,0,0,0,1.908,1.356h2.707a2.03,2.03,0,0,0,1.908-1.356H42.7a.677.677,0,0,0,.678-.678V27.9s0,0,0,0a.677.677,0,0,0-.678-.678Zm-40.67,12.2H1.355V28.579h.679Zm5.419.671s0,0,0,.007,0,0,0,0a.678.678,0,0,1-.677.674H4.067A.678.678,0,0,1,3.39,40.1V38.069H7.453Zm0-3.382H3.39V31.291H7.453Zm0-6.778H3.39V27.9a.678.678,0,0,1,.678-.678H6.775a.678.678,0,0,1,.677.674s0,0,0,0,0,0,0,.007Zm2.711,9.49H8.808V28.579h1.356ZM12.2,38.069H11.52V29.935H12.2Zm-.677-23.044A10.168,10.168,0,1,1,21.691,25.193,10.179,10.179,0,0,1,11.523,15.025ZM23.057,26.46v.764H20.346v-.761a10.595,10.595,0,0,0,2.711,0Zm6.768,12.965H13.556V28.579h16.27Zm2.036-1.356h-.681V29.935h.681Zm2.711,1.356H33.217V28.579h1.356Zm5.419.678a.678.678,0,0,1-.678.678H36.606a.678.678,0,0,1-.677-.674s0,0,0,0,0,0,0-.007V38.069h4.063Zm0-3.389H35.929V31.291h4.063Zm0-6.778H35.929V27.908s0,0,0-.007,0,0,0,0a.678.678,0,0,1,.677-.674h2.707a.678.678,0,0,1,.678.678Zm2.034,9.49h-.679V28.579h.679Z" transform="translate(0 0)"/><path class="c" d="M35.585,20.919a.5.5,0,0,0,.192-.317,9.417,9.417,0,0,0,1.2-4.463A.631.631,0,0,0,37,16a.669.669,0,0,0-.026-.133,9.426,9.426,0,0,0-1.211-4.51.6.6,0,0,0-.037-.107.6.6,0,0,0-.093-.1,9.54,9.54,0,0,0-3.307-3.3.692.692,0,0,0-.078-.069.811.811,0,0,0-.078-.026A9.424,9.424,0,0,0,27.5,6.5h-.014a9.43,9.43,0,0,0-4.713,1.264c-.009,0-.018,0-.026.009s-.016.016-.026.023a9.552,9.552,0,0,0-3.431,3.432c-.005.009-.014.014-.02.022s0,.015-.007.022a9.417,9.417,0,0,0-.012,9.412c.009.02.01.043.021.063a.7.7,0,0,0,.079.1,9.463,9.463,0,0,0,16.23.066Zm-14.765-.285a.672.672,0,0,0-.671-1.163,8.074,8.074,0,0,1-.758-2.8.673.673,0,0,0,0-1.346,8.062,8.062,0,0,1,.75-2.8.665.665,0,0,0,.316.082.675.675,0,0,0,.355-1.251,8.218,8.218,0,0,1,2.049-2.048.677.677,0,0,0,.575.323.675.675,0,0,0,.594-.993,8.042,8.042,0,0,1,2.8-.75.673.673,0,0,0,1.346,0,8.075,8.075,0,0,1,2.8.759.673.673,0,0,0,1.165.672,8.211,8.211,0,0,1,2.044,2.049.672.672,0,0,0,.666,1.165,8.085,8.085,0,0,1,.748,2.795.669.669,0,0,0,0,1.337,8.056,8.056,0,0,1-.755,2.795.669.669,0,0,0-.665,1.158,8.118,8.118,0,0,1-13.35.012Z" transform="translate(-5.799 -0.966)"/><path class="c" d="M30.356,19.193V20a.678.678,0,1,0,1.356,0v-.812a2.021,2.021,0,0,0,.011-3.814V11.193a.678.678,0,1,0-1.356,0v4.18a2.021,2.021,0,0,0-.011,3.82Zm.678-2.586a.678.678,0,1,1-.678.678A.678.678,0,0,1,31.034,16.607Z" transform="translate(-9.343 -2.259)"/><path class="c" d="M33.438,28.2a.677.677,0,0,0-.678-.678H28.693a.678.678,0,1,0,0,1.356H32.76A.678.678,0,0,0,33.438,28.2Z" transform="translate(-9.026 -7.737)"/></g></g></svg>