<svg xmlns="http://www.w3.org/2000/svg" xmlns:xlink="http://www.w3.org/1999/xlink" width="46" height="46" viewBox="0 0 46 46"><defs><style>.a{fill:#4c4c4c;}.b{clip-path:url(#a);}.c{fill:#1d1d1b;}</style><clipPath id="a"><rect class="a" width="46" height="46" transform="translate(2124 956)"/></clipPath></defs><g class="b" transform="translate(-2124 -956)"><g transform="translate(-767.426 1703.607)"><g transform="translate(2908.824 -722.422)"><path class="c" d="M2914.307-723.788a5.762,5.762,0,0,0-5.762,5.763,5.763,5.763,0,0,0,5.763,5.762,5.764,5.764,0,0,0,5.762-5.763A5.77,5.77,0,0,0,2914.307-723.788Zm0,10.156a4.394,4.394,0,0,1-4.394-4.394,4.393,4.393,0,0,1,4.394-4.393,4.393,4.393,0,0,1,4.394,4.393h0a4.4,4.4,0,0,1-4.394,4.393Z" transform="translate(-2908.545 723.788)"/></g><g transform="translate(2911.362 -719.884)"><path class="c" d="M2914.165-721.392a3.224,3.224,0,0,0-3.224,3.224,3.224,3.224,0,0,0,3.224,3.224,3.224,3.224,0,0,0,3.224-3.224A3.228,3.228,0,0,0,2914.165-721.392Zm0,5.078a1.855,1.855,0,0,1-1.855-1.854,1.855,1.855,0,0,1,1.855-1.855,1.854,1.854,0,0,1,1.854,1.855h0a1.856,1.856,0,0,1-1.854,1.854Z" transform="translate(-2910.941 721.392)"/></g><path class="c" d="M2923.489-723.084a1.383,1.383,0,0,1-.244-.78l0-9.9a.685.685,0,0,0-.685-.684.685.685,0,0,0-.684.685l0,9.9a2.735,2.735,0,0,0,.481,1.549,9.4,9.4,0,0,1-2.492,13.051,9.4,9.4,0,0,1-5.276,1.624h-.068a9.4,9.4,0,0,1-9.328-9.462,9.4,9.4,0,0,1,1.624-5.212,2.739,2.739,0,0,0,.48-1.549l.01-10.211a7.268,7.268,0,0,1,4.758-6.482v2.008a4.8,4.8,0,0,0-1.562,6.608,4.8,4.8,0,0,0,6.608,1.561,4.8,4.8,0,0,0,1.563-6.609,4.793,4.793,0,0,0-1.562-1.561v-2.008a7.271,7.271,0,0,1,4.759,6.482v1.3a.686.686,0,0,0,.685.684.685.685,0,0,0,.684-.685v-1.342a8.639,8.639,0,0,0-6.129-7.882v-3.71a1.142,1.142,0,0,0-1.143-1.142H2913.2a1.143,1.143,0,0,0-1.141,1.142V-742a8.638,8.638,0,0,0-6.127,7.88v.031l-.009,10.228a1.379,1.379,0,0,1-.244.777,10.726,10.726,0,0,0-1.86,5.888v13.809a1.144,1.144,0,0,0,1.142,1.142h2.761a1.142,1.142,0,0,0,1.141-1.142v-4.533a10.653,10.653,0,0,0,5.644,1.652h.077a10.69,10.69,0,0,0,5.719-1.641v4.522a1.143,1.143,0,0,0,1.141,1.142h2.762a1.143,1.143,0,0,0,1.142-1.142v-13.646A10.7,10.7,0,0,0,2923.489-723.084Zm-10.058-22.4h2.306v9.3a.429.429,0,0,1-.428.428h-1.45a.428.428,0,0,1-.428-.428Zm.43,11.1h1.448a1.8,1.8,0,0,0,1.8-1.8v-.6a3.431,3.431,0,0,1-.2,4.848,3.431,3.431,0,0,1-4.848-.2,3.429,3.429,0,0,1,0-4.649v.6A1.8,1.8,0,0,0,2913.861-734.384Zm-6.363,30.768h-2.3v-8.173a10.9,10.9,0,0,0,1.711,2.275c.193.2.391.386.594.568Zm16.48,0h-2.3v-5.317c.169-.148.334-.3.5-.462a10.835,10.835,0,0,0,1.809-2.374Z" transform="translate(0)"/></g></g></svg>