<svg xmlns="http://www.w3.org/2000/svg" xmlns:xlink="http://www.w3.org/1999/xlink" width="46" height="46" viewBox="0 0 46 46"><defs><style>.a{fill:#4c4c4c;}.b{clip-path:url(#a);}.c{fill:#1d1d1b;}</style><clipPath id="a"><rect class="a" width="46" height="46" transform="translate(1452 1698)"/></clipPath></defs><g class="b" transform="translate(-1452 -1698)"><g transform="translate(-2617.903 2574.171)"><path class="c" d="M4107.579-845.165c0-.02,0-.04,0-.06,0-7.856,0-19.476,0-26.814a2.478,2.478,0,0,0-2.7-2.714h-12.14q-6.133,0-12.266,0a2.47,2.47,0,0,0-2.656,2.672q0,2.66,0,5.321c0,.047,0,.094,0,.14,0,.367,0,.76,0,1.175,0,.064,0,.13,0,.193,0,5.162,0,13.521,0,18.018,0,1.875,0,3.75,0,5.625a2.47,2.47,0,0,0,2.629,2.618c.748,0,1.494,0,2.242,0,.136,0,.271.016.441.027,0,.735,0,1.437,0,2.139a.894.894,0,0,0,.974.973c.191.005.381,0,.6,0,0,1.125.017,2.182-.007,3.239a1.144,1.144,0,0,0,.642,1.171h2.622a1.22,1.22,0,0,0,.61-1.232c-.033-1.038-.009-2.079-.009-3.178.209,0,.386,0,.563,0a.923.923,0,0,0,1.026-1.016c.008-.687,0-1.375,0-2.093h5.093v1.8c0,1.045.244,1.3,1.281,1.314.083,0,.167.011.307.021v.918c0,.746.03,1.494-.007,2.238a1.207,1.207,0,0,0,.61,1.232h2.623a1.113,1.113,0,0,0,.639-1.171c-.024-.436,0-.874,0-1.311v-1.906c.122-.01.189-.019.257-.021,1.126-.034,1.315-.229,1.315-1.357v-1.785c.98,0,1.9.012,2.812,0a2.453,2.453,0,0,0,2.5-2.493C4107.589-842.711,4107.582-843.938,4107.579-845.165Zm-20.312,12.434h-1.259v-3.1h1.259Zm1.576-4.406h-4.414v-1.83h4.414Zm10.547,4.408h-1.266v-3.082h1.266Zm1.578-4.411h-4.426v-1.826h4.426Zm3.924-3.12q-12.14,0-24.278,0c-1.121,0-1.528-.413-1.528-1.532,0-6.322,0-16.8,0-23.553v-1.078c0-.15.005-.3,0-.45q0-2.6,0-5.2a1.228,1.228,0,0,1,1.392-1.408q12.138,0,24.279,0c1.155,0,1.552.4,1.552,1.545,0,7.74,0,20.331,0,28.071,0,.119,0,.239,0,.358q0,.908,0,1.816C4106.306-840.713,4105.861-840.259,4104.891-840.259Z" transform="translate(0 0)"/><path class="c" d="M4132.322-833.024c-.1,0-.193,0-.341,0v-.562q0-4.144,0-8.288a1.255,1.255,0,0,0-1.388-1.387q-9.916,0-19.833,0a1.267,1.267,0,0,0-1.432,1.43q0,12.9,0,25.795a1.277,1.277,0,0,0,1.435,1.434l19.748,0a1.29,1.29,0,0,0,1.471-1.482q0-4.123,0-8.246v-.481c.946-.082,1.27-.326,1.272-.979q.013-3.15,0-6.3A.88.88,0,0,0,4132.322-833.024Zm-1.63,17.122h-20.067v-26.061h20.054v8.939c-.139,0-.251-.006-.363,0a.854.854,0,0,0-.876.89q-.016,3.192,0,6.384a.866.866,0,0,0,.869.9c.123.012.246.018.387.028Zm1.266-10.228h-1.221v-5.6h1.221Z" transform="translate(-27.957 -27.938)"/><path class="c" d="M4163.542-819.543a1.223,1.223,0,0,0-2.318-.005q-2.314,4-4.62,8.01a1.207,1.207,0,0,0,1.128,1.948c1.536,0,3.072,0,4.607,0v0c1.563,0,3.127,0,4.69,0a1.208,1.208,0,0,0,1.133-1.946Q4165.854-815.539,4163.542-819.543Zm-5.851,8.655,4.69-8.122,4.69,8.122Z" transform="translate(-69.684 -48.241)"/><path class="c" d="M4161.368-710.549a2.261,2.261,0,0,0-2.268-2.248,2.268,2.268,0,0,0-2.264,2.255,2.27,2.27,0,0,0,2.294,2.27A2.259,2.259,0,0,0,4161.368-710.549Zm-2.282,1a.984.984,0,0,1-.973-1.008.991.991,0,0,1,1.012-.971.991.991,0,0,1,.973,1.01A.986.986,0,0,1,4159.086-709.545Z" transform="translate(-70.108 -141.688)"/><path class="c" d="M4224.713-712.8a2.258,2.258,0,0,0-2.253,2.262,2.268,2.268,0,0,0,2.253,2.266,2.265,2.265,0,0,0,2.276-2.286A2.265,2.265,0,0,0,4224.713-712.8Zm.016,3.252a.985.985,0,0,1-1-.984.992.992,0,0,1,.988-1,.989.989,0,0,1,1,.986A.985.985,0,0,1,4224.729-709.545Z" transform="translate(-128.329 -141.688)"/><path class="c" d="M4192.057-637.645c-1.294-.011-4.589-.011-5.883,0a.627.627,0,0,0-.681.648.626.626,0,0,0,.707.612c.632.008,1.266,0,1.9,0v0c.647,0,3.294.007,3.941,0a.63.63,0,0,0,.7-.62A.629.629,0,0,0,4192.057-637.645Z" transform="translate(-96.42 -210.356)"/><path class="c" d="M4198.684-782.505c-.261.466-.516.937-.755,1.414a.631.631,0,0,0,.505.994c.1.018.21.032.358.055-.1.2-.191.355-.266.519a.641.641,0,0,0,.227.88.63.63,0,0,0,.894-.293c.277-.489.546-.985.791-1.491a.612.612,0,0,0-.515-.922c-.107-.015-.214-.023-.386-.041.109-.215.188-.362.26-.514a.65.65,0,0,0-.225-.914A.647.647,0,0,0,4198.684-782.505Z" transform="translate(-106.472 -81.498)"/></g></g></svg>