<svg xmlns="http://www.w3.org/2000/svg" xmlns:xlink="http://www.w3.org/1999/xlink" width="46" height="46" viewBox="0 0 46 46"><defs><style>.a{fill:#4c4c4c;}.b{clip-path:url(#a);}</style><clipPath id="a"><rect class="a" width="46" height="46" transform="translate(1597 249)"/></clipPath></defs><g class="b" transform="translate(-1597 -249)"><g transform="translate(-1471.017 998.75)"><path d="M3111.99-725.35a7.208,7.208,0,0,0-5.06-2.28h-.44l-.09.01-.01-.01h-1.87l.5-.44a7.246,7.246,0,0,0,.66-10.22,7.269,7.269,0,0,0-5.44-2.46h-16.87a.2.2,0,0,0-.07.01,7.257,7.257,0,0,0-7.18,7.33,7.2,7.2,0,0,0,2.13,5.03c.11.11.22.21.33.32l.5.43h-2.58a7.265,7.265,0,0,0-5.2,1.97,7.19,7.19,0,0,0-2.28,5.06,7.271,7.271,0,0,0,7.03,7.47h30.43a7.207,7.207,0,0,0,5.2-1.97,7.208,7.208,0,0,0,2.28-5.06A7.225,7.225,0,0,0,3111.99-725.35Zm-11.75-14.03a5.888,5.888,0,0,1,5.87,5.88,5.885,5.885,0,0,1-5.87,5.87h-12.59l.52-.44c.11-.1.22-.2.33-.31a7.267,7.267,0,0,0,0-10.25c-.11-.1-.22-.21-.34-.31l-.49-.44Zm-21.02,1.72a5.86,5.86,0,0,1,4.15-1.71,5.851,5.851,0,0,1,4.16,1.72,5.807,5.807,0,0,1,1.72,4.15,5.825,5.825,0,0,1-1.72,4.15,5.842,5.842,0,0,1-4.15,1.72,5.847,5.847,0,0,1-4.16-1.72A5.885,5.885,0,0,1,3079.22-737.66Zm6.11,11.4-.5.44a7.271,7.271,0,0,0-1.56,1.93l-.22.4-.21-.4a7.281,7.281,0,0,0-1.56-1.93l-.5-.44Zm-8.83,11.75a5.9,5.9,0,0,1-5.86-5.48l-.01.01-.01-.4a5.889,5.889,0,0,1,5.88-5.88,5.888,5.888,0,0,1,5.87,5.88A5.885,5.885,0,0,1,3076.5-714.51Zm4.29,0,.49-.44a7.281,7.281,0,0,0,1.56-1.93l.22-.4.22.4a7.045,7.045,0,0,0,1.55,1.93l.5.44Zm8.83,0a5.881,5.881,0,0,1-5.88-5.87,5.879,5.879,0,0,1,5.87-5.87,5.887,5.887,0,0,1,5.88,5.87A5.879,5.879,0,0,1,3089.62-714.51Zm16.86,0H3093.9l.5-.44a7.209,7.209,0,0,0,2.45-4.96,7.218,7.218,0,0,0-1.78-5.24,7.064,7.064,0,0,0-.67-.67l-.5-.44h12.58a5.888,5.888,0,0,1,5.87,5.88A5.885,5.885,0,0,1,3106.48-714.51Z"/><path d="M3083.37-737.01a3.5,3.5,0,0,0-3.49,3.5,3.478,3.478,0,0,0,1.02,2.48,3.472,3.472,0,0,0,2.47,1.02,3.443,3.443,0,0,0,2.47-1.03,3.443,3.443,0,0,0,1.03-2.47A3.517,3.517,0,0,0,3083.37-737.01Zm0,5.63h-.25v-.02a2.122,2.122,0,0,1-1.87-2.11,2.121,2.121,0,0,1,2.12-2.12,2.13,2.13,0,0,1,2.13,2.12A2.132,2.132,0,0,1,3083.37-731.38Z"/><path d="M3089.62-723.88a3.5,3.5,0,0,0-3.5,3.49,3.5,3.5,0,0,0,3.5,3.5,3.5,3.5,0,0,0,3.49-3.5A3.5,3.5,0,0,0,3089.62-723.88Zm0,5.62a2.123,2.123,0,0,1-2.13-2.12,2.132,2.132,0,0,1,2.13-2.13,2.121,2.121,0,0,1,2.12,2.12A2.123,2.123,0,0,1,3089.62-718.26Z"/><path d="M3076.5-723.88a3.5,3.5,0,0,0-3.5,3.5,3.5,3.5,0,0,0,3.5,3.49,3.5,3.5,0,0,0,3.49-3.49A3.5,3.5,0,0,0,3076.5-723.88Zm0,5.62a2.13,2.13,0,0,1-2.13-2.12,2.132,2.132,0,0,1,2.13-2.13,2.121,2.121,0,0,1,2.12,2.12A2.123,2.123,0,0,1,3076.5-718.26Z"/></g></g></svg>