<svg xmlns="http://www.w3.org/2000/svg" xmlns:xlink="http://www.w3.org/1999/xlink" width="46" height="46" viewBox="0 0 46 46"><defs><style>.a{fill:#4c4c4c;}.b{clip-path:url(#a);}.c{fill:#1d1d1b;}</style><clipPath id="a"><rect class="a" width="46" height="46" transform="translate(2202 919)"/></clipPath></defs><g class="b" transform="translate(-2202 -919)"><g transform="translate(2205 923.5)"><path class="c" d="M320.012,230.441h-23.8a.781.781,0,1,0,0,1.562h23.8a.781.781,0,1,0,0-1.562Zm0,0" transform="translate(-285.43 -219.05)"/><path class="c" d="M320.012,346.551h-23.8a.781.781,0,1,0,0,1.562h23.8a.781.781,0,1,0,0-1.562Zm0,0" transform="translate(-285.43 -326.126)"/><path class="c" d="M39.056.5H6.266a.781.781,0,0,0-.781.781V5.769H.781A.781.781,0,0,0,0,6.55V31.995a3.528,3.528,0,0,0,3.524,3.524h32.79a3.528,3.528,0,0,0,3.524-3.524V1.281A.781.781,0,0,0,39.056.5ZM1.562,31.995V7.331H5.485c.022,10.485-.023,7.986,0,24.664a1.961,1.961,0,1,1-3.923,0Zm36.713,0a1.964,1.964,0,0,1-1.962,1.962H6.45a3.53,3.53,0,0,0,.6-1.962V2.062H38.275Zm0,0" transform="translate(0)"/><path class="c" d="M257.1,170.754a.781.781,0,0,0,.781.781h17.784a.781.781,0,1,0,0-1.562H257.879A.781.781,0,0,0,257.1,170.754Zm0,0" transform="translate(-247.098 -163.287)"/><path class="c" d="M296.211,290H311.9a.781.781,0,0,0,0-1.563H296.211a.781.781,0,0,0,0,1.563Zm0,0" transform="translate(-285.43 -272.531)"/><path class="c" d="M296.211,290H306.9a.781.781,0,0,0,0-1.563H296.211a.781.781,0,0,0,0,1.563Zm0,0" transform="translate(-285.43 -259.531)"/></g></g></svg>