<svg xmlns="http://www.w3.org/2000/svg" xmlns:xlink="http://www.w3.org/1999/xlink" width="46" height="46" viewBox="0 0 46 46"><defs><style>.a{fill:#4c4c4c;}.b{clip-path:url(#a);}.c{fill:#1d1d1b;}</style><clipPath id="a"><rect class="a" width="46" height="46" transform="translate(2134 1340)"/></clipPath></defs><g class="b" transform="translate(-2134 -1340)"><path class="c" d="M3160.565-725.129h-.049v-3.852a20.525,20.525,0,0,0-16.044-20.011,2.236,2.236,0,0,0-2.223-2.008h-4.459a2.235,2.235,0,0,0-2.223,2.008,20.525,20.525,0,0,0-16.045,20.011v3.852h-.048a1.476,1.476,0,0,0-1.474,1.478h0v.97a1.47,1.47,0,0,0,1.01,1.4,70.131,70.131,0,0,0,21.009,2.905,70.133,70.133,0,0,0,21.009-2.905,1.47,1.47,0,0,0,1.01-1.4v-.97A1.476,1.476,0,0,0,3160.565-725.129Zm-23.357-24.2v0a.8.8,0,0,1,.581-.247h4.459a.808.808,0,0,1,.808.81v.026l-.656,19.026a.8.8,0,0,1-.808.781h-3.146a.806.806,0,0,1-.808-.781l-.656-19.023A.8.8,0,0,1,3137.208-749.327Zm-16.259,20.346a19.114,19.114,0,0,1,10.076-16.821l1.548,11.9a.714.714,0,0,0,.705.613.661.661,0,0,0,.1-.007.713.713,0,0,0,.6-.807h0l-1.61-12.355a18.886,18.886,0,0,1,3.227-1.077l.616,17.871a2.227,2.227,0,0,0,2.234,2.158h3.147a2.227,2.227,0,0,0,2.234-2.158l.616-17.87a18.941,18.941,0,0,1,3.223,1.077l-1.617,12.352a.713.713,0,0,0,.6.807h0a.681.681,0,0,0,.1.007.713.713,0,0,0,.7-.613l1.548-11.9a19.117,19.117,0,0,1,10.079,16.823v3.852h-4.613c-.007,0-.013,0-.02,0h-33.508Zm39.663,6.3,0,0a.047.047,0,0,1-.027.047,68.682,68.682,0,0,1-20.565,2.835,68.69,68.69,0,0,1-20.562-2.832.049.049,0,0,1-.027-.047v-.966a.047.047,0,0,1,.048-.048H3157.5c.007,0,.013,0,.02,0h3.044a.047.047,0,0,1,.048.048Z" transform="translate(-983 2098)"/></g></svg>