<svg xmlns="http://www.w3.org/2000/svg" xmlns:xlink="http://www.w3.org/1999/xlink" width="46" height="46" viewBox="0 0 46 46"><defs><style>.a{fill:#4c4c4c;}.b{clip-path:url(#a);}.c{fill:#1d1d1b;}</style><clipPath id="a"><rect class="a" width="46" height="46" transform="translate(3211 510)"/></clipPath></defs><g class="b" transform="translate(-3211 -510)"><g transform="translate(-338.347 -629.214)"><path class="c" d="M223.575,130.17a.788.788,0,0,0,0,1.576,5.863,5.863,0,0,1,5.856,5.856v.591a.788.788,0,0,0,1.576,0V137.6A7.441,7.441,0,0,0,223.575,130.17Z" transform="translate(3348.612 1014.359)"/><path class="c" d="M119.224,129.53h-3.79V114.961a10.091,10.091,0,0,0-20.181,0V129.53H91.463a.788.788,0,0,0-.788.788V140.95a.788.788,0,0,0,.788.788h27.761a.788.788,0,0,0,.788-.788V130.318A.788.788,0,0,0,119.224,129.53Zm-22.4-14.569a8.515,8.515,0,0,1,17.029,0V129.53H96.828Zm21.607,16.145v1.968H92.251v-1.968Zm-26.185,9.056V134.65h26.185v5.512Z" transform="translate(3466.843 1037)"/><path class="c" d="M6.023.788A.788.788,0,0,0,5.235,0H.788a.788.788,0,1,0,0,1.576H5.235A.788.788,0,0,0,6.023.788Z" transform="translate(3574.974 1183.374) rotate(-90)"/><path class="c" d="M4.657.788A.788.788,0,0,0,3.869,0H.788a.788.788,0,1,0,0,1.576H3.869A.788.788,0,0,0,4.657.788Z" transform="translate(3578.231 1181.903) rotate(-90)"/><path class="c" d="M6.128.788A.788.788,0,0,0,5.34,0H.788a.788.788,0,1,0,0,1.576H5.34A.788.788,0,0,0,6.128.788Z" transform="translate(3564.573 1183.374) rotate(-90)"/></g></g></svg>