<svg xmlns="http://www.w3.org/2000/svg" xmlns:xlink="http://www.w3.org/1999/xlink" width="46" height="46" viewBox="0 0 46 46"><defs><style>.a{fill:#4c4c4c;}.b{clip-path:url(#a);}.c{fill:#1d1d1b;}</style><clipPath id="a"><rect class="a" width="46" height="46" transform="translate(199 4087)"/></clipPath></defs><g class="b" transform="translate(-199 -4087)"><g transform="translate(202.147 4090.146)"><path class="c" d="M38.493,18.234h-.027A18.147,18.147,0,0,0,26.306,1.719,2.026,2.026,0,0,0,24.311,0h-8.1a2.026,2.026,0,0,0-1.995,1.719A18.147,18.147,0,0,0,2.053,18.234H2.026A2.026,2.026,0,0,0,0,20.259V21.61a2.026,2.026,0,0,0,2.026,2.026H38.493a2.026,2.026,0,0,0,2.026-2.026V20.259A2.026,2.026,0,0,0,38.493,18.234ZM14.182,3.168V14.857a.675.675,0,0,0,1.351,0V2.026a.675.675,0,0,1,.675-.675h3.377V16.208a.675.675,0,1,0,1.351,0V1.351h3.377a.675.675,0,0,1,.675.675V14.857a.675.675,0,0,0,1.351,0V3.168A16.8,16.8,0,0,1,37.115,18.234H3.4A16.8,16.8,0,0,1,14.182,3.168ZM39.168,21.61a.675.675,0,0,1-.675.675H2.026a.675.675,0,0,1-.675-.675V20.259a.675.675,0,0,1,.675-.675H38.493a.675.675,0,0,1,.675.675Z"/><path class="c" d="M82.805,352H74.026A2.026,2.026,0,0,0,72,354.026v2.7a.675.675,0,1,0,1.351,0v-2.7a.675.675,0,0,1,.675-.675h8.779a.675.675,0,0,0,0-1.351Z" transform="translate(-65.922 -322.286)"/><path class="c" d="M39.844,322.7H37.075a3.383,3.383,0,0,0-3.309-2.7H6.753a3.381,3.381,0,0,0-3.377,3.377H.675a.675.675,0,0,0-.675.675v5.4a.675.675,0,0,0,.675.675h2.9A4.733,4.733,0,0,0,8.1,333.506h4.052a8.827,8.827,0,0,0,7.542-4.282.663.663,0,0,1,1.124,0,8.827,8.827,0,0,0,7.542,4.282h4.052a4.727,4.727,0,0,0,4.673-4.052h2.755a.675.675,0,0,0,.675-.675v-5.4A.675.675,0,0,0,39.844,322.7ZM3.377,328.779H1.351v-2.026H3.377Zm0-3.377H1.351v-.675H3.377Zm32.415,3.377a3.381,3.381,0,0,1-3.377,3.377H28.363a7.471,7.471,0,0,1-6.383-3.624,2.012,2.012,0,0,0-3.444,0,7.472,7.472,0,0,1-6.38,3.624H8.1a3.381,3.381,0,0,1-3.377-3.377v-5.4a2.026,2.026,0,0,1,2.026-2.026H33.766a2.026,2.026,0,0,1,2.026,2.026Zm3.377-.675H37.142v-2.026h2.026Zm0-3.377H37.142v-.675h2.026Z" transform="translate(0 -292.987)"/></g></g></svg>