<svg xmlns="http://www.w3.org/2000/svg" xmlns:xlink="http://www.w3.org/1999/xlink" width="46" height="46" viewBox="0 0 46 46"><defs><style>.a{fill:#4c4c4c;}.b{clip-path:url(#a);}.c{fill:#1d1d1b;}</style><clipPath id="a"><rect class="a" width="46" height="46" transform="translate(2255 1001)"/></clipPath></defs><g class="b" transform="translate(-2255 -1001)"><g transform="translate(-619.3 1619.7)"><path class="c" d="M2912.71-600.47h-2.86v-3.76a12.486,12.486,0,0,0-12.47-12.47,12.485,12.485,0,0,0-12.47,12.47v3.76h-2.86a.755.755,0,0,0-.75.75v22.55a3.459,3.459,0,0,0,3.46,3.45H2910a3.459,3.459,0,0,0,3.46-3.45v-22.55A.749.749,0,0,0,2912.71-600.47Zm-15.33-14.73a10.988,10.988,0,0,1,10.97,10.97v3.76h-2.1v-3.76a8.873,8.873,0,0,0-8.87-8.86,8.871,8.871,0,0,0-8.86,8.86v3.76h-2.1l-.01-3.76A10.988,10.988,0,0,1,2897.38-615.2Zm7.36,10.8a.544.544,0,0,1,0,.18v3.75h-14.72v-3.76a7.311,7.311,0,0,1,2.09-5.23,7.343,7.343,0,0,1,5.18-2.21h.09a7.337,7.337,0,0,1,5.15,2.09A7.344,7.344,0,0,1,2904.74-604.4Zm7.22,27.23a1.957,1.957,0,0,1-1.95,1.94h-25.25a1.944,1.944,0,0,1-1.95-1.94v-21.8h29.15Z"/><path class="c" d="M2897.37-596.27a8.826,8.826,0,0,0-6.3,2.62,8.839,8.839,0,0,0-2.61,6.31,8.866,8.866,0,0,0,2.62,6.31,8.858,8.858,0,0,0,6.3,2.61h.01a8.941,8.941,0,0,0,8.91-8.93A8.943,8.943,0,0,0,2897.37-596.27Zm0,16.56a7.654,7.654,0,0,1-7.62-7.64,7.6,7.6,0,0,1,2.24-5.4,7.569,7.569,0,0,1,5.4-2.23,7.639,7.639,0,0,1,7.62,7.63A7.658,7.658,0,0,1,2897.37-579.71Z"/><path class="c" d="M2903.72-587.76a.6.6,0,0,0-.43-.23.285.285,0,0,0-.13,0h-.72l-.02-.13a5.259,5.259,0,0,0-.93-2.25l-.08-.1.5-.5a.662.662,0,0,0,.1-.92.638.638,0,0,0-.44-.23.65.65,0,0,0-.48.14l-.09.09-.5.51-.11-.08a5.1,5.1,0,0,0-2.24-.93l-.13-.02v-.7a.656.656,0,0,0-.58-.73.646.646,0,0,0-.48.15.657.657,0,0,0-.23.43.284.284,0,0,0,0,.13v.72l-.13.02a5.052,5.052,0,0,0-2.24.93l-.11.08-.5-.5a.644.644,0,0,0-.92-.1.641.641,0,0,0-.09.91.383.383,0,0,0,.09.09l.51.51-.08.1a5.138,5.138,0,0,0-.93,2.25l-.02.13h-.7a.636.636,0,0,0-.56.71.65.65,0,0,0,.58.58h.68l.02.13a5.22,5.22,0,0,0,.93,2.24l.08.1-.5.5a.676.676,0,0,0-.1.93.68.68,0,0,0,.44.23.65.65,0,0,0,.48-.14l.09-.09.5-.51.11.08a5.221,5.221,0,0,0,2.24.93l.13.02v.7a.652.652,0,0,0,.24.42.615.615,0,0,0,.47.14.641.641,0,0,0,.58-.58v-.68l.13-.02a5.26,5.26,0,0,0,2.25-.93l.1-.08.5.5a.614.614,0,0,0,.46.13.679.679,0,0,0,.44-.23.649.649,0,0,0,0-.83l-.49-.49.08-.1a5.1,5.1,0,0,0,.93-2.24l.02-.13h.7a.669.669,0,0,0,.73-.58A.707.707,0,0,0,2903.72-587.76Zm-6.35,4.22a3.815,3.815,0,0,1-3.81-3.81,3.815,3.815,0,0,1,3.81-3.81,3.815,3.815,0,0,1,3.81,3.81A3.815,3.815,0,0,1,2897.37-583.54Z"/></g></g></svg>