<svg xmlns="http://www.w3.org/2000/svg" xmlns:xlink="http://www.w3.org/1999/xlink" width="46" height="46" viewBox="0 0 46 46"><defs><style>.a{fill:#4c4c4c;}.b{clip-path:url(#a);}.c{fill:#1d1d1b;}</style><clipPath id="a"><rect class="a" width="46" height="46" transform="translate(216 3600)"/></clipPath></defs><g class="b" transform="translate(-216 -3600)"><g transform="translate(-3128.912 3875.087)"><path class="c" d="M3383.879-242.706v-12.1l1.124.87a.783.783,0,0,0,1.032-.065l2.776-2.779a.782.782,0,0,0,0-1.106.735.735,0,0,0-.074-.065l-4.773-3.694v-7.135a.782.782,0,0,0-.782-.782H3378.8a.781.781,0,0,0-.782.782v2.535l-8.522-6.594a.783.783,0,0,0-.958,0L3349.3-257.95a.782.782,0,0,0-.141,1.1.811.811,0,0,0,.065.074L3352-254a.782.782,0,0,0,1.033.066l1.129-.873v16.521h-1.72a.782.782,0,0,0-.782.782v3.759a.782.782,0,0,0,.782.782H3385.6a.782.782,0,0,0,.782-.782V-237.5a.782.782,0,0,0-.782-.782h-1.72v-4.423Zm-1.564,0v4.423h-26.589v-17.731L3369.02-266.3l13.295,10.288Zm-2.73-25.289h2.815v5.141l-2.815-2.178Zm-26.964,12.405-1.659-1.665,18.058-13.978,18.058,13.977-1.658,1.659-15.92-12.318a.783.783,0,0,0-.958,0Zm32.2,18.872v2.193h-31.6v-2.193h31.6Z"/><path class="c" d="M3357.411-251.617a2.347,2.347,0,0,0,3.317.084,10.58,10.58,0,0,1,14.946,0,2.328,2.328,0,0,0,1.658.687h0a2.347,2.347,0,0,0,1.657-.687,2.345,2.345,0,0,0,0-3.318,15.278,15.278,0,0,0-21.582,0A2.345,2.345,0,0,0,3357.411-251.617Zm1.1-2.128a13.71,13.71,0,0,1,19.37,0,.782.782,0,0,1,0,1.106.782.782,0,0,1-1.106,0,12.094,12.094,0,0,0-8.579-3.548h0a12.1,12.1,0,0,0-8.579,3.548.782.782,0,0,1-1.106,0A.783.783,0,0,1,3358.515-253.745Z" transform="translate(0.82 1.446)"/><path class="c" d="M3361.648-250.795a2.345,2.345,0,0,0,0,3.233,2.347,2.347,0,0,0,3.317.084,3.948,3.948,0,0,1,5.576,0,2.334,2.334,0,0,0,1.659.688h0a2.347,2.347,0,0,0,1.657-.687,2.347,2.347,0,0,0,0-3.318A8.645,8.645,0,0,0,3361.648-250.795Zm11.1,2.211a.782.782,0,0,1-1.106,0,5.468,5.468,0,0,0-3.894-1.611h0a5.474,5.474,0,0,0-3.894,1.611.782.782,0,0,1-1.105,0,.782.782,0,0,1,0-1.106,7.077,7.077,0,0,1,10,0A.782.782,0,0,1,3372.752-248.583Z" transform="translate(1.268 2.079)"/><path class="c" d="M3367.34-247.505a2.346,2.346,0,0,0-2.346,2.346,2.346,2.346,0,0,0,2.346,2.346,2.348,2.348,0,0,0,2.346-2.346A2.346,2.346,0,0,0,3367.34-247.505Zm0,3.128a.782.782,0,0,1-.782-.782.782.782,0,0,1,.782-.782h0a.783.783,0,0,1,.782.782A.782.782,0,0,1,3367.34-244.377Z" transform="translate(1.69 2.694)"/></g></g></svg>