<svg xmlns="http://www.w3.org/2000/svg" xmlns:xlink="http://www.w3.org/1999/xlink" width="46" height="46" viewBox="0 0 46 46"><defs><style>.a{fill:#4c4c4c;}.b{clip-path:url(#a);}.c{fill:#1d1d1b;}</style><clipPath id="a"><rect class="a" width="46" height="46" transform="translate(1425 1847)"/></clipPath></defs><g class="b" transform="translate(-1425 -1847)"><g transform="translate(-2973.48 2812.4)"><g transform="translate(4428.229 -961.007)"><g transform="translate(0 0)"><path class="c" d="M4463.832-957.2a5.9,5.9,0,0,0-5.9,5.9,5.9,5.9,0,0,0,5.9,5.9,5.9,5.9,0,0,0,5.9-5.9A5.9,5.9,0,0,0,4463.832-957.2Zm0,10.321a4.423,4.423,0,0,1-4.423-4.423,4.423,4.423,0,0,1,4.423-4.423,4.423,4.423,0,0,1,4.423,4.423A4.423,4.423,0,0,1,4463.832-946.877Z" transform="translate(-4457.934 957.198)"/></g></g><g transform="translate(4433.389 -964.693)"><g transform="translate(0)"><rect class="c" width="1.474" height="2.212" rx="0.737"/></g></g><g transform="translate(4433.389 -947.737)"><g transform="translate(0 0)"><rect class="c" width="1.474" height="2.212" rx="0.737"/></g></g><g transform="translate(4424.542 -955.846)"><rect class="c" width="2.212" height="1.474" rx="0.737"/></g><g transform="translate(4441.499 -955.846)"><rect class="c" width="2.212" height="1.474" rx="0.737"/></g><g transform="translate(4426.827 -962.407)"><g transform="translate(0)"><rect class="c" width="1.474" height="2.212" rx="0.737" transform="matrix(0.707, -0.707, 0.707, 0.707, 0, 1.043)"/></g></g><g transform="translate(4438.817 -950.419)"><g transform="translate(0)"><rect class="c" width="1.474" height="2.212" rx="0.737" transform="translate(0 1.043) rotate(-45)"/></g></g><g transform="translate(4426.828 -950.419)"><g transform="translate(0 0)"><rect class="c" width="2.212" height="1.474" rx="0.737" transform="translate(0 1.564) rotate(-45)"/></g></g><g transform="translate(4438.818 -962.407)"><rect class="c" width="2.212" height="1.474" rx="0.737" transform="translate(0 1.564) rotate(-45)"/></g><g transform="translate(4399.48 -954.372)"><path class="c" d="M4439.2-910.885,4421.5-943.323a.737.737,0,0,0-.646-.384h-20.643a.78.78,0,0,0-.165.021h-.018a.71.71,0,0,0-.2.09.585.585,0,0,0-.053.04.8.8,0,0,0-.159.163c-.011.016-.024.028-.034.044a.654.654,0,0,0-.04.094c-.009.019-.018.039-.026.059a.74.74,0,0,0-.037.221v5.166a.744.744,0,0,0,.088.351l14.741,27.278a.737.737,0,0,0,.649.386h23.591a.736.736,0,0,0,.736-.737A.731.731,0,0,0,4439.2-910.885Zm-6.312-8.494h-4.955l-3.619-6.635h4.955Zm-17.693-8.109H4409.5l-3.619-6.635h5.692Zm-1.939-6.635h4.955l3.62,6.635h-4.956Zm2.744,8.11,3.619,6.635h-5.692l-3.62-6.635Zm1.68,0h4.955l3.619,6.635h-4.955Zm10.786-1.474h-4.955l-3.619-6.635h4.955Zm-8.042-14.745,3.619,6.635h-4.955l-3.619-6.635Zm-6.635,0,3.619,6.635h-4.955l-3.619-6.635Zm-6.636,0,3.62,6.635h-5.692l-3.619-6.635Zm8.253,30.964L4400.951-938v-2.083l15.714,28.81Zm2.944,0-3.619-6.635h5.692l3.619,6.635Zm7.373,0L4422.1-917.9h4.954l3.62,6.635Zm6.635,0-3.619-6.635h4.955l3.619,6.635Z" transform="translate(-4399.48 943.707)"/></g></g></g></svg>