<svg xmlns="http://www.w3.org/2000/svg" xmlns:xlink="http://www.w3.org/1999/xlink" width="80" height="80" viewBox="0 0 80 80"><defs><style>.a{fill:#ffdc00;}.b{clip-path:url(#a);}.c{fill:#1d1d1b;}</style><clipPath id="a"><rect class="a" width="80" height="80" transform="translate(-10931 3822)"/></clipPath></defs><g class="b" transform="translate(10931 -3822)"><g transform="translate(-10929 3824)"><path class="c" d="M1951.427,592.3c-2.236-.735-3.068-2.334-2.971-4.612.081-1.9.031-3.808.017-5.712a4.059,4.059,0,0,1,1.253-3.058c2.88-2.856,5.736-5.736,8.608-8.6a3.672,3.672,0,0,1,5.623-.022q6.89,6.855,13.755,13.736a3.817,3.817,0,0,1,1.175,2.864c-.007.519,0,1.039,0,1.558a3.651,3.651,0,0,1-2.712,3.712,1.737,1.737,0,0,0-.256.133Zm12.285-2.529q5.6,0,11.2,0a1.281,1.281,0,0,0,1.312-.639,4.151,4.151,0,0,0-.535-3.536q-6.738-6.736-13.479-13.469c-.807-.806-1.306-.8-2.126.018q-4.223,4.218-8.448,8.433a1.954,1.954,0,0,0-.631,1.509c.021,2.026.006,4.053.009,6.08,0,1.237.359,1.6,1.58,1.6Q1958.151,589.774,1963.712,589.772Z" transform="translate(-1902.908 -516.301)"/><path class="c" d="M1718.25,578.828a5.525,5.525,0,0,1,2.243-2.832c3.483-2.561,6.932-5.168,10.385-7.772a3.872,3.872,0,0,1,3.49-.7c1.648.427,3.3.824,4.958,1.231a3.738,3.738,0,0,1,2.761,2.444c.642,1.709,1.292,3.415,1.923,5.128a3.725,3.725,0,0,1-.424,3.532q-3.149,4.714-6.29,9.433a4.44,4.44,0,0,1-2.422,1.711h-13.655a4.168,4.168,0,0,1-2.969-2.968Zm9.823,9.638c1.928,0,3.856-.013,5.783.007a1.536,1.536,0,0,0,1.427-.737q3.045-4.6,6.122-9.187a1.538,1.538,0,0,0,.164-1.535c-.607-1.564-1.206-3.131-1.765-4.713a1.6,1.6,0,0,0-1.239-1.127c-1.584-.378-3.152-.829-4.746-1.154a2,2,0,0,0-1.429.273c-3.663,2.691-7.284,5.439-10.927,8.156a1.571,1.571,0,0,0-.691,1.381c.016,2.4,0,4.795.01,7.192,0,1.042.4,1.436,1.433,1.441C1724.168,588.473,1726.12,588.467,1728.073,588.466Z" transform="translate(-1718.25 -514.998)"/><path class="c" d="M1718.25,427.279a3.942,3.942,0,0,1,2.613-2.794,3.647,3.647,0,0,1,4.638,2.78c.61,2.571,1.18,5.151,1.764,7.728q1.458,6.431,2.912,12.862a3.718,3.718,0,0,1-1.486,4.116c-1.427,1.064-2.884,2.091-4.269,3.208a3.7,3.7,0,0,1-6.075-1.879.8.8,0,0,0-.1-.194Zm2.528,12.917q0,5.893,0,11.787c0,.59.02,1.163.623,1.471s1.079.016,1.555-.347c1.336-1.018,2.668-2.043,4.038-3.014a1.6,1.6,0,0,0,.677-1.911c-1.041-4.469-2.038-8.949-3.054-13.424-.519-2.286-1.052-4.568-1.569-6.854a1.13,1.13,0,0,0-1.235-1.026c-.634.031-1.007.538-1.029,1.309,0,.173,0,.346,0,.519Z" transform="translate(-1718.25 -400.26)"/><path class="c" d="M1718.25,305.7c1-2.387,1.883-2.969,4.506-2.969h1.112c1.136,0,2.273-.01,3.409,0a3.533,3.533,0,0,1,3.477,2.5c1.529,4.74,3.049,9.484,4.513,14.245a3.625,3.625,0,0,1-3.623,4.776c-2.965.009-5.929,0-8.893,0-2.633,0-3.5-.57-4.5-2.974Zm2.529,7.8c0,2.273,0,4.547,0,6.82,0,1,.4,1.406,1.384,1.408q4.67.012,9.34,0c1.149,0,1.619-.636,1.274-1.734-1.433-4.565-2.882-9.125-4.315-13.69a1.35,1.35,0,0,0-1.482-1.051c-1.581.028-3.162,0-4.744.01-1.076,0-1.456.392-1.458,1.488Q1720.773,310.126,1720.779,313.5Z" transform="translate(-1718.25 -302.729)"/><path class="c" d="M1843.156,640.44c-.23-.086-.461-.169-.689-.258a3.59,3.59,0,0,1-1.869-5.15c.943-1.592,2-3.118,3.077-4.628a3.3,3.3,0,0,1,2.764-1.361c2.992-.028,5.984-.047,8.975,0a3.622,3.622,0,0,1,3.632,3.717c.014,1.063,0,2.126,0,3.19.011,2.613-.588,3.518-2.981,4.494Zm6.413-2.529c1.877,0,3.754.009,5.631,0,.9-.006,1.307-.421,1.316-1.322.011-1.21.009-2.421,0-3.63-.007-.983-.405-1.387-1.406-1.39-2.766-.009-5.532,0-8.3-.008a1.535,1.535,0,0,0-1.42.755c-.775,1.2-1.578,2.389-2.382,3.573-.312.458-.558.993-.173,1.424a1.931,1.931,0,0,0,1.248.574C1845.913,637.945,1847.742,637.909,1849.57,637.911Z" transform="translate(-1816.001 -564.44)"/><path class="c" d="M1810.476,302.725c2.893,0,5.786.012,8.679-.006a4.031,4.031,0,0,1,2.889,1.12q6.533,6.046,13.086,12.07a4.169,4.169,0,0,1,1.422,3.28c-.024,3.313,0,6.627-.009,9.94a3.707,3.707,0,0,1-3.965,4c-2.25.008-4.5-.011-6.751.008a4.691,4.691,0,0,1-2.838-.9c-3.532-2.5-7.068-4.986-10.633-7.435a3.274,3.274,0,0,0-1.631-.521c-1.555-.071-3.115-.02-4.672-.03a3.609,3.609,0,0,1-3.615-2.642c-1.483-4.656-2.964-9.314-4.412-13.981a3.645,3.645,0,0,1,3.622-4.9C1804.591,302.716,1807.533,302.725,1810.476,302.725Zm-.051,2.529v0q-4.3,0-8.6,0c-1.227,0-1.69.6-1.332,1.746q2.149,6.852,4.312,13.7a1.307,1.307,0,0,0,1.422,1.025c1.458-.025,2.919.033,4.376-.019a5.189,5.189,0,0,1,3.313,1.046q5.226,3.715,10.507,7.352a2.906,2.906,0,0,0,1.5.471c2.15.051,4.3.023,6.452.021,1.284,0,1.642-.354,1.642-1.618,0-3.214-.016-6.428.009-9.642a2.08,2.08,0,0,0-.729-1.686c-4.3-3.942-8.576-7.912-12.889-11.841a2.269,2.269,0,0,0-1.375-.536C1816.161,305.229,1813.293,305.253,1810.425,305.253Z" transform="translate(-1782.083 -302.718)"/><path class="c" d="M1860.505,498.278c-1.78,0-3.56.007-5.339,0a3.631,3.631,0,0,1-3.653-2.491c-.523-1.332-1.017-2.676-1.513-4.018a3.667,3.667,0,0,1,.63-3.824q7.157-8.705,14.324-17.4a3.66,3.66,0,0,1,2.981-1.383c4.128.009,8.256-.006,12.385.006a3.628,3.628,0,0,1,3.661,4.753c-.923,3.354-1.871,6.7-2.877,10.033a4.571,4.571,0,0,1-1.093,1.808c-3.746,3.8-7.536,7.566-11.309,11.344a3.827,3.827,0,0,1-2.857,1.184C1864.065,498.268,1862.285,498.279,1860.505,498.278Zm0-2.532c1.731,0,3.464.036,5.193-.025a2.109,2.109,0,0,0,1.3-.538q5.6-5.522,11.129-11.115a2.609,2.609,0,0,0,.626-1.061c.931-3.174,1.832-6.357,2.734-9.54.348-1.227-.079-1.773-1.375-1.774-3.957,0-7.914.01-11.871-.012a1.791,1.791,0,0,0-1.53.707q-6.986,8.517-14,17.009a1.484,1.484,0,0,0-.271,1.641c.484,1.215.954,2.437,1.385,3.672a1.381,1.381,0,0,0,1.494,1.044C1857.041,495.728,1858.773,495.747,1860.5,495.746Z" transform="translate(-1823.715 -436.218)"/><path class="c" d="M1797.6,432.791a4.289,4.289,0,0,1-1.113,2.763q-5.316,6.428-10.611,12.874c-.456.553-.909,1.108-1.367,1.659a3.706,3.706,0,0,1-3.978,1.325c-1.343-.322-2.685-.655-4.018-1.018a3.531,3.531,0,0,1-2.691-2.77c-1.427-6.257-2.866-12.511-4.251-18.777a3.614,3.614,0,0,1,3.7-4.552c4.449-.013,8.9,0,13.349-.008a4.312,4.312,0,0,1,2.569.8q3.363,2.369,6.738,4.72A3.723,3.723,0,0,1,1797.6,432.791Zm-17.576-5.969q-3.226,0-6.451,0c-1.33,0-1.762.516-1.473,1.792q2.07,9.134,4.151,18.266a1.37,1.37,0,0,0,1.111,1.138c1.2.286,2.4.567,3.59.9a1.507,1.507,0,0,0,1.742-.6q5.921-7.225,11.87-14.427c.76-.924.691-1.465-.274-2.142-2.143-1.505-4.278-3.021-6.448-4.488a2.656,2.656,0,0,0-1.367-.419C1784.33,426.8,1782.179,426.822,1780.028,426.822Z" transform="translate(-1759.333 -400.229)"/><path class="c" d="M2038.113,479.491q0,5.009,0,10.019a3.687,3.687,0,0,1-6.493,2.655c-2.654-2.663-5.3-5.338-7.974-7.978a3.991,3.991,0,0,1-1.143-4.312c1.079-3.646,2.093-7.311,3.14-10.967a3.708,3.708,0,0,1,3.606-2.969q2.18-.186,4.359-.389c2.8-.261,4.505,1.272,4.506,4.072Q2038.115,474.557,2038.113,479.491Zm-2.532,0h0q0-4.932,0-9.864c0-1.282-.441-1.67-1.735-1.552-1.452.133-2.9.292-4.357.377a1.391,1.391,0,0,0-1.42,1.141q-1.558,5.522-3.155,11.033a1.529,1.529,0,0,0,.425,1.674q4.028,4,8.023,8.025c.428.43.879.764,1.5.514.665-.266.721-.855.719-1.483C2035.575,486.069,2035.581,482.781,2035.581,479.493Z" transform="translate(-1962.135 -433.302)"/><path class="c" d="M2025.23,365.539c0,1.88,0,3.759,0,5.639a3.626,3.626,0,0,1-3.435,3.917c-3.841.32-7.688.591-11.538.76-2.509.11-4.02-1.486-4.023-3.988q-.005-4.229,0-8.458a3.7,3.7,0,0,1,2.938-3.922q5.574-1.65,11.152-3.288a3.663,3.663,0,0,1,4.907,3.7C2025.235,361.779,2025.23,363.659,2025.23,365.539Zm-2.53-.032q0-2.745,0-5.489c0-1.264-.581-1.7-1.8-1.347q-5.47,1.608-10.935,3.231c-1.023.3-1.2.551-1.205,1.645q-.006,4.043,0,8.086c0,1.389.32,1.775,1.7,1.7,3.675-.209,7.347-.473,11.019-.74.855-.062,1.219-.5,1.223-1.37C2022.708,369.314,2022.7,367.41,2022.7,365.506Z" transform="translate(-1949.251 -345.463)"/><path class="c" d="M1975.748,302.746q4.934,0,9.867,0a3.711,3.711,0,0,1,3.97,3.132,3.8,3.8,0,0,1-2.89,4.383c-4.9,1.451-9.8,2.882-14.7,4.327a3.911,3.911,0,0,1-4.1-.973c-1.537-1.469-3.122-2.888-4.678-4.338a3.676,3.676,0,0,1,2.591-6.531Q1970.777,302.741,1975.748,302.746Zm-.011,2.529c-3.289,0-6.578.005-9.866,0-.609,0-1.152.09-1.408.72s.075,1.074.524,1.486c1.532,1.4,3.067,2.8,4.569,4.236a1.667,1.667,0,0,0,1.816.418c4.824-1.442,9.657-2.855,14.486-4.28.979-.289,1.339-.756,1.218-1.55-.111-.729-.572-1.024-1.622-1.025Q1980.6,305.272,1975.737,305.274Z" transform="translate(-1913.641 -302.74)"/></g></g></svg>