<svg xmlns="http://www.w3.org/2000/svg" xmlns:xlink="http://www.w3.org/1999/xlink" width="46" height="46" viewBox="0 0 46 46"><defs><style>.a{fill:#4c4c4c;}.b{clip-path:url(#a);}.c{fill:#1d1d1b;}</style><clipPath id="a"><rect class="a" width="46" height="46" transform="translate(291 4224)"/></clipPath></defs><g class="b" transform="translate(-291 -4224)"><g transform="translate(293.748 4226.746)"><g transform="translate(0 0.002)"><g transform="translate(0 0)"><path class="c" d="M40.185,11.575,20.6.095a.675.675,0,0,0-.668-.009L.349,10.891A.674.674,0,0,0,0,11.482V39.845a.675.675,0,0,0,.675.675H4.052a.675.675,0,0,0,.675-.675V16.209H35.792V39.845a.675.675,0,0,0,.675.675h3.377a.675.675,0,0,0,.675-.675V12.157A.674.674,0,0,0,40.185,11.575ZM39.168,39.17H37.142V15.534a.675.675,0,0,0-.675-.675H4.052a.676.676,0,0,0-.675.675V39.17H1.351V11.88l18.9-10.427L39.168,12.544V39.17Z" transform="translate(0 -0.002)"/></g></g><g transform="translate(24.987 31.066)"><path class="c" d="M324.513,392.531h-8.1a.675.675,0,0,0-.675.675v8.1a.675.675,0,0,0,.675.675h8.1a.675.675,0,0,0,.675-.675v-8.1A.675.675,0,0,0,324.513,392.531Zm-.675,8.1h-6.753v-6.753h6.753Z" transform="translate(-315.734 -392.531)"/></g><g transform="translate(27.688 31.741)"><path class="c" d="M352.567,401.064v2.026h-1.351v-2.026h-1.351v2.7a.675.675,0,0,0,.675.675h2.7a.675.675,0,0,0,.675-.675v-2.7Z" transform="translate(-349.866 -401.064)"/></g><g transform="translate(16.883 31.066)"><path class="c" d="M222.113,392.531h-8.1a.675.675,0,0,0-.675.675v8.1a.675.675,0,0,0,.675.675h8.1a.675.675,0,0,0,.675-.675v-8.1A.675.675,0,0,0,222.113,392.531Zm-.675,8.1h-6.753v-6.753h6.753Z" transform="translate(-213.334 -392.531)"/></g><g transform="translate(24.987 22.962)"><path class="c" d="M324.513,290.131h-8.1a.675.675,0,0,0-.675.675v8.1a.675.675,0,0,0,.675.675h8.1a.675.675,0,0,0,.675-.675v-8.1A.675.675,0,0,0,324.513,290.131Zm-.675,8.1h-6.753v-6.753h6.753Z" transform="translate(-315.734 -290.131)"/></g><g transform="translate(4.052 17.56)"><rect class="c" width="32.415" height="1.351"/></g><g transform="translate(16.208 9.456)"><path class="c" d="M212.229,119.464h-6.753a.676.676,0,0,0-.675.675v2.7a.676.676,0,0,0,.675.675h6.753a.675.675,0,0,0,.675-.675v-2.7A.675.675,0,0,0,212.229,119.464Zm-.675,2.7h-5.4v-1.351h5.4Z" transform="translate(-204.801 -119.464)"/></g></g></g></svg>