<svg xmlns="http://www.w3.org/2000/svg" xmlns:xlink="http://www.w3.org/1999/xlink" width="80" height="80" viewBox="0 0 80 80"><defs><style>.a{fill:#ffdc00;}.b{clip-path:url(#a);}.c{fill:#1d1d1b;}</style><clipPath id="a"><rect class="a" width="80" height="80" transform="translate(-11737 3822)"/></clipPath></defs><g class="b" transform="translate(11737 -3822)"><g transform="translate(-11735 3824)"><g transform="translate(0 0)"><path class="c" d="M282.1,227H220.963a7.441,7.441,0,0,0-7.433,7.433v61.134A7.447,7.447,0,0,0,220.963,303H282.1a7.441,7.441,0,0,0,7.433-7.433V234.433A7.434,7.434,0,0,0,282.1,227Zm-65.6,7.433a4.473,4.473,0,0,1,4.466-4.466h29.083v12.8L229.3,263.517H216.5Zm33.55,65.6H220.963a4.479,4.479,0,0,1-4.466-4.466V266.483h12.8l20.747,20.747Zm-18.035-35.038,19.524-19.513,19.513,19.513-19.513,19.524Zm54.552,30.572a4.472,4.472,0,0,1-4.466,4.466H253.013v-12.8l20.747-20.747h12.8Zm0-32.05h-12.8L253.013,242.77v-12.8H282.1a4.466,4.466,0,0,1,4.466,4.466Z" transform="translate(-213.53 -227)"/></g></g></g></svg>