<svg xmlns="http://www.w3.org/2000/svg" xmlns:xlink="http://www.w3.org/1999/xlink" width="46" height="46" viewBox="0 0 46 46"><defs><style>.a{fill:#1d1d1b;}.b{clip-path:url(#a);}</style><clipPath id="a"><rect class="a" width="46" height="46" transform="translate(214 464)"/></clipPath></defs><g class="b" transform="translate(-214 -464)"><g transform="translate(214 445.999)"><path class="a" d="M45.3,27.435H41.425a2.187,2.187,0,0,0-2.069-1.487H35.592V24.415a2.186,2.186,0,0,0-2.184-2.184H27.414v-.046A2.186,2.186,0,0,0,25.23,20H8.132A8.162,8.162,0,0,0,2.2,22.573a8.067,8.067,0,0,0-2.18,6.1,8.281,8.281,0,0,0,8.368,7.591H9.415a2.277,2.277,0,0,1,2.192,2.891L8.126,51.589a1.543,1.543,0,0,1-1.481,1.123.7.7,0,0,0-.7.7v7.434a1.442,1.442,0,0,0,1.44,1.44H19.283a1.442,1.442,0,0,0,1.44-1.44V54.152a1.442,1.442,0,0,0-1.44-1.44h-.805a.79.79,0,0,1-.761-1l3.076-10.985h2.951a.7.7,0,0,0,.639-.976,5.769,5.769,0,0,1-.123-3.484h.972a2.186,2.186,0,0,0,2.184-2.184v-.046h5.994a2.186,2.186,0,0,0,2.184-2.184V30.316h3.764a2.187,2.187,0,0,0,2.069-1.487H45.3a.7.7,0,0,0,0-1.394ZM22.815,39.33H21.183l.859-3.067h.784A7.461,7.461,0,0,0,22.815,39.33Zm3.205-5.25a.791.791,0,0,1-.79.79H21.513a.7.7,0,0,0-.671.509L16.375,51.333a2.184,2.184,0,0,0,2.1,2.773h.805a.047.047,0,0,1,.046.046v6.691a.047.047,0,0,1-.046.046H7.388a.047.047,0,0,1-.046-.046V54.106H20.091s-2.218-.312-2.218-.7a.7.7,0,0,0-.7-.7H9.139a2.907,2.907,0,0,0,.329-.747L12.95,39.53a3.642,3.642,0,0,0-.61-3.208c-.015-.02-.032-.039-.047-.059h8.6a.7.7,0,0,0,.7-.7c0-.385,1.236-.693,1.236-.693l-13.208,0a.69.69,0,0,0-.072,0c-.044,0-.087,0-.131,0H8.386a6.885,6.885,0,0,1-6.977-6.288A6.738,6.738,0,0,1,8.132,21.4h17.1a.791.791,0,0,1,.79.79Zm8.178-2.23a.791.791,0,0,1-.79.79h-.046V24.292a.7.7,0,0,0-1.394,0v8.348H27.414V23.625h4.554v.79a.7.7,0,1,0,1.394,0v-.79h.046a.791.791,0,0,1,.79.79Zm5.158-2.927H35.592v-1.58h3.764a.79.79,0,1,1,0,1.58Z" transform="translate(0)"/><path class="a" d="M47.391,100H40.7a.7.7,0,0,0,0,1.394h6.691a.7.7,0,1,0,0-1.394Z" transform="translate(-36.286 -73.35)"/><path class="a" d="M60.417,124H56.7a.7.7,0,1,0,0,1.394h3.717a.7.7,0,1,0,0-1.394Z" transform="translate(-50.799 -95.12)"/></g></g></svg>