<svg xmlns="http://www.w3.org/2000/svg" xmlns:xlink="http://www.w3.org/1999/xlink" width="46" height="46" viewBox="0 0 46 46"><defs><style>.a{fill:#4c4c4c;}.b{clip-path:url(#a);}.c{fill:#1d1d1b;}</style><clipPath id="a"><rect class="a" width="46" height="46" transform="translate(236 2987)"/></clipPath></defs><g class="b" transform="translate(-236 -2987)"><g transform="translate(-302.069 2699.931)"><path class="c" d="M541.1,293.786l2.742,4.8a.685.685,0,0,0,.428.325l2.557.639,8.284,8.284a.685.685,0,0,0,.968,0h0a.685.685,0,0,0,0-.968l-8.422-8.421a.684.684,0,0,0-.318-.18l-2.456-.616-2.333-4.085,2-2,4.087,2.335.616,2.456a.684.684,0,0,0,.18.319l8.422,8.421a.685.685,0,0,0,.969,0h0a.685.685,0,0,0,0-.969l-8.284-8.284-.639-2.555a.686.686,0,0,0-.325-.429l-4.8-2.74a.685.685,0,0,0-.822.11l-2.74,2.741a.685.685,0,0,0-.117.824Z" transform="translate(-0.008 -0.017)"/><path class="c" d="M606.039,340.939l-14.1,14.1a.685.685,0,0,1-.969,0h0a.685.685,0,0,1,0-.969l14.1-14.1a.685.685,0,0,1,.969,0h0A.685.685,0,0,1,606.039,340.939Z" transform="translate(-36.951 -36.954)"/><path class="c" d="M561.738,402.067a.684.684,0,0,0-.587-.332h-4.11a.684.684,0,0,0-.587.332l-2.055,3.425a.684.684,0,0,0,0,.706l2.055,3.425a.685.685,0,0,0,.587.332h4.11a.685.685,0,0,0,.587-.332l2.055-3.425a.684.684,0,0,0,0-.706Zm-1.291,6.518h-2.7a.559.559,0,0,1-.479-.271l-1.309-2.181a.558.558,0,0,1,0-.575l1.309-2.183a.559.559,0,0,1,.479-.271h2.7a.559.559,0,0,1,.479.271l1.309,2.183a.558.558,0,0,1,0,.575l-1.309,2.181A.559.559,0,0,1,560.448,408.585Z" transform="translate(-9.876 -82.962)"/><path class="c" d="M573.882,306.442a8.192,8.192,0,0,0,7.968-10.207.685.685,0,0,0-1.149-.319l-4.265,4.262-3.384-1.127-1.128-3.383,4.264-4.265a.685.685,0,0,0-.321-1.15,8.2,8.2,0,0,0-10.207,7.969,8.045,8.045,0,0,0,.167,1.605l-15,15a8.078,8.078,0,0,0-1.6-.167,8.22,8.22,0,1,0,8.22,8.222,8.059,8.059,0,0,0-.167-1.605l3.592-3.592,1.571,1.571a.685.685,0,0,0,.969,0l.343-.343A.768.768,0,0,1,564.836,320h0l-.342.343a.685.685,0,0,0,0,.969l8.172,8.172a5.529,5.529,0,0,0,7.854-7.784l-.035-.036-8.172-8.173a.685.685,0,0,0-.969,0l-.343.342a.768.768,0,0,1-1.088-1.085h0l.343-.343a.685.685,0,0,0,0-.969l-1.571-1.571,3.592-3.593a8.056,8.056,0,0,0,1.6.167Zm2.692,23.292a4.165,4.165,0,0,1-1.457-.266l5.35-5.35a4.154,4.154,0,0,1-3.893,5.616Zm-7.761-17.805a2.137,2.137,0,0,0,3.013,3.01l7.688,7.695c.083.084.161.172.237.262l-5.857,5.857c-.09-.075-.178-.155-.262-.237l-7.693-7.695a2.137,2.137,0,0,0-3.014-3.01l-1.1-1.1,5.888-5.879Zm2.766-6.891-15.541,15.538a.686.686,0,0,0-.18.651,6.9,6.9,0,1,1-4.982-4.982.692.692,0,0,0,.651-.18l15.537-15.538a.685.685,0,0,0,.18-.651,6.817,6.817,0,0,1,7.027-8.495L570.658,295a.684.684,0,0,0-.166.7l1.37,4.111a.686.686,0,0,0,.434.433l4.111,1.37a.685.685,0,0,0,.7-.165l3.614-3.614c.008.131.012.26.012.389a6.815,6.815,0,0,1-8.507,6.637.685.685,0,0,0-.651.18h0Z"/><path class="c" d="M656.344,405.346h0a.685.685,0,0,1-.969,0l-5.881-5.881a.685.685,0,0,1,0-.969h0a.685.685,0,0,1,.969,0l5.881,5.881A.685.685,0,0,1,656.344,405.346Z" transform="translate(-80.406 -80.408)"/></g></g></svg>