<svg xmlns="http://www.w3.org/2000/svg" xmlns:xlink="http://www.w3.org/1999/xlink" width="46" height="46" viewBox="0 0 46 46"><defs><style>.a{fill:#4c4c4c;}.b{clip-path:url(#a);}.c{fill:#1d1d1b;}</style><clipPath id="a"><rect class="a" width="46" height="46" transform="translate(1922 1881)"/></clipPath></defs><g class="b" transform="translate(-1922 -1881)"><g transform="translate(1924 1887)"><g transform="translate(0)"><path class="c" d="M30.054,8.218,33.318,4.49a.708.708,0,0,1,.532-.242h6.5a2.124,2.124,0,1,0,0-4.248h-6.5a4.956,4.956,0,0,0-3.729,1.693L26.858,5.421a.708.708,0,0,1-.533.242H24.778V4.248a1.416,1.416,0,0,0-1.416-1.416H19.114A1.416,1.416,0,0,0,17.7,4.248V5.664h-.708a2.124,2.124,0,0,0-1.761,3.31,1.4,1.4,0,0,0-.363.937v1.416a1.416,1.416,0,0,0,1.416,1.416v1.416h-3.54a2.124,2.124,0,0,0-1.994,1.416H9.2a1.416,1.416,0,0,0-1.416,1.416H.708A.708.708,0,0,0,0,17.7V30.441a.708.708,0,0,0,.708.708H7.787A1.416,1.416,0,0,0,9.2,32.565h1.546a2.124,2.124,0,0,0,1.994,1.416H29.734a2.124,2.124,0,0,0,1.994-1.416h1.546a1.416,1.416,0,0,0,1.416-1.416h7.079a.708.708,0,0,0,.708-.708V17.7a.708.708,0,0,0-.708-.708H34.689a1.416,1.416,0,0,0-1.416-1.416H31.727a2.124,2.124,0,0,0-1.994-1.416h-3.54V12.743a1.416,1.416,0,0,0,1.416-1.416V9.911a1.388,1.388,0,0,0-.018-.172,4.956,4.956,0,0,0,2.462-1.521ZM19.114,4.248h4.248V5.664H19.114ZM1.416,29.734V18.406H7.787V29.734Zm7.787.708V16.991h1.416V31.149H9.2ZM41.061,18.406V29.734H34.689V18.406ZM33.273,17.7V31.149H31.857V16.991h1.416Zm-2.832-1.416V31.857a.708.708,0,0,1-.708.708H17.7V18.406a.708.708,0,0,0-1.416,0V32.565h-3.54a.708.708,0,0,1-.708-.708V16.283a.708.708,0,0,1,.708-.708H29.734A.708.708,0,0,1,30.441,16.283Zm-5.664-2.124H17.7V12.743h7.079Zm1.416-2.832H16.283V9.911h9.911ZM26.325,8.5H16.991a.708.708,0,1,1,0-1.416h9.334a2.124,2.124,0,0,0,1.6-.725l3.264-3.729A3.54,3.54,0,0,1,33.85,1.416h6.5a.708.708,0,1,1,0,1.416h-6.5a2.124,2.124,0,0,0-1.6.725L28.988,7.286A3.54,3.54,0,0,1,26.325,8.5Z" transform="translate(0)"/></g></g></g></svg>