<svg xmlns="http://www.w3.org/2000/svg" xmlns:xlink="http://www.w3.org/1999/xlink" width="46" height="46" viewBox="0 0 46 46"><defs><style>.a{fill:#4c4c4c;}.b{clip-path:url(#a);}.c{fill:#1d1d1b;}</style><clipPath id="a"><rect class="a" width="46" height="46" transform="translate(2178 181)"/></clipPath></defs><g class="b" transform="translate(-2178 -181)"><g transform="translate(-2199 -89)"><path class="c" d="M4416.881,280.748a.684.684,0,0,0-.063-.136.655.655,0,0,0-.12-.109,20.232,20.232,0,1,0,.183.245Zm-4.926,27.45-1.055-1.433a.75.75,0,0,0-1.209.889l1.059,1.439a19.547,19.547,0,0,1-4.1,2.1l-.548-1.658a.749.749,0,1,0-1.423.47l.544,1.65a19.408,19.408,0,0,1-4.528.721l-.005-1.712a.75.75,0,0,0-.75-.748h0a.75.75,0,0,0-.748.752l.005,1.721a19.337,19.337,0,0,1-4.579-.717l.527-1.634a.75.75,0,1,0-1.427-.461l-.53,1.64a19.5,19.5,0,0,1-4.1-2.094l1-1.381a.75.75,0,0,0-1.217-.878l-.989,1.37a19.649,19.649,0,0,1-3.252-3.244l1.448-1.066a.75.75,0,0,0-.888-1.208l-1.459,1.074a19.444,19.444,0,0,1-2.112-4.122l1.684-.556a.75.75,0,0,0-.471-1.424l-1.677.553a19.5,19.5,0,0,1-.731-4.589h1.75a.75.75,0,0,0,0-1.5h-1.754a19.429,19.429,0,0,1,.717-4.544l1.668.54a.74.74,0,0,0,.23.037.75.75,0,0,0,.231-1.464l-1.669-.54a19.522,19.522,0,0,1,2.126-4.15l1.409,1.026a.75.75,0,1,0,.883-1.213l-1.4-1.018a19.669,19.669,0,0,1,3.211-3.218l.981,1.334a.75.75,0,0,0,1.209-.889l-.987-1.342a19.458,19.458,0,0,1,4.078-2.089l.543,1.647a.749.749,0,0,0,.712.515.762.762,0,0,0,.235-.037.75.75,0,0,0,.477-.948l-.542-1.643a19.353,19.353,0,0,1,4.565-.733l0,1.717a.75.75,0,0,0,.75.748h0a.75.75,0,0,0,.748-.752l0-1.72a19.377,19.377,0,0,1,4.6.723l-.524,1.627a.751.751,0,0,0,.483.944.78.78,0,0,0,.231.036.751.751,0,0,0,.714-.52l.524-1.627a19.531,19.531,0,0,1,4.088,2.089l-.99,1.373a.75.75,0,1,0,1.216.878l.985-1.365a19.666,19.666,0,0,1,3.292,3.291l-1.284.945a.75.75,0,0,0,.445,1.354.739.739,0,0,0,.443-.146l1.288-.947a19.5,19.5,0,0,1,2.09,4.092l-1.632.538a.751.751,0,0,0,.236,1.463.772.772,0,0,0,.235-.038l1.621-.535a19.422,19.422,0,0,1,.721,4.561h-1.683a.75.75,0,0,0,0,1.5h1.685a19.324,19.324,0,0,1-.712,4.523l-1.6-.519a.75.75,0,1,0-.46,1.427l1.61.521a19.52,19.52,0,0,1-2.113,4.135l-1.364-.992a.75.75,0,1,0-.882,1.213l1.353.985A19.658,19.658,0,0,1,4411.955,308.2Z"/><path class="c" d="M4415.222,292.9a15.325,15.325,0,1,0-15.326,15.325,15.326,15.326,0,0,0,15.326-15.325Zm-1.393,0a13.932,13.932,0,1,1-13.933-13.933,13.932,13.932,0,0,1,13.933,13.933Z"/><path class="c" d="M4399.9,281.056A11.842,11.842,0,1,0,4411.74,292.9,11.842,11.842,0,0,0,4399.9,281.056Zm2.326,1.663-1.683,4.04a.7.7,0,0,1-1.286,0l-1.683-4.04A10.156,10.156,0,0,1,4402.224,282.719Zm-11.283,4.827h0l3.315,2.844a.7.7,0,0,1-.4,1.223l-4.363.352A10.361,10.361,0,0,1,4390.941,287.546Zm5.869,10.7h0l-1.011,4.262a10.5,10.5,0,0,1-3.755-2.743l3.728-2.274a.7.7,0,0,1,1.041.756Zm7.191,4.259v0l-1.014-4.262a.7.7,0,0,1,1.041-.756l3.728,2.274A10.5,10.5,0,0,1,4404,302.505Zm4.625-3.851-3.873-2.354a2.09,2.09,0,0,0-3.121,2.268l1.045,4.394a10.193,10.193,0,0,1-5.559,0l1.045-4.394a2.09,2.09,0,0,0-3.121-2.267l-3.855,2.353a10.373,10.373,0,0,1-1.712-5.288l4.5-.364a2.09,2.09,0,0,0,1.19-3.669l-3.427-2.94a10.487,10.487,0,0,1,4.5-3.266l1.736,4.168a2.09,2.09,0,0,0,3.858,0l1.737-4.168a10.487,10.487,0,0,1,4.5,3.266l-3.423,2.94a2.09,2.09,0,0,0,1.192,3.669l4.5.364A10.373,10.373,0,0,1,4408.626,298.654Zm1.673-6.69-4.363-.352a.7.7,0,0,1-.4-1.222l3.319-2.844A10.343,10.343,0,0,1,4410.3,291.964Z"/><path class="c" d="M4399.9,290.111a2.786,2.786,0,1,0,2.786,2.786A2.786,2.786,0,0,0,4399.9,290.111Zm0,4.179h0a1.393,1.393,0,1,1,1.393-1.393A1.393,1.393,0,0,1,4399.9,294.29Z"/></g></g></svg>