<?xml version="1.0" encoding="UTF-8"?>
<svg xmlns="http://www.w3.org/2000/svg" xmlns:xlink="http://www.w3.org/1999/xlink" width="46pt" height="46pt" viewBox="0 0 46 46" version="1.1">
<g id="surface1">
<path style=" stroke:none;fill-rule:nonzero;fill:rgb(0%,0%,0%);fill-opacity:1;" d="M 38.835938 0 L 7.164062 0 C 3.214844 0 0 3.214844 0 7.164062 L 0 38.835938 C 0 42.785156 3.214844 46 7.164062 46 L 38.835938 46 C 42.785156 46 46 42.785156 46 38.835938 L 46 7.164062 C 46 3.214844 42.785156 0 38.835938 0 Z M 44.652344 38.835938 C 44.652344 42.042969 42.042969 44.652344 38.835938 44.652344 L 7.164062 44.652344 C 3.957031 44.652344 1.347656 42.042969 1.347656 38.835938 L 1.347656 7.164062 C 1.347656 3.957031 3.957031 1.347656 7.164062 1.347656 L 38.835938 1.347656 C 42.042969 1.347656 44.652344 3.957031 44.652344 7.164062 Z M 44.652344 38.835938 "/>
<path style=" stroke:none;fill-rule:nonzero;fill:rgb(0%,0%,0%);fill-opacity:1;" d="M 38.835938 3.199219 L 7.164062 3.199219 C 4.976562 3.199219 3.199219 4.976562 3.199219 7.164062 L 3.199219 9.207031 C 3.199219 9.578125 3.5 9.878906 3.875 9.878906 C 4.246094 9.878906 4.546875 9.578125 4.546875 9.207031 L 4.546875 7.164062 C 4.546875 5.722656 5.722656 4.546875 7.164062 4.546875 L 38.835938 4.546875 C 40.277344 4.546875 41.453125 5.722656 41.453125 7.164062 L 41.453125 38.835938 C 41.453125 40.277344 40.277344 41.453125 38.835938 41.453125 L 7.164062 41.453125 C 5.722656 41.453125 4.546875 40.277344 4.546875 38.835938 L 4.546875 12.355469 C 4.546875 11.984375 4.246094 11.683594 3.875 11.683594 C 3.5 11.683594 3.199219 11.984375 3.199219 12.355469 L 3.199219 38.835938 C 3.199219 41.023438 4.976562 42.800781 7.164062 42.800781 L 38.835938 42.800781 C 41.023438 42.800781 42.800781 41.023438 42.800781 38.835938 L 42.800781 7.164062 C 42.800781 4.976562 41.023438 3.199219 38.835938 3.199219 Z M 38.835938 3.199219 "/>
<path style=" stroke:none;fill-rule:nonzero;fill:rgb(0%,0%,0%);fill-opacity:1;" d="M 33.835938 22.117188 C 31.953125 20.789062 28.785156 20.28125 26.246094 20.859375 C 25.984375 20.457031 25.652344 20.109375 25.265625 19.828125 C 25.769531 18.789062 26.648438 18.019531 28.171875 17.265625 C 28.972656 16.867188 29.96875 16.371094 29.96875 15.0625 C 29.96875 11.484375 26.367188 9.269531 23.03125 9.269531 C 19.203125 9.269531 16.089844 11.867188 16.089844 15.0625 C 16.089844 16.648438 16.867188 18.765625 18.070312 20.453125 C 18.457031 20.992188 18.867188 21.46875 19.296875 21.875 C 19.210938 22.160156 19.160156 22.457031 19.144531 22.765625 C 18.078125 22.6875 17.074219 22.207031 15.832031 21.203125 L 15.8125 21.191406 C 15.125 20.632812 14.269531 19.941406 13.078125 20.488281 C 9.828125 21.984375 9.320312 26.183594 10.714844 29.214844 C 12.1875 32.421875 15.757812 34.535156 18.878906 33.097656 C 21.078125 32.085938 23.246094 29.304688 23.898438 26.730469 C 24.09375 26.683594 24.28125 26.625 24.464844 26.550781 C 25.101562 27.5 25.398438 28.632812 25.074219 30.71875 C 24.9375 31.601562 24.765625 32.699219 25.835938 33.457031 C 28.675781 35.460938 32.574219 33.953125 34.570312 31.125 C 35.570312 29.710938 36.101562 27.964844 36.027344 26.339844 C 35.949219 24.558594 35.171875 23.058594 33.835938 22.117188 Z M 19.167969 19.667969 C 18.132812 18.21875 17.4375 16.367188 17.4375 15.0625 C 17.4375 12.609375 19.945312 10.617188 23.03125 10.617188 C 26.484375 10.617188 28.621094 12.925781 28.621094 15.0625 C 28.621094 15.480469 28.410156 15.640625 27.574219 16.058594 C 25.777344 16.949219 24.6875 17.925781 24.050781 19.242188 C 23.71875 19.148438 23.367188 19.097656 23.007812 19.097656 C 21.757812 19.097656 20.648438 19.695312 19.941406 20.613281 C 19.675781 20.332031 19.417969 20.019531 19.167969 19.667969 Z M 18.316406 31.875 C 15.894531 32.988281 13.09375 31.167969 11.9375 28.652344 C 10.496094 25.515625 11.699219 22.609375 13.644531 21.714844 C 14.023438 21.539062 14.253906 21.660156 14.96875 22.238281 L 14.984375 22.25 C 16.542969 23.507812 17.867188 24.089844 19.3125 24.121094 C 19.753906 25.53125 20.984375 26.59375 22.480469 26.800781 C 21.769531 29.019531 19.835938 31.175781 18.316406 31.875 Z M 23.007812 25.488281 C 21.617188 25.488281 20.484375 24.359375 20.484375 22.96875 C 20.484375 21.578125 21.617188 20.445312 23.007812 20.445312 C 24.394531 20.445312 25.527344 21.578125 25.527344 22.96875 C 25.527344 24.371094 24.378906 25.488281 23.007812 25.488281 Z M 33.46875 30.347656 C 31.882812 32.597656 28.800781 33.898438 26.613281 32.355469 C 26.269531 32.113281 26.261719 31.847656 26.40625 30.925781 C 26.742188 28.746094 26.511719 27.21875 25.605469 25.832031 C 26.632812 24.898438 27.085938 23.492188 26.78125 22.125 C 28.890625 21.722656 31.570312 22.164062 33.058594 23.21875 C 34.042969 23.914062 34.621094 25.042969 34.679688 26.402344 C 34.742188 27.734375 34.300781 29.171875 33.46875 30.347656 Z M 33.46875 30.347656 "/>
<path style=" stroke:none;fill-rule:nonzero;fill:rgb(0%,0%,0%);fill-opacity:1;" d="M 34.828125 38.046875 C 34.828125 39.511719 36.019531 40.699219 37.480469 40.699219 C 38.941406 40.699219 40.128906 39.511719 40.128906 38.046875 C 40.128906 36.585938 38.941406 35.398438 37.480469 35.398438 C 36.019531 35.398438 34.828125 36.585938 34.828125 38.046875 Z M 38.78125 38.046875 C 38.78125 38.765625 38.199219 39.351562 37.480469 39.351562 C 36.761719 39.351562 36.175781 38.765625 36.175781 38.046875 C 36.175781 37.332031 36.761719 36.746094 37.480469 36.746094 C 38.199219 36.746094 38.78125 37.332031 38.78125 38.046875 Z M 38.78125 38.046875 "/>
<path style=" stroke:none;fill-rule:nonzero;fill:rgb(0%,0%,0%);fill-opacity:1;" d="M 34.980469 12.691406 C 34.691406 12.925781 34.644531 13.347656 34.878906 13.640625 C 37.078125 16.371094 38.238281 19.671875 38.238281 23.183594 C 38.238281 31.585938 31.40625 38.417969 23.007812 38.417969 C 19.492188 38.417969 16.191406 37.257812 13.460938 35.058594 C 13.171875 34.824219 12.746094 34.871094 12.511719 35.160156 C 12.28125 35.449219 12.324219 35.875 12.617188 36.109375 C 15.546875 38.46875 19.234375 39.765625 23.007812 39.765625 C 32.148438 39.765625 39.585938 32.328125 39.585938 23.183594 C 39.585938 19.414062 38.289062 15.726562 35.929688 12.792969 C 35.695312 12.503906 35.269531 12.457031 34.980469 12.691406 Z M 34.980469 12.691406 "/>
<path style=" stroke:none;fill-rule:nonzero;fill:rgb(0%,0%,0%);fill-opacity:1;" d="M 33.628906 10.453125 C 30.65625 7.96875 26.882812 6.601562 23.007812 6.601562 C 13.863281 6.601562 6.425781 14.042969 6.425781 23.183594 C 6.425781 27.0625 7.792969 30.835938 10.273438 33.808594 C 10.40625 33.96875 10.597656 34.050781 10.789062 34.050781 C 10.941406 34.050781 11.097656 33.996094 11.222656 33.890625 C 11.507812 33.652344 11.546875 33.230469 11.308594 32.945312 C 9.027344 30.214844 7.773438 26.746094 7.773438 23.183594 C 7.773438 14.785156 14.605469 7.953125 23.007812 7.953125 C 26.570312 7.953125 30.035156 9.207031 32.765625 11.488281 C 33.050781 11.726562 33.476562 11.6875 33.714844 11.402344 C 33.953125 11.117188 33.914062 10.691406 33.628906 10.453125 Z M 33.628906 10.453125 "/>
</g>
</svg>
