<svg xmlns="http://www.w3.org/2000/svg" xmlns:xlink="http://www.w3.org/1999/xlink" width="80" height="80" viewBox="0 0 80 80"><defs><style>.a{fill:#ffdc00;}.b{clip-path:url(#a);}.c{fill:#1d1d1b;}</style><clipPath id="a"><rect class="a" width="80" height="80" transform="translate(-11345 3822)"/></clipPath></defs><g class="b" transform="translate(11345 -3822)"><path class="c" d="M628.525,229.39h71.77a2.116,2.116,0,0,1,2.115,2.115v71.769a2.115,2.115,0,0,1-2.115,2.115h-71.77a2.115,2.115,0,0,1-2.115-2.115V231.5A2.116,2.116,0,0,1,628.525,229.39Zm.335,2.411v34.344h9.759V231.8Zm36.765,9.8h34.348V231.84H665.625Zm24.56,27.018v34.323h9.791V268.619Zm-27.021,34.349v-9.81H628.853v9.81Zm36.817-46.6H665.647v9.772h34.334ZM663.15,278.417v-9.781H628.836v9.781ZM653.4,231.8v34.348h9.759V231.8Zm22.023,71.173V268.628h-9.76v34.348Zm-24.53-36.81V231.821H641.14v34.346Zm49.087-12.3v-9.743H665.659v9.743Zm-22.024,14.749v34.326h9.729V268.616Zm-14.77,12.317H628.861v9.73h34.323Z" transform="translate(-11969.41 3594.61)"/></g></svg>