<svg xmlns="http://www.w3.org/2000/svg" xmlns:xlink="http://www.w3.org/1999/xlink" width="46" height="46" viewBox="0 0 46 46"><defs><style>.a{fill:#4c4c4c;}.b{clip-path:url(#a);}.c{fill:#1d1d1b;}</style><clipPath id="a"><rect class="a" width="46" height="46" transform="translate(1980 2104)"/></clipPath></defs><g class="b" transform="translate(-1980 -2104)"><g transform="translate(1987.959 2105.382)"><path class="c" d="M108.611,96.753a5.791,5.791,0,1,0-5.79-5.791A5.791,5.791,0,0,0,108.611,96.753Zm0-10.134a4.343,4.343,0,1,1-4.343,4.343A4.343,4.343,0,0,1,108.611,86.619Zm0,0" transform="translate(-93.717 -77.947)"/><path class="c" d="M163.277,122.867a.724.724,0,0,0,.6-.322l1.448-2.171a.724.724,0,1,0-1.2-.8l-1.448,2.172a.724.724,0,0,0,.6,1.125Zm0,0" transform="translate(-148.383 -109.127)"/><path class="c" d="M18.513,43.416h2.9a1.449,1.449,0,0,0,1.448-1.448v-1.93c1.587-.187,3.173-.412,4.754-.71a2.171,2.171,0,0,0,1.76-2.137V3.317A2.171,2.171,0,0,0,27.61,1.18C26.075.889,24.535.67,22.993.485a.67.67,0,0,0-.138-.028c-.013,0-.024.007-.036.007a67.9,67.9,0,0,0-15.852,0c-.012,0-.023-.007-.035-.007A.664.664,0,0,0,6.8.485c-1.543.185-3.083.4-4.619.695A2.171,2.171,0,0,0,.418,3.317V37.191a2.171,2.171,0,0,0,1.76,2.137c1.581.3,3.167.524,4.754.71v1.93A1.449,1.449,0,0,0,8.38,43.416h2.9a1.449,1.449,0,0,0,1.448-1.448V40.474c.724.023,1.448.051,2.172.051s1.448-.028,2.172-.051v1.494a1.449,1.449,0,0,0,1.448,1.448Zm2.9-1.448h-2.9V40.42c.966-.052,1.931-.118,2.9-.211ZM14.894,1.43a66.614,66.614,0,0,1,7.238.411V13.015a7.238,7.238,0,1,1-14.476,0V1.841a66.619,66.619,0,0,1,7.238-.411ZM11.275,41.968H8.38V40.209c.965.093,1.93.159,2.9.211Zm.733-2.958-.009,0h-.007a67.083,67.083,0,0,1-9.545-1.1.723.723,0,0,1-.581-.715V3.317A.723.723,0,0,1,2.447,2.6c1.251-.237,2.506-.425,3.761-.59v11a8.686,8.686,0,1,0,17.371,0v-11c1.256.165,2.511.354,3.762.59a.723.723,0,0,1,.581.715V37.191a.723.723,0,0,1-.581.715h0a67.133,67.133,0,0,1-9.544,1.1l-.007,0-.009,0q-2.886.126-5.773,0Zm0,0" transform="translate(0 0)"/><path class="c" d="M121.485,285.781v-2.9a1.449,1.449,0,0,0-1.448-1.448H112.8a1.449,1.449,0,0,0-1.448,1.448v2.9a1.449,1.449,0,0,0,1.448,1.448h7.238A1.449,1.449,0,0,0,121.485,285.781Zm-8.686-2.9h7.238v2.9H112.8Zm0,0" transform="translate(-101.524 -257.565)"/><path class="c" d="M96.457,366.773H95.009a.724.724,0,1,0,0,1.448h1.448a.724.724,0,0,0,0-1.448Zm0,0" transform="translate(-85.906 -335.662)"/><path class="c" d="M96.457,400.906H95.009a.724.724,0,1,0,0,1.448h1.448a.724.724,0,0,0,0-1.448Zm0,0" transform="translate(-85.906 -366.9)"/><path class="c" d="M213.754,367.5a.724.724,0,0,0,.724.724h1.448a.724.724,0,1,0,0-1.448h-1.448A.724.724,0,0,0,213.754,367.5Zm0,0" transform="translate(-195.241 -335.663)"/><path class="c" d="M215.926,400.906h-1.448a.724.724,0,0,0,0,1.448h1.448a.724.724,0,1,0,0-1.448Zm0,0" transform="translate(-195.241 -366.9)"/></g></g></svg>