<svg xmlns="http://www.w3.org/2000/svg" xmlns:xlink="http://www.w3.org/1999/xlink" width="46" height="46" viewBox="0 0 46 46"><defs><style>.a{fill:#4c4c4c;}.b{clip-path:url(#a);}.c{fill:#1d1d1b;}</style><clipPath id="a"><rect class="a" width="46" height="46" transform="translate(2211 1592)"/></clipPath></defs><g class="b" transform="translate(-2211 -1592)"><path class="c" d="M2789.719-609.206l0,0a7.9,7.9,0,0,0-2.688-1.524.905.905,0,0,0,.378-1.224.9.9,0,0,0-.378-.378,6.939,6.939,0,0,0-1.482-.593,3.87,3.87,0,0,0-4.147,1.885,1.186,1.186,0,0,0-.381-.131l0,0-8.208-1.214a1.182,1.182,0,0,0-1.321.885h-.02a10.9,10.9,0,0,0-10.885,10.884v6.392h-2.134a1.457,1.457,0,0,0-1.451,1.451v2.313a1.455,1.455,0,0,0,1.365,1.452v18a2.323,2.323,0,0,0,2.321,2.323h5.265a2.323,2.323,0,0,0,2.321-2.321v-8.247l2.6-1.456a1.828,1.828,0,0,0,.936-1.592v-2.99a1.835,1.835,0,0,0-1.829-1.829h-1.706V-589a1.456,1.456,0,0,0,1.365-1.451v-2.318a1.455,1.455,0,0,0-1.457-1.45h-2.134v-6.392a5.429,5.429,0,0,1,5.423-5.421h.026a1.181,1.181,0,0,0,1.321.884l8.211-1.238a1.181,1.181,0,0,0,.678-.366,3.784,3.784,0,0,0,2.785,1.463,6.035,6.035,0,0,0,1.817-.352.9.9,0,0,0,.58-1.141.9.9,0,0,0-.207-.347c-.132-.137-.247-.271-.346-.4a8.807,8.807,0,0,1,2.668-.109.905.905,0,0,0,1.015-.78A.9.9,0,0,0,2789.719-609.206Zm-22.838,38.194a.933.933,0,0,1-.93.931h-5.266a.932.932,0,0,1-.931-.931v-17.983h6.756c.007,0,.013,0,.02,0h.35Zm1.389-14.714h1.7v-.005a.444.444,0,0,1,.442.442v2.99a.441.441,0,0,1-.227.386l-1.919,1.075Zm-.092-7.105a.065.065,0,0,1,.065.065c-.027,2.286.06,2.378-.065,2.378h-1.936c-.007,0-.013,0-.02,0h-7.768a.064.064,0,0,1-.065-.063h0v-2.318a.066.066,0,0,1,.065-.065Zm3.285-14.589a6.82,6.82,0,0,0-6.8,6.809l0,0v6.392h-2.68v-6.392a9.508,9.508,0,0,1,9.484-9.5Zm9.179-.309-7.79,1.173v-4.413l7.79,1.154Zm4.535-.752h0a.6.6,0,0,0-.4.754.626.626,0,0,0,.036.088,5.583,5.583,0,0,0,.675.994,2.905,2.905,0,0,1-1.278.137,2.67,2.67,0,0,1-2.068-3.159,2.67,2.67,0,0,1,3.159-2.068,3.46,3.46,0,0,1,.508.175,3.411,3.411,0,0,0-.986.6.6.6,0,0,0-.016.852.6.6,0,0,0,.347.179,7.608,7.608,0,0,1,2.968,1.047A10.665,10.665,0,0,0,2785.179-608.482Z" transform="translate(-539.264 2206.002)"/></g></svg>