<svg xmlns="http://www.w3.org/2000/svg" xmlns:xlink="http://www.w3.org/1999/xlink" width="46" height="46" viewBox="0 0 46 46"><defs><style>.a{fill:#4c4c4c;}.b{clip-path:url(#a);}.c{fill:#1d1d1b;}</style><clipPath id="a"><rect class="a" width="46" height="46" transform="translate(281 4050)"/></clipPath></defs><g class="b" transform="translate(-281 -4050)"><g transform="translate(-3408.216 4406.761)"><path class="c" d="M3731.134-316.909h-.426v-36.53a1.563,1.563,0,0,0-1.562-1.561h-34.807a1.564,1.564,0,0,0-1.561,1.561v36.53h-.425a1.347,1.347,0,0,0-1.346,1.346v1.628a1.347,1.347,0,0,0,1.346,1.346h38.787a1.347,1.347,0,0,0,1.346-1.346v-1.629A1.347,1.347,0,0,0,3731.134-316.909Zm-37.15-36.53a.355.355,0,0,1,.355-.355h34.806a.355.355,0,0,1,.355.355v36.53h-2.069v-34.217a.6.6,0,0,0-.559-.6H3696.6l-.052.006h-.016a.493.493,0,0,0-.069.017c-.02.006-.041.015-.061.023l-.016.007-.049.027-.01.005a.525.525,0,0,0-.057.041.642.642,0,0,0-.048.046l-.014.016a.5.5,0,0,0-.032.038l-.012.016a.486.486,0,0,0-.034.054.436.436,0,0,0-.03.064v.013c-.006.017-.013.035-.018.053v.019a.475.475,0,0,1-.01.052.05.05,0,0,0,0,.019c0,.023,0,.048,0,.071v34.224h-2.1v-36.53Zm12.157,34.8a1.072,1.072,0,0,0,.723-.994v-26.658a1.062,1.062,0,0,0-.629-.956l-6.9-3.275h24.813l-6.9,3.275a1.062,1.062,0,0,0-.629.956v26.658a1.072,1.072,0,0,0,.723,1l4.627,1.73h-20.451Zm-8.076,1.728h-.812v-33.262l8.4,3.987v26.437Zm19.753-2.838v-26.437l8.4-3.987v33.262h-.812Zm13.452,5.811a.138.138,0,0,1-.138.138h-38.787a.138.138,0,0,1-.138-.138v-1.628a.138.138,0,0,1,.138-.138h38.787a.138.138,0,0,1,.138.138Z" transform="translate(0 0)"/><path class="c" d="M3718.4-334.108l4.21.028a.717.717,0,0,0,.728-.706v-12.237a.734.734,0,0,0-.739-.721.734.734,0,0,0-.328.076l-4.214,2.108a.694.694,0,0,0-.389.621v10.119A.727.727,0,0,0,3718.4-334.108Zm.475-10.511,3.26-1.631v10.956l-3.26-.021Z" transform="translate(1.655 0.45)"/><path class="c" d="M3722.613-334.08h0l-4.21.042a.73.73,0,0,0-.731.712v10.632a.7.7,0,0,0,.445.647l4.214,1.674a.743.743,0,0,0,.965-.418.723.723,0,0,0,.052-.252v-12.332A.719.719,0,0,0,3722.613-334.08Zm-.476,12.333-3.261-1.3v-9.792l3.261-.033Z" transform="translate(1.655 1.299)"/><path class="c" d="M3702.982-334.038l-4.218-.042a.717.717,0,0,0-.726.705v12.332a.744.744,0,0,0,.765.722.764.764,0,0,0,.252-.052l4.214-1.674a.7.7,0,0,0,.444-.646v-10.633A.73.73,0,0,0,3702.982-334.038Zm-3.739,12.29v-11.121l3.26.033,0,9.792Z" transform="translate(0.437 1.299)"/><path class="c" d="M3698.765-334.087l4.21-.028a.726.726,0,0,0,.733-.712v-10.112a.694.694,0,0,0-.383-.621l-4.215-2.111a.743.743,0,0,0-1,.339.727.727,0,0,0-.077.306v12.233A.717.717,0,0,0,3698.765-334.087Zm.48-12.164,3.261,1.631v9.3l-3.261.021Z" transform="translate(0.437 0.45)"/></g></g></svg>