<svg xmlns="http://www.w3.org/2000/svg" xmlns:xlink="http://www.w3.org/1999/xlink" width="46" height="46" viewBox="0 0 46 46"><defs><style>.a{fill:#4c4c4c;}.b{clip-path:url(#a);}.c{fill:#1d1d1b;}</style><clipPath id="a"><rect class="a" width="46" height="46" transform="translate(2399 750)"/></clipPath></defs><g class="b" transform="translate(-2399 -750)"><path class="c" d="M4417.606-1299.466c-.192-.123-.395-.247-.6-.37-1.994-1.234-4.061-2.512-4.273-4.55h-.014l-1.477-14.25a6.217,6.217,0,0,0-6.211-6.171,6.217,6.217,0,0,0-6.21,6.171l-1.477,14.25h0c-.208,2.038-2.275,3.316-4.272,4.55-.2.123-.4.247-.6.37-2.137,1.347-2.083,7.84-1.856,11.6a1.243,1.243,0,0,0,1.239,1.165h4.273l.015.015a.571.571,0,0,0,.059.049c.049.039.089.069.113.089a9.926,9.926,0,0,0,1.273.7c.04.02.079.035.119.054a15.05,15.05,0,0,0,4.9,1.224q1.487.133,2.817.133a16.429,16.429,0,0,0,6.7-1.2,9.818,9.818,0,0,0,1.5-.814c.118-.084.237-.163.35-.247h4.233a1.247,1.247,0,0,0,1.244-1.165C4419.688-1291.625,4419.748-1298.119,4417.606-1299.466Zm-5.472,12.182c-2.226,1.184-5.314,1.589-9.39,1.234a13.554,13.554,0,0,1-4.525-1.15c-.182-.084-.35-.168-.508-.252v-.042a13.327,13.327,0,0,1,14.423-.147Zm0-2.076a14.654,14.654,0,0,0-14.423.162v-5.64a5.277,5.277,0,0,1,5.274-5.275h3.874a5.277,5.277,0,0,1,5.274,5.275Zm5.867,1.173h-4.028c-.111-.081-.223-.158-.333-.235v-6.416a6.785,6.785,0,0,0-6.779-6.78h-3.874a6.785,6.785,0,0,0-6.78,6.78v6.574l-.107.077h-4.013c-.3-5.29.183-9.4,1.179-10.026l.587-.365c2.2-1.357,4.683-2.9,4.969-5.655h0l1.48-14.287,0-.076a4.736,4.736,0,0,1,4.73-4.731,4.735,4.735,0,0,1,4.73,4.731l1.485,14.364h0c.3,2.737,2.8,4.3,4.983,5.654l.587.365C4417.818-1297.586,4418.3-1293.476,4418-1288.186Z" transform="translate(-1982.599 2077.524)"/></g></svg>