<svg xmlns="http://www.w3.org/2000/svg" xmlns:xlink="http://www.w3.org/1999/xlink" width="46" height="46" viewBox="0 0 46 46"><defs><style>.a{fill:#4c4c4c;}.b{clip-path:url(#a);}.c{fill:#1d1d1b;}</style><clipPath id="a"><rect class="a" width="46" height="46" transform="translate(1918 2506)"/></clipPath></defs><g class="b" transform="translate(-1918 -2506)"><g transform="translate(-5935.29 3959.7)"><g transform="translate(7854.29 -1448.7)"><path class="c" d="M7897.319-1414.051h-5.464v-3.7h5.61a.711.711,0,0,0,.7-.671.618.618,0,0,0-.168-.451.93.93,0,0,0-.671-.241h-5.38l-.042-.094c-.336-.724-.388-.755-1.206-.755h-1.3l-.031-.094a2.574,2.574,0,0,1-.084-1.091c.053-.65.084-1.154-.7-1.405l-.116-.031v-12.92h8.285c.786,0,.976-.189.976-.975v-11.2c0-.849-.179-1.017-1.038-1.017h-23.04c-.745,0-.955.2-.955.933v11.305c0,.755.21.954.955.954h8.326v12.9l-.094.042c-.672.283-.734.357-.734,1.08v1.521h-.157c-.2,0-.389.01-.566.01-.356,0-.682,0-1.007-.01h-.053a.8.8,0,0,0-.8.692l-.021.136h-8.62l-.032-.094c-.262-.661-.356-.724-1.038-.724h-1.405l-.042-.094a2.487,2.487,0,0,1-.1-1.112c.042-.64.073-1.143-.734-1.395l-.105-.042v-1.919h.913c.545,0,1.091.01,1.6,0,.608-.01.839-.231.839-.849v-11.463c0-.65-.23-.881-.86-.881H7857.5c-.65,0-.87.231-.87.87v11.463c0,.64.23.86.88.86h2.476v1.9l-.095.042c-.691.3-.733.378-.733,1.133v1.342l-.095.042a2.613,2.613,0,0,1-1.1.094c-.64-.052-1.153-.084-1.4.745l-.042.1H7855a.7.7,0,0,0-.713.661v.052a.688.688,0,0,0,.682.65h1.615v3.712h-1.405a1.014,1.014,0,0,0-.724.231.623.623,0,0,0-.168.462c.01.42.325.661.87.661h1.363l.042.1c.262.682.356.745,1.038.745h3.052c.839-.01,1.688-.01,2.549-.01,1.824,0,3.67.01,5.5.021.65,0,1.06-.115,1.174-.713l.021-.126h8.621l.042.094c.24.65.345.724,1.037.724h11.2c.724,0,.8-.052,1.091-.745l.03-.094h5.391c.535,0,.85-.252.85-.682a.577.577,0,0,0-.168-.451A.926.926,0,0,0,7897.319-1414.051Zm-39.295-11.84v-10.424h10.4v10.424Zm7.016,1.395v1.961h-3.629v-1.961Zm3.4,11.274h-10.413v-5.369h1.688a1.518,1.518,0,0,0,.22,0,.676.676,0,0,0,.462-.283.7.7,0,0,0,.137-.514v-1.7h5.4v1.646c.01.608.23.839.85.839h1.656Zm10.131-.86h-8.725l.01-3.639h8.715Zm-4.478-22.82v-10.424h22.242v10.424Zm12.94,1.416v12.952h-3.639v-12.952Zm3.377,22.254h-10.267l-.031-.126a5.825,5.825,0,0,1-.137-.849c-.011-.766,0-1.521,0-2.265v-1.133c0-.87.126-1,.976-1,1.563,0,1.563,0,1.563-1.552v-.954h5.39v1.657a1.076,1.076,0,0,0,0,.252.724.724,0,0,0,.283.472.689.689,0,0,0,.535.126c.347.01.671,0,1.007,0h.682Z" transform="translate(-7854.291 1448.7)"/></g><g transform="translate(7876.074 -1446.172)"><path class="c" d="M7882.37-1446.28h-6.69a.673.673,0,0,0-.462.262.692.692,0,0,0-.146.514q-.016,3.288,0,6.554a.554.554,0,0,0,0,.189.69.69,0,0,0,.766.6c2.191.01,4.353.01,6.512,0,.608,0,.84-.231.84-.839.01-.713.01-1.426,0-2.15v-1.993c.01-.766.01-1.531,0-2.286a.756.756,0,0,0,.01-.262A.711.711,0,0,0,7882.37-1446.28Zm-3.954,6.722h-1.95v-5.338h1.95Zm3.378,0h-1.951v-5.338h1.951Z" transform="translate(-7875.063 1446.289)"/></g><g transform="translate(7886.224 -1446.162)"><path class="c" d="M7888.778-1446.28a4.206,4.206,0,0,0-4.037,4.048,4.236,4.236,0,0,0,4.058,4.069,4.236,4.236,0,0,0,4.069-4.059A4.256,4.256,0,0,0,7888.778-1446.28Zm2.727,4.342a2.584,2.584,0,0,1-.86,1.772,2.545,2.545,0,0,1-1.7.65h-.44a2.616,2.616,0,0,1-1.772-.87,2.515,2.515,0,0,1-.63-1.856,1.336,1.336,0,0,1,0-.293,2.567,2.567,0,0,1,2.56-2.391,1.01,1.01,0,0,1,.178.01.776.776,0,0,1,.221,0,2.559,2.559,0,0,1,1.782.839,2.567,2.567,0,0,1,.661,1.856Z" transform="translate(-7884.741 1446.28)"/></g><g transform="translate(7859.167 -1435.035)"><path class="c" d="M7863.062-1435.67a4.246,4.246,0,0,0-4.122,4.017,4.212,4.212,0,0,0,4.027,4.09,4.22,4.22,0,0,0,4.1-3.975A4.246,4.246,0,0,0,7863.062-1435.67Zm2.632,4.436a2.54,2.54,0,0,1-.9,1.73,2.5,2.5,0,0,1-1.626.587h-.21c-.126,0-.23,0-.346-.01a2.548,2.548,0,0,1-1.73-.912,2.555,2.555,0,0,1-.576-1.867,1.512,1.512,0,0,1,.01-.2,2.574,2.574,0,0,1,2.569-2.422h.168c.095,0,.2,0,.314.01a2.585,2.585,0,0,1,1.752.923,2.6,2.6,0,0,1,.587,1.9A2.319,2.319,0,0,1,7865.694-1431.234Z" transform="translate(-7858.94 1435.67)"/></g><g transform="translate(7888.341 -1442.785)"><path class="c" d="M7888.113-1442.4a.7.7,0,0,1-.661.7h-.01a.684.684,0,0,1-.683-.661.688.688,0,0,1,.661-.7A.686.686,0,0,1,7888.113-1442.4Z" transform="translate(-7886.76 1443.06)"/></g><g transform="translate(7890.879 -1442.785)"><path class="c" d="M7890.534-1442.4a.7.7,0,0,1-.661.7h-.01a.682.682,0,0,1-.682-.661.687.687,0,0,1,.66-.7A.7.7,0,0,1,7890.534-1442.4Z" transform="translate(-7889.181 1443.06)"/></g><g transform="translate(7861.285 -1431.648)"><path class="c" d="M7862.313-1431.769a.656.656,0,0,1-.64.671.677.677,0,0,1-.714-.629v-.01a.7.7,0,0,1,.661-.7A.674.674,0,0,1,7862.313-1431.769Z" transform="translate(-7860.96 1432.44)"/></g><g transform="translate(7863.823 -1431.648)"><path class="c" d="M7864.733-1431.748a.656.656,0,0,1-.661.65h-.021a.667.667,0,0,1-.672-.661.7.7,0,0,1,.682-.682A.687.687,0,0,1,7864.733-1431.748Z" transform="translate(-7863.38 1432.44)"/></g></g></g></svg>