<svg xmlns="http://www.w3.org/2000/svg" xmlns:xlink="http://www.w3.org/1999/xlink" width="80" height="80" viewBox="0 0 80 80"><defs><style>.a{fill:#ffdc00;}.b{clip-path:url(#a);}.c{fill:#1d1d1b;}</style><clipPath id="a"><rect class="a" width="80" height="80" transform="translate(-11066 3822)"/></clipPath></defs><g class="b" transform="translate(11066 -3822)"><g transform="translate(-11056 3824)"><g transform="translate(0 0)"><path class="c" d="M144.376,223.843a1.054,1.054,0,0,0-1.046,1.065v73.832a1.054,1.054,0,0,0,1.046,1.065l22.45-.01h.028c.928.066.906-.932.906-.932v-.124c0-.01,0-2.567.009-4.592v-69.24a1.16,1.16,0,0,0-.31-.717,1.313,1.313,0,0,0-.858-.386C166.356,223.8,144.376,223.843,144.376,223.843Zm2.848,73.785v.048h-1.8V240.946l.093.333a96.461,96.461,0,0,1,2.895,19.461A228.614,228.614,0,0,1,147.224,297.627Zm4.342,0h-.047v.038h-2.195l.009-.048c1.382-13.453,2.484-32.856-.1-48.952-1.382-8.575-3.259-12.768-3.8-13.842l-.009-.019v-8.832h1.149l.019.019c1.5,2.044,3.819,7.064,5.4,14.517a115.485,115.485,0,0,1,2.157,22.389A234.889,234.889,0,0,1,151.567,297.627Zm7.928.038-.009-.038c-.738-3.613-1.681-10.486-.514-13.272l.028-.076.047.067c.514.637,1.69,2.462,3.8,7.435.728,1.7,1.513,3.66,2.335,5.828l.028.057Zm6.182-4.554-.093-.228c-.327-.8-.654-1.6-.99-2.377-3.315-7.72-4.595-8.518-5.538-8.661a1.481,1.481,0,0,0-1.429.608c-2.316,3.118-.971,11.637-.28,15.154l.009.057h-3.679l.009-.057a236.174,236.174,0,0,0,2.559-35.015,116.034,116.034,0,0,0-2.279-22.865c-1.532-7.111-3.483-11.361-4.847-13.681l-.047-.076h5.986l.009.048c.383,3.194,1.765,14.593,3.511,26.953,2.783,19.623,5.164,32.714,7.1,38.932Zm0-10.477h-.093c-3.717-18.158-7.658-50.34-8.4-56.615l-.009-.048h2.69v.038c.327,5.333,1.69,24,5.818,40.139Zm0-26.715h-.047l-.047.009a259.386,259.386,0,0,1-3.623-29.9v-.057h3.717Zm1.149,43.875Z" transform="translate(-143.33 -223.804)"/></g><g transform="translate(35.561 0.038)"><path class="c" d="M200.453,224.18H178.106a1.054,1.054,0,0,0-1.046,1.065v73.833a1.054,1.054,0,0,0,1.046,1.065h22.347a1.054,1.054,0,0,0,1.046-1.065V225.245A1.054,1.054,0,0,0,200.453,224.18Zm-21.3,2.13h4.959l.009.048c.168,1.569.486,4.677.728,7.938a60.626,60.626,0,0,1,.215,8.927l-.009.162-.075-.133a102.913,102.913,0,0,1-5.827-14.346Zm0,8.785.093.238c.271.742.551,1.445.812,2.111,3.119,7.919,4.212,8.7,5.136,8.851a1.557,1.557,0,0,0,.215.009,1.386,1.386,0,0,0,1.1-.58c.374-.513,1.149-1.569.439-11.38-.233-3.232-.551-6.389-.728-7.977v-.048h2.148v.038c.6,4.516,2.26,19.87-1.457,27.951-.579,1.255-1.037,1.578-1.223,1.578a.009.009,0,0,1-.009-.01c-.075,0-1.737-.295-4.277-8.623-1.223-4.012-2.092-8.072-2.251-8.851Zm3.9,62.871v.048h-3.9v-36.6l.093.39C181.328,270.623,183.681,284.056,183.055,297.965Zm5.127.038h-3.026v-.048a142.146,142.146,0,0,0-6-44.57v-6.351l.252.827c1.382,4.554,3.315,9.811,6.033,10.135a2.6,2.6,0,0,0,.28.019c1.2,0,2.241-.951,3.1-2.814,1.924-4.2,2.764-10.553,2.484-18.9-.149-4.373-.57-8.1-.812-9.935v-.057h5.3l-.009.057c-.7,3.632-2.493,13.367-4.174,25.232-1.877,13.234-4,32.02-3.427,46.357Zm11.225.01h-3.315v-.048c-.149-12.559.159-30.718,2.437-45.91.243-1.607.5-3.175.784-4.659l.047.01h.047Zm-.009-59.7a73.9,73.9,0,0,0-2.914,13.234c-2.316,15.354-2.633,33.712-2.493,46.414v.048h-3.707l-.009-.048c-1.018-25.061,6.191-64.05,7.648-71.618l.009-.038h1.475Z" transform="translate(-177.06 -224.18)"/></g></g></g></svg>