<svg xmlns="http://www.w3.org/2000/svg" xmlns:xlink="http://www.w3.org/1999/xlink" width="46" height="46" viewBox="0 0 46 46"><defs><style>.a{fill:#4c4c4c;}.b{clip-path:url(#a);}.c{fill:#1d1d1b;}</style><clipPath id="a"><rect class="a" width="46" height="46" transform="translate(1909 2659)"/></clipPath></defs><g class="b" transform="translate(-1909 -2659)"><g transform="translate(-5767.843 3970.993)"><path class="c" d="M7698.907-1290.027h-.013a1.784,1.784,0,0,0-1.282.555.485.485,0,0,0-.074.083l-.053.063a1.3,1.3,0,0,0-.074.107l-.135.255a1.237,1.237,0,0,0-.06.157,1.562,1.562,0,0,0-.068.37,1.579,1.579,0,0,0-.01.179c0,.059,0,.119.01.236a1.755,1.755,0,0,0,.068.309l.109.265.324.446a1.784,1.784,0,0,0,1.255.521,1.779,1.779,0,0,0,1.773-1.772A1.778,1.778,0,0,0,7698.907-1290.027Zm0,1.3a.474.474,0,0,1,.471.469.471.471,0,0,1-.47.469h0a.47.47,0,0,1-.469-.468A.471.471,0,0,1,7698.9-1288.731Zm-1.027-.4h0Zm-.2,1.415Zm.089.17Z" transform="translate(0.438 1.459)"/><path class="c" d="M7707.85-1283.408v-7.635h-2.694v-2.468h-2.918v-4.525h1.59v-8.7a4.329,4.329,0,0,0-1.175-2.858,4.574,4.574,0,0,0-5.87-.608,4.463,4.463,0,0,0-1.531,1.921,10.237,10.237,0,0,0-.354,3.972v6.27h1.55v4.525h-2.915v2.468h-2.689v7.635h1.569v9.079h-1.569v7.636h17.007v-7.636h-1.575v-9.079Zm-11.667-15.933v-7.2a3.17,3.17,0,0,1,3.161-3.16,3.164,3.164,0,0,1,3.158,3.16v7.2Zm4.754,1.395v4.228h-3.187v-4.225Zm-6.1,5.736h9.011v.938h-9.011Zm11.7,19.185V-1268h-14.394v-5.027Zm-12.824-1.3v-9.079h11.253v9.079Zm-1.569-10.382v-5.027h14.394v5.027Z" transform="translate(0)"/><path class="c" d="M7697.654-1269.379a1.777,1.777,0,0,0,1.254.521,1.776,1.776,0,0,0,1.773-1.773,1.776,1.776,0,0,0-1.772-1.772h0a1.759,1.759,0,0,0-1.247.514,1.725,1.725,0,0,0-.31.412,1.764,1.764,0,0,0-.213.842,1.775,1.775,0,0,0,.212.849A1.743,1.743,0,0,0,7697.654-1269.379Zm1.253-1.725a.474.474,0,0,1,.471.468.473.473,0,0,1-.47.471.47.47,0,0,1-.47-.468A.47.47,0,0,1,7698.907-1271.1Z" transform="translate(0.438 0.546)"/><path class="c" d="M7699.595-1308.127a1.751,1.751,0,0,0-.687-.14h-.014a1.746,1.746,0,0,0-1.229.5l-.1.106a1.058,1.058,0,0,0-.085.1l-.205.357a1.04,1.04,0,0,0-.058.154,1.55,1.55,0,0,0-.068.37,1.053,1.053,0,0,0-.008.167.429.429,0,0,0,.008.128v.119a1.8,1.8,0,0,0,.069.309l.11.27.323.442a1.752,1.752,0,0,0,.576.386,1.774,1.774,0,0,0,.68.136,1.779,1.779,0,0,0,1.773-1.774A1.776,1.776,0,0,0,7699.595-1308.127Zm-.222,1.626a.486.486,0,0,1-.651.431.466.466,0,0,1-.286-.431.47.47,0,0,1,.47-.469.477.477,0,0,1,.181.036A.473.473,0,0,1,7699.373-1306.5Zm-1.7.547Zm.092.174h0Z" transform="translate(0.438 0.19)"/></g></g></svg>