<svg xmlns="http://www.w3.org/2000/svg" width="14" height="14" viewBox="0 0 14 14"><defs><style>.a{fill:#747474;}</style></defs><path class="a" d="M1354.624,135.536a.314.314,0,0,0-.282-.175h-10.6a.317.317,0,0,0-.284.175l-1.379,2.764a.311.311,0,0,0-.037.143v10.6a.317.317,0,0,0,.317.317h13.367a.317.317,0,0,0,.317-.317v-10.6a.316.316,0,0,0-.033-.141Zm-4.519,6.834-.852-.713a.315.315,0,0,0-.4,0l-.874.722,0-3.62h2.134Zm-2.364-6.377Zm.288,2.133.355-2.132,1.305,0,.356,2.133Z" transform="translate(-1342.038 -135.361)"/></svg>