<svg xmlns="http://www.w3.org/2000/svg" width="14" height="13.996" viewBox="0 0 14 13.996"><defs><style>.a{fill:#747474;}</style></defs><g transform="translate(-1376.013 -81)"><path class="a" d="M1388.672,81.95h-1.26v-.6a.361.361,0,0,0-.358-.343h-.013a.366.366,0,0,0-.356.354v.584h-7.327v-.515c0-.258-.144-.429-.365-.429a.372.372,0,0,0-.371.374h0c0,.015,0,.032,0,.047v.526h-1.33a1.308,1.308,0,0,0-1.278,1.334V93.656a.609.609,0,0,0,0,.07,1.3,1.3,0,0,0,1.3,1.269h11.425a1.3,1.3,0,0,0,1.274-1.33V83.225a1.3,1.3,0,0,0-1.33-1.273Zm-10.142.855a.79.79,0,0,0-.35.933.84.84,0,0,0,.8.6h.006a.845.845,0,0,0,.8-.578.808.808,0,0,0-.343-.953.16.16,0,0,1-.1-.119h7.333c0,.054-.024.081-.094.118a.8.8,0,0,0-.343.933.84.84,0,0,0,.8.6.859.859,0,0,0,.809-.58.8.8,0,0,0-.344-.952.163.163,0,0,1-.1-.127h1.278a.3.3,0,0,1,.05,0,.575.575,0,0,1,.552.6v2.452h-12.543V83.25a.56.56,0,0,1,.51-.56c.343-.013.68-.009,1.034-.008h.33c0,.061-.022.087-.091.123Zm8.624.664V83.5a.091.091,0,0,1-.1.076.089.089,0,0,1-.076-.1v0a.091.091,0,0,1,.1-.077.092.092,0,0,1,.077.081Zm-8.272.027a.106.106,0,0,1,.106-.106h0a.11.11,0,0,1,.106.1V83.5a.112.112,0,0,1-.106.109.107.107,0,0,1-.106-.108Z" transform="translate(0 0.001)"/></g></svg>