<svg xmlns="http://www.w3.org/2000/svg" width="18" height="12" viewBox="0 0 18 12"><defs><style>.a{fill:#747474;}</style></defs><path class="a" d="M1381.8,140.551l-.5-1.965a.3.3,0,0,0,.239-.29v-.317a1.26,1.26,0,0,0-1.268-1.248h-2.278v-.654a.619.619,0,0,0-.624-.615h-11.595a.619.619,0,0,0-.624.615v8.88a.619.619,0,0,0,.624.615h1.631v.019a1.913,1.913,0,0,0,3.825,0v-.019h6.806v.019a1.913,1.913,0,0,0,3.825,0v-.019h.987a.3.3,0,0,0,.3-.3V142.1A1.575,1.575,0,0,0,1381.8,140.551Zm-12.466,6.321h-.015a1.372,1.372,0,1,1,.015,0Zm11.839-6.339H1378V138.59h2.684Zm-1.209,6.339h-.017a1.364,1.364,0,1,1,.017,0Zm2.583-3.8v0h-.344a.341.341,0,0,1-.342-.337v-.34h.685Z" transform="translate(-1365.152 -135.462)"/></svg>