<svg xmlns="http://www.w3.org/2000/svg" width="17" height="17" viewBox="0 0 17 17"><defs><style>.a{fill:#747474;}.b{fill:#fff;}</style></defs><g transform="translate(0)"><path class="a" d="M14.51,2.49A8.5,8.5,0,0,0,2.49,14.51,8.5,8.5,0,0,0,14.51,2.49Z" transform="translate(0 0)"/></g><g transform="translate(5.824 3.113)"><path class="b" d="M179.952,101.282h-1.085a1.121,1.121,0,1,1,0-2.241h2.169a.506.506,0,1,0,0-1.013h-1.121V96.907a.506.506,0,1,0-1.013,0v1.121h-.036a2.133,2.133,0,1,0,0,4.267h1.085a1.121,1.121,0,0,1,0,2.241h-2.169a.506.506,0,0,0,0,1.013H178.9v1.121a.506.506,0,1,0,1.013,0v-1.121h.036a2.133,2.133,0,0,0,0-4.267Z" transform="translate(-176.734 -96.401)"/></g></svg>