<svg xmlns="http://www.w3.org/2000/svg" xmlns:xlink="http://www.w3.org/1999/xlink" width="157" height="60" viewBox="0 0 157 60">
  <defs>
    <clipPath id="clip-path">
      <rect id="Rectangle_147642" data-name="Rectangle 147642" width="157" height="60" transform="translate(-10112 4748)" fill="#6b4c4c"/>
    </clipPath>
  </defs>
  <g id="ace-hardware" transform="translate(10112 -4748)" clip-path="url(#clip-path)">
    <g id="ace-hardware-2" data-name="ace-hardware" transform="translate(-8839.139 5541.484)">
      <path id="Path_8583" data-name="Path 8583" d="M-848.362-707.021c-.235.764-.421,1.513-.693,2.23a13.238,13.238,0,0,1-7.717,7.965,12.931,12.931,0,0,1-8.129.626,11.441,11.441,0,0,1-7.022-5.041A15.167,15.167,0,0,1-874.4-709.5a16.282,16.282,0,0,1,1.345-6.093,14.72,14.72,0,0,1,4.086-5.9,14.259,14.259,0,0,1,7.405-3.3,12.656,12.656,0,0,1,7.066.883,12.067,12.067,0,0,1,5.987,5.877A12.546,12.546,0,0,1-847.2-712.9c.013.329-.059.453-.421.449-1.67-.02-3.341-.009-5.011-.009h-.313c-.166-.667-.285-1.316-.489-1.937a6.817,6.817,0,0,0-6.555-4.825c-.282-.013-.359.106-.409.346q-.891,4.24-1.8,8.478-.836,3.927-1.675,7.854c-.1.493-.1.494.4.624a7.454,7.454,0,0,0,8.5-3.545c.267-.434.478-.9.74-1.34a.522.522,0,0,1,.347-.25c1.77-.015,3.54-.01,5.31-.008A1.676,1.676,0,0,1-848.362-707.021Z" transform="translate(-331.479 -57.728)" fill="#e73137"/>
      <path id="Path_8584" data-name="Path 8584" d="M-533.143-689.068h9.776c-.029.2-.041.343-.071.484-.307,1.462-.63,2.922-.916,4.388-.066.339-.182.442-.527.441-2.992-.013-5.984,0-8.976-.016-.342,0-.474.1-.539.432-.3,1.515-.625,3.024-.939,4.536-.023.108-.036.219-.063.384h9.818l-1.135,5.278h-19.764l5.628-26.577h19.762l-1.128,5.279h-.512c-2.955,0-5.909.006-8.864-.008-.339,0-.47.095-.538.434-.306,1.539-.645,3.071-.97,4.606C-533.12-689.313-533.125-689.216-533.143-689.068Z" transform="translate(-634.604 -81.079)" fill="#e73137"/>
      <path id="Path_8585" data-name="Path 8585" d="M-1040.39-787.322l6.119,33.133c-.177.013-.309.03-.441.03-3.3,0-6.607,0-9.911.01-.357,0-.457-.13-.516-.454q-1.222-6.708-2.467-13.411c-.386-2.094-.767-4.189-1.165-6.281a1.166,1.166,0,0,1,.192-.941q3.892-5.808,7.762-11.63c.109-.164.222-.325.333-.487Z" transform="translate(-170.319)" fill="#e73137"/>
      <path id="Path_8586" data-name="Path 8586" d="M-1221.77-569.822l3.169,16.893h-14.427Z" transform="translate(0 -200.822)" fill="#e73137"/>
      <path id="Path_8587" data-name="Path 8587" d="M-1205.663-296.013l.8-4.5h-3.786c-.143.758-.29,1.534-.435,2.311-.117.623-.227,1.248-.355,1.868-.021.1-.119.264-.184.266-.8.018-1.607.012-2.464.012.112-.625.212-1.2.317-1.767q.633-3.448,1.268-6.9c.113-.611.216-1.224.35-1.83a.4.4,0,0,1,.268-.256c.771-.021,1.543-.012,2.378-.012l-.75,4.176h3.8c.182-.976.358-1.926.535-2.876.066-.354.126-.709.21-1.058.02-.082.125-.2.193-.206.795-.014,1.59-.009,2.431-.009-.154.847-.3,1.663-.45,2.479q-.634,3.466-1.27,6.932c-.063.341-.161.678-.2,1.022-.028.271-.129.357-.4.351C-1204.133-296.024-1204.866-296.013-1205.663-296.013Z" transform="translate(-19.379 -443.78)" fill="#010202"/>
      <path id="Path_8588" data-name="Path 8588" d="M-707.82-265.239c.336-.691.675-1.382,1.008-2.075.394-.819.793-1.637,1.168-2.465a.487.487,0,0,1,.542-.326c.5.023.994.006,1.555.006-.161.343-.295.645-.441.94-1.089,2.2-2.188,4.392-3.264,6.6a.687.687,0,0,1-.756.475c-.569-.04-1.143-.01-1.771-.01l-.623-5.085c-.1.183-.159.277-.2.378-.621,1.441-1.248,2.879-1.851,4.328a.529.529,0,0,1-.609.387,12.987,12.987,0,0,0-1.458-.008c-.278.013-.367-.1-.405-.351q-.375-2.437-.766-4.872c-.145-.908-.3-1.815-.459-2.753h2.623l.665,4.76.083.016c.281-.656.565-1.311.842-1.969.358-.849.716-1.7,1.06-2.553a.381.381,0,0,1,.42-.275c.573.011,1.147.014,1.72-.009.278-.011.355.084.381.354.145,1.5.313,2.994.472,4.491Z" transform="translate(-477.855 -477.747)" fill="#010202"/>
      <path id="Path_8589" data-name="Path 8589" d="M-840.989-302.879c.212-1.162.434-2.323.628-3.488.051-.308.16-.414.479-.4.7.026,1.392.008,2.143.008-.139.764-.268,1.484-.4,2.2q-.675,3.693-1.352,7.385c-.036.2-.078.39-.119.585-.116.558-.116.559-.7.56s-1.143,0-1.771,0l.168-1.1c-.192.206-.306.33-.422.454a2.555,2.555,0,0,1-2.708.712,2.4,2.4,0,0,1-1.741-1.887,5.742,5.742,0,0,1,1.4-5.415,2.981,2.981,0,0,1,3.129-.805A2.114,2.114,0,0,1-840.989-302.879Zm-3.352,3.975a4.157,4.157,0,0,0,.045.491,1.054,1.054,0,0,0,1.558.791,1.942,1.942,0,0,0,.819-.822,6.958,6.958,0,0,0,.555-2.948,1.139,1.139,0,0,0-.751-1.072,1.1,1.1,0,0,0-1.193.184,2.337,2.337,0,0,0-.515.764A6.755,6.755,0,0,0-844.341-298.9Z" transform="translate(-356.934 -443.827)" fill="#010202"/>
      <path id="Path_8590" data-name="Path 8590" d="M-1055.344-263.728h-2.362v-1.228c-.066.088-.123.164-.181.24a3.346,3.346,0,0,1-3.945.942,2.141,2.141,0,0,1-.528-3.615,4.476,4.476,0,0,1,2.37-1.017c.835-.134,1.677-.221,2.519-.3a.39.39,0,0,0,.414-.37.973.973,0,0,0-1.045-1.3,1.753,1.753,0,0,0-1.727.953.469.469,0,0,1-.359.209c-.656-.047-1.311-.13-2.026-.207a3.252,3.252,0,0,1,1.308-1.7,5.647,5.647,0,0,1,3.635-.7,3.586,3.586,0,0,1,1.8.559,1.772,1.772,0,0,1,.9,1.726c-.124,1.049-.317,2.089-.457,3.136-.109.813-.182,1.63-.273,2.445C-1055.307-263.882-1055.327-263.812-1055.344-263.728Zm-2.014-3.861c-.285.022-.542.027-.8.063a3.755,3.755,0,0,0-1.791.574,1.2,1.2,0,0,0-.424,1.423,1,1,0,0,0,1.3.485,1.917,1.917,0,0,0,.651-.339A3.31,3.31,0,0,0-1057.358-267.59Z" transform="translate(-157.078 -476.13)" fill="#010202"/>
      <path id="Path_8591" data-name="Path 8591" d="M-546.867-265.1a3.206,3.206,0,0,1-3.709,1.356,2.046,2.046,0,0,1-1.673-1.625,2.164,2.164,0,0,1,.854-2.249,5.323,5.323,0,0,1,2.743-.982c.691-.087,1.386-.143,2.077-.229a.384.384,0,0,0,.279-.175c.22-.689.1-1.288-.723-1.46a1.8,1.8,0,0,0-1.984.933.439.439,0,0,1-.327.2c-.67-.048-1.337-.127-2.115-.207a10.113,10.113,0,0,1,.621-1,3.462,3.462,0,0,1,2-1.228,6.734,6.734,0,0,1,3.4.03,2.151,2.151,0,0,1,1.68,2.46c-.08.466-.133.937-.208,1.4-.164,1.02-.338,2.038-.5,3.058a1.813,1.813,0,0,0-.021.521c.05.369-.059.512-.459.484-.558-.04-1.121-.022-1.682-.013-.231,0-.313-.092-.3-.311C-546.895-264.426-546.886-264.711-546.867-265.1Zm.357-2.612c-.324.029-.6.036-.864.079a3.377,3.377,0,0,0-1.87.67,1.21,1.21,0,0,0-.274,1.373.987.987,0,0,0,1.191.453,2.259,2.259,0,0,0,.785-.4A3.51,3.51,0,0,0-546.51-267.714Z" transform="translate(-629.364 -476.017)" fill="#010202"/>
      <path id="Path_8592" data-name="Path 8592" d="M-328.932-267.088a4,4,0,0,1-3.223,2.523,5.38,5.38,0,0,1-2.184-.133,3.524,3.524,0,0,1-2.514-3.719,4.5,4.5,0,0,1,2.409-3.926,4.267,4.267,0,0,1,4.545.121,3.663,3.663,0,0,1,1.363,3.721c-.025.092-.233.19-.356.191-1.645.013-3.289.009-4.934.009h-.492a5.972,5.972,0,0,0,.125,1.209,1.523,1.523,0,0,0,2.242.719,1.232,1.232,0,0,0,.547-.486c.241-.605.661-.579,1.167-.461C-329.814-267.222-329.382-267.166-328.932-267.088Zm-5.082-2.584h3.1c.2-1.138-.421-1.855-1.473-1.734A1.874,1.874,0,0,0-334.014-269.671Z" transform="translate(-828.541 -475.127)" fill="#010202"/>
      <path id="Path_8593" data-name="Path 8593" d="M-932.926-263.619c.263-1.452.512-2.835.766-4.217.212-1.151.438-2.3.638-3.451.042-.242.115-.341.373-.335.694.016,1.388.006,2.133.006l-.256,1.54c.339-.414.641-.842,1-1.209a2.416,2.416,0,0,1,1.575-.461c-.092.759-.172,1.483-.28,2.2-.01.065-.195.145-.3.148a2.358,2.358,0,0,0-2.223,1.939c-.291,1.158-.5,2.336-.725,3.51-.046.242-.121.338-.375.333C-931.353-263.628-932.111-263.619-932.926-263.619Z" transform="translate(-277.465 -476.229)" fill="#010202"/>
      <path id="Path_8594" data-name="Path 8594" d="M-418.418-269.525c.526-.979,1.182-1.756,2.469-1.609-.075.7-.144,1.406-.234,2.106-.009.07-.143.162-.23.177a2.612,2.612,0,0,0-2.443,2.392c-.208,1.037-.394,2.079-.605,3.116-.021.1-.142.264-.219.266-.807.02-1.614.012-2.476.012.114-.63.219-1.212.325-1.794.355-1.947.715-3.893,1.061-5.842.048-.272.152-.372.435-.363.682.02,1.365.007,2.083.007l-.237,1.473Z" transform="translate(-749.626 -476.78)" fill="#010202"/>
      <path id="Path_8595" data-name="Path 8595" d="M-266.669-377.038a1.319,1.319,0,0,1-1.343-1.352,1.325,1.325,0,0,1,1.4-1.339,1.363,1.363,0,0,1,1.339,1.371A1.366,1.366,0,0,1-266.669-377.038Zm1.146-1.354a1.112,1.112,0,0,0-1.122-1.148,1.13,1.13,0,0,0-1.149,1.166,1.138,1.138,0,0,0,1.13,1.154A1.124,1.124,0,0,0-265.522-378.392Z" transform="translate(-892.238 -376.575)" fill="#e73137"/>
      <path id="Path_8596" data-name="Path 8596" d="M-255.936-371.2l.366.614-.109.08a4.37,4.37,0,0,0-.309-.424,3.37,3.37,0,0,0-.366-.307c-.043.139-.092.277-.129.419a.754.754,0,0,1-.087.269,4.57,4.57,0,0,1-.1-1.472c.566-.15.966-.081,1.07.173C-255.506-371.613-255.6-371.427-255.936-371.2Zm-.586-.289.116.13a5.087,5.087,0,0,0,.591-.193c.025-.011,0-.265-.046-.284a.744.744,0,0,0-.491-.069C-256.45-371.865-256.469-371.635-256.523-371.49Z" transform="translate(-902.722 -383.637)" fill="#e73137"/>
    </g>
  </g>
</svg>
