<svg xmlns="http://www.w3.org/2000/svg" width="230" height="29" viewBox="0 0 230 29"><defs><style>.a{fill:#064d7a;}</style></defs><g transform="translate(-0.265 -0.265)"><path class="a" d="M162.308.265c8.068.038,12.527,6.364,12.527,14.159,0,7.819-4.28,14.162-12.6,14.159h-.921c-8.319,0-12.6-6.34-12.6-14.159S153.2.265,161.312.265h1Zm-.219,5.768h-.446c-3.477,0-5.4,3.769-5.4,8.415s1.834,8.415,5.4,8.415h.4c3.566,0,5.4-3.769,5.4-8.415,0-4.617-1.842-8.362-5.273-8.415Zm42.978-2.317c.461,0,.866-.032.866-.59,0-.447-.4-.532-.777-.532h-.734V3.716Zm-.645,2.034h-.541V2.129h1.359c.843,0,1.261.316,1.261,1.028a.94.94,0,0,1-.927,1l1.016,1.592h-.6l-.944-1.569h-.619Zm.653.806a2.517,2.517,0,0,0,2.5-2.624,2.52,2.52,0,0,0-2.5-2.609,2.486,2.486,0,0,0-1.8.763,2.563,2.563,0,0,0-.715,1.846,2.521,2.521,0,0,0,2.519,2.624m-3.14-2.624a3.132,3.132,0,0,1,6.263,0,3.132,3.132,0,1,1-6.263,0M19.861,28.1v-10.7h9.89v-5.8h-9.89V6.521H30.229V.893h-18.2V28.1ZM50.655,22.08H39.328V17.115h9.89v-5.8h-9.89V6.524H50.036V.887H31.5v27.2H50.655Zm18.713-7.448a6.786,6.786,0,0,0,4.922-6.837C74.376,3.967,70.922.879,66.765.879H51.783V28.1h7.858V6.518h3.805c2.009,0,3.3.868,3.27,2.714-.029,2.191-1.261,2.928-3.27,2.954H59.773L67.7,28.025h8.641Z" transform="translate(22.066 0)"/><path class="a" d="M114.63,22.115V17.938h-5.169v-5.66H121.5V26.566c-3.267,1.863-9.319,2.249-12.312,2.112-8.456-.275-12.6-6.443-12.6-14.259S101.074.265,109.187.265h2.38c2.11,0,9.863.9,9.863,9.046h-7.14a3.919,3.919,0,0,0-4.412-3.479h-.4c-3.477,0-5.4,3.768-5.4,8.412s1.836,8.412,5.4,8.412a18.793,18.793,0,0,0,5.149-.54M204.669,9.48V28.1H198.2V.975H208l8.024,17.516V.975h6.527V28.1h-9.319ZM148.03,21.8a14.188,14.188,0,0,1-.216-2.626h7.143a5.278,5.278,0,0,0,.921,3.014,3.937,3.937,0,0,0,3.128,1.387c1.989,0,3.6-1.244,3.6-2.775,0-1.32-1.209-2.337-2.792-2.7q-2.77-.64-5.509-1.408c-2.245-.619-5.891-2.553-5.891-7.349,0-5.938,4.461-8.663,10.891-8.663,6.835,0,10.372,2.725,10.372,9.008h-7.345a9.522,9.522,0,0,1-.052-1.046,3.15,3.15,0,0,0-6.159,0,2.369,2.369,0,0,0,1.92,2.316c.57.161,2.694.751,6.145,1.773a8.349,8.349,0,0,1,6.171,7.793c0,4.825-2.849,8.736-11.219,8.739-7.751,0-10.318-3.242-11.109-7.465M134.782,28.78c10.813.05,11.858-4.483,11.883-13.955V.957h-7.437V14.174c-.02,5.4.043,8.333-4.447,8.342s-4.426-2.938-4.447-8.342V.957H122.9V14.825c.026,9.472,1.065,13.9,11.881,13.955M27.3.852a13.53,13.53,0,0,1-13.5,13.564V7.634A6.761,6.761,0,0,0,20.541.852ZM.265,27.977A13.55,13.55,0,0,1,13.792,14.413v6.782a6.779,6.779,0,0,0-6.766,6.782Z" transform="translate(0 0)"/><path class="a" d="M7.186,15.638a6.813,6.813,0,0,1,6.558-8.444V.492A13.5,13.5,0,0,0,.283,14.039a13.97,13.97,0,0,0,.092,1.6Zm6.561,11.95A13.52,13.52,0,0,0,27.23,14.039a13.283,13.283,0,0,0-.109-1.7h-6.8a7.019,7.019,0,0,1,.2,1.661,6.793,6.793,0,0,1-6.774,6.8Z" transform="translate(0.034 0.426)"/></g></svg>