<svg xmlns="http://www.w3.org/2000/svg" xmlns:xlink="http://www.w3.org/1999/xlink" width="209" height="80" viewBox="0 0 209 80"><defs><style>.a{fill:#6b4c4c;}.b{clip-path:url(#a);}.c{fill:#ed1c24;}.c,.d,.e{fill-rule:evenodd;}.e{fill:#fff;}</style><clipPath id="a"><rect class="a" width="209" height="80" transform="translate(-10112 4748)"/></clipPath></defs><g class="b" transform="translate(10112 -4748)"><g transform="translate(-10086.91 4765.446)"><path class="c" d="M121.637,45.109h44.51L166.126,0,121.637,0Z" transform="translate(-7.327)"/><path class="d" d="M56.145,37.579l0,0v-.008ZM0,.358v20.9H8.008V13.8h9.558V8.77H8.008V5.388h9.858V.358ZM37.5,15.087H27.679V.358H19.671v20.9H37.5ZM49.754,5.028c3.048,0,3.256,3.831,3.284,5.779-.028,2.242-.116,5.778-3.284,5.778-2.868,0-3.2-3.535-3.2-5.778,0-1.947.238-5.778,3.2-5.778m0,16.582c7.291,0,11.649-3.681,11.649-10.8C61.4,3.8,57.044,0,49.754,0S38.195,3.8,38.195,10.806c0,7.123,4.272,10.8,11.559,10.8M74.288,5.028c3.05,0,3.256,3.831,3.285,5.779-.028,2.242-.117,5.778-3.284,5.778-2.868,0-3.2-3.535-3.2-5.778,0-1.947.239-5.778,3.2-5.778m0,16.582c7.289,0,11.651-3.681,11.651-10.8C85.942,3.8,81.578,0,74.289,0S62.73,3.8,62.73,10.806c0,7.123,4.269,10.8,11.559,10.8M95.466,5.028h2.211c1.615,0,3.138.271,3.138,2.156,0,2.125-1.615,2.3-3.257,2.3H95.466V5.029Zm.358,9.128h1.794c.985,0,1.791.123,2.27,1.079.658,1.259.746,4.52,1.106,6.019h8.333c-.835-2.037-.747-5.27-1.97-7.484a5.017,5.017,0,0,0-3.524-2.248v-.056c2.986-.719,4.988-2.336,4.988-5.54,0-4.01-3.078-5.568-8.068-5.568H87.821v20.9h8v-7.1ZM8.276,39.5V28.66h1.972c2.866,0,3.586,1.856,3.586,5.448,0,3.471-.658,5.388-3.557,5.388h-2Zm13.919-5.18c0-8.469-4.21-10.5-10.183-10.5H.271V44.7H11.682C17.655,44.7,22.194,42.22,22.194,34.316ZM42.375,28.84V23.812H24.305V44.7H42.585V39.674H32.13V36.832h9.8V31.8h-9.8V28.84Z"/><path class="d" d="M59.084,46.565a22.706,22.706,0,0,0,5.736-.836V40.191A13.035,13.035,0,0,1,60.488,41c-3.313,0-5.7-1.828-5.7-5.418,0-3.411,2.566-5.237,5.974-5.237a13.4,13.4,0,0,1,4,.778V25.614a27.768,27.768,0,0,0-5.678-.66c-6.691,0-12.485,3.505-12.485,10.508,0,7.453,5.556,11.1,12.485,11.1m18.237-5.029c-2.87,0-3.2-3.532-3.2-5.774,0-1.948.242-5.78,3.2-5.78,3.045,0,3.255,3.831,3.284,5.78-.028,2.242-.12,5.774-3.284,5.774m0-16.583c-7.29,0-11.562,3.8-11.562,10.809,0,7.121,4.272,10.8,11.562,10.8s11.648-3.682,11.648-10.8c0-7.008-4.362-10.809-11.648-10.809M98.5,34.446V29.985h2.208c1.615,0,3.136.27,3.136,2.155,0,2.124-1.612,2.306-3.255,2.306Zm4.419,5.746c.659,1.256.748,4.52,1.106,6.014h8.333c-.835-2.032-.745-5.266-1.971-7.482a5.008,5.008,0,0,0-3.525-2.244V36.42c2.988-.72,4.989-2.335,4.989-5.539,0-4.009-3.077-5.566-8.065-5.566H90.849V46.206h8.007V39.113h1.791c.984,0,1.792.119,2.27,1.078Z" transform="translate(-2.807 -1.503)"/><path class="e" d="M127.833,34.617c-1.306-8.225,7.922-12.317,7.922-12.317,6.1,11.484,10.16,15.8,10.16,15.8-6.57,5.984-16.664,5.5-18.081-3.481m9.5-26.874a5.848,5.848,0,0,1,6.383-5.686,5.631,5.631,0,0,1,4.59,6.871c-.993,5.217-8.046,8.3-8.046,8.3s-3.178-6.942-2.926-9.49m28.8,10.017V16.229H152.37v1.564s4.551-.752,4.464,3.426c-.1,4.667-5.825,11.143-6.323,11.7-1.04-1.266-2.168-2.735-3.406-4.454a93.032,93.032,0,0,1-5.761-9.259s7.8-3.233,9.839-7.558c1.823-3.859,1.492-9.125-5.333-11.643h-7.18c-2.551,1.068-5.295,3.138-6.264,6.221-1.737,5.5.882,11.343,2.2,13.411-2.137,1.252-9.957,5.344-12.972,10.742v9.166a9.846,9.846,0,0,0,5.756,5.562l.011.006H138.18c.723-.174,1.456-.336,2.2-.565a20.172,20.172,0,0,0,7.574-4.725l.047.157a43.033,43.033,0,0,0,6.715,5.132h8.947a15.049,15.049,0,0,0,2.483-1.3l0-3.618a4.88,4.88,0,0,1-3.862.822c-2.3-.325-4.93-.48-9.938-5.972a85.873,85.873,0,0,0,8.439-13.279,8.165,8.165,0,0,1,5.35-4" transform="translate(-7.327 0)"/></g></g></svg>