<svg xmlns="http://www.w3.org/2000/svg" width="213" height="47" viewBox="0 0 213 47"><defs><style>.a{fill:#ed1c24;}</style></defs><g transform="translate(-2021.888 -743.843)"><g transform="translate(2022.464 777.474)"><path class="a" d="M2156.733,868h164.8l-1.366,13.368H2154Z" transform="translate(-2118.533 -868)"/><path class="a" d="M2126.728,868h6.821l-2.728,13.368H2124Z" transform="translate(-2096.718 -868)"/><path class="a" d="M2101.728,868h4.911l-2.728,13.368H2099Z" transform="translate(-2078.538 -868)"/><path class="a" d="M2076.909,868H2081l-1.91,13.368H2075Z" transform="translate(-2061.086 -868)"/><path class="a" d="M2052.91,868h3L2054,881.368h-3Z" transform="translate(-2043.634 -868)"/><path class="a" d="M2025.91,868h3L2027,881.368h-3Z" transform="translate(-2024 -868)"/></g><g transform="translate(2228.613 767.19)"><g transform="translate(0 0)"><path d="M2781.662,836.2a3.137,3.137,0,1,1,3.138-3.137A3.141,3.141,0,0,1,2781.662,836.2Zm0-6a2.865,2.865,0,1,0,2.865,2.865A2.868,2.868,0,0,0,2781.662,830.2Z" transform="translate(-2778.525 -829.925)"/></g><g transform="translate(2.114 1.555)"><path d="M2786.274,835.689a4.712,4.712,0,0,1,.778-.065,1.3,1.3,0,0,1,.909.256.8.8,0,0,1,.247.6.825.825,0,0,1-.587.8v.014a.788.788,0,0,1,.457.634,5.073,5.073,0,0,0,.242.863h-.419a3.888,3.888,0,0,1-.205-.751c-.093-.434-.266-.6-.634-.611h-.383v1.361h-.405Zm.405,1.432h.416c.433,0,.708-.238.708-.6,0-.406-.293-.583-.722-.583a1.782,1.782,0,0,0-.4.032Z" transform="translate(-2786.274 -835.624)"/></g></g><path d="M2185.9,775.855h-24.5c.181-2.124.357-4.183.543-6.364l2.352-.166c-.087-.73-.164-1.385-.259-2.185-2.293,0-4.567-.13-6.807.086-.6.058-1.105,1.169-1.884,2.061l2.423.2-1.344,6.356c-.415.024-.809.066-1.2.066-5.091,0-10.182-.024-15.273.027a1.822,1.822,0,0,1-1.88-1.141c-1.6-3-3.294-5.943-5.256-8.893-.164,1.107-.328,2.214-.507,3.42l1.763.164-.976,6.341h-12.113q.557-3.2,1.087-6.247c.188-.078.279-.153.353-.14,1.634.3,2.114-.477,2.32-2.021.624-4.678,1.425-9.332,2.178-14.135l-2.241-.119c.333-2.085.651-4.072.987-6.172,4.508,0,8.955-.012,13.4.01a14.1,14.1,0,0,1,2.7.229c6.217,1.255,8.7,7.209,5.262,12.532a12.111,12.111,0,0,1-5.626,4.573c.845,1.539,1.665,3.081,2.549,4.586a1.279,1.279,0,0,0,.874.467c2.716.3,2.81.262,4.054-2.151,2.246-4.357,4.465-8.727,6.691-13.093.121-.236.21-.489.355-.831l-1.955-.181,1.085-6.142h13.652c1.289,7.456,2.569,14.862,3.861,22.337h4.078c.842-5.318,1.681-10.626,2.536-16.029l-2.158-.156.99-6.092h12.642c-.338,2.073-.663,4.061-.994,6.1l-2.215.147c-.84,5.307-1.677,10.588-2.534,16l2.069.215C2186.619,771.633,2186.269,773.687,2185.9,775.855Zm-52.146-16.24c.9.056,1.658.163,2.412.137a4.337,4.337,0,0,0,3.929-1.989c1.108-1.847.481-3.715-1.6-4.248a23.831,23.831,0,0,0-3.751-.369C2134.395,755.427,2134.082,757.463,2133.752,759.615Zm29.065-4.6-.291-.051-2.538,5.885h3.322C2163.14,758.838,2162.979,756.928,2162.817,755.019Z" transform="translate(-72.056 -2.287)"/><path d="M2391.813,775.914c-1.959,0-3.911.053-5.855-.046-.38-.019-.861-.559-1.072-.973-2.293-4.485-4.541-8.994-6.8-13.5-.2-.395-.419-.778-.821-1.522l-1.423,9.435,2.07.2c-.341,2.167-.67,4.252-1,6.359h-12.442c.279-2.016.526-3.973.85-5.917.036-.217.487-.476.774-.517a13.674,13.674,0,0,1,1.842-.024c.885-5.391,1.751-10.669,2.646-16.118l-2.445-.129c.307-2.076.6-4.066.913-6.167,3.249,0,6.423-.029,9.6.043.337.008.768.55.974.94,2.119,4.013,4.2,8.046,6.3,12.073.122.235.262.46.594,1.036.448-2.776.841-5.2,1.25-7.735l-2.062-.254c.268-1.865.5-3.661.806-5.446a.956.956,0,0,1,.66-.629c3.853-.039,7.706-.028,11.708-.028-.321,2.145-.619,4.145-.912,6.1-2.378.285-2.354.289-2.77,2.853q-1.527,9.41-3.1,18.813C2392.026,775.124,2391.92,775.468,2391.813,775.914Z" transform="translate(-248.957 -2.292)"/><path d="M2499.6,763.268h-7.41c.3-1.965.589-3.823.887-5.752h15.871l-2.635,16.057h-5.854v-1.579c-2.124.532-4.252,1.237-6.437,1.579-6.039.947-13.208-4.922-13.611-11.346-.534-8.514,4.227-15.962,11.991-17.847a13.281,13.281,0,0,1,11.03,1.741c.168-1.339,1.043-1.47,2.152-1.4,1.262.085,2.534.02,4.021.02l-1.478,9.864c-2.143,0-4.223.021-6.3-.026a1.1,1.1,0,0,1-.778-.571c-1.823-4.027-8.28-3.636-10.661-.38a10.178,10.178,0,0,0-1.909,8.5,5.829,5.829,0,0,0,11.122,1.138Z" transform="translate(-333.198 -0.04)"/><path d="M2041.2,763.254h-7.535c.286-1.833.533-3.533.837-5.223.042-.234.366-.6.561-.6,5.074-.033,10.148-.026,15.393-.026-.874,5.505-1.718,10.823-2.566,16.17H2041.8l.339-2.233-1.142.61c-9.254,4.961-19.23-2.346-19.112-11.093.1-7.73,4.129-13.992,10.757-16.207a14.845,14.845,0,0,1,10.269.219,17.948,17.948,0,0,1,2,1.073l.6-1.2h5.613c-.5,3.134-.978,6.2-1.523,9.258-.042.234-.577.53-.891.54q-2.589.079-5.181,0a1.183,1.183,0,0,1-.912-.521c-1.389-3.829-8.111-4.25-11-.211a9.706,9.706,0,0,0-1.558,8.293,5.642,5.642,0,0,0,4.928,4.628C2037.66,766.974,2039.61,765.743,2041.2,763.254Z" transform="translate(0 0)"/><path d="M2683.649,765.48c-.208,1.477-.365,2.588-.536,3.8l1.785.222c-.326,2.116-.646,4.2-.976,6.332h-12.1c.369-2.156.729-4.261,1.091-6.375l2.3-.126c.816-5.34,1.627-10.652,2.451-16.047l-2.161-.15,1.09-6.155c4.708,0,9.338-.028,13.966.023a10.38,10.38,0,0,1,2.933.5c5.061,1.58,7.157,6.4,4.885,11.194a11.112,11.112,0,0,1-6.215,5.679c.9,1.568,1.74,3.108,2.667,4.595a1.465,1.465,0,0,0,1.04.408c.945.056,1.9.019,3.013.019-.374,2.213-.726,4.294-1.1,6.5-2.624,0-5.205.034-7.784-.039-.353-.01-.807-.483-1.018-.853C2687.249,771.972,2685.562,768.913,2683.649,765.48Zm2.1-12c-.332,2.146-.64,4.134-.989,6.381a27.792,27.792,0,0,0,4.2-.35,3.633,3.633,0,0,0,2.594-3.964c-.167-1.316-1.286-2.013-3.346-2.064C2687.44,753.469,2686.676,753.484,2685.748,753.484Z" transform="translate(-472.322 -2.275)"/><path d="M2599.707,764.609c-1.845,0-3.568.025-5.29-.011-.769-.016-1.154.2-1.236,1.04-.126,1.3-.383,2.587-.6,3.978h5.548a24.172,24.172,0,0,1,.557-2.707,1.339,1.339,0,0,1,.918-.808c2.082-.073,4.167-.037,6.428-.037l-1.544,10.051h-23.209l.985-6.34,2.584-.142c.876-5.335,1.748-10.646,2.635-16.042l-2.525-.156c.325-2.036.636-3.99.965-6.046h22.584c-.452,2.953-.9,5.887-1.358,8.876h-7.109c.094-.9.18-1.733.286-2.747-1.508,0-2.95-.037-4.388.033a1.1,1.1,0,0,0-.756.7c-.252,1.051-.386,2.132-.588,3.344h6.1C2600.357,759.966,2600.046,762.187,2599.707,764.609Z" transform="translate(-406.532 -2.577)"/></g></svg>