<svg xmlns="http://www.w3.org/2000/svg" xmlns:xlink="http://www.w3.org/1999/xlink" width="157" height="60" viewBox="0 0 157 60">
  <defs>
    <clipPath id="clip-path">
      <rect id="Rectangle_147641" data-name="Rectangle 147641" width="157" height="60" transform="translate(-9888 4748)" fill="#6b4c4c"/>
    </clipPath>
  </defs>
  <g id="lowe_s" data-name="lowe&apos;s" transform="translate(9888 -4748)" clip-path="url(#clip-path)">
    <g id="lowe_s-2" data-name="lowe&apos;s" transform="translate(-8066.463 4738.892)">
      <rect id="Rectangle_147640" data-name="Rectangle 147640" width="86.481" height="26.555" transform="translate(-1783.933 33.405)" fill="#fff"/>
      <path id="Path_8579" data-name="Path 8579" d="M-1793.537,62.863V31.988c.162-.008.312-.023.463-.023,2.407,0,4.814-.008,7.222.007.36,0,.478-.1.472-.466-.02-1.255,0-2.51-.014-3.765,0-.318.089-.407.405-.406q7.743.015,15.485,0a1.8,1.8,0,0,0,.692-.135q6.091-2.625,12.174-5.268,6.613-2.867,13.223-5.74a.854.854,0,0,1,.747,0q5.29,2.305,10.586,4.593l11.774,5.1c.99.429,1.975.868,2.971,1.28a2.144,2.144,0,0,0,.795.16q7.653.014,15.306.007h.5c.01.172.025.312.026.451,0,1.255.01,2.511-.005,3.765,0,.319.1.413.413.412,2.431-.011,4.862,0,7.293-.014.349,0,.469.069.469.453q-.017,15.008-.01,30.016c0,.141-.016.282-.025.438Zm52.585-10.29c-.008-.172-.02-.325-.02-.478q0-6.174,0-12.348c0-.484,0-.485-.462-.485h-3.234c-.46,0-.461,0-.461.481q0,6.174,0,12.348v.477h-2.711v-.451q0-6.228.007-12.457c0-.316-.079-.411-.4-.407q-1.94.027-3.88,0c-.354-.006-.434.111-.433.451q.015,7.3.008,14.593a2.273,2.273,0,0,0,2.419,2.447c1.665,0,3.33-.014,4.995.007a1.971,1.971,0,0,0,2.06-1.184,1.977,1.977,0,0,0,2.058,1.178c1.713,0,3.426.006,5.138,0a2.257,2.257,0,0,0,2.31-2.306c.008-4.937,0-9.874.009-14.811,0-.284-.084-.373-.37-.37-1.293.014-2.587.006-3.881.006-.482,0-.483,0-.483.5q0,6.156,0,12.312c0,.163-.015.327-.024.5ZM-1755.1,48.02q0-3.149,0-6.3a2.24,2.24,0,0,0-2.427-2.46q-4.273,0-8.547,0a2.245,2.245,0,0,0-2.419,2.436q0,6.3,0,12.595a2.279,2.279,0,0,0,2.45,2.452q4.238,0,8.476,0a2.27,2.27,0,0,0,2.469-2.5Q-1755.093,51.133-1755.1,48.02Zm28.815-2.013c0-.749.019-1.436-.008-2.121-.014-.356.072-.473.45-.469,1.844.022,3.688,0,5.532.015.294,0,.4-.087.393-.391q-.021-1.7,0-3.4c0-.311-.107-.382-.4-.381q-5.155.012-10.31,0c-.292,0-.391.076-.39.382q.012,8.363,0,16.726c0,.307.1.386.393.385q5.155-.012,10.31,0c.3,0,.395-.092.391-.393-.014-1.11-.018-2.221,0-3.331.006-.352-.105-.449-.448-.446-1.82.015-3.64.007-5.46.007h-.46c0-.755.016-1.465-.007-2.173-.01-.317.077-.41.4-.407,1.856.016,3.712,0,5.568.014.316,0,.413-.095.408-.412-.017-1.062-.019-2.124,0-3.186.006-.343-.113-.426-.435-.424-1.82.013-3.64.006-5.461.006Zm22.494-1.485a1.289,1.289,0,0,0,.042-.21c0-1.134.01-2.269-.008-3.4a.487.487,0,0,0-.235-.352c-1.022-.5-2.028-1.043-3.089-1.437a7.1,7.1,0,0,0-6.085.3,5.244,5.244,0,0,0-1.8,7.679,6.679,6.679,0,0,0,2.229,1.9c1.21.633,2.453,1.2,3.658,1.844a2.881,2.881,0,0,1,.932.816,1.149,1.149,0,0,1-.443,1.77,2.127,2.127,0,0,1-1.6.2c-1.635-.456-3.258-.96-4.885-1.445-.155-.046-.308-.1-.475-.153a.95.95,0,0,0-.044.179c0,1.267,0,2.534-.008,3.8,0,.255.165.3.338.341.833.218,1.663.456,2.5.639a15.108,15.108,0,0,0,4.99.388,4.5,4.5,0,0,0,2.467-.9,5.491,5.491,0,0,0,2.066-4.141,5.271,5.271,0,0,0-2.226-4.4,15.678,15.678,0,0,0-3.581-1.967,6.813,6.813,0,0,1-1.735-1.052,1.127,1.127,0,0,1,.333-1.964,1.469,1.469,0,0,1,.685-.186,8.514,8.514,0,0,1,2.05.241c1.2.386,2.366.91,3.547,1.375C-1704.051,44.436-1703.93,44.473-1703.787,44.522Zm-73.632,8.072v-.566q0-8.018,0-16.037c0-.483,0-.484-.465-.484h-3.736c-.506,0-.507,0-.507.514q0,8.145,0,16.29c0,1.351,0,2.7,0,4.054,0,.263.054.387.358.386q5.568-.015,11.135,0c.281,0,.376-.085.373-.373-.013-1.122-.017-2.245,0-3.366.006-.341-.108-.426-.432-.424-2.083.013-4.167.007-6.25.007Zm62.368-17.04a.964.964,0,0,0-.176-.042c-1.161,0-2.321,0-3.481-.007-.262,0-.283.14-.283.344,0,1.471.006,2.942,0,4.413,0,.24.057.346.319.342q1.328-.017,2.656.006c.248,0,.33-.092.36-.327.131-1.04.279-2.078.416-3.117C-1715.173,36.632-1715.115,36.1-1715.051,35.554Zm13.458,5.909a1.507,1.507,0,0,0,1.452-1.493,1.48,1.48,0,0,0-1.471-1.431,1.46,1.46,0,0,0-1.465,1.468A1.483,1.483,0,0,0-1701.593,41.463Z" transform="translate(0 0)" fill="#004990"/>
      <path id="Path_8580" data-name="Path 8580" d="M-1375.7,393.269v8.966c-.12.008-.225.021-.329.021-1.081,0-2.162-.006-3.243.006-.265,0-.373-.053-.372-.352q.018-4.152,0-8.3c0-.277.074-.369.361-.365,1.093.016,2.186.006,3.279.007C-1375.906,393.248-1375.813,393.26-1375.7,393.269Z" transform="translate(-384.143 -349.722)" fill="#004990"/>
      <path id="Path_8581" data-name="Path 8581" d="M-527.868,332.228a1.02,1.02,0,0,1-1.3.068,1.146,1.146,0,0,1-.4-1.3,1.041,1.041,0,0,1,1.012-.749,1.052,1.052,0,0,1,1.046.754,1.1,1.1,0,0,1-.364,1.238l-.309-.733c.367-.295.463-.682.155-.827a2.967,2.967,0,0,0-.989-.135c-.029,0-.1.106-.1.163-.008.439-.011.879,0,1.317,0,.063.106.122.163.183.052-.065.139-.125.15-.2a3.276,3.276,0,0,0,.007-.475l.131-.051a4.1,4.1,0,0,1,.328.436C-528.228,332.11-528.107,332.251-527.868,332.228Z" transform="translate(-1173.006 -291.369)"/>
      <path id="Path_8582" data-name="Path 8582" d="M-517.641,338.254v-.492a4.244,4.244,0,0,1,.509.118c.028.01.037.2.014.21A4.792,4.792,0,0,1-517.641,338.254Z" transform="translate(-1184.14 -298.354)"/>
    </g>
  </g>
</svg>
